%TF.GenerationSoftware,KiCad,Pcbnew,5.1.12-1.fc35*%
%TF.CreationDate,2021-12-21T00:05:04+01:00*%
%TF.ProjectId,smartmeterreader,736d6172-746d-4657-9465-727265616465,rev?*%
%TF.SameCoordinates,Original*%
%TF.FileFunction,Legend,Bot*%
%TF.FilePolarity,Positive*%
%FSLAX46Y46*%
G04 Gerber Fmt 4.6, Leading zero omitted, Abs format (unit mm)*
G04 Created by KiCad (PCBNEW 5.1.12-1.fc35) date 2021-12-21 00:05:04*
%MOMM*%
%LPD*%
G01*
G04 APERTURE LIST*
%ADD10C,0.150000*%
%ADD11C,0.100000*%
%ADD12C,0.010000*%
%ADD13C,0.120000*%
G04 APERTURE END LIST*
D10*
X166833333Y-84452380D02*
X166833333Y-83452380D01*
X166833333Y-83928571D02*
X166261904Y-83928571D01*
X166261904Y-84452380D02*
X166261904Y-83452380D01*
X165357142Y-83785714D02*
X165357142Y-84452380D01*
X165785714Y-83785714D02*
X165785714Y-84309523D01*
X165738095Y-84404761D01*
X165642857Y-84452380D01*
X165500000Y-84452380D01*
X165404761Y-84404761D01*
X165357142Y-84357142D01*
X164880952Y-84452380D02*
X164880952Y-83785714D01*
X164880952Y-83880952D02*
X164833333Y-83833333D01*
X164738095Y-83785714D01*
X164595238Y-83785714D01*
X164500000Y-83833333D01*
X164452380Y-83928571D01*
X164452380Y-84452380D01*
X164452380Y-83928571D02*
X164404761Y-83833333D01*
X164309523Y-83785714D01*
X164166666Y-83785714D01*
X164071428Y-83833333D01*
X164023809Y-83928571D01*
X164023809Y-84452380D01*
X163547619Y-84452380D02*
X163547619Y-83785714D01*
X163547619Y-83452380D02*
X163595238Y-83500000D01*
X163547619Y-83547619D01*
X163500000Y-83500000D01*
X163547619Y-83452380D01*
X163547619Y-83547619D01*
X162642857Y-84452380D02*
X162642857Y-83452380D01*
X162642857Y-84404761D02*
X162738095Y-84452380D01*
X162928571Y-84452380D01*
X163023809Y-84404761D01*
X163071428Y-84357142D01*
X163119047Y-84261904D01*
X163119047Y-83976190D01*
X163071428Y-83880952D01*
X163023809Y-83833333D01*
X162928571Y-83785714D01*
X162738095Y-83785714D01*
X162642857Y-83833333D01*
X162166666Y-84452380D02*
X162166666Y-83785714D01*
X162166666Y-83452380D02*
X162214285Y-83500000D01*
X162166666Y-83547619D01*
X162119047Y-83500000D01*
X162166666Y-83452380D01*
X162166666Y-83547619D01*
X161833333Y-83785714D02*
X161452380Y-83785714D01*
X161690476Y-83452380D02*
X161690476Y-84309523D01*
X161642857Y-84404761D01*
X161547619Y-84452380D01*
X161452380Y-84452380D01*
X161214285Y-83785714D02*
X160976190Y-84452380D01*
X160738095Y-83785714D02*
X160976190Y-84452380D01*
X161071428Y-84690476D01*
X161119047Y-84738095D01*
X161214285Y-84785714D01*
X159642857Y-84404761D02*
X159547619Y-84452380D01*
X159357142Y-84452380D01*
X159261904Y-84404761D01*
X159214285Y-84309523D01*
X159214285Y-84261904D01*
X159261904Y-84166666D01*
X159357142Y-84119047D01*
X159500000Y-84119047D01*
X159595238Y-84071428D01*
X159642857Y-83976190D01*
X159642857Y-83928571D01*
X159595238Y-83833333D01*
X159500000Y-83785714D01*
X159357142Y-83785714D01*
X159261904Y-83833333D01*
X158404761Y-84404761D02*
X158500000Y-84452380D01*
X158690476Y-84452380D01*
X158785714Y-84404761D01*
X158833333Y-84309523D01*
X158833333Y-83928571D01*
X158785714Y-83833333D01*
X158690476Y-83785714D01*
X158500000Y-83785714D01*
X158404761Y-83833333D01*
X158357142Y-83928571D01*
X158357142Y-84023809D01*
X158833333Y-84119047D01*
X157928571Y-83785714D02*
X157928571Y-84452380D01*
X157928571Y-83880952D02*
X157880952Y-83833333D01*
X157785714Y-83785714D01*
X157642857Y-83785714D01*
X157547619Y-83833333D01*
X157500000Y-83928571D01*
X157500000Y-84452380D01*
X157071428Y-84404761D02*
X156976190Y-84452380D01*
X156785714Y-84452380D01*
X156690476Y-84404761D01*
X156642857Y-84309523D01*
X156642857Y-84261904D01*
X156690476Y-84166666D01*
X156785714Y-84119047D01*
X156928571Y-84119047D01*
X157023809Y-84071428D01*
X157071428Y-83976190D01*
X157071428Y-83928571D01*
X157023809Y-83833333D01*
X156928571Y-83785714D01*
X156785714Y-83785714D01*
X156690476Y-83833333D01*
X156071428Y-84452380D02*
X156166666Y-84404761D01*
X156214285Y-84357142D01*
X156261904Y-84261904D01*
X156261904Y-83976190D01*
X156214285Y-83880952D01*
X156166666Y-83833333D01*
X156071428Y-83785714D01*
X155928571Y-83785714D01*
X155833333Y-83833333D01*
X155785714Y-83880952D01*
X155738095Y-83976190D01*
X155738095Y-84261904D01*
X155785714Y-84357142D01*
X155833333Y-84404761D01*
X155928571Y-84452380D01*
X156071428Y-84452380D01*
X155309523Y-84452380D02*
X155309523Y-83785714D01*
X155309523Y-83976190D02*
X155261904Y-83880952D01*
X155214285Y-83833333D01*
X155119047Y-83785714D01*
X155023809Y-83785714D01*
X144212023Y-81161904D02*
X144212023Y-80361904D01*
X143831071Y-80628571D02*
X143831071Y-81161904D01*
X143831071Y-80704761D02*
X143792976Y-80666666D01*
X143716785Y-80628571D01*
X143602500Y-80628571D01*
X143526309Y-80666666D01*
X143488214Y-80742857D01*
X143488214Y-81161904D01*
X142612023Y-80628571D02*
X142307261Y-80628571D01*
X142497738Y-80361904D02*
X142497738Y-81047619D01*
X142459642Y-81123809D01*
X142383452Y-81161904D01*
X142307261Y-81161904D01*
X142040595Y-81161904D02*
X142040595Y-80361904D01*
X141697738Y-81161904D02*
X141697738Y-80742857D01*
X141735833Y-80666666D01*
X141812023Y-80628571D01*
X141926309Y-80628571D01*
X142002500Y-80666666D01*
X142040595Y-80704761D01*
X141012023Y-81123809D02*
X141088214Y-81161904D01*
X141240595Y-81161904D01*
X141316785Y-81123809D01*
X141354880Y-81047619D01*
X141354880Y-80742857D01*
X141316785Y-80666666D01*
X141240595Y-80628571D01*
X141088214Y-80628571D01*
X141012023Y-80666666D01*
X140973928Y-80742857D01*
X140973928Y-80819047D01*
X141354880Y-80895238D01*
X139678690Y-81123809D02*
X139754880Y-81161904D01*
X139907261Y-81161904D01*
X139983452Y-81123809D01*
X140021547Y-81085714D01*
X140059642Y-81009523D01*
X140059642Y-80780952D01*
X140021547Y-80704761D01*
X139983452Y-80666666D01*
X139907261Y-80628571D01*
X139754880Y-80628571D01*
X139678690Y-80666666D01*
X138992976Y-81161904D02*
X138992976Y-80742857D01*
X139031071Y-80666666D01*
X139107261Y-80628571D01*
X139259642Y-80628571D01*
X139335833Y-80666666D01*
X138992976Y-81123809D02*
X139069166Y-81161904D01*
X139259642Y-81161904D01*
X139335833Y-81123809D01*
X139373928Y-81047619D01*
X139373928Y-80971428D01*
X139335833Y-80895238D01*
X139259642Y-80857142D01*
X139069166Y-80857142D01*
X138992976Y-80819047D01*
X138650119Y-81123809D02*
X138573928Y-81161904D01*
X138421547Y-81161904D01*
X138345357Y-81123809D01*
X138307261Y-81047619D01*
X138307261Y-81009523D01*
X138345357Y-80933333D01*
X138421547Y-80895238D01*
X138535833Y-80895238D01*
X138612023Y-80857142D01*
X138650119Y-80780952D01*
X138650119Y-80742857D01*
X138612023Y-80666666D01*
X138535833Y-80628571D01*
X138421547Y-80628571D01*
X138345357Y-80666666D01*
X137659642Y-81123809D02*
X137735833Y-81161904D01*
X137888214Y-81161904D01*
X137964404Y-81123809D01*
X138002500Y-81047619D01*
X138002500Y-80742857D01*
X137964404Y-80666666D01*
X137888214Y-80628571D01*
X137735833Y-80628571D01*
X137659642Y-80666666D01*
X137621547Y-80742857D01*
X137621547Y-80819047D01*
X138002500Y-80895238D01*
X136669166Y-80361904D02*
X136669166Y-81009523D01*
X136631071Y-81085714D01*
X136592976Y-81123809D01*
X136516785Y-81161904D01*
X136364404Y-81161904D01*
X136288214Y-81123809D01*
X136250119Y-81085714D01*
X136212023Y-81009523D01*
X136212023Y-80361904D01*
X135869166Y-81123809D02*
X135754880Y-81161904D01*
X135564404Y-81161904D01*
X135488214Y-81123809D01*
X135450119Y-81085714D01*
X135412023Y-81009523D01*
X135412023Y-80933333D01*
X135450119Y-80857142D01*
X135488214Y-80819047D01*
X135564404Y-80780952D01*
X135716785Y-80742857D01*
X135792976Y-80704761D01*
X135831071Y-80666666D01*
X135869166Y-80590476D01*
X135869166Y-80514285D01*
X135831071Y-80438095D01*
X135792976Y-80400000D01*
X135716785Y-80361904D01*
X135526309Y-80361904D01*
X135412023Y-80400000D01*
X134802500Y-80742857D02*
X134688214Y-80780952D01*
X134650119Y-80819047D01*
X134612023Y-80895238D01*
X134612023Y-81009523D01*
X134650119Y-81085714D01*
X134688214Y-81123809D01*
X134764404Y-81161904D01*
X135069166Y-81161904D01*
X135069166Y-80361904D01*
X134802500Y-80361904D01*
X134726309Y-80400000D01*
X134688214Y-80438095D01*
X134650119Y-80514285D01*
X134650119Y-80590476D01*
X134688214Y-80666666D01*
X134726309Y-80704761D01*
X134802500Y-80742857D01*
X135069166Y-80742857D01*
X133697738Y-80323809D02*
X134383452Y-81352380D01*
X133431071Y-80361904D02*
X133431071Y-81009523D01*
X133392976Y-81085714D01*
X133354880Y-81123809D01*
X133278690Y-81161904D01*
X133126309Y-81161904D01*
X133050119Y-81123809D01*
X133012023Y-81085714D01*
X132973928Y-81009523D01*
X132973928Y-80361904D01*
X132631071Y-80933333D02*
X132250119Y-80933333D01*
X132707261Y-81161904D02*
X132440595Y-80361904D01*
X132173928Y-81161904D01*
X131450119Y-81161904D02*
X131716785Y-80780952D01*
X131907261Y-81161904D02*
X131907261Y-80361904D01*
X131602500Y-80361904D01*
X131526309Y-80400000D01*
X131488214Y-80438095D01*
X131450119Y-80514285D01*
X131450119Y-80628571D01*
X131488214Y-80704761D01*
X131526309Y-80742857D01*
X131602500Y-80780952D01*
X131907261Y-80780952D01*
X131221547Y-80361904D02*
X130764404Y-80361904D01*
X130992976Y-81161904D02*
X130992976Y-80361904D01*
X144212023Y-82511904D02*
X144212023Y-81978571D01*
X144212023Y-81711904D02*
X144250119Y-81750000D01*
X144212023Y-81788095D01*
X144173928Y-81750000D01*
X144212023Y-81711904D01*
X144212023Y-81788095D01*
X143869166Y-82473809D02*
X143792976Y-82511904D01*
X143640595Y-82511904D01*
X143564404Y-82473809D01*
X143526309Y-82397619D01*
X143526309Y-82359523D01*
X143564404Y-82283333D01*
X143640595Y-82245238D01*
X143754880Y-82245238D01*
X143831071Y-82207142D01*
X143869166Y-82130952D01*
X143869166Y-82092857D01*
X143831071Y-82016666D01*
X143754880Y-81978571D01*
X143640595Y-81978571D01*
X143564404Y-82016666D01*
X142573928Y-81978571D02*
X142573928Y-82511904D01*
X142573928Y-82054761D02*
X142535833Y-82016666D01*
X142459642Y-81978571D01*
X142345357Y-81978571D01*
X142269166Y-82016666D01*
X142231071Y-82092857D01*
X142231071Y-82511904D01*
X141735833Y-82511904D02*
X141812023Y-82473809D01*
X141850119Y-82435714D01*
X141888214Y-82359523D01*
X141888214Y-82130952D01*
X141850119Y-82054761D01*
X141812023Y-82016666D01*
X141735833Y-81978571D01*
X141621547Y-81978571D01*
X141545357Y-82016666D01*
X141507261Y-82054761D01*
X141469166Y-82130952D01*
X141469166Y-82359523D01*
X141507261Y-82435714D01*
X141545357Y-82473809D01*
X141621547Y-82511904D01*
X141735833Y-82511904D01*
X141240595Y-81978571D02*
X140935833Y-81978571D01*
X141126309Y-81711904D02*
X141126309Y-82397619D01*
X141088214Y-82473809D01*
X141012023Y-82511904D01*
X140935833Y-82511904D01*
X140059642Y-81978571D02*
X140059642Y-82778571D01*
X140059642Y-82016666D02*
X139983452Y-81978571D01*
X139831071Y-81978571D01*
X139754880Y-82016666D01*
X139716785Y-82054761D01*
X139678690Y-82130952D01*
X139678690Y-82359523D01*
X139716785Y-82435714D01*
X139754880Y-82473809D01*
X139831071Y-82511904D01*
X139983452Y-82511904D01*
X140059642Y-82473809D01*
X139221547Y-82511904D02*
X139297738Y-82473809D01*
X139335833Y-82435714D01*
X139373928Y-82359523D01*
X139373928Y-82130952D01*
X139335833Y-82054761D01*
X139297738Y-82016666D01*
X139221547Y-81978571D01*
X139107261Y-81978571D01*
X139031071Y-82016666D01*
X138992976Y-82054761D01*
X138954880Y-82130952D01*
X138954880Y-82359523D01*
X138992976Y-82435714D01*
X139031071Y-82473809D01*
X139107261Y-82511904D01*
X139221547Y-82511904D01*
X138612023Y-81978571D02*
X138612023Y-82778571D01*
X138612023Y-82016666D02*
X138535833Y-81978571D01*
X138383452Y-81978571D01*
X138307261Y-82016666D01*
X138269166Y-82054761D01*
X138231071Y-82130952D01*
X138231071Y-82359523D01*
X138269166Y-82435714D01*
X138307261Y-82473809D01*
X138383452Y-82511904D01*
X138535833Y-82511904D01*
X138612023Y-82473809D01*
X137545357Y-81978571D02*
X137545357Y-82511904D01*
X137888214Y-81978571D02*
X137888214Y-82397619D01*
X137850119Y-82473809D01*
X137773928Y-82511904D01*
X137659642Y-82511904D01*
X137583452Y-82473809D01*
X137545357Y-82435714D01*
X137050119Y-82511904D02*
X137126309Y-82473809D01*
X137164404Y-82397619D01*
X137164404Y-81711904D01*
X136402500Y-82511904D02*
X136402500Y-82092857D01*
X136440595Y-82016666D01*
X136516785Y-81978571D01*
X136669166Y-81978571D01*
X136745357Y-82016666D01*
X136402500Y-82473809D02*
X136478690Y-82511904D01*
X136669166Y-82511904D01*
X136745357Y-82473809D01*
X136783452Y-82397619D01*
X136783452Y-82321428D01*
X136745357Y-82245238D01*
X136669166Y-82207142D01*
X136478690Y-82207142D01*
X136402500Y-82169047D01*
X136135833Y-81978571D02*
X135831071Y-81978571D01*
X136021547Y-81711904D02*
X136021547Y-82397619D01*
X135983452Y-82473809D01*
X135907261Y-82511904D01*
X135831071Y-82511904D01*
X135259642Y-82473809D02*
X135335833Y-82511904D01*
X135488214Y-82511904D01*
X135564404Y-82473809D01*
X135602500Y-82397619D01*
X135602500Y-82092857D01*
X135564404Y-82016666D01*
X135488214Y-81978571D01*
X135335833Y-81978571D01*
X135259642Y-82016666D01*
X135221547Y-82092857D01*
X135221547Y-82169047D01*
X135602500Y-82245238D01*
X134535833Y-82511904D02*
X134535833Y-81711904D01*
X134535833Y-82473809D02*
X134612023Y-82511904D01*
X134764404Y-82511904D01*
X134840595Y-82473809D01*
X134878690Y-82435714D01*
X134916785Y-82359523D01*
X134916785Y-82130952D01*
X134878690Y-82054761D01*
X134840595Y-82016666D01*
X134764404Y-81978571D01*
X134612023Y-81978571D01*
X134535833Y-82016666D01*
X134154880Y-82435714D02*
X134116785Y-82473809D01*
X134154880Y-82511904D01*
X134192976Y-82473809D01*
X134154880Y-82435714D01*
X134154880Y-82511904D01*
X144326309Y-83061904D02*
X143869166Y-83061904D01*
X144097738Y-83861904D02*
X144097738Y-83061904D01*
X143488214Y-83861904D02*
X143564404Y-83823809D01*
X143602500Y-83785714D01*
X143640595Y-83709523D01*
X143640595Y-83480952D01*
X143602500Y-83404761D01*
X143564404Y-83366666D01*
X143488214Y-83328571D01*
X143373928Y-83328571D01*
X143297738Y-83366666D01*
X143259642Y-83404761D01*
X143221547Y-83480952D01*
X143221547Y-83709523D01*
X143259642Y-83785714D01*
X143297738Y-83823809D01*
X143373928Y-83861904D01*
X143488214Y-83861904D01*
X142269166Y-83328571D02*
X142269166Y-84128571D01*
X142269166Y-83366666D02*
X142192976Y-83328571D01*
X142040595Y-83328571D01*
X141964404Y-83366666D01*
X141926309Y-83404761D01*
X141888214Y-83480952D01*
X141888214Y-83709523D01*
X141926309Y-83785714D01*
X141964404Y-83823809D01*
X142040595Y-83861904D01*
X142192976Y-83861904D01*
X142269166Y-83823809D01*
X141545357Y-83861904D02*
X141545357Y-83328571D01*
X141545357Y-83480952D02*
X141507261Y-83404761D01*
X141469166Y-83366666D01*
X141392976Y-83328571D01*
X141316785Y-83328571D01*
X140935833Y-83861904D02*
X141012023Y-83823809D01*
X141050119Y-83785714D01*
X141088214Y-83709523D01*
X141088214Y-83480952D01*
X141050119Y-83404761D01*
X141012023Y-83366666D01*
X140935833Y-83328571D01*
X140821547Y-83328571D01*
X140745357Y-83366666D01*
X140707261Y-83404761D01*
X140669166Y-83480952D01*
X140669166Y-83709523D01*
X140707261Y-83785714D01*
X140745357Y-83823809D01*
X140821547Y-83861904D01*
X140935833Y-83861904D01*
X139983452Y-83328571D02*
X139983452Y-83976190D01*
X140021547Y-84052380D01*
X140059642Y-84090476D01*
X140135833Y-84128571D01*
X140250119Y-84128571D01*
X140326309Y-84090476D01*
X139983452Y-83823809D02*
X140059642Y-83861904D01*
X140212023Y-83861904D01*
X140288214Y-83823809D01*
X140326309Y-83785714D01*
X140364404Y-83709523D01*
X140364404Y-83480952D01*
X140326309Y-83404761D01*
X140288214Y-83366666D01*
X140212023Y-83328571D01*
X140059642Y-83328571D01*
X139983452Y-83366666D01*
X139602500Y-83861904D02*
X139602500Y-83328571D01*
X139602500Y-83480952D02*
X139564404Y-83404761D01*
X139526309Y-83366666D01*
X139450119Y-83328571D01*
X139373928Y-83328571D01*
X138764404Y-83861904D02*
X138764404Y-83442857D01*
X138802500Y-83366666D01*
X138878690Y-83328571D01*
X139031071Y-83328571D01*
X139107261Y-83366666D01*
X138764404Y-83823809D02*
X138840595Y-83861904D01*
X139031071Y-83861904D01*
X139107261Y-83823809D01*
X139145357Y-83747619D01*
X139145357Y-83671428D01*
X139107261Y-83595238D01*
X139031071Y-83557142D01*
X138840595Y-83557142D01*
X138764404Y-83519047D01*
X138383452Y-83861904D02*
X138383452Y-83328571D01*
X138383452Y-83404761D02*
X138345357Y-83366666D01*
X138269166Y-83328571D01*
X138154880Y-83328571D01*
X138078690Y-83366666D01*
X138040595Y-83442857D01*
X138040595Y-83861904D01*
X138040595Y-83442857D02*
X138002500Y-83366666D01*
X137926309Y-83328571D01*
X137812023Y-83328571D01*
X137735833Y-83366666D01*
X137697738Y-83442857D01*
X137697738Y-83861904D01*
X137278690Y-83823809D02*
X137278690Y-83861904D01*
X137316785Y-83938095D01*
X137354880Y-83976190D01*
X136364404Y-83823809D02*
X136288214Y-83861904D01*
X136135833Y-83861904D01*
X136059642Y-83823809D01*
X136021547Y-83747619D01*
X136021547Y-83709523D01*
X136059642Y-83633333D01*
X136135833Y-83595238D01*
X136250119Y-83595238D01*
X136326309Y-83557142D01*
X136364404Y-83480952D01*
X136364404Y-83442857D01*
X136326309Y-83366666D01*
X136250119Y-83328571D01*
X136135833Y-83328571D01*
X136059642Y-83366666D01*
X135373928Y-83823809D02*
X135450119Y-83861904D01*
X135602500Y-83861904D01*
X135678690Y-83823809D01*
X135716785Y-83747619D01*
X135716785Y-83442857D01*
X135678690Y-83366666D01*
X135602500Y-83328571D01*
X135450119Y-83328571D01*
X135373928Y-83366666D01*
X135335833Y-83442857D01*
X135335833Y-83519047D01*
X135716785Y-83595238D01*
X135107261Y-83328571D02*
X134802500Y-83328571D01*
X134992976Y-83061904D02*
X134992976Y-83747619D01*
X134954880Y-83823809D01*
X134878690Y-83861904D01*
X134802500Y-83861904D01*
X134040595Y-83328571D02*
X133735833Y-83328571D01*
X133926309Y-83061904D02*
X133926309Y-83747619D01*
X133888214Y-83823809D01*
X133812023Y-83861904D01*
X133735833Y-83861904D01*
X133469166Y-83861904D02*
X133469166Y-83061904D01*
X133126309Y-83861904D02*
X133126309Y-83442857D01*
X133164404Y-83366666D01*
X133240595Y-83328571D01*
X133354880Y-83328571D01*
X133431071Y-83366666D01*
X133469166Y-83404761D01*
X132440595Y-83823809D02*
X132516785Y-83861904D01*
X132669166Y-83861904D01*
X132745357Y-83823809D01*
X132783452Y-83747619D01*
X132783452Y-83442857D01*
X132745357Y-83366666D01*
X132669166Y-83328571D01*
X132516785Y-83328571D01*
X132440595Y-83366666D01*
X132402500Y-83442857D01*
X132402500Y-83519047D01*
X132783452Y-83595238D01*
X144212023Y-84678571D02*
X144212023Y-85364285D01*
X144250119Y-85440476D01*
X144326309Y-85478571D01*
X144364404Y-85478571D01*
X144212023Y-84411904D02*
X144250119Y-84450000D01*
X144212023Y-84488095D01*
X144173928Y-84450000D01*
X144212023Y-84411904D01*
X144212023Y-84488095D01*
X143488214Y-84678571D02*
X143488214Y-85211904D01*
X143831071Y-84678571D02*
X143831071Y-85097619D01*
X143792976Y-85173809D01*
X143716785Y-85211904D01*
X143602500Y-85211904D01*
X143526309Y-85173809D01*
X143488214Y-85135714D01*
X143107261Y-85211904D02*
X143107261Y-84678571D01*
X143107261Y-84754761D02*
X143069166Y-84716666D01*
X142992976Y-84678571D01*
X142878690Y-84678571D01*
X142802500Y-84716666D01*
X142764404Y-84792857D01*
X142764404Y-85211904D01*
X142764404Y-84792857D02*
X142726309Y-84716666D01*
X142650119Y-84678571D01*
X142535833Y-84678571D01*
X142459642Y-84716666D01*
X142421547Y-84792857D01*
X142421547Y-85211904D01*
X142040595Y-84678571D02*
X142040595Y-85478571D01*
X142040595Y-84716666D02*
X141964404Y-84678571D01*
X141812023Y-84678571D01*
X141735833Y-84716666D01*
X141697738Y-84754761D01*
X141659642Y-84830952D01*
X141659642Y-85059523D01*
X141697738Y-85135714D01*
X141735833Y-85173809D01*
X141812023Y-85211904D01*
X141964404Y-85211904D01*
X142040595Y-85173809D01*
X141012023Y-85173809D02*
X141088214Y-85211904D01*
X141240595Y-85211904D01*
X141316785Y-85173809D01*
X141354880Y-85097619D01*
X141354880Y-84792857D01*
X141316785Y-84716666D01*
X141240595Y-84678571D01*
X141088214Y-84678571D01*
X141012023Y-84716666D01*
X140973928Y-84792857D01*
X140973928Y-84869047D01*
X141354880Y-84945238D01*
X140631071Y-85211904D02*
X140631071Y-84678571D01*
X140631071Y-84830952D02*
X140592976Y-84754761D01*
X140554880Y-84716666D01*
X140478690Y-84678571D01*
X140402500Y-84678571D01*
X140173928Y-85173809D02*
X140097738Y-85211904D01*
X139945357Y-85211904D01*
X139869166Y-85173809D01*
X139831071Y-85097619D01*
X139831071Y-85059523D01*
X139869166Y-84983333D01*
X139945357Y-84945238D01*
X140059642Y-84945238D01*
X140135833Y-84907142D01*
X140173928Y-84830952D01*
X140173928Y-84792857D01*
X140135833Y-84716666D01*
X140059642Y-84678571D01*
X139945357Y-84678571D01*
X139869166Y-84716666D01*
X138726309Y-84411904D02*
X138573928Y-84411904D01*
X138497738Y-84450000D01*
X138421547Y-84526190D01*
X138383452Y-84678571D01*
X138383452Y-84945238D01*
X138421547Y-85097619D01*
X138497738Y-85173809D01*
X138573928Y-85211904D01*
X138726309Y-85211904D01*
X138802500Y-85173809D01*
X138878690Y-85097619D01*
X138916785Y-84945238D01*
X138916785Y-84678571D01*
X138878690Y-84526190D01*
X138802500Y-84450000D01*
X138726309Y-84411904D01*
X138040595Y-85211904D02*
X138040595Y-84411904D01*
X137583452Y-85211904D01*
X137583452Y-84411904D01*
X136364404Y-84411904D02*
X136364404Y-84983333D01*
X136402500Y-85097619D01*
X136478690Y-85173809D01*
X136592976Y-85211904D01*
X136669166Y-85211904D01*
X135983452Y-85211904D02*
X135983452Y-84411904D01*
X135678690Y-84411904D01*
X135602500Y-84450000D01*
X135564404Y-84488095D01*
X135526309Y-84564285D01*
X135526309Y-84678571D01*
X135564404Y-84754761D01*
X135602500Y-84792857D01*
X135678690Y-84830952D01*
X135983452Y-84830952D01*
X134764404Y-85211904D02*
X135221547Y-85211904D01*
X134992976Y-85211904D02*
X134992976Y-84411904D01*
X135069166Y-84526190D01*
X135145357Y-84602380D01*
X135221547Y-84640476D01*
X133469166Y-85211904D02*
X133469166Y-84792857D01*
X133507261Y-84716666D01*
X133583452Y-84678571D01*
X133735833Y-84678571D01*
X133812023Y-84716666D01*
X133469166Y-85173809D02*
X133545357Y-85211904D01*
X133735833Y-85211904D01*
X133812023Y-85173809D01*
X133850119Y-85097619D01*
X133850119Y-85021428D01*
X133812023Y-84945238D01*
X133735833Y-84907142D01*
X133545357Y-84907142D01*
X133469166Y-84869047D01*
X133088214Y-84678571D02*
X133088214Y-85211904D01*
X133088214Y-84754761D02*
X133050119Y-84716666D01*
X132973928Y-84678571D01*
X132859642Y-84678571D01*
X132783452Y-84716666D01*
X132745357Y-84792857D01*
X132745357Y-85211904D01*
X132021547Y-85211904D02*
X132021547Y-84411904D01*
X132021547Y-85173809D02*
X132097738Y-85211904D01*
X132250119Y-85211904D01*
X132326309Y-85173809D01*
X132364404Y-85135714D01*
X132402500Y-85059523D01*
X132402500Y-84830952D01*
X132364404Y-84754761D01*
X132326309Y-84716666D01*
X132250119Y-84678571D01*
X132097738Y-84678571D01*
X132021547Y-84716666D01*
X130802500Y-84411904D02*
X130802500Y-84983333D01*
X130840595Y-85097619D01*
X130916785Y-85173809D01*
X131031071Y-85211904D01*
X131107261Y-85211904D01*
X130421547Y-85211904D02*
X130421547Y-84411904D01*
X130116785Y-84411904D01*
X130040595Y-84450000D01*
X130002500Y-84488095D01*
X129964404Y-84564285D01*
X129964404Y-84678571D01*
X130002500Y-84754761D01*
X130040595Y-84792857D01*
X130116785Y-84830952D01*
X130421547Y-84830952D01*
X129659642Y-84488095D02*
X129621547Y-84450000D01*
X129545357Y-84411904D01*
X129354880Y-84411904D01*
X129278690Y-84450000D01*
X129240595Y-84488095D01*
X129202500Y-84564285D01*
X129202500Y-84640476D01*
X129240595Y-84754761D01*
X129697738Y-85211904D01*
X129202500Y-85211904D01*
X144326309Y-86028571D02*
X144021547Y-86028571D01*
X144212023Y-85761904D02*
X144212023Y-86447619D01*
X144173928Y-86523809D01*
X144097738Y-86561904D01*
X144021547Y-86561904D01*
X143640595Y-86561904D02*
X143716785Y-86523809D01*
X143754880Y-86485714D01*
X143792976Y-86409523D01*
X143792976Y-86180952D01*
X143754880Y-86104761D01*
X143716785Y-86066666D01*
X143640595Y-86028571D01*
X143526309Y-86028571D01*
X143450119Y-86066666D01*
X143412023Y-86104761D01*
X143373928Y-86180952D01*
X143373928Y-86409523D01*
X143412023Y-86485714D01*
X143450119Y-86523809D01*
X143526309Y-86561904D01*
X143640595Y-86561904D01*
X142459642Y-85761904D02*
X142459642Y-85914285D01*
X142154880Y-85761904D02*
X142154880Y-85914285D01*
X141926309Y-86028571D02*
X141621547Y-86028571D01*
X141812023Y-85761904D02*
X141812023Y-86447619D01*
X141773928Y-86523809D01*
X141697738Y-86561904D01*
X141621547Y-86561904D01*
X141240595Y-86561904D02*
X141316785Y-86523809D01*
X141354880Y-86485714D01*
X141392976Y-86409523D01*
X141392976Y-86180952D01*
X141354880Y-86104761D01*
X141316785Y-86066666D01*
X141240595Y-86028571D01*
X141126309Y-86028571D01*
X141050119Y-86066666D01*
X141012023Y-86104761D01*
X140973928Y-86180952D01*
X140973928Y-86409523D01*
X141012023Y-86485714D01*
X141050119Y-86523809D01*
X141126309Y-86561904D01*
X141240595Y-86561904D01*
X140021547Y-86561904D02*
X140021547Y-85761904D01*
X139754880Y-86333333D01*
X139488214Y-85761904D01*
X139488214Y-86561904D01*
X139107261Y-86561904D02*
X139107261Y-86028571D01*
X139107261Y-85761904D02*
X139145357Y-85800000D01*
X139107261Y-85838095D01*
X139069166Y-85800000D01*
X139107261Y-85761904D01*
X139107261Y-85838095D01*
X138383452Y-86523809D02*
X138459642Y-86561904D01*
X138612023Y-86561904D01*
X138688214Y-86523809D01*
X138726309Y-86485714D01*
X138764404Y-86409523D01*
X138764404Y-86180952D01*
X138726309Y-86104761D01*
X138688214Y-86066666D01*
X138612023Y-86028571D01*
X138459642Y-86028571D01*
X138383452Y-86066666D01*
X138040595Y-86561904D02*
X138040595Y-86028571D01*
X138040595Y-86180952D02*
X138002500Y-86104761D01*
X137964404Y-86066666D01*
X137888214Y-86028571D01*
X137812023Y-86028571D01*
X137431071Y-86561904D02*
X137507261Y-86523809D01*
X137545357Y-86485714D01*
X137583452Y-86409523D01*
X137583452Y-86180952D01*
X137545357Y-86104761D01*
X137507261Y-86066666D01*
X137431071Y-86028571D01*
X137316785Y-86028571D01*
X137240595Y-86066666D01*
X137202500Y-86104761D01*
X137164404Y-86180952D01*
X137164404Y-86409523D01*
X137202500Y-86485714D01*
X137240595Y-86523809D01*
X137316785Y-86561904D01*
X137431071Y-86561904D01*
X136478690Y-86523809D02*
X136554880Y-86561904D01*
X136707261Y-86561904D01*
X136783452Y-86523809D01*
X136821547Y-86485714D01*
X136859642Y-86409523D01*
X136859642Y-86180952D01*
X136821547Y-86104761D01*
X136783452Y-86066666D01*
X136707261Y-86028571D01*
X136554880Y-86028571D01*
X136478690Y-86066666D01*
X136021547Y-86561904D02*
X136097738Y-86523809D01*
X136135833Y-86485714D01*
X136173928Y-86409523D01*
X136173928Y-86180952D01*
X136135833Y-86104761D01*
X136097738Y-86066666D01*
X136021547Y-86028571D01*
X135907261Y-86028571D01*
X135831071Y-86066666D01*
X135792976Y-86104761D01*
X135754880Y-86180952D01*
X135754880Y-86409523D01*
X135792976Y-86485714D01*
X135831071Y-86523809D01*
X135907261Y-86561904D01*
X136021547Y-86561904D01*
X135412023Y-86028571D02*
X135412023Y-86561904D01*
X135412023Y-86104761D02*
X135373928Y-86066666D01*
X135297738Y-86028571D01*
X135183452Y-86028571D01*
X135107261Y-86066666D01*
X135069166Y-86142857D01*
X135069166Y-86561904D01*
X134802500Y-86028571D02*
X134497738Y-86028571D01*
X134688214Y-85761904D02*
X134688214Y-86447619D01*
X134650119Y-86523809D01*
X134573928Y-86561904D01*
X134497738Y-86561904D01*
X134231071Y-86561904D02*
X134231071Y-86028571D01*
X134231071Y-86180952D02*
X134192976Y-86104761D01*
X134154880Y-86066666D01*
X134078690Y-86028571D01*
X134002500Y-86028571D01*
X133621547Y-86561904D02*
X133697738Y-86523809D01*
X133735833Y-86485714D01*
X133773928Y-86409523D01*
X133773928Y-86180952D01*
X133735833Y-86104761D01*
X133697738Y-86066666D01*
X133621547Y-86028571D01*
X133507261Y-86028571D01*
X133431071Y-86066666D01*
X133392976Y-86104761D01*
X133354880Y-86180952D01*
X133354880Y-86409523D01*
X133392976Y-86485714D01*
X133431071Y-86523809D01*
X133507261Y-86561904D01*
X133621547Y-86561904D01*
X132897738Y-86561904D02*
X132973928Y-86523809D01*
X133012023Y-86447619D01*
X133012023Y-85761904D01*
X132478690Y-86561904D02*
X132554880Y-86523809D01*
X132592976Y-86447619D01*
X132592976Y-85761904D01*
X131869166Y-86523809D02*
X131945357Y-86561904D01*
X132097738Y-86561904D01*
X132173928Y-86523809D01*
X132212023Y-86447619D01*
X132212023Y-86142857D01*
X132173928Y-86066666D01*
X132097738Y-86028571D01*
X131945357Y-86028571D01*
X131869166Y-86066666D01*
X131831071Y-86142857D01*
X131831071Y-86219047D01*
X132212023Y-86295238D01*
X131488214Y-86561904D02*
X131488214Y-86028571D01*
X131488214Y-86180952D02*
X131450119Y-86104761D01*
X131412023Y-86066666D01*
X131335833Y-86028571D01*
X131259642Y-86028571D01*
X131031071Y-85761904D02*
X131031071Y-85914285D01*
X130726309Y-85761904D02*
X130726309Y-85914285D01*
X150761904Y-86250000D02*
X150857142Y-86202380D01*
X151000000Y-86202380D01*
X151142857Y-86250000D01*
X151238095Y-86345238D01*
X151285714Y-86440476D01*
X151333333Y-86630952D01*
X151333333Y-86773809D01*
X151285714Y-86964285D01*
X151238095Y-87059523D01*
X151142857Y-87154761D01*
X151000000Y-87202380D01*
X150904761Y-87202380D01*
X150761904Y-87154761D01*
X150714285Y-87107142D01*
X150714285Y-86773809D01*
X150904761Y-86773809D01*
X150285714Y-87202380D02*
X150285714Y-86202380D01*
X149714285Y-87202380D01*
X149714285Y-86202380D01*
X149238095Y-87202380D02*
X149238095Y-86202380D01*
X149000000Y-86202380D01*
X148857142Y-86250000D01*
X148761904Y-86345238D01*
X148714285Y-86440476D01*
X148666666Y-86630952D01*
X148666666Y-86773809D01*
X148714285Y-86964285D01*
X148761904Y-87059523D01*
X148857142Y-87154761D01*
X149000000Y-87202380D01*
X149238095Y-87202380D01*
X150297619Y-84452380D02*
X150630952Y-83976190D01*
X150869047Y-84452380D02*
X150869047Y-83452380D01*
X150488095Y-83452380D01*
X150392857Y-83500000D01*
X150345238Y-83547619D01*
X150297619Y-83642857D01*
X150297619Y-83785714D01*
X150345238Y-83880952D01*
X150392857Y-83928571D01*
X150488095Y-83976190D01*
X150869047Y-83976190D01*
X150011904Y-83452380D02*
X149440476Y-83452380D01*
X149726190Y-84452380D02*
X149726190Y-83452380D01*
X149154761Y-84404761D02*
X149011904Y-84452380D01*
X148773809Y-84452380D01*
X148678571Y-84404761D01*
X148630952Y-84357142D01*
X148583333Y-84261904D01*
X148583333Y-84166666D01*
X148630952Y-84071428D01*
X148678571Y-84023809D01*
X148773809Y-83976190D01*
X148964285Y-83928571D01*
X149059523Y-83880952D01*
X149107142Y-83833333D01*
X149154761Y-83738095D01*
X149154761Y-83642857D01*
X149107142Y-83547619D01*
X149059523Y-83500000D01*
X148964285Y-83452380D01*
X148726190Y-83452380D01*
X148583333Y-83500000D01*
X150892857Y-81952380D02*
X150892857Y-80952380D01*
X150654761Y-80952380D01*
X150511904Y-81000000D01*
X150416666Y-81095238D01*
X150369047Y-81190476D01*
X150321428Y-81380952D01*
X150321428Y-81523809D01*
X150369047Y-81714285D01*
X150416666Y-81809523D01*
X150511904Y-81904761D01*
X150654761Y-81952380D01*
X150892857Y-81952380D01*
X150035714Y-80952380D02*
X149464285Y-80952380D01*
X149750000Y-81952380D02*
X149750000Y-80952380D01*
X148559523Y-81952380D02*
X148892857Y-81476190D01*
X149130952Y-81952380D02*
X149130952Y-80952380D01*
X148750000Y-80952380D01*
X148654761Y-81000000D01*
X148607142Y-81047619D01*
X148559523Y-81142857D01*
X148559523Y-81285714D01*
X148607142Y-81380952D01*
X148654761Y-81428571D01*
X148750000Y-81476190D01*
X149130952Y-81476190D01*
X149940476Y-78452380D02*
X149369047Y-78452380D01*
X149654761Y-79452380D02*
X149654761Y-78452380D01*
X149130952Y-79452380D02*
X148607142Y-78785714D01*
X149130952Y-78785714D02*
X148607142Y-79452380D01*
X149345238Y-76952380D02*
X149678571Y-76476190D01*
X149916666Y-76952380D02*
X149916666Y-75952380D01*
X149535714Y-75952380D01*
X149440476Y-76000000D01*
X149392857Y-76047619D01*
X149345238Y-76142857D01*
X149345238Y-76285714D01*
X149392857Y-76380952D01*
X149440476Y-76428571D01*
X149535714Y-76476190D01*
X149916666Y-76476190D01*
X149011904Y-76952380D02*
X148488095Y-76285714D01*
X149011904Y-76285714D02*
X148488095Y-76952380D01*
X155095238Y-89202380D02*
X155095238Y-88202380D01*
X154714285Y-88202380D01*
X154619047Y-88250000D01*
X154571428Y-88297619D01*
X154523809Y-88392857D01*
X154523809Y-88535714D01*
X154571428Y-88630952D01*
X154619047Y-88678571D01*
X154714285Y-88726190D01*
X155095238Y-88726190D01*
X154095238Y-89202380D02*
X154095238Y-88535714D01*
X154095238Y-88726190D02*
X154047619Y-88630952D01*
X154000000Y-88583333D01*
X153904761Y-88535714D01*
X153809523Y-88535714D01*
X153333333Y-89202380D02*
X153428571Y-89154761D01*
X153476190Y-89107142D01*
X153523809Y-89011904D01*
X153523809Y-88726190D01*
X153476190Y-88630952D01*
X153428571Y-88583333D01*
X153333333Y-88535714D01*
X153190476Y-88535714D01*
X153095238Y-88583333D01*
X153047619Y-88630952D01*
X153000000Y-88726190D01*
X153000000Y-89011904D01*
X153047619Y-89107142D01*
X153095238Y-89154761D01*
X153190476Y-89202380D01*
X153333333Y-89202380D01*
X152142857Y-88535714D02*
X152142857Y-89345238D01*
X152190476Y-89440476D01*
X152238095Y-89488095D01*
X152333333Y-89535714D01*
X152476190Y-89535714D01*
X152571428Y-89488095D01*
X152142857Y-89154761D02*
X152238095Y-89202380D01*
X152428571Y-89202380D01*
X152523809Y-89154761D01*
X152571428Y-89107142D01*
X152619047Y-89011904D01*
X152619047Y-88726190D01*
X152571428Y-88630952D01*
X152523809Y-88583333D01*
X152428571Y-88535714D01*
X152238095Y-88535714D01*
X152142857Y-88583333D01*
X151666666Y-89202380D02*
X151666666Y-88535714D01*
X151666666Y-88726190D02*
X151619047Y-88630952D01*
X151571428Y-88583333D01*
X151476190Y-88535714D01*
X151380952Y-88535714D01*
X150619047Y-89202380D02*
X150619047Y-88678571D01*
X150666666Y-88583333D01*
X150761904Y-88535714D01*
X150952380Y-88535714D01*
X151047619Y-88583333D01*
X150619047Y-89154761D02*
X150714285Y-89202380D01*
X150952380Y-89202380D01*
X151047619Y-89154761D01*
X151095238Y-89059523D01*
X151095238Y-88964285D01*
X151047619Y-88869047D01*
X150952380Y-88821428D01*
X150714285Y-88821428D01*
X150619047Y-88773809D01*
X150142857Y-89202380D02*
X150142857Y-88535714D01*
X150142857Y-88630952D02*
X150095238Y-88583333D01*
X150000000Y-88535714D01*
X149857142Y-88535714D01*
X149761904Y-88583333D01*
X149714285Y-88678571D01*
X149714285Y-89202380D01*
X149714285Y-88678571D02*
X149666666Y-88583333D01*
X149571428Y-88535714D01*
X149428571Y-88535714D01*
X149333333Y-88583333D01*
X149285714Y-88678571D01*
X149285714Y-89202380D01*
X148095238Y-88154761D02*
X148952380Y-89440476D01*
X147761904Y-89202380D02*
X147761904Y-88202380D01*
X147523809Y-88202380D01*
X147380952Y-88250000D01*
X147285714Y-88345238D01*
X147238095Y-88440476D01*
X147190476Y-88630952D01*
X147190476Y-88773809D01*
X147238095Y-88964285D01*
X147285714Y-89059523D01*
X147380952Y-89154761D01*
X147523809Y-89202380D01*
X147761904Y-89202380D01*
X146380952Y-89154761D02*
X146476190Y-89202380D01*
X146666666Y-89202380D01*
X146761904Y-89154761D01*
X146809523Y-89059523D01*
X146809523Y-88678571D01*
X146761904Y-88583333D01*
X146666666Y-88535714D01*
X146476190Y-88535714D01*
X146380952Y-88583333D01*
X146333333Y-88678571D01*
X146333333Y-88773809D01*
X146809523Y-88869047D01*
X145904761Y-89202380D02*
X145904761Y-88202380D01*
X145904761Y-88583333D02*
X145809523Y-88535714D01*
X145619047Y-88535714D01*
X145523809Y-88583333D01*
X145476190Y-88630952D01*
X145428571Y-88726190D01*
X145428571Y-89011904D01*
X145476190Y-89107142D01*
X145523809Y-89154761D01*
X145619047Y-89202380D01*
X145809523Y-89202380D01*
X145904761Y-89154761D01*
X144571428Y-88535714D02*
X144571428Y-89202380D01*
X145000000Y-88535714D02*
X145000000Y-89059523D01*
X144952380Y-89154761D01*
X144857142Y-89202380D01*
X144714285Y-89202380D01*
X144619047Y-89154761D01*
X144571428Y-89107142D01*
X143666666Y-88535714D02*
X143666666Y-89345238D01*
X143714285Y-89440476D01*
X143761904Y-89488095D01*
X143857142Y-89535714D01*
X144000000Y-89535714D01*
X144095238Y-89488095D01*
X143666666Y-89154761D02*
X143761904Y-89202380D01*
X143952380Y-89202380D01*
X144047619Y-89154761D01*
X144095238Y-89107142D01*
X144142857Y-89011904D01*
X144142857Y-88726190D01*
X144095238Y-88630952D01*
X144047619Y-88583333D01*
X143952380Y-88535714D01*
X143761904Y-88535714D01*
X143666666Y-88583333D01*
X142428571Y-88535714D02*
X142428571Y-89535714D01*
X142428571Y-88583333D02*
X142333333Y-88535714D01*
X142142857Y-88535714D01*
X142047619Y-88583333D01*
X142000000Y-88630952D01*
X141952380Y-88726190D01*
X141952380Y-89011904D01*
X142000000Y-89107142D01*
X142047619Y-89154761D01*
X142142857Y-89202380D01*
X142333333Y-89202380D01*
X142428571Y-89154761D01*
X141380952Y-89202380D02*
X141476190Y-89154761D01*
X141523809Y-89107142D01*
X141571428Y-89011904D01*
X141571428Y-88726190D01*
X141523809Y-88630952D01*
X141476190Y-88583333D01*
X141380952Y-88535714D01*
X141238095Y-88535714D01*
X141142857Y-88583333D01*
X141095238Y-88630952D01*
X141047619Y-88726190D01*
X141047619Y-89011904D01*
X141095238Y-89107142D01*
X141142857Y-89154761D01*
X141238095Y-89202380D01*
X141380952Y-89202380D01*
X140619047Y-89202380D02*
X140619047Y-88535714D01*
X140619047Y-88726190D02*
X140571428Y-88630952D01*
X140523809Y-88583333D01*
X140428571Y-88535714D01*
X140333333Y-88535714D01*
X140142857Y-88535714D02*
X139761904Y-88535714D01*
X140000000Y-88202380D02*
X140000000Y-89059523D01*
X139952380Y-89154761D01*
X139857142Y-89202380D01*
X139761904Y-89202380D01*
D11*
G36*
X169500000Y-93500000D02*
G01*
X161000000Y-93500000D01*
X161000000Y-91500000D01*
X169500000Y-91500000D01*
X169500000Y-93500000D01*
G37*
X169500000Y-93500000D02*
X161000000Y-93500000D01*
X161000000Y-91500000D01*
X169500000Y-91500000D01*
X169500000Y-93500000D01*
D10*
X146500000Y-92047619D02*
X146500000Y-93047619D01*
X146880952Y-93047619D01*
X146976190Y-93000000D01*
X147023809Y-92952380D01*
X147071428Y-92857142D01*
X147071428Y-92714285D01*
X147023809Y-92619047D01*
X146976190Y-92571428D01*
X146880952Y-92523809D01*
X146500000Y-92523809D01*
X148023809Y-92047619D02*
X147452380Y-92047619D01*
X147738095Y-92047619D02*
X147738095Y-93047619D01*
X147642857Y-92904761D01*
X147547619Y-92809523D01*
X147452380Y-92761904D01*
X149166666Y-92095238D02*
X149309523Y-92047619D01*
X149547619Y-92047619D01*
X149642857Y-92095238D01*
X149690476Y-92142857D01*
X149738095Y-92238095D01*
X149738095Y-92333333D01*
X149690476Y-92428571D01*
X149642857Y-92476190D01*
X149547619Y-92523809D01*
X149357142Y-92571428D01*
X149261904Y-92619047D01*
X149214285Y-92666666D01*
X149166666Y-92761904D01*
X149166666Y-92857142D01*
X149214285Y-92952380D01*
X149261904Y-93000000D01*
X149357142Y-93047619D01*
X149595238Y-93047619D01*
X149738095Y-93000000D01*
X150166666Y-92047619D02*
X150166666Y-92714285D01*
X150166666Y-92619047D02*
X150214285Y-92666666D01*
X150309523Y-92714285D01*
X150452380Y-92714285D01*
X150547619Y-92666666D01*
X150595238Y-92571428D01*
X150595238Y-92047619D01*
X150595238Y-92571428D02*
X150642857Y-92666666D01*
X150738095Y-92714285D01*
X150880952Y-92714285D01*
X150976190Y-92666666D01*
X151023809Y-92571428D01*
X151023809Y-92047619D01*
X151928571Y-92047619D02*
X151928571Y-92571428D01*
X151880952Y-92666666D01*
X151785714Y-92714285D01*
X151595238Y-92714285D01*
X151500000Y-92666666D01*
X151928571Y-92095238D02*
X151833333Y-92047619D01*
X151595238Y-92047619D01*
X151500000Y-92095238D01*
X151452380Y-92190476D01*
X151452380Y-92285714D01*
X151500000Y-92380952D01*
X151595238Y-92428571D01*
X151833333Y-92428571D01*
X151928571Y-92476190D01*
X152404761Y-92047619D02*
X152404761Y-92714285D01*
X152404761Y-92523809D02*
X152452380Y-92619047D01*
X152500000Y-92666666D01*
X152595238Y-92714285D01*
X152690476Y-92714285D01*
X152880952Y-92714285D02*
X153261904Y-92714285D01*
X153023809Y-93047619D02*
X153023809Y-92190476D01*
X153071428Y-92095238D01*
X153166666Y-92047619D01*
X153261904Y-92047619D01*
X154357142Y-92047619D02*
X154357142Y-93047619D01*
X154690476Y-92333333D01*
X155023809Y-93047619D01*
X155023809Y-92047619D01*
X155880952Y-92095238D02*
X155785714Y-92047619D01*
X155595238Y-92047619D01*
X155500000Y-92095238D01*
X155452380Y-92190476D01*
X155452380Y-92571428D01*
X155500000Y-92666666D01*
X155595238Y-92714285D01*
X155785714Y-92714285D01*
X155880952Y-92666666D01*
X155928571Y-92571428D01*
X155928571Y-92476190D01*
X155452380Y-92380952D01*
X156214285Y-92714285D02*
X156595238Y-92714285D01*
X156357142Y-93047619D02*
X156357142Y-92190476D01*
X156404761Y-92095238D01*
X156500000Y-92047619D01*
X156595238Y-92047619D01*
X157309523Y-92095238D02*
X157214285Y-92047619D01*
X157023809Y-92047619D01*
X156928571Y-92095238D01*
X156880952Y-92190476D01*
X156880952Y-92571428D01*
X156928571Y-92666666D01*
X157023809Y-92714285D01*
X157214285Y-92714285D01*
X157309523Y-92666666D01*
X157357142Y-92571428D01*
X157357142Y-92476190D01*
X156880952Y-92380952D01*
X157785714Y-92047619D02*
X157785714Y-92714285D01*
X157785714Y-92523809D02*
X157833333Y-92619047D01*
X157880952Y-92666666D01*
X157976190Y-92714285D01*
X158071428Y-92714285D01*
X159023809Y-93047619D02*
X159357142Y-92047619D01*
X159690476Y-93047619D01*
X160547619Y-92047619D02*
X159976190Y-92047619D01*
X160261904Y-92047619D02*
X160261904Y-93047619D01*
X160166666Y-92904761D01*
X160071428Y-92809523D01*
X159976190Y-92761904D01*
D12*
%TO.C,G\u002A\u002A\u002A*%
G36*
X156822666Y-108257333D02*
G01*
X158008000Y-108257333D01*
X158008000Y-110374000D01*
X158600666Y-110374000D01*
X158600666Y-108257333D01*
X159786000Y-108257333D01*
X159786000Y-110374000D01*
X160294000Y-110374000D01*
X160294000Y-108257333D01*
X161479333Y-108257333D01*
X161479333Y-110374000D01*
X161987333Y-110374000D01*
X161987333Y-108257333D01*
X163172666Y-108257333D01*
X163172666Y-110374000D01*
X163680666Y-110374000D01*
X163680666Y-108257333D01*
X164866000Y-108257333D01*
X164866000Y-110374000D01*
X165374000Y-110374000D01*
X165374000Y-108257333D01*
X166119066Y-108257333D01*
X166531743Y-108245137D01*
X166821550Y-108210371D01*
X166965695Y-108155771D01*
X166965733Y-108155733D01*
X167020344Y-108011682D01*
X167055122Y-107721956D01*
X167067333Y-107309345D01*
X167067333Y-106564000D01*
X169099333Y-106564000D01*
X169099333Y-106140666D01*
X167067333Y-106140666D01*
X167067333Y-104786000D01*
X169099333Y-104786000D01*
X169099333Y-104362666D01*
X167067333Y-104362666D01*
X167067333Y-103092666D01*
X169099333Y-103092666D01*
X169099333Y-102669333D01*
X167067333Y-102669333D01*
X167067333Y-101399333D01*
X169099333Y-101399333D01*
X169099333Y-100976000D01*
X167067333Y-100976000D01*
X167067333Y-99706000D01*
X169099333Y-99706000D01*
X169099333Y-99282666D01*
X167067333Y-99282666D01*
X167067333Y-98012666D01*
X169099333Y-98012666D01*
X169099333Y-97589333D01*
X167067333Y-97589333D01*
X167067333Y-97098266D01*
X167050731Y-96813481D01*
X167007882Y-96592267D01*
X166965733Y-96505600D01*
X166821682Y-96450989D01*
X166531955Y-96416211D01*
X166119345Y-96404000D01*
X165374000Y-96404000D01*
X165374000Y-94372000D01*
X164866000Y-94372000D01*
X164866000Y-96404000D01*
X163680666Y-96404000D01*
X163680666Y-94372000D01*
X163172666Y-94372000D01*
X163172666Y-96404000D01*
X161987333Y-96404000D01*
X161987333Y-94372000D01*
X161479333Y-94372000D01*
X161479333Y-96404000D01*
X160294000Y-96404000D01*
X160294000Y-94372000D01*
X159786000Y-94372000D01*
X159786000Y-96404000D01*
X158600666Y-96404000D01*
X158600666Y-94372000D01*
X158008000Y-94372000D01*
X158008000Y-96404000D01*
X156822666Y-96404000D01*
X156822666Y-94372000D01*
X156314666Y-94372000D01*
X156314666Y-96404000D01*
X155865933Y-96404000D01*
X155592571Y-96422154D01*
X155383574Y-96468601D01*
X155315599Y-96505600D01*
X155260113Y-96641327D01*
X155223210Y-96885336D01*
X155214000Y-97098267D01*
X155214000Y-97589333D01*
X151742666Y-97589333D01*
X151742666Y-96869666D01*
X151737244Y-96509871D01*
X151717507Y-96289664D01*
X151678250Y-96179543D01*
X151615666Y-96150000D01*
X151503418Y-96082227D01*
X151488666Y-96023000D01*
X151467003Y-95976536D01*
X151387371Y-95942701D01*
X151227810Y-95919613D01*
X150966357Y-95905390D01*
X150581050Y-95898149D01*
X150049927Y-95896007D01*
X150007000Y-95896000D01*
X149464918Y-95897857D01*
X149070180Y-95904682D01*
X148800823Y-95918359D01*
X148634886Y-95940769D01*
X148550406Y-95973796D01*
X148525421Y-96019320D01*
X148525333Y-96023000D01*
X148479615Y-96135672D01*
X148440666Y-96150000D01*
X148399342Y-96229544D01*
X148370108Y-96448112D01*
X148356532Y-96775612D01*
X148356000Y-96863961D01*
X148354758Y-96954333D01*
X148864000Y-96954333D01*
X148864000Y-96319333D01*
X151234666Y-96319333D01*
X151234666Y-97114608D01*
X151239795Y-97501122D01*
X151258448Y-97749491D01*
X151295523Y-97890687D01*
X151355920Y-97955679D01*
X151368591Y-97961275D01*
X151489776Y-97976346D01*
X151753695Y-97989671D01*
X152133753Y-98000563D01*
X152603355Y-98008335D01*
X153135903Y-98012300D01*
X153358258Y-98012666D01*
X155214000Y-98012666D01*
X155214000Y-99282666D01*
X152377666Y-99282662D01*
X152141223Y-98986331D01*
X151986982Y-98812530D01*
X151840320Y-98724365D01*
X151633977Y-98693222D01*
X151444675Y-98690000D01*
X151162856Y-98701338D01*
X150993819Y-98748198D01*
X150881795Y-98849846D01*
X150849945Y-98895464D01*
X150753775Y-99026441D01*
X150664350Y-99053604D01*
X150515487Y-98985070D01*
X150445826Y-98945028D01*
X150183036Y-98817961D01*
X149876765Y-98702432D01*
X149816500Y-98683829D01*
X149591124Y-98605081D01*
X149486465Y-98513452D01*
X149457406Y-98361813D01*
X149456666Y-98307961D01*
X149406113Y-98086859D01*
X149280718Y-97856007D01*
X149119876Y-97671585D01*
X148962982Y-97589767D01*
X148952709Y-97589333D01*
X148905384Y-97509156D01*
X148874633Y-97285579D01*
X148864000Y-96954333D01*
X148354758Y-96954333D01*
X148351100Y-97220333D01*
X148331879Y-97442024D01*
X148291552Y-97563519D01*
X148223335Y-97619304D01*
X148206183Y-97625472D01*
X148064975Y-97736864D01*
X147916021Y-97951252D01*
X147795739Y-98208156D01*
X147747965Y-98384260D01*
X148363726Y-98384260D01*
X148441820Y-98179853D01*
X148443645Y-98176434D01*
X148578654Y-98031563D01*
X148728736Y-98052721D01*
X148846501Y-98185444D01*
X148914886Y-98373903D01*
X148833904Y-98484788D01*
X148605003Y-98520666D01*
X148414589Y-98490331D01*
X148363726Y-98384260D01*
X147747965Y-98384260D01*
X147746907Y-98388159D01*
X147665108Y-98515817D01*
X147449371Y-98617393D01*
X147320671Y-98654059D01*
X146659625Y-98907392D01*
X146072210Y-99300994D01*
X145582678Y-99813158D01*
X145215282Y-100422180D01*
X145137169Y-100608236D01*
X145013702Y-101053369D01*
X144930752Y-101601301D01*
X144892331Y-102189477D01*
X144895588Y-102371646D01*
X146071846Y-102371646D01*
X146094718Y-101805399D01*
X146166722Y-101270710D01*
X146284837Y-100826717D01*
X146319511Y-100740675D01*
X146534880Y-100374516D01*
X146837325Y-100017041D01*
X147180902Y-99713369D01*
X147519664Y-99508619D01*
X147608609Y-99474772D01*
X147933402Y-99410819D01*
X148354051Y-99381346D01*
X148800590Y-99386527D01*
X149203054Y-99426535D01*
X149242923Y-99435196D01*
X151241501Y-99435196D01*
X151265284Y-99325000D01*
X151379990Y-99216666D01*
X151550921Y-99213050D01*
X151705103Y-99309405D01*
X151736407Y-99355637D01*
X151768585Y-99548517D01*
X151709296Y-99665727D01*
X151562105Y-99766188D01*
X151406072Y-99738996D01*
X151284702Y-99617536D01*
X151241501Y-99435196D01*
X149242923Y-99435196D01*
X149404510Y-99470298D01*
X149760519Y-99644419D01*
X150122785Y-99937610D01*
X150449545Y-100306557D01*
X150497267Y-100383333D01*
X151742666Y-100383333D01*
X152377666Y-99720111D01*
X153795833Y-99713055D01*
X155214000Y-99706000D01*
X155214000Y-100976000D01*
X154038541Y-100976000D01*
X153568949Y-100974248D01*
X153241778Y-100966667D01*
X153030133Y-100949774D01*
X152907117Y-100920082D01*
X152845834Y-100874107D01*
X152821855Y-100818345D01*
X152707679Y-100661825D01*
X152483916Y-100517064D01*
X152209278Y-100414534D01*
X151983658Y-100383333D01*
X151742666Y-100383333D01*
X150497267Y-100383333D01*
X150699040Y-100707946D01*
X150777232Y-100894044D01*
X150821745Y-101081833D01*
X152027969Y-101081833D01*
X152035968Y-100933415D01*
X152125056Y-100885931D01*
X152235013Y-100947010D01*
X152289214Y-101048739D01*
X152305379Y-101240464D01*
X152254729Y-101409492D01*
X152159101Y-101483968D01*
X152156941Y-101484000D01*
X152085865Y-101416869D01*
X152080177Y-101378166D01*
X152058329Y-101214828D01*
X152027969Y-101081833D01*
X150821745Y-101081833D01*
X150879650Y-101326119D01*
X150934332Y-101855726D01*
X150936504Y-102037733D01*
X152243898Y-102037733D01*
X152352677Y-101952551D01*
X152450932Y-101896559D01*
X152663453Y-101753995D01*
X152801217Y-101605057D01*
X152820640Y-101561634D01*
X152849397Y-101496948D01*
X152914024Y-101452116D01*
X153041533Y-101423538D01*
X153258933Y-101407615D01*
X153593237Y-101400748D01*
X154038541Y-101399333D01*
X155214000Y-101399333D01*
X155214000Y-102669333D01*
X152922826Y-102669333D01*
X152662642Y-102373000D01*
X152477972Y-102194043D01*
X152313992Y-102086485D01*
X152263062Y-102072925D01*
X152243898Y-102037733D01*
X150936504Y-102037733D01*
X150941079Y-102421091D01*
X150899691Y-102960444D01*
X150870280Y-103108473D01*
X152091220Y-103108473D01*
X152094565Y-102935704D01*
X152134908Y-102797567D01*
X152207348Y-102710769D01*
X152277588Y-102749478D01*
X152312933Y-102872639D01*
X152295705Y-102999477D01*
X152219733Y-103140751D01*
X152160294Y-103177333D01*
X152091220Y-103108473D01*
X150870280Y-103108473D01*
X150809969Y-103412010D01*
X150785597Y-103488104D01*
X150647263Y-103763607D01*
X151927724Y-103763607D01*
X152027148Y-103696797D01*
X152169848Y-103685333D01*
X152385789Y-103631730D01*
X152608315Y-103499630D01*
X152779899Y-103332097D01*
X152843333Y-103181182D01*
X152926671Y-103141863D01*
X153172034Y-103113682D01*
X153572450Y-103097158D01*
X154028666Y-103092666D01*
X155214000Y-103092666D01*
X155214000Y-104362666D01*
X152406974Y-104362666D01*
X152159487Y-104115179D01*
X151971923Y-103899493D01*
X151927724Y-103763607D01*
X150647263Y-103763607D01*
X150529182Y-103998771D01*
X150155258Y-104444325D01*
X149703349Y-104781388D01*
X149660244Y-104802757D01*
X151377576Y-104802757D01*
X151463243Y-104610839D01*
X151603440Y-104415484D01*
X151697281Y-104378040D01*
X151740322Y-104499253D01*
X151742666Y-104563966D01*
X151693769Y-104759503D01*
X151577556Y-104897096D01*
X151439741Y-104929098D01*
X151406364Y-104914461D01*
X151377576Y-104802757D01*
X149660244Y-104802757D01*
X149527780Y-104868424D01*
X149271031Y-104965752D01*
X149028364Y-105018608D01*
X148738408Y-105035141D01*
X148354516Y-105024210D01*
X147955098Y-104995810D01*
X147665813Y-104946570D01*
X147427600Y-104862416D01*
X147224689Y-104754993D01*
X146765372Y-104389871D01*
X146408679Y-103901759D01*
X146185585Y-103362265D01*
X146101128Y-102910314D01*
X146071846Y-102371646D01*
X144895588Y-102371646D01*
X144902451Y-102755344D01*
X144965123Y-103236348D01*
X144967843Y-103248751D01*
X145208007Y-103991035D01*
X145571473Y-104617417D01*
X146056599Y-105126286D01*
X146661743Y-105516034D01*
X147385265Y-105785052D01*
X147609800Y-105838727D01*
X147762834Y-105891860D01*
X147809231Y-105998883D01*
X147792228Y-106164745D01*
X147797651Y-106281251D01*
X148402979Y-106281251D01*
X148464388Y-106092519D01*
X148596949Y-105980201D01*
X148652333Y-105971333D01*
X148784621Y-106038479D01*
X148864000Y-106140666D01*
X148901687Y-106338749D01*
X148840278Y-106527481D01*
X148707716Y-106639799D01*
X148652333Y-106648666D01*
X148520044Y-106581521D01*
X148440666Y-106479333D01*
X148402979Y-106281251D01*
X147797651Y-106281251D01*
X147803121Y-106398734D01*
X147884237Y-106658681D01*
X148009316Y-106891068D01*
X148152100Y-107042377D01*
X148237363Y-107072000D01*
X148310072Y-107122629D01*
X148347283Y-107292242D01*
X148356000Y-107543714D01*
X148359762Y-107786328D01*
X148366607Y-107834000D01*
X148864000Y-107834000D01*
X148864000Y-107458705D01*
X148879950Y-107210463D01*
X148940845Y-107080641D01*
X149035588Y-107028951D01*
X149271051Y-106871386D01*
X149411093Y-106596180D01*
X149440761Y-106234686D01*
X149436382Y-106188658D01*
X149417478Y-105957206D01*
X149449471Y-105840984D01*
X149561732Y-105787263D01*
X149672671Y-105764439D01*
X149899359Y-105697507D01*
X150199810Y-105577953D01*
X150438299Y-105466391D01*
X150710819Y-105335663D01*
X150882841Y-105279021D01*
X151001484Y-105287590D01*
X151099025Y-105341936D01*
X151295917Y-105437893D01*
X151426211Y-105463333D01*
X151643780Y-105416106D01*
X151898584Y-105298247D01*
X152129513Y-105145488D01*
X152275460Y-104993561D01*
X152292549Y-104956753D01*
X152320930Y-104894344D01*
X152376761Y-104849319D01*
X152484667Y-104818851D01*
X152669275Y-104800113D01*
X152955210Y-104790281D01*
X153367098Y-104786527D01*
X153780372Y-104786000D01*
X155214000Y-104786000D01*
X155214000Y-106140666D01*
X153309000Y-106140666D01*
X152685300Y-106141989D01*
X152211370Y-106146826D01*
X151867659Y-106156481D01*
X151634619Y-106172257D01*
X151492698Y-106195457D01*
X151422349Y-106227384D01*
X151404000Y-106267666D01*
X151358282Y-106380338D01*
X151319333Y-106394666D01*
X151278101Y-106474258D01*
X151248902Y-106693164D01*
X151235243Y-107021579D01*
X151234666Y-107114333D01*
X151234666Y-107834000D01*
X148864000Y-107834000D01*
X148366607Y-107834000D01*
X148385648Y-107966586D01*
X148455558Y-108093751D01*
X148591392Y-108177085D01*
X148815050Y-108225851D01*
X149148432Y-108249311D01*
X149613437Y-108256728D01*
X150043285Y-108257333D01*
X150606189Y-108252497D01*
X151040942Y-108238463D01*
X151335360Y-108215945D01*
X151477259Y-108185657D01*
X151488666Y-108172666D01*
X151557243Y-108097552D01*
X151615666Y-108088000D01*
X151677624Y-108058305D01*
X151716217Y-107949927D01*
X151736268Y-107733930D01*
X151742599Y-107381374D01*
X151742666Y-107326000D01*
X151742666Y-106564000D01*
X155214000Y-106564000D01*
X155214000Y-107309067D01*
X155226196Y-107721743D01*
X155239662Y-107834000D01*
X155722000Y-107834000D01*
X155722000Y-96827333D01*
X166559333Y-96827333D01*
X166559333Y-107834000D01*
X155722000Y-107834000D01*
X155239662Y-107834000D01*
X155260962Y-108011550D01*
X155315561Y-108155695D01*
X155315600Y-108155733D01*
X155453562Y-108213516D01*
X155695510Y-108250320D01*
X155865933Y-108257333D01*
X156314666Y-108257333D01*
X156314666Y-110374000D01*
X156822666Y-110374000D01*
X156822666Y-108257333D01*
G37*
X156822666Y-108257333D02*
X158008000Y-108257333D01*
X158008000Y-110374000D01*
X158600666Y-110374000D01*
X158600666Y-108257333D01*
X159786000Y-108257333D01*
X159786000Y-110374000D01*
X160294000Y-110374000D01*
X160294000Y-108257333D01*
X161479333Y-108257333D01*
X161479333Y-110374000D01*
X161987333Y-110374000D01*
X161987333Y-108257333D01*
X163172666Y-108257333D01*
X163172666Y-110374000D01*
X163680666Y-110374000D01*
X163680666Y-108257333D01*
X164866000Y-108257333D01*
X164866000Y-110374000D01*
X165374000Y-110374000D01*
X165374000Y-108257333D01*
X166119066Y-108257333D01*
X166531743Y-108245137D01*
X166821550Y-108210371D01*
X166965695Y-108155771D01*
X166965733Y-108155733D01*
X167020344Y-108011682D01*
X167055122Y-107721956D01*
X167067333Y-107309345D01*
X167067333Y-106564000D01*
X169099333Y-106564000D01*
X169099333Y-106140666D01*
X167067333Y-106140666D01*
X167067333Y-104786000D01*
X169099333Y-104786000D01*
X169099333Y-104362666D01*
X167067333Y-104362666D01*
X167067333Y-103092666D01*
X169099333Y-103092666D01*
X169099333Y-102669333D01*
X167067333Y-102669333D01*
X167067333Y-101399333D01*
X169099333Y-101399333D01*
X169099333Y-100976000D01*
X167067333Y-100976000D01*
X167067333Y-99706000D01*
X169099333Y-99706000D01*
X169099333Y-99282666D01*
X167067333Y-99282666D01*
X167067333Y-98012666D01*
X169099333Y-98012666D01*
X169099333Y-97589333D01*
X167067333Y-97589333D01*
X167067333Y-97098266D01*
X167050731Y-96813481D01*
X167007882Y-96592267D01*
X166965733Y-96505600D01*
X166821682Y-96450989D01*
X166531955Y-96416211D01*
X166119345Y-96404000D01*
X165374000Y-96404000D01*
X165374000Y-94372000D01*
X164866000Y-94372000D01*
X164866000Y-96404000D01*
X163680666Y-96404000D01*
X163680666Y-94372000D01*
X163172666Y-94372000D01*
X163172666Y-96404000D01*
X161987333Y-96404000D01*
X161987333Y-94372000D01*
X161479333Y-94372000D01*
X161479333Y-96404000D01*
X160294000Y-96404000D01*
X160294000Y-94372000D01*
X159786000Y-94372000D01*
X159786000Y-96404000D01*
X158600666Y-96404000D01*
X158600666Y-94372000D01*
X158008000Y-94372000D01*
X158008000Y-96404000D01*
X156822666Y-96404000D01*
X156822666Y-94372000D01*
X156314666Y-94372000D01*
X156314666Y-96404000D01*
X155865933Y-96404000D01*
X155592571Y-96422154D01*
X155383574Y-96468601D01*
X155315599Y-96505600D01*
X155260113Y-96641327D01*
X155223210Y-96885336D01*
X155214000Y-97098267D01*
X155214000Y-97589333D01*
X151742666Y-97589333D01*
X151742666Y-96869666D01*
X151737244Y-96509871D01*
X151717507Y-96289664D01*
X151678250Y-96179543D01*
X151615666Y-96150000D01*
X151503418Y-96082227D01*
X151488666Y-96023000D01*
X151467003Y-95976536D01*
X151387371Y-95942701D01*
X151227810Y-95919613D01*
X150966357Y-95905390D01*
X150581050Y-95898149D01*
X150049927Y-95896007D01*
X150007000Y-95896000D01*
X149464918Y-95897857D01*
X149070180Y-95904682D01*
X148800823Y-95918359D01*
X148634886Y-95940769D01*
X148550406Y-95973796D01*
X148525421Y-96019320D01*
X148525333Y-96023000D01*
X148479615Y-96135672D01*
X148440666Y-96150000D01*
X148399342Y-96229544D01*
X148370108Y-96448112D01*
X148356532Y-96775612D01*
X148356000Y-96863961D01*
X148354758Y-96954333D01*
X148864000Y-96954333D01*
X148864000Y-96319333D01*
X151234666Y-96319333D01*
X151234666Y-97114608D01*
X151239795Y-97501122D01*
X151258448Y-97749491D01*
X151295523Y-97890687D01*
X151355920Y-97955679D01*
X151368591Y-97961275D01*
X151489776Y-97976346D01*
X151753695Y-97989671D01*
X152133753Y-98000563D01*
X152603355Y-98008335D01*
X153135903Y-98012300D01*
X153358258Y-98012666D01*
X155214000Y-98012666D01*
X155214000Y-99282666D01*
X152377666Y-99282662D01*
X152141223Y-98986331D01*
X151986982Y-98812530D01*
X151840320Y-98724365D01*
X151633977Y-98693222D01*
X151444675Y-98690000D01*
X151162856Y-98701338D01*
X150993819Y-98748198D01*
X150881795Y-98849846D01*
X150849945Y-98895464D01*
X150753775Y-99026441D01*
X150664350Y-99053604D01*
X150515487Y-98985070D01*
X150445826Y-98945028D01*
X150183036Y-98817961D01*
X149876765Y-98702432D01*
X149816500Y-98683829D01*
X149591124Y-98605081D01*
X149486465Y-98513452D01*
X149457406Y-98361813D01*
X149456666Y-98307961D01*
X149406113Y-98086859D01*
X149280718Y-97856007D01*
X149119876Y-97671585D01*
X148962982Y-97589767D01*
X148952709Y-97589333D01*
X148905384Y-97509156D01*
X148874633Y-97285579D01*
X148864000Y-96954333D01*
X148354758Y-96954333D01*
X148351100Y-97220333D01*
X148331879Y-97442024D01*
X148291552Y-97563519D01*
X148223335Y-97619304D01*
X148206183Y-97625472D01*
X148064975Y-97736864D01*
X147916021Y-97951252D01*
X147795739Y-98208156D01*
X147747965Y-98384260D01*
X148363726Y-98384260D01*
X148441820Y-98179853D01*
X148443645Y-98176434D01*
X148578654Y-98031563D01*
X148728736Y-98052721D01*
X148846501Y-98185444D01*
X148914886Y-98373903D01*
X148833904Y-98484788D01*
X148605003Y-98520666D01*
X148414589Y-98490331D01*
X148363726Y-98384260D01*
X147747965Y-98384260D01*
X147746907Y-98388159D01*
X147665108Y-98515817D01*
X147449371Y-98617393D01*
X147320671Y-98654059D01*
X146659625Y-98907392D01*
X146072210Y-99300994D01*
X145582678Y-99813158D01*
X145215282Y-100422180D01*
X145137169Y-100608236D01*
X145013702Y-101053369D01*
X144930752Y-101601301D01*
X144892331Y-102189477D01*
X144895588Y-102371646D01*
X146071846Y-102371646D01*
X146094718Y-101805399D01*
X146166722Y-101270710D01*
X146284837Y-100826717D01*
X146319511Y-100740675D01*
X146534880Y-100374516D01*
X146837325Y-100017041D01*
X147180902Y-99713369D01*
X147519664Y-99508619D01*
X147608609Y-99474772D01*
X147933402Y-99410819D01*
X148354051Y-99381346D01*
X148800590Y-99386527D01*
X149203054Y-99426535D01*
X149242923Y-99435196D01*
X151241501Y-99435196D01*
X151265284Y-99325000D01*
X151379990Y-99216666D01*
X151550921Y-99213050D01*
X151705103Y-99309405D01*
X151736407Y-99355637D01*
X151768585Y-99548517D01*
X151709296Y-99665727D01*
X151562105Y-99766188D01*
X151406072Y-99738996D01*
X151284702Y-99617536D01*
X151241501Y-99435196D01*
X149242923Y-99435196D01*
X149404510Y-99470298D01*
X149760519Y-99644419D01*
X150122785Y-99937610D01*
X150449545Y-100306557D01*
X150497267Y-100383333D01*
X151742666Y-100383333D01*
X152377666Y-99720111D01*
X153795833Y-99713055D01*
X155214000Y-99706000D01*
X155214000Y-100976000D01*
X154038541Y-100976000D01*
X153568949Y-100974248D01*
X153241778Y-100966667D01*
X153030133Y-100949774D01*
X152907117Y-100920082D01*
X152845834Y-100874107D01*
X152821855Y-100818345D01*
X152707679Y-100661825D01*
X152483916Y-100517064D01*
X152209278Y-100414534D01*
X151983658Y-100383333D01*
X151742666Y-100383333D01*
X150497267Y-100383333D01*
X150699040Y-100707946D01*
X150777232Y-100894044D01*
X150821745Y-101081833D01*
X152027969Y-101081833D01*
X152035968Y-100933415D01*
X152125056Y-100885931D01*
X152235013Y-100947010D01*
X152289214Y-101048739D01*
X152305379Y-101240464D01*
X152254729Y-101409492D01*
X152159101Y-101483968D01*
X152156941Y-101484000D01*
X152085865Y-101416869D01*
X152080177Y-101378166D01*
X152058329Y-101214828D01*
X152027969Y-101081833D01*
X150821745Y-101081833D01*
X150879650Y-101326119D01*
X150934332Y-101855726D01*
X150936504Y-102037733D01*
X152243898Y-102037733D01*
X152352677Y-101952551D01*
X152450932Y-101896559D01*
X152663453Y-101753995D01*
X152801217Y-101605057D01*
X152820640Y-101561634D01*
X152849397Y-101496948D01*
X152914024Y-101452116D01*
X153041533Y-101423538D01*
X153258933Y-101407615D01*
X153593237Y-101400748D01*
X154038541Y-101399333D01*
X155214000Y-101399333D01*
X155214000Y-102669333D01*
X152922826Y-102669333D01*
X152662642Y-102373000D01*
X152477972Y-102194043D01*
X152313992Y-102086485D01*
X152263062Y-102072925D01*
X152243898Y-102037733D01*
X150936504Y-102037733D01*
X150941079Y-102421091D01*
X150899691Y-102960444D01*
X150870280Y-103108473D01*
X152091220Y-103108473D01*
X152094565Y-102935704D01*
X152134908Y-102797567D01*
X152207348Y-102710769D01*
X152277588Y-102749478D01*
X152312933Y-102872639D01*
X152295705Y-102999477D01*
X152219733Y-103140751D01*
X152160294Y-103177333D01*
X152091220Y-103108473D01*
X150870280Y-103108473D01*
X150809969Y-103412010D01*
X150785597Y-103488104D01*
X150647263Y-103763607D01*
X151927724Y-103763607D01*
X152027148Y-103696797D01*
X152169848Y-103685333D01*
X152385789Y-103631730D01*
X152608315Y-103499630D01*
X152779899Y-103332097D01*
X152843333Y-103181182D01*
X152926671Y-103141863D01*
X153172034Y-103113682D01*
X153572450Y-103097158D01*
X154028666Y-103092666D01*
X155214000Y-103092666D01*
X155214000Y-104362666D01*
X152406974Y-104362666D01*
X152159487Y-104115179D01*
X151971923Y-103899493D01*
X151927724Y-103763607D01*
X150647263Y-103763607D01*
X150529182Y-103998771D01*
X150155258Y-104444325D01*
X149703349Y-104781388D01*
X149660244Y-104802757D01*
X151377576Y-104802757D01*
X151463243Y-104610839D01*
X151603440Y-104415484D01*
X151697281Y-104378040D01*
X151740322Y-104499253D01*
X151742666Y-104563966D01*
X151693769Y-104759503D01*
X151577556Y-104897096D01*
X151439741Y-104929098D01*
X151406364Y-104914461D01*
X151377576Y-104802757D01*
X149660244Y-104802757D01*
X149527780Y-104868424D01*
X149271031Y-104965752D01*
X149028364Y-105018608D01*
X148738408Y-105035141D01*
X148354516Y-105024210D01*
X147955098Y-104995810D01*
X147665813Y-104946570D01*
X147427600Y-104862416D01*
X147224689Y-104754993D01*
X146765372Y-104389871D01*
X146408679Y-103901759D01*
X146185585Y-103362265D01*
X146101128Y-102910314D01*
X146071846Y-102371646D01*
X144895588Y-102371646D01*
X144902451Y-102755344D01*
X144965123Y-103236348D01*
X144967843Y-103248751D01*
X145208007Y-103991035D01*
X145571473Y-104617417D01*
X146056599Y-105126286D01*
X146661743Y-105516034D01*
X147385265Y-105785052D01*
X147609800Y-105838727D01*
X147762834Y-105891860D01*
X147809231Y-105998883D01*
X147792228Y-106164745D01*
X147797651Y-106281251D01*
X148402979Y-106281251D01*
X148464388Y-106092519D01*
X148596949Y-105980201D01*
X148652333Y-105971333D01*
X148784621Y-106038479D01*
X148864000Y-106140666D01*
X148901687Y-106338749D01*
X148840278Y-106527481D01*
X148707716Y-106639799D01*
X148652333Y-106648666D01*
X148520044Y-106581521D01*
X148440666Y-106479333D01*
X148402979Y-106281251D01*
X147797651Y-106281251D01*
X147803121Y-106398734D01*
X147884237Y-106658681D01*
X148009316Y-106891068D01*
X148152100Y-107042377D01*
X148237363Y-107072000D01*
X148310072Y-107122629D01*
X148347283Y-107292242D01*
X148356000Y-107543714D01*
X148359762Y-107786328D01*
X148366607Y-107834000D01*
X148864000Y-107834000D01*
X148864000Y-107458705D01*
X148879950Y-107210463D01*
X148940845Y-107080641D01*
X149035588Y-107028951D01*
X149271051Y-106871386D01*
X149411093Y-106596180D01*
X149440761Y-106234686D01*
X149436382Y-106188658D01*
X149417478Y-105957206D01*
X149449471Y-105840984D01*
X149561732Y-105787263D01*
X149672671Y-105764439D01*
X149899359Y-105697507D01*
X150199810Y-105577953D01*
X150438299Y-105466391D01*
X150710819Y-105335663D01*
X150882841Y-105279021D01*
X151001484Y-105287590D01*
X151099025Y-105341936D01*
X151295917Y-105437893D01*
X151426211Y-105463333D01*
X151643780Y-105416106D01*
X151898584Y-105298247D01*
X152129513Y-105145488D01*
X152275460Y-104993561D01*
X152292549Y-104956753D01*
X152320930Y-104894344D01*
X152376761Y-104849319D01*
X152484667Y-104818851D01*
X152669275Y-104800113D01*
X152955210Y-104790281D01*
X153367098Y-104786527D01*
X153780372Y-104786000D01*
X155214000Y-104786000D01*
X155214000Y-106140666D01*
X153309000Y-106140666D01*
X152685300Y-106141989D01*
X152211370Y-106146826D01*
X151867659Y-106156481D01*
X151634619Y-106172257D01*
X151492698Y-106195457D01*
X151422349Y-106227384D01*
X151404000Y-106267666D01*
X151358282Y-106380338D01*
X151319333Y-106394666D01*
X151278101Y-106474258D01*
X151248902Y-106693164D01*
X151235243Y-107021579D01*
X151234666Y-107114333D01*
X151234666Y-107834000D01*
X148864000Y-107834000D01*
X148366607Y-107834000D01*
X148385648Y-107966586D01*
X148455558Y-108093751D01*
X148591392Y-108177085D01*
X148815050Y-108225851D01*
X149148432Y-108249311D01*
X149613437Y-108256728D01*
X150043285Y-108257333D01*
X150606189Y-108252497D01*
X151040942Y-108238463D01*
X151335360Y-108215945D01*
X151477259Y-108185657D01*
X151488666Y-108172666D01*
X151557243Y-108097552D01*
X151615666Y-108088000D01*
X151677624Y-108058305D01*
X151716217Y-107949927D01*
X151736268Y-107733930D01*
X151742599Y-107381374D01*
X151742666Y-107326000D01*
X151742666Y-106564000D01*
X155214000Y-106564000D01*
X155214000Y-107309067D01*
X155226196Y-107721743D01*
X155239662Y-107834000D01*
X155722000Y-107834000D01*
X155722000Y-96827333D01*
X166559333Y-96827333D01*
X166559333Y-107834000D01*
X155722000Y-107834000D01*
X155239662Y-107834000D01*
X155260962Y-108011550D01*
X155315561Y-108155695D01*
X155315600Y-108155733D01*
X155453562Y-108213516D01*
X155695510Y-108250320D01*
X155865933Y-108257333D01*
X156314666Y-108257333D01*
X156314666Y-110374000D01*
X156822666Y-110374000D01*
X156822666Y-108257333D01*
G36*
X160662338Y-105712343D02*
G01*
X161199645Y-105696401D01*
X161615713Y-105668051D01*
X161934455Y-105625838D01*
X162111373Y-105587547D01*
X162842779Y-105322850D01*
X163449995Y-104943340D01*
X163931108Y-104451342D01*
X164284209Y-103849181D01*
X164507386Y-103139182D01*
X164585430Y-102577343D01*
X164580119Y-101739351D01*
X164433749Y-100973881D01*
X164152070Y-100291996D01*
X163740827Y-99704757D01*
X163205768Y-99223224D01*
X162683696Y-98917385D01*
X162114333Y-98647666D01*
X160230500Y-98619458D01*
X158346666Y-98591250D01*
X158346666Y-99343000D01*
X159447333Y-99343000D01*
X160533323Y-99387046D01*
X161039259Y-99413531D01*
X161415658Y-99449640D01*
X161702280Y-99501405D01*
X161938885Y-99574858D01*
X162036156Y-99615058D01*
X162570997Y-99940736D01*
X163007096Y-100390999D01*
X163273267Y-100839907D01*
X163361720Y-101058756D01*
X163419205Y-101276931D01*
X163452017Y-101539646D01*
X163466450Y-101892117D01*
X163469000Y-102246000D01*
X163465814Y-102678816D01*
X163451478Y-102986313D01*
X163418819Y-103212460D01*
X163360665Y-103401222D01*
X163269845Y-103596570D01*
X163239081Y-103655600D01*
X162981611Y-104063144D01*
X162676150Y-104378036D01*
X162299134Y-104611363D01*
X161826999Y-104774212D01*
X161236182Y-104877671D01*
X160526833Y-104931795D01*
X159447333Y-104979666D01*
X159447333Y-99343000D01*
X158346666Y-99343000D01*
X158346666Y-105717333D01*
X159979878Y-105717333D01*
X160662338Y-105712343D01*
G37*
X160662338Y-105712343D02*
X161199645Y-105696401D01*
X161615713Y-105668051D01*
X161934455Y-105625838D01*
X162111373Y-105587547D01*
X162842779Y-105322850D01*
X163449995Y-104943340D01*
X163931108Y-104451342D01*
X164284209Y-103849181D01*
X164507386Y-103139182D01*
X164585430Y-102577343D01*
X164580119Y-101739351D01*
X164433749Y-100973881D01*
X164152070Y-100291996D01*
X163740827Y-99704757D01*
X163205768Y-99223224D01*
X162683696Y-98917385D01*
X162114333Y-98647666D01*
X160230500Y-98619458D01*
X158346666Y-98591250D01*
X158346666Y-99343000D01*
X159447333Y-99343000D01*
X160533323Y-99387046D01*
X161039259Y-99413531D01*
X161415658Y-99449640D01*
X161702280Y-99501405D01*
X161938885Y-99574858D01*
X162036156Y-99615058D01*
X162570997Y-99940736D01*
X163007096Y-100390999D01*
X163273267Y-100839907D01*
X163361720Y-101058756D01*
X163419205Y-101276931D01*
X163452017Y-101539646D01*
X163466450Y-101892117D01*
X163469000Y-102246000D01*
X163465814Y-102678816D01*
X163451478Y-102986313D01*
X163418819Y-103212460D01*
X163360665Y-103401222D01*
X163269845Y-103596570D01*
X163239081Y-103655600D01*
X162981611Y-104063144D01*
X162676150Y-104378036D01*
X162299134Y-104611363D01*
X161826999Y-104774212D01*
X161236182Y-104877671D01*
X160526833Y-104931795D01*
X159447333Y-104979666D01*
X159447333Y-99343000D01*
X158346666Y-99343000D01*
X158346666Y-105717333D01*
X159979878Y-105717333D01*
X160662338Y-105712343D01*
D13*
%TO.C,J3*%
X145420000Y-75340000D02*
X148080000Y-75340000D01*
X145420000Y-85560000D02*
X145420000Y-75340000D01*
X148080000Y-85560000D02*
X148080000Y-75340000D01*
X145420000Y-85560000D02*
X148080000Y-85560000D01*
X145420000Y-86830000D02*
X145420000Y-88160000D01*
X145420000Y-88160000D02*
X146750000Y-88160000D01*
%TO.C,J2*%
X134255000Y-110525000D02*
X135785000Y-110525000D01*
X127235000Y-110055000D02*
X136255000Y-110055000D01*
D11*
X127305000Y-110055000D02*
X127235000Y-110055000D01*
D13*
X118255000Y-110055000D02*
X125035000Y-110055000D01*
X118255000Y-96855000D02*
X118255000Y-110055000D01*
D11*
X118265000Y-96855000D02*
X118255000Y-96855000D01*
D13*
X118255000Y-96855000D02*
X125035000Y-96855000D01*
D11*
X118375000Y-96855000D02*
X118255000Y-96855000D01*
D13*
X136255000Y-96855000D02*
X127235000Y-96855000D01*
X136255000Y-110055000D02*
X136255000Y-96855000D01*
%TO.C,U4*%
X153325000Y-74940000D02*
X153325000Y-76550000D01*
X153325000Y-74940000D02*
X155325000Y-74940000D01*
X168925000Y-75175000D02*
X153575000Y-75175000D01*
X168925000Y-83125000D02*
X168925000Y-75175000D01*
X153575000Y-83125000D02*
X168925000Y-83125000D01*
X153575000Y-75175000D02*
X153575000Y-83125000D01*
%TO.C,JP2*%
X140148000Y-111312000D02*
X140148000Y-108652000D01*
X145288000Y-111312000D02*
X140148000Y-111312000D01*
X145288000Y-108652000D02*
X140148000Y-108652000D01*
X145288000Y-111312000D02*
X145288000Y-108652000D01*
X146558000Y-111312000D02*
X147888000Y-111312000D01*
X147888000Y-111312000D02*
X147888000Y-109982000D01*
%TO.C,JP1*%
X140148000Y-113852000D02*
X140148000Y-111192000D01*
X145288000Y-113852000D02*
X140148000Y-113852000D01*
X145288000Y-111192000D02*
X140148000Y-111192000D01*
X145288000Y-113852000D02*
X145288000Y-111192000D01*
X146558000Y-113852000D02*
X147888000Y-113852000D01*
X147888000Y-113852000D02*
X147888000Y-112522000D01*
%TO.C,J3*%
D10*
X144833333Y-86952380D02*
X144833333Y-87666666D01*
X144880952Y-87809523D01*
X144976190Y-87904761D01*
X145119047Y-87952380D01*
X145214285Y-87952380D01*
X144452380Y-86952380D02*
X143833333Y-86952380D01*
X144166666Y-87333333D01*
X144023809Y-87333333D01*
X143928571Y-87380952D01*
X143880952Y-87428571D01*
X143833333Y-87523809D01*
X143833333Y-87761904D01*
X143880952Y-87857142D01*
X143928571Y-87904761D01*
X144023809Y-87952380D01*
X144309523Y-87952380D01*
X144404761Y-87904761D01*
X144452380Y-87857142D01*
%TO.C,J2*%
X137732619Y-108628333D02*
X137018333Y-108628333D01*
X136875476Y-108675952D01*
X136780238Y-108771190D01*
X136732619Y-108914047D01*
X136732619Y-109009285D01*
X137637380Y-108199761D02*
X137685000Y-108152142D01*
X137732619Y-108056904D01*
X137732619Y-107818809D01*
X137685000Y-107723571D01*
X137637380Y-107675952D01*
X137542142Y-107628333D01*
X137446904Y-107628333D01*
X137304047Y-107675952D01*
X136732619Y-108247380D01*
X136732619Y-107628333D01*
%TO.C,U4*%
X151877380Y-77238095D02*
X152686904Y-77238095D01*
X152782142Y-77285714D01*
X152829761Y-77333333D01*
X152877380Y-77428571D01*
X152877380Y-77619047D01*
X152829761Y-77714285D01*
X152782142Y-77761904D01*
X152686904Y-77809523D01*
X151877380Y-77809523D01*
X152210714Y-78714285D02*
X152877380Y-78714285D01*
X151829761Y-78476190D02*
X152544047Y-78238095D01*
X152544047Y-78857142D01*
%TO.C,JP2*%
X148340380Y-109148666D02*
X149054666Y-109148666D01*
X149197523Y-109101047D01*
X149292761Y-109005809D01*
X149340380Y-108862952D01*
X149340380Y-108767714D01*
X149340380Y-109624857D02*
X148340380Y-109624857D01*
X148340380Y-110005809D01*
X148388000Y-110101047D01*
X148435619Y-110148666D01*
X148530857Y-110196285D01*
X148673714Y-110196285D01*
X148768952Y-110148666D01*
X148816571Y-110101047D01*
X148864190Y-110005809D01*
X148864190Y-109624857D01*
X148435619Y-110577238D02*
X148388000Y-110624857D01*
X148340380Y-110720095D01*
X148340380Y-110958190D01*
X148388000Y-111053428D01*
X148435619Y-111101047D01*
X148530857Y-111148666D01*
X148626095Y-111148666D01*
X148768952Y-111101047D01*
X149340380Y-110529619D01*
X149340380Y-111148666D01*
%TO.C,JP1*%
X148340380Y-111688666D02*
X149054666Y-111688666D01*
X149197523Y-111641047D01*
X149292761Y-111545809D01*
X149340380Y-111402952D01*
X149340380Y-111307714D01*
X149340380Y-112164857D02*
X148340380Y-112164857D01*
X148340380Y-112545809D01*
X148388000Y-112641047D01*
X148435619Y-112688666D01*
X148530857Y-112736285D01*
X148673714Y-112736285D01*
X148768952Y-112688666D01*
X148816571Y-112641047D01*
X148864190Y-112545809D01*
X148864190Y-112164857D01*
X149340380Y-113688666D02*
X149340380Y-113117238D01*
X149340380Y-113402952D02*
X148340380Y-113402952D01*
X148483238Y-113307714D01*
X148578476Y-113212476D01*
X148626095Y-113117238D01*
%TD*%
M02*
