%TF.GenerationSoftware,KiCad,Pcbnew,5.1.12-1.fc35*%
%TF.CreationDate,2021-12-21T00:05:04+01:00*%
%TF.ProjectId,smartmeterreader,736d6172-746d-4657-9465-727265616465,rev?*%
%TF.SameCoordinates,Original*%
%TF.FileFunction,Copper,L4,Bot*%
%TF.FilePolarity,Positive*%
%FSLAX46Y46*%
G04 Gerber Fmt 4.6, Leading zero omitted, Abs format (unit mm)*
G04 Created by KiCad (PCBNEW 5.1.12-1.fc35) date 2021-12-21 00:05:04*
%MOMM*%
%LPD*%
G01*
G04 APERTURE LIST*
%TA.AperFunction,ComponentPad*%
%ADD10O,1.700000X1.700000*%
%TD*%
%TA.AperFunction,ComponentPad*%
%ADD11R,1.700000X1.700000*%
%TD*%
%TA.AperFunction,ComponentPad*%
%ADD12C,1.520000*%
%TD*%
%TA.AperFunction,ComponentPad*%
%ADD13R,1.520000X1.520000*%
%TD*%
%TA.AperFunction,ComponentPad*%
%ADD14R,1.500000X1.500000*%
%TD*%
%TA.AperFunction,ComponentPad*%
%ADD15C,1.500000*%
%TD*%
%TA.AperFunction,ComponentPad*%
%ADD16O,1.600000X0.900000*%
%TD*%
%TA.AperFunction,ViaPad*%
%ADD17C,0.700000*%
%TD*%
%TA.AperFunction,ViaPad*%
%ADD18C,0.800000*%
%TD*%
%TA.AperFunction,ViaPad*%
%ADD19C,0.550000*%
%TD*%
%TA.AperFunction,Conductor*%
%ADD20C,0.400000*%
%TD*%
%TA.AperFunction,Conductor*%
%ADD21C,0.500000*%
%TD*%
%TA.AperFunction,Conductor*%
%ADD22C,0.250000*%
%TD*%
%TA.AperFunction,Conductor*%
%ADD23C,0.150000*%
%TD*%
G04 APERTURE END LIST*
D10*
%TO.P,J3,5*%
%TO.N,/UART_RX*%
X146750000Y-76670000D03*
%TO.P,J3,4*%
%TO.N,/UART_TX*%
X146750000Y-79210000D03*
%TO.P,J3,3*%
%TO.N,/UART_DTR*%
X146750000Y-81750000D03*
%TO.P,J3,2*%
%TO.N,/UART_RTS*%
X146750000Y-84290000D03*
D11*
%TO.P,J3,1*%
%TO.N,GND*%
X146750000Y-86830000D03*
%TD*%
D12*
%TO.P,J2,6*%
%TO.N,GND*%
X132485000Y-100275000D03*
%TO.P,J2,5*%
%TO.N,/DATA_LINE*%
X135025000Y-101545000D03*
%TO.P,J2,4*%
%TO.N,N/C*%
X132485000Y-102815000D03*
%TO.P,J2,3*%
%TO.N,GND*%
X135025000Y-104085000D03*
%TO.P,J2,2*%
%TO.N,/DATA_REQ*%
X132485000Y-105355000D03*
D13*
%TO.P,J2,1*%
%TO.N,Net-(F2-Pad1)*%
X135025000Y-106625000D03*
%TD*%
D14*
%TO.P,U4,1*%
%TO.N,/High_side_SW.sch/VOut*%
X157500000Y-80500000D03*
D15*
%TO.P,U4,2*%
%TO.N,/DHT22_DATA*%
X160000000Y-80500000D03*
%TO.P,U4,3*%
%TO.N,N/C*%
X162500000Y-80500000D03*
%TO.P,U4,4*%
%TO.N,GND*%
X165000000Y-80500000D03*
%TD*%
D10*
%TO.P,JP2,3*%
%TO.N,/UART_RTS*%
X141478000Y-109982000D03*
%TO.P,JP2,2*%
%TO.N,/Data_Req_TTL*%
X144018000Y-109982000D03*
D11*
%TO.P,JP2,1*%
%TO.N,/GPIO4*%
X146558000Y-109982000D03*
%TD*%
D10*
%TO.P,JP1,3*%
%TO.N,/Data_line_TTL*%
X141478000Y-112522000D03*
%TO.P,JP1,2*%
%TO.N,/UART_RX*%
X144018000Y-112522000D03*
D11*
%TO.P,JP1,1*%
%TO.N,/U0_TXD*%
X146558000Y-112522000D03*
%TD*%
D16*
%TO.P,J1,SH*%
%TO.N,Earth*%
X123000000Y-86800000D03*
X123000000Y-80200000D03*
%TD*%
D17*
%TO.N,*%
X133300000Y-91300000D03*
X133300000Y-93500000D03*
%TO.N,GND*%
X134800000Y-89300000D03*
X136300000Y-89300000D03*
X131800000Y-89300000D03*
X133300000Y-89300000D03*
X131800000Y-93500000D03*
X131800000Y-91300000D03*
X134200000Y-77700000D03*
D18*
X125600000Y-76700000D03*
D17*
X129100000Y-81100000D03*
X143000000Y-83600000D03*
X126024035Y-85349988D03*
X136300000Y-95500000D03*
X134800000Y-95500000D03*
X133300000Y-95500000D03*
X131800000Y-95500000D03*
X129700000Y-103500000D03*
X138100000Y-91500000D03*
X132000000Y-112000000D03*
X139220000Y-99230000D03*
X150990000Y-111400000D03*
X165020000Y-85640000D03*
X153360000Y-78100000D03*
X155150000Y-88730000D03*
X146500000Y-105000000D03*
X138397694Y-84897697D03*
%TO.N,+3V3*%
X127800000Y-94700000D03*
X138100000Y-96300000D03*
X156000000Y-115000000D03*
X151000000Y-94500000D03*
X139930000Y-96080000D03*
X151460000Y-90200000D03*
X151460000Y-83010000D03*
X160890000Y-91000000D03*
%TO.N,/5V_USB*%
X132900000Y-87500000D03*
X136700000Y-75200000D03*
%TO.N,/USB-UART-transceiver/3.3V*%
X133100000Y-80100000D03*
X137900000Y-81500000D03*
D19*
%TO.N,/D+*%
X138400000Y-83975000D03*
X131158549Y-83975000D03*
%TO.N,/D-*%
X138400000Y-83025000D03*
X131158549Y-83025000D03*
%TO.N,/DATA_LINE*%
X136350000Y-112620000D03*
%TO.N,Net-(D5-Pad1)*%
X133100000Y-81600000D03*
X127200000Y-75800000D03*
%TO.N,Net-(D6-Pad1)*%
X132200000Y-82500000D03*
X127300000Y-79300000D03*
%TO.N,/Data_line_TTL*%
X163080000Y-113370000D03*
%TO.N,/UART_RX*%
X134400000Y-86600000D03*
%TO.N,/UART_RTS*%
X142686030Y-91604182D03*
%TO.N,/Data_Req_TTL*%
X137900000Y-103100000D03*
%TO.N,/nRST*%
X166600000Y-91530000D03*
X163580000Y-88810000D03*
%TO.N,/DHT22_EN*%
X156470000Y-89000000D03*
X153510000Y-76080000D03*
%TO.N,/UART_TX*%
X135149066Y-86562547D03*
X142689998Y-93800000D03*
%TO.N,Net-(R8-Pad2)*%
X130300000Y-77500000D03*
X135300000Y-80500000D03*
%TO.N,Net-(F1-Pad2)*%
X126900000Y-81500000D03*
X127500000Y-87500000D03*
%TD*%
D20*
%TO.N,+3V3*%
X127800000Y-94700000D02*
X129100000Y-96000000D01*
X138050001Y-96250001D02*
X138100000Y-96300000D01*
X129350001Y-96250001D02*
X138050001Y-96250001D01*
X129100000Y-96000000D02*
X129350001Y-96250001D01*
D21*
X151000000Y-110000000D02*
X151000000Y-94500000D01*
X156000000Y-115000000D02*
X151000000Y-110000000D01*
D20*
X149420000Y-96080000D02*
X151000000Y-94500000D01*
X139930000Y-96080000D02*
X149420000Y-96080000D01*
X151460000Y-90200000D02*
X151460000Y-83010000D01*
X160090000Y-90200000D02*
X151460000Y-90200000D01*
X160890000Y-91000000D02*
X160090000Y-90200000D01*
D22*
%TO.N,/5V_USB*%
X127011999Y-79900001D02*
X126600000Y-79488002D01*
X128899003Y-79900001D02*
X127011999Y-79900001D01*
X130558548Y-81559546D02*
X128899003Y-79900001D01*
X130558548Y-85158548D02*
X130558548Y-81559546D01*
X132900000Y-87500000D02*
X130558548Y-85158548D01*
X126911998Y-75200000D02*
X136700000Y-75200000D01*
X126600000Y-75511998D02*
X126911998Y-75200000D01*
X126600000Y-79488002D02*
X126600000Y-75511998D01*
%TO.N,/USB-UART-transceiver/3.3V*%
X134500000Y-81500000D02*
X137900000Y-81500000D01*
X133100000Y-80100000D02*
X134500000Y-81500000D01*
D23*
%TO.N,/D+*%
X131358549Y-83775000D02*
X131158549Y-83975000D01*
X138400000Y-83975000D02*
X138200000Y-83775000D01*
X138200000Y-83775000D02*
X131358549Y-83775000D01*
%TO.N,/D-*%
X131358549Y-83225000D02*
X131158549Y-83025000D01*
X138400000Y-83025000D02*
X138200000Y-83225000D01*
X138200000Y-83225000D02*
X131358549Y-83225000D01*
%TO.N,/DATA_LINE*%
X136350000Y-112620000D02*
X136740000Y-112230000D01*
X136740000Y-103260000D02*
X135025000Y-101545000D01*
X136740000Y-112230000D02*
X136740000Y-103260000D01*
%TO.N,Net-(D5-Pad1)*%
X133100000Y-81600000D02*
X132500000Y-81600000D01*
X127200000Y-76300000D02*
X127200000Y-75800000D01*
X132500000Y-81600000D02*
X127200000Y-76300000D01*
%TO.N,Net-(D6-Pad1)*%
X129000000Y-79300000D02*
X127300000Y-79300000D01*
X132200000Y-82500000D02*
X129000000Y-79300000D01*
D22*
%TO.N,/Data_line_TTL*%
X163080000Y-113370000D02*
X160100000Y-116350000D01*
X145306000Y-116350000D02*
X141478000Y-112522000D01*
X160100000Y-116350000D02*
X145306000Y-116350000D01*
D23*
%TO.N,/UART_RX*%
X145143001Y-111396999D02*
X144018000Y-112522000D01*
X145143001Y-102417999D02*
X145143001Y-111396999D01*
X136850003Y-94125001D02*
X145143001Y-102417999D01*
X132999999Y-94125001D02*
X136850003Y-94125001D01*
X132674999Y-93800001D02*
X132999999Y-94125001D01*
X132674999Y-88750001D02*
X132674999Y-93800001D01*
X134400000Y-87025000D02*
X132674999Y-88750001D01*
X134400000Y-86600000D02*
X134400000Y-87025000D01*
D22*
X145000000Y-78420000D02*
X145420000Y-78000000D01*
X145000000Y-79500000D02*
X145000000Y-78420000D01*
X145420000Y-78000000D02*
X146750000Y-76670000D01*
X138750000Y-85750000D02*
X145000000Y-79500000D01*
X134400000Y-86350000D02*
X135000000Y-85750000D01*
X135000000Y-85750000D02*
X138750000Y-85750000D01*
X134400000Y-86600000D02*
X134400000Y-86350000D01*
%TO.N,/UART_RTS*%
X146750000Y-84290000D02*
X142686030Y-88353970D01*
X142686030Y-88353970D02*
X142686030Y-91604182D01*
D23*
%TO.N,/Data_Req_TTL*%
X137900000Y-103864000D02*
X137900000Y-103100000D01*
X144018000Y-109982000D02*
X137900000Y-103864000D01*
D22*
%TO.N,/nRST*%
X163880000Y-88810000D02*
X163580000Y-88810000D01*
X166600000Y-91530000D02*
X163880000Y-88810000D01*
%TO.N,/DHT22_EN*%
X156470000Y-89000000D02*
X154360000Y-86890000D01*
X154360000Y-76930000D02*
X153510000Y-76080000D01*
X154360000Y-86890000D02*
X154360000Y-76930000D01*
%TO.N,/UART_TX*%
X135149066Y-86562547D02*
X138823864Y-86562547D01*
X138823864Y-86562547D02*
X145326412Y-80059999D01*
X145900001Y-80059999D02*
X146750000Y-79210000D01*
X145326412Y-80059999D02*
X145900001Y-80059999D01*
D23*
X135149066Y-86562547D02*
X142386519Y-93800000D01*
X142386519Y-93800000D02*
X142689998Y-93800000D01*
D22*
%TO.N,Net-(R8-Pad2)*%
X132300000Y-77500000D02*
X135300000Y-80500000D01*
X130300000Y-77500000D02*
X132300000Y-77500000D01*
%TO.N,Net-(F1-Pad2)*%
X127500000Y-82100000D02*
X127500000Y-87500000D01*
X126900000Y-81500000D02*
X127500000Y-82100000D01*
%TD*%
M02*
