%TF.GenerationSoftware,KiCad,Pcbnew,5.1.12-1.fc35*%
%TF.CreationDate,2021-12-21T00:05:04+01:00*%
%TF.ProjectId,smartmeterreader,736d6172-746d-4657-9465-727265616465,rev?*%
%TF.SameCoordinates,Original*%
%TF.FileFunction,Copper,L3,Inr*%
%TF.FilePolarity,Positive*%
%FSLAX46Y46*%
G04 Gerber Fmt 4.6, Leading zero omitted, Abs format (unit mm)*
G04 Created by KiCad (PCBNEW 5.1.12-1.fc35) date 2021-12-21 00:05:04*
%MOMM*%
%LPD*%
G01*
G04 APERTURE LIST*
%TA.AperFunction,ComponentPad*%
%ADD10O,1.700000X1.700000*%
%TD*%
%TA.AperFunction,ComponentPad*%
%ADD11R,1.700000X1.700000*%
%TD*%
%TA.AperFunction,ComponentPad*%
%ADD12C,1.520000*%
%TD*%
%TA.AperFunction,ComponentPad*%
%ADD13R,1.520000X1.520000*%
%TD*%
%TA.AperFunction,ComponentPad*%
%ADD14R,1.500000X1.500000*%
%TD*%
%TA.AperFunction,ComponentPad*%
%ADD15C,1.500000*%
%TD*%
%TA.AperFunction,ComponentPad*%
%ADD16O,1.600000X0.900000*%
%TD*%
%TA.AperFunction,ViaPad*%
%ADD17C,0.700000*%
%TD*%
%TA.AperFunction,ViaPad*%
%ADD18C,0.800000*%
%TD*%
%TA.AperFunction,ViaPad*%
%ADD19C,0.550000*%
%TD*%
%TA.AperFunction,Conductor*%
%ADD20C,0.250000*%
%TD*%
%TA.AperFunction,Conductor*%
%ADD21C,0.100000*%
%TD*%
G04 APERTURE END LIST*
D10*
%TO.N,/UART_RX*%
%TO.C,J3*%
X146750000Y-76670000D03*
%TO.N,/UART_TX*%
X146750000Y-79210000D03*
%TO.N,/UART_DTR*%
X146750000Y-81750000D03*
%TO.N,/UART_RTS*%
X146750000Y-84290000D03*
D11*
%TO.N,GND*%
X146750000Y-86830000D03*
%TD*%
D12*
%TO.N,GND*%
%TO.C,J2*%
X132485000Y-100275000D03*
%TO.N,/DATA_LINE*%
X135025000Y-101545000D03*
%TO.N,N/C*%
X132485000Y-102815000D03*
%TO.N,GND*%
X135025000Y-104085000D03*
%TO.N,/DATA_REQ*%
X132485000Y-105355000D03*
D13*
%TO.N,Net-(F2-Pad1)*%
X135025000Y-106625000D03*
%TD*%
D14*
%TO.N,/High_side_SW.sch/VOut*%
%TO.C,U4*%
X157500000Y-80500000D03*
D15*
%TO.N,/DHT22_DATA*%
X160000000Y-80500000D03*
%TO.N,N/C*%
X162500000Y-80500000D03*
%TO.N,GND*%
X165000000Y-80500000D03*
%TD*%
D10*
%TO.N,/UART_RTS*%
%TO.C,JP2*%
X141478000Y-109982000D03*
%TO.N,/Data_Req_TTL*%
X144018000Y-109982000D03*
D11*
%TO.N,/GPIO4*%
X146558000Y-109982000D03*
%TD*%
D10*
%TO.N,/Data_line_TTL*%
%TO.C,JP1*%
X141478000Y-112522000D03*
%TO.N,/UART_RX*%
X144018000Y-112522000D03*
D11*
%TO.N,/U0_TXD*%
X146558000Y-112522000D03*
%TD*%
D16*
%TO.N,Earth*%
%TO.C,J1*%
X123000000Y-86800000D03*
X123000000Y-80200000D03*
%TD*%
D17*
%TO.N,*%
X133300000Y-91300000D03*
X133300000Y-93500000D03*
%TO.N,GND*%
X134800000Y-89300000D03*
X136300000Y-89300000D03*
X131800000Y-89300000D03*
X133300000Y-89300000D03*
X131800000Y-93500000D03*
X131800000Y-91300000D03*
X134200000Y-77700000D03*
D18*
X125600000Y-76700000D03*
D17*
X129100000Y-81100000D03*
X143000000Y-83600000D03*
X126024035Y-85349988D03*
X136300000Y-95500000D03*
X134800000Y-95500000D03*
X133300000Y-95500000D03*
X131800000Y-95500000D03*
X129700000Y-103500000D03*
X138100000Y-91500000D03*
X132000000Y-112000000D03*
X139220000Y-99230000D03*
X150990000Y-111400000D03*
X165020000Y-85640000D03*
X153360000Y-78100000D03*
X155150000Y-88730000D03*
X146500000Y-105000000D03*
X138397694Y-84897697D03*
%TO.N,+3V3*%
X127800000Y-94700000D03*
X138100000Y-96300000D03*
X156000000Y-115000000D03*
X151000000Y-94500000D03*
X139930000Y-96080000D03*
X151460000Y-90200000D03*
X151460000Y-83010000D03*
X160890000Y-91000000D03*
%TO.N,/5V_USB*%
X132900000Y-87500000D03*
X136700000Y-75200000D03*
%TO.N,/USB-UART-transceiver/3.3V*%
X133100000Y-80100000D03*
X137900000Y-81500000D03*
D19*
%TO.N,/D+*%
X138400000Y-83975000D03*
X131158549Y-83975000D03*
%TO.N,/D-*%
X138400000Y-83025000D03*
X131158549Y-83025000D03*
%TO.N,/DATA_LINE*%
X136350000Y-112620000D03*
%TO.N,Net-(D5-Pad1)*%
X133100000Y-81600000D03*
X127200000Y-75800000D03*
%TO.N,Net-(D6-Pad1)*%
X132200000Y-82500000D03*
X127300000Y-79300000D03*
%TO.N,/Data_line_TTL*%
X163080000Y-113370000D03*
%TO.N,/UART_RX*%
X134400000Y-86600000D03*
%TO.N,/UART_RTS*%
X142686030Y-91604182D03*
%TO.N,/Data_Req_TTL*%
X137900000Y-103100000D03*
%TO.N,/nRST*%
X166600000Y-91530000D03*
X163580000Y-88810000D03*
%TO.N,/DHT22_EN*%
X156470000Y-89000000D03*
X153510000Y-76080000D03*
%TO.N,/UART_TX*%
X135149066Y-86562547D03*
X142689998Y-93800000D03*
%TO.N,Net-(R8-Pad2)*%
X130300000Y-77500000D03*
X135300000Y-80500000D03*
%TO.N,Net-(F1-Pad2)*%
X126900000Y-81500000D03*
X127500000Y-87500000D03*
%TD*%
D20*
%TO.N,GND*%
X126402430Y-75373690D02*
X126334586Y-75537480D01*
X126300000Y-75711358D01*
X126300000Y-75888642D01*
X126334586Y-76062520D01*
X126402430Y-76226310D01*
X126500924Y-76373717D01*
X126626283Y-76499076D01*
X126773690Y-76597570D01*
X126937480Y-76665414D01*
X127111358Y-76700000D01*
X127288642Y-76700000D01*
X127462520Y-76665414D01*
X127626310Y-76597570D01*
X127773717Y-76499076D01*
X127899076Y-76373717D01*
X127997570Y-76226310D01*
X128065414Y-76062520D01*
X128100000Y-75888642D01*
X128100000Y-75711358D01*
X128065414Y-75537480D01*
X127997570Y-75373690D01*
X127931628Y-75275000D01*
X135725000Y-75275000D01*
X135725000Y-75296029D01*
X135762468Y-75484397D01*
X135835966Y-75661836D01*
X135942668Y-75821527D01*
X136078473Y-75957332D01*
X136238164Y-76064034D01*
X136415603Y-76137532D01*
X136603971Y-76175000D01*
X136796029Y-76175000D01*
X136984397Y-76137532D01*
X137161836Y-76064034D01*
X137321527Y-75957332D01*
X137457332Y-75821527D01*
X137564034Y-75661836D01*
X137637532Y-75484397D01*
X137675000Y-75296029D01*
X137675000Y-75275000D01*
X146263466Y-75275000D01*
X146051325Y-75362872D01*
X145809742Y-75524293D01*
X145604293Y-75729742D01*
X145442872Y-75971325D01*
X145331683Y-76239758D01*
X145275000Y-76524725D01*
X145275000Y-76815275D01*
X145331683Y-77100242D01*
X145442872Y-77368675D01*
X145604293Y-77610258D01*
X145809742Y-77815707D01*
X145995759Y-77940000D01*
X145809742Y-78064293D01*
X145604293Y-78269742D01*
X145442872Y-78511325D01*
X145331683Y-78779758D01*
X145275000Y-79064725D01*
X145275000Y-79355275D01*
X145331683Y-79640242D01*
X145442872Y-79908675D01*
X145604293Y-80150258D01*
X145809742Y-80355707D01*
X145995759Y-80480000D01*
X145809742Y-80604293D01*
X145604293Y-80809742D01*
X145442872Y-81051325D01*
X145331683Y-81319758D01*
X145275000Y-81604725D01*
X145275000Y-81895275D01*
X145331683Y-82180242D01*
X145442872Y-82448675D01*
X145604293Y-82690258D01*
X145809742Y-82895707D01*
X145995759Y-83020000D01*
X145809742Y-83144293D01*
X145604293Y-83349742D01*
X145442872Y-83591325D01*
X145331683Y-83859758D01*
X145275000Y-84144725D01*
X145275000Y-84435275D01*
X145331683Y-84720242D01*
X145442872Y-84988675D01*
X145604293Y-85230258D01*
X145747248Y-85373213D01*
X145659666Y-85399781D01*
X145551089Y-85457817D01*
X145455920Y-85535920D01*
X145377817Y-85631089D01*
X145319781Y-85739666D01*
X145284043Y-85857479D01*
X145271976Y-85980000D01*
X145275000Y-86548750D01*
X145431250Y-86705000D01*
X146625000Y-86705000D01*
X146625000Y-86685000D01*
X146875000Y-86685000D01*
X146875000Y-86705000D01*
X148068750Y-86705000D01*
X148225000Y-86548750D01*
X148228024Y-85980000D01*
X148215957Y-85857479D01*
X148180219Y-85739666D01*
X148122183Y-85631089D01*
X148044080Y-85535920D01*
X147948911Y-85457817D01*
X147840334Y-85399781D01*
X147752752Y-85373213D01*
X147895707Y-85230258D01*
X148057128Y-84988675D01*
X148168317Y-84720242D01*
X148225000Y-84435275D01*
X148225000Y-84144725D01*
X148168317Y-83859758D01*
X148057128Y-83591325D01*
X147895707Y-83349742D01*
X147690258Y-83144293D01*
X147504241Y-83020000D01*
X147662924Y-82913971D01*
X150485000Y-82913971D01*
X150485000Y-83106029D01*
X150522468Y-83294397D01*
X150595966Y-83471836D01*
X150702668Y-83631527D01*
X150838473Y-83767332D01*
X150998164Y-83874034D01*
X151175603Y-83947532D01*
X151363971Y-83985000D01*
X151556029Y-83985000D01*
X151744397Y-83947532D01*
X151921836Y-83874034D01*
X152081527Y-83767332D01*
X152217332Y-83631527D01*
X152324034Y-83471836D01*
X152397532Y-83294397D01*
X152435000Y-83106029D01*
X152435000Y-82913971D01*
X152397532Y-82725603D01*
X152324034Y-82548164D01*
X152217332Y-82388473D01*
X152081527Y-82252668D01*
X151921836Y-82145966D01*
X151744397Y-82072468D01*
X151556029Y-82035000D01*
X151363971Y-82035000D01*
X151175603Y-82072468D01*
X150998164Y-82145966D01*
X150838473Y-82252668D01*
X150702668Y-82388473D01*
X150595966Y-82548164D01*
X150522468Y-82725603D01*
X150485000Y-82913971D01*
X147662924Y-82913971D01*
X147690258Y-82895707D01*
X147895707Y-82690258D01*
X148057128Y-82448675D01*
X148168317Y-82180242D01*
X148225000Y-81895275D01*
X148225000Y-81604725D01*
X148168317Y-81319758D01*
X148057128Y-81051325D01*
X147895707Y-80809742D01*
X147690258Y-80604293D01*
X147504241Y-80480000D01*
X147690258Y-80355707D01*
X147895707Y-80150258D01*
X148057128Y-79908675D01*
X148122853Y-79750000D01*
X156121976Y-79750000D01*
X156121976Y-81250000D01*
X156134043Y-81372521D01*
X156169781Y-81490334D01*
X156227817Y-81598911D01*
X156305920Y-81694080D01*
X156401089Y-81772183D01*
X156509666Y-81830219D01*
X156627479Y-81865957D01*
X156750000Y-81878024D01*
X158250000Y-81878024D01*
X158372521Y-81865957D01*
X158490334Y-81830219D01*
X158598911Y-81772183D01*
X158694080Y-81694080D01*
X158772183Y-81598911D01*
X158830219Y-81490334D01*
X158865957Y-81372521D01*
X158874095Y-81289898D01*
X158931968Y-81376511D01*
X159123489Y-81568032D01*
X159348693Y-81718509D01*
X159598927Y-81822159D01*
X159864574Y-81875000D01*
X160135426Y-81875000D01*
X160401073Y-81822159D01*
X160651307Y-81718509D01*
X160876511Y-81568032D01*
X161068032Y-81376511D01*
X161218509Y-81151307D01*
X161250000Y-81075281D01*
X161281491Y-81151307D01*
X161431968Y-81376511D01*
X161623489Y-81568032D01*
X161848693Y-81718509D01*
X162098927Y-81822159D01*
X162364574Y-81875000D01*
X162635426Y-81875000D01*
X162901073Y-81822159D01*
X163151307Y-81718509D01*
X163376511Y-81568032D01*
X163494184Y-81450359D01*
X164226417Y-81450359D01*
X164292342Y-81686670D01*
X164537448Y-81801926D01*
X164800329Y-81867149D01*
X165070883Y-81879834D01*
X165338714Y-81839492D01*
X165593527Y-81747674D01*
X165707658Y-81686670D01*
X165773583Y-81450359D01*
X165000000Y-80676777D01*
X164226417Y-81450359D01*
X163494184Y-81450359D01*
X163568032Y-81376511D01*
X163718509Y-81151307D01*
X163747728Y-81080766D01*
X163752326Y-81093527D01*
X163813330Y-81207658D01*
X164049641Y-81273583D01*
X164823223Y-80500000D01*
X165176777Y-80500000D01*
X165950359Y-81273583D01*
X166186670Y-81207658D01*
X166301926Y-80962552D01*
X166367149Y-80699671D01*
X166379834Y-80429117D01*
X166339492Y-80161286D01*
X166247674Y-79906473D01*
X166186670Y-79792342D01*
X165950359Y-79726417D01*
X165176777Y-80500000D01*
X164823223Y-80500000D01*
X164049641Y-79726417D01*
X163813330Y-79792342D01*
X163750507Y-79925943D01*
X163718509Y-79848693D01*
X163568032Y-79623489D01*
X163494184Y-79549641D01*
X164226417Y-79549641D01*
X165000000Y-80323223D01*
X165773583Y-79549641D01*
X165707658Y-79313330D01*
X165462552Y-79198074D01*
X165199671Y-79132851D01*
X164929117Y-79120166D01*
X164661286Y-79160508D01*
X164406473Y-79252326D01*
X164292342Y-79313330D01*
X164226417Y-79549641D01*
X163494184Y-79549641D01*
X163376511Y-79431968D01*
X163151307Y-79281491D01*
X162901073Y-79177841D01*
X162635426Y-79125000D01*
X162364574Y-79125000D01*
X162098927Y-79177841D01*
X161848693Y-79281491D01*
X161623489Y-79431968D01*
X161431968Y-79623489D01*
X161281491Y-79848693D01*
X161250000Y-79924719D01*
X161218509Y-79848693D01*
X161068032Y-79623489D01*
X160876511Y-79431968D01*
X160651307Y-79281491D01*
X160401073Y-79177841D01*
X160135426Y-79125000D01*
X159864574Y-79125000D01*
X159598927Y-79177841D01*
X159348693Y-79281491D01*
X159123489Y-79431968D01*
X158931968Y-79623489D01*
X158874095Y-79710102D01*
X158865957Y-79627479D01*
X158830219Y-79509666D01*
X158772183Y-79401089D01*
X158694080Y-79305920D01*
X158598911Y-79227817D01*
X158490334Y-79169781D01*
X158372521Y-79134043D01*
X158250000Y-79121976D01*
X156750000Y-79121976D01*
X156627479Y-79134043D01*
X156509666Y-79169781D01*
X156401089Y-79227817D01*
X156305920Y-79305920D01*
X156227817Y-79401089D01*
X156169781Y-79509666D01*
X156134043Y-79627479D01*
X156121976Y-79750000D01*
X148122853Y-79750000D01*
X148168317Y-79640242D01*
X148225000Y-79355275D01*
X148225000Y-79064725D01*
X148168317Y-78779758D01*
X148057128Y-78511325D01*
X147895707Y-78269742D01*
X147690258Y-78064293D01*
X147504241Y-77940000D01*
X147690258Y-77815707D01*
X147895707Y-77610258D01*
X148057128Y-77368675D01*
X148168317Y-77100242D01*
X148225000Y-76815275D01*
X148225000Y-76524725D01*
X148168317Y-76239758D01*
X148057128Y-75971325D01*
X147895707Y-75729742D01*
X147690258Y-75524293D01*
X147448675Y-75362872D01*
X147236534Y-75275000D01*
X153101628Y-75275000D01*
X153083690Y-75282430D01*
X152936283Y-75380924D01*
X152810924Y-75506283D01*
X152712430Y-75653690D01*
X152644586Y-75817480D01*
X152610000Y-75991358D01*
X152610000Y-76168642D01*
X152644586Y-76342520D01*
X152712430Y-76506310D01*
X152810924Y-76653717D01*
X152936283Y-76779076D01*
X153083690Y-76877570D01*
X153247480Y-76945414D01*
X153421358Y-76980000D01*
X153598642Y-76980000D01*
X153772520Y-76945414D01*
X153936310Y-76877570D01*
X154083717Y-76779076D01*
X154209076Y-76653717D01*
X154307570Y-76506310D01*
X154375414Y-76342520D01*
X154410000Y-76168642D01*
X154410000Y-75991358D01*
X154375414Y-75817480D01*
X154307570Y-75653690D01*
X154209076Y-75506283D01*
X154083717Y-75380924D01*
X153936310Y-75282430D01*
X153918372Y-75275000D01*
X168225000Y-75275000D01*
X168225001Y-78038065D01*
X168228393Y-78072509D01*
X168228263Y-78091184D01*
X168229319Y-78101953D01*
X168290519Y-78684243D01*
X168304652Y-78753095D01*
X168317806Y-78822049D01*
X168320932Y-78832401D01*
X168320933Y-78832408D01*
X168320936Y-78832414D01*
X168494071Y-79391722D01*
X168521303Y-79456504D01*
X168547603Y-79521600D01*
X168552683Y-79531155D01*
X168831159Y-80046187D01*
X168870432Y-80104411D01*
X168908900Y-80163197D01*
X168915739Y-80171583D01*
X169288949Y-80622716D01*
X169338803Y-80672223D01*
X169387936Y-80722396D01*
X169396274Y-80729294D01*
X169574927Y-80875000D01*
X167500000Y-80875000D01*
X167475614Y-80877402D01*
X167452165Y-80884515D01*
X167430554Y-80896066D01*
X167411612Y-80911612D01*
X167396066Y-80930554D01*
X167384515Y-80952165D01*
X167377402Y-80975614D01*
X167375000Y-81000000D01*
X167375000Y-91069912D01*
X167299076Y-90956283D01*
X167173717Y-90830924D01*
X167026310Y-90732430D01*
X166862520Y-90664586D01*
X166688642Y-90630000D01*
X166511358Y-90630000D01*
X166337480Y-90664586D01*
X166173690Y-90732430D01*
X166026283Y-90830924D01*
X165900924Y-90956283D01*
X165802430Y-91103690D01*
X165734586Y-91267480D01*
X165700000Y-91441358D01*
X165700000Y-91618642D01*
X165734586Y-91792520D01*
X165802430Y-91956310D01*
X165900924Y-92103717D01*
X166026283Y-92229076D01*
X166173690Y-92327570D01*
X166337480Y-92395414D01*
X166511358Y-92430000D01*
X166688642Y-92430000D01*
X166862520Y-92395414D01*
X167026310Y-92327570D01*
X167173717Y-92229076D01*
X167299076Y-92103717D01*
X167375000Y-91990088D01*
X167375000Y-114473350D01*
X167195243Y-114293593D01*
X166888145Y-114088397D01*
X166546917Y-113947056D01*
X166184671Y-113875000D01*
X165815329Y-113875000D01*
X165453083Y-113947056D01*
X165111855Y-114088397D01*
X164804757Y-114293593D01*
X164543593Y-114554757D01*
X164338397Y-114861855D01*
X164197056Y-115203083D01*
X164125000Y-115565329D01*
X164125000Y-115934671D01*
X164197056Y-116296917D01*
X164338397Y-116638145D01*
X164543593Y-116945243D01*
X164804757Y-117206407D01*
X165111855Y-117411603D01*
X165453083Y-117552944D01*
X165815329Y-117625000D01*
X166184671Y-117625000D01*
X166546917Y-117552944D01*
X166888145Y-117411603D01*
X167195243Y-117206407D01*
X167375000Y-117026650D01*
X167375000Y-117725000D01*
X128775000Y-117725000D01*
X128775000Y-114961935D01*
X128771607Y-114927481D01*
X128771737Y-114908816D01*
X128771262Y-114903971D01*
X155025000Y-114903971D01*
X155025000Y-115096029D01*
X155062468Y-115284397D01*
X155135966Y-115461836D01*
X155242668Y-115621527D01*
X155378473Y-115757332D01*
X155538164Y-115864034D01*
X155715603Y-115937532D01*
X155903971Y-115975000D01*
X156096029Y-115975000D01*
X156284397Y-115937532D01*
X156461836Y-115864034D01*
X156621527Y-115757332D01*
X156757332Y-115621527D01*
X156864034Y-115461836D01*
X156937532Y-115284397D01*
X156975000Y-115096029D01*
X156975000Y-114903971D01*
X156937532Y-114715603D01*
X156864034Y-114538164D01*
X156757332Y-114378473D01*
X156621527Y-114242668D01*
X156461836Y-114135966D01*
X156284397Y-114062468D01*
X156096029Y-114025000D01*
X155903971Y-114025000D01*
X155715603Y-114062468D01*
X155538164Y-114135966D01*
X155378473Y-114242668D01*
X155242668Y-114378473D01*
X155135966Y-114538164D01*
X155062468Y-114715603D01*
X155025000Y-114903971D01*
X128771262Y-114903971D01*
X128770681Y-114898046D01*
X128709480Y-114315757D01*
X128695354Y-114246936D01*
X128682194Y-114177951D01*
X128679067Y-114167592D01*
X128505929Y-113608278D01*
X128478697Y-113543496D01*
X128452397Y-113478400D01*
X128447317Y-113468845D01*
X128168841Y-112953813D01*
X128129568Y-112895589D01*
X128091100Y-112836803D01*
X128084261Y-112828417D01*
X127838513Y-112531358D01*
X135450000Y-112531358D01*
X135450000Y-112708642D01*
X135484586Y-112882520D01*
X135552430Y-113046310D01*
X135650924Y-113193717D01*
X135776283Y-113319076D01*
X135923690Y-113417570D01*
X136087480Y-113485414D01*
X136261358Y-113520000D01*
X136438642Y-113520000D01*
X136612520Y-113485414D01*
X136776310Y-113417570D01*
X136923717Y-113319076D01*
X137049076Y-113193717D01*
X137147570Y-113046310D01*
X137215414Y-112882520D01*
X137250000Y-112708642D01*
X137250000Y-112531358D01*
X137215414Y-112357480D01*
X137147570Y-112193690D01*
X137049076Y-112046283D01*
X136923717Y-111920924D01*
X136776310Y-111822430D01*
X136612520Y-111754586D01*
X136438642Y-111720000D01*
X136261358Y-111720000D01*
X136087480Y-111754586D01*
X135923690Y-111822430D01*
X135776283Y-111920924D01*
X135650924Y-112046283D01*
X135552430Y-112193690D01*
X135484586Y-112357480D01*
X135450000Y-112531358D01*
X127838513Y-112531358D01*
X127711051Y-112377284D01*
X127661195Y-112327775D01*
X127612064Y-112277605D01*
X127603726Y-112270707D01*
X127149998Y-111900654D01*
X127091466Y-111861766D01*
X127033534Y-111822099D01*
X127024015Y-111816951D01*
X126507051Y-111542077D01*
X126442049Y-111515286D01*
X126377547Y-111487640D01*
X126367210Y-111484439D01*
X125806702Y-111315212D01*
X125737778Y-111301565D01*
X125669092Y-111286965D01*
X125658330Y-111285834D01*
X125075627Y-111228699D01*
X125075623Y-111228699D01*
X125038065Y-111225000D01*
X122275000Y-111225000D01*
X122275000Y-108313394D01*
X123885000Y-108313394D01*
X123885000Y-108756606D01*
X123971466Y-109191301D01*
X124141076Y-109600775D01*
X124387311Y-109969292D01*
X124700708Y-110282689D01*
X125069225Y-110528924D01*
X125478699Y-110698534D01*
X125913394Y-110785000D01*
X126356606Y-110785000D01*
X126791301Y-110698534D01*
X127200775Y-110528924D01*
X127569292Y-110282689D01*
X127882689Y-109969292D01*
X127971267Y-109836725D01*
X140003000Y-109836725D01*
X140003000Y-110127275D01*
X140059683Y-110412242D01*
X140170872Y-110680675D01*
X140332293Y-110922258D01*
X140537742Y-111127707D01*
X140723759Y-111252000D01*
X140537742Y-111376293D01*
X140332293Y-111581742D01*
X140170872Y-111823325D01*
X140059683Y-112091758D01*
X140003000Y-112376725D01*
X140003000Y-112667275D01*
X140059683Y-112952242D01*
X140170872Y-113220675D01*
X140332293Y-113462258D01*
X140537742Y-113667707D01*
X140779325Y-113829128D01*
X141047758Y-113940317D01*
X141332725Y-113997000D01*
X141623275Y-113997000D01*
X141908242Y-113940317D01*
X142176675Y-113829128D01*
X142418258Y-113667707D01*
X142623707Y-113462258D01*
X142748000Y-113276241D01*
X142872293Y-113462258D01*
X143077742Y-113667707D01*
X143319325Y-113829128D01*
X143587758Y-113940317D01*
X143872725Y-113997000D01*
X144163275Y-113997000D01*
X144448242Y-113940317D01*
X144716675Y-113829128D01*
X144958258Y-113667707D01*
X145101213Y-113524752D01*
X145127781Y-113612334D01*
X145185817Y-113720911D01*
X145263920Y-113816080D01*
X145359089Y-113894183D01*
X145467666Y-113952219D01*
X145585479Y-113987957D01*
X145708000Y-114000024D01*
X147408000Y-114000024D01*
X147530521Y-113987957D01*
X147648334Y-113952219D01*
X147756911Y-113894183D01*
X147852080Y-113816080D01*
X147930183Y-113720911D01*
X147988219Y-113612334D01*
X148023957Y-113494521D01*
X148036024Y-113372000D01*
X148036024Y-113281358D01*
X162180000Y-113281358D01*
X162180000Y-113458642D01*
X162214586Y-113632520D01*
X162282430Y-113796310D01*
X162380924Y-113943717D01*
X162506283Y-114069076D01*
X162653690Y-114167570D01*
X162817480Y-114235414D01*
X162991358Y-114270000D01*
X163168642Y-114270000D01*
X163342520Y-114235414D01*
X163506310Y-114167570D01*
X163653717Y-114069076D01*
X163779076Y-113943717D01*
X163877570Y-113796310D01*
X163945414Y-113632520D01*
X163980000Y-113458642D01*
X163980000Y-113281358D01*
X163945414Y-113107480D01*
X163877570Y-112943690D01*
X163779076Y-112796283D01*
X163653717Y-112670924D01*
X163506310Y-112572430D01*
X163342520Y-112504586D01*
X163168642Y-112470000D01*
X162991358Y-112470000D01*
X162817480Y-112504586D01*
X162653690Y-112572430D01*
X162506283Y-112670924D01*
X162380924Y-112796283D01*
X162282430Y-112943690D01*
X162214586Y-113107480D01*
X162180000Y-113281358D01*
X148036024Y-113281358D01*
X148036024Y-111672000D01*
X148023957Y-111549479D01*
X147988219Y-111431666D01*
X147930183Y-111323089D01*
X147871842Y-111252000D01*
X147930183Y-111180911D01*
X147988219Y-111072334D01*
X148023957Y-110954521D01*
X148036024Y-110832000D01*
X148036024Y-109132000D01*
X148023957Y-109009479D01*
X147988219Y-108891666D01*
X147930183Y-108783089D01*
X147852080Y-108687920D01*
X147756911Y-108609817D01*
X147648334Y-108551781D01*
X147530521Y-108516043D01*
X147408000Y-108503976D01*
X145708000Y-108503976D01*
X145585479Y-108516043D01*
X145467666Y-108551781D01*
X145359089Y-108609817D01*
X145263920Y-108687920D01*
X145185817Y-108783089D01*
X145127781Y-108891666D01*
X145101213Y-108979248D01*
X144958258Y-108836293D01*
X144716675Y-108674872D01*
X144448242Y-108563683D01*
X144163275Y-108507000D01*
X143872725Y-108507000D01*
X143587758Y-108563683D01*
X143319325Y-108674872D01*
X143077742Y-108836293D01*
X142872293Y-109041742D01*
X142748000Y-109227759D01*
X142623707Y-109041742D01*
X142418258Y-108836293D01*
X142176675Y-108674872D01*
X141908242Y-108563683D01*
X141623275Y-108507000D01*
X141332725Y-108507000D01*
X141047758Y-108563683D01*
X140779325Y-108674872D01*
X140537742Y-108836293D01*
X140332293Y-109041742D01*
X140170872Y-109283325D01*
X140059683Y-109551758D01*
X140003000Y-109836725D01*
X127971267Y-109836725D01*
X128128924Y-109600775D01*
X128298534Y-109191301D01*
X128385000Y-108756606D01*
X128385000Y-108313394D01*
X128298534Y-107878699D01*
X128128924Y-107469225D01*
X127882689Y-107100708D01*
X127569292Y-106787311D01*
X127200775Y-106541076D01*
X126791301Y-106371466D01*
X126356606Y-106285000D01*
X125913394Y-106285000D01*
X125478699Y-106371466D01*
X125069225Y-106541076D01*
X124700708Y-106787311D01*
X124387311Y-107100708D01*
X124141076Y-107469225D01*
X123971466Y-107878699D01*
X123885000Y-108313394D01*
X122275000Y-108313394D01*
X122275000Y-102678589D01*
X131100000Y-102678589D01*
X131100000Y-102951411D01*
X131153225Y-103218989D01*
X131257629Y-103471043D01*
X131409201Y-103697886D01*
X131602114Y-103890799D01*
X131828957Y-104042371D01*
X131931873Y-104085000D01*
X131828957Y-104127629D01*
X131602114Y-104279201D01*
X131409201Y-104472114D01*
X131257629Y-104698957D01*
X131153225Y-104951011D01*
X131100000Y-105218589D01*
X131100000Y-105491411D01*
X131153225Y-105758989D01*
X131257629Y-106011043D01*
X131409201Y-106237886D01*
X131602114Y-106430799D01*
X131828957Y-106582371D01*
X132081011Y-106686775D01*
X132348589Y-106740000D01*
X132621411Y-106740000D01*
X132888989Y-106686775D01*
X133141043Y-106582371D01*
X133367886Y-106430799D01*
X133560799Y-106237886D01*
X133636976Y-106123879D01*
X133636976Y-107385000D01*
X133649043Y-107507521D01*
X133684781Y-107625334D01*
X133742817Y-107733911D01*
X133820920Y-107829080D01*
X133916089Y-107907183D01*
X134024666Y-107965219D01*
X134142479Y-108000957D01*
X134265000Y-108013024D01*
X135785000Y-108013024D01*
X135907521Y-108000957D01*
X136025334Y-107965219D01*
X136133911Y-107907183D01*
X136229080Y-107829080D01*
X136307183Y-107733911D01*
X136365219Y-107625334D01*
X136400957Y-107507521D01*
X136413024Y-107385000D01*
X136413024Y-105865000D01*
X136400957Y-105742479D01*
X136365219Y-105624666D01*
X136307183Y-105516089D01*
X136229080Y-105420920D01*
X136133911Y-105342817D01*
X136025334Y-105284781D01*
X135907521Y-105249043D01*
X135785000Y-105236976D01*
X135750711Y-105236976D01*
X135805724Y-105042501D01*
X135025000Y-104261777D01*
X134244276Y-105042501D01*
X134299289Y-105236976D01*
X134265000Y-105236976D01*
X134142479Y-105249043D01*
X134024666Y-105284781D01*
X133916089Y-105342817D01*
X133870000Y-105380641D01*
X133870000Y-105218589D01*
X133816775Y-104951011D01*
X133712371Y-104698957D01*
X133560799Y-104472114D01*
X133367886Y-104279201D01*
X133182734Y-104155486D01*
X133635085Y-104155486D01*
X133675543Y-104425291D01*
X133767860Y-104682019D01*
X133830168Y-104798588D01*
X134067499Y-104865724D01*
X134848223Y-104085000D01*
X135201777Y-104085000D01*
X135982501Y-104865724D01*
X136219832Y-104798588D01*
X136336088Y-104551777D01*
X136401959Y-104287027D01*
X136414915Y-104014514D01*
X136374457Y-103744709D01*
X136282140Y-103487981D01*
X136219832Y-103371412D01*
X135982501Y-103304276D01*
X135201777Y-104085000D01*
X134848223Y-104085000D01*
X134067499Y-103304276D01*
X133830168Y-103371412D01*
X133713912Y-103618223D01*
X133648041Y-103882973D01*
X133635085Y-104155486D01*
X133182734Y-104155486D01*
X133141043Y-104127629D01*
X133038127Y-104085000D01*
X133141043Y-104042371D01*
X133367886Y-103890799D01*
X133560799Y-103697886D01*
X133712371Y-103471043D01*
X133816775Y-103218989D01*
X133870000Y-102951411D01*
X133870000Y-102678589D01*
X133816775Y-102411011D01*
X133712371Y-102158957D01*
X133560799Y-101932114D01*
X133367886Y-101739201D01*
X133141043Y-101587629D01*
X133041905Y-101546565D01*
X133082019Y-101532140D01*
X133198588Y-101469832D01*
X133215912Y-101408589D01*
X133640000Y-101408589D01*
X133640000Y-101681411D01*
X133693225Y-101948989D01*
X133797629Y-102201043D01*
X133949201Y-102427886D01*
X134142114Y-102620799D01*
X134368957Y-102772371D01*
X134468095Y-102813435D01*
X134427981Y-102827860D01*
X134311412Y-102890168D01*
X134244276Y-103127499D01*
X135025000Y-103908223D01*
X135805724Y-103127499D01*
X135772871Y-103011358D01*
X137000000Y-103011358D01*
X137000000Y-103188642D01*
X137034586Y-103362520D01*
X137102430Y-103526310D01*
X137200924Y-103673717D01*
X137326283Y-103799076D01*
X137473690Y-103897570D01*
X137637480Y-103965414D01*
X137811358Y-104000000D01*
X137988642Y-104000000D01*
X138162520Y-103965414D01*
X138326310Y-103897570D01*
X138473717Y-103799076D01*
X138599076Y-103673717D01*
X138697570Y-103526310D01*
X138765414Y-103362520D01*
X138800000Y-103188642D01*
X138800000Y-103011358D01*
X138765414Y-102837480D01*
X138697570Y-102673690D01*
X138599076Y-102526283D01*
X138473717Y-102400924D01*
X138326310Y-102302430D01*
X138162520Y-102234586D01*
X137988642Y-102200000D01*
X137811358Y-102200000D01*
X137637480Y-102234586D01*
X137473690Y-102302430D01*
X137326283Y-102400924D01*
X137200924Y-102526283D01*
X137102430Y-102673690D01*
X137034586Y-102837480D01*
X137000000Y-103011358D01*
X135772871Y-103011358D01*
X135738588Y-102890168D01*
X135578595Y-102814806D01*
X135681043Y-102772371D01*
X135907886Y-102620799D01*
X136100799Y-102427886D01*
X136252371Y-102201043D01*
X136356775Y-101948989D01*
X136410000Y-101681411D01*
X136410000Y-101408589D01*
X136356775Y-101141011D01*
X136252371Y-100888957D01*
X136100799Y-100662114D01*
X135907886Y-100469201D01*
X135681043Y-100317629D01*
X135428989Y-100213225D01*
X135161411Y-100160000D01*
X134888589Y-100160000D01*
X134621011Y-100213225D01*
X134368957Y-100317629D01*
X134142114Y-100469201D01*
X133949201Y-100662114D01*
X133797629Y-100888957D01*
X133693225Y-101141011D01*
X133640000Y-101408589D01*
X133215912Y-101408589D01*
X133265724Y-101232501D01*
X132485000Y-100451777D01*
X131704276Y-101232501D01*
X131771412Y-101469832D01*
X131931405Y-101545194D01*
X131828957Y-101587629D01*
X131602114Y-101739201D01*
X131409201Y-101932114D01*
X131257629Y-102158957D01*
X131153225Y-102411011D01*
X131100000Y-102678589D01*
X122275000Y-102678589D01*
X122275000Y-98153394D01*
X123885000Y-98153394D01*
X123885000Y-98596606D01*
X123971466Y-99031301D01*
X124141076Y-99440775D01*
X124387311Y-99809292D01*
X124700708Y-100122689D01*
X125069225Y-100368924D01*
X125478699Y-100538534D01*
X125913394Y-100625000D01*
X126356606Y-100625000D01*
X126791301Y-100538534D01*
X127200775Y-100368924D01*
X127235852Y-100345486D01*
X131095085Y-100345486D01*
X131135543Y-100615291D01*
X131227860Y-100872019D01*
X131290168Y-100988588D01*
X131527499Y-101055724D01*
X132308223Y-100275000D01*
X132661777Y-100275000D01*
X133442501Y-101055724D01*
X133679832Y-100988588D01*
X133796088Y-100741777D01*
X133861959Y-100477027D01*
X133874915Y-100204514D01*
X133834457Y-99934709D01*
X133742140Y-99677981D01*
X133679832Y-99561412D01*
X133442501Y-99494276D01*
X132661777Y-100275000D01*
X132308223Y-100275000D01*
X131527499Y-99494276D01*
X131290168Y-99561412D01*
X131173912Y-99808223D01*
X131108041Y-100072973D01*
X131095085Y-100345486D01*
X127235852Y-100345486D01*
X127569292Y-100122689D01*
X127882689Y-99809292D01*
X128128924Y-99440775D01*
X128179986Y-99317499D01*
X131704276Y-99317499D01*
X132485000Y-100098223D01*
X133265724Y-99317499D01*
X133198588Y-99080168D01*
X132951777Y-98963912D01*
X132687027Y-98898041D01*
X132414514Y-98885085D01*
X132144709Y-98925543D01*
X131887981Y-99017860D01*
X131771412Y-99080168D01*
X131704276Y-99317499D01*
X128179986Y-99317499D01*
X128298534Y-99031301D01*
X128385000Y-98596606D01*
X128385000Y-98153394D01*
X128298534Y-97718699D01*
X128128924Y-97309225D01*
X127882689Y-96940708D01*
X127569292Y-96627311D01*
X127200775Y-96381076D01*
X126791301Y-96211466D01*
X126753621Y-96203971D01*
X137125000Y-96203971D01*
X137125000Y-96396029D01*
X137162468Y-96584397D01*
X137235966Y-96761836D01*
X137342668Y-96921527D01*
X137478473Y-97057332D01*
X137638164Y-97164034D01*
X137815603Y-97237532D01*
X138003971Y-97275000D01*
X138196029Y-97275000D01*
X138384397Y-97237532D01*
X138561836Y-97164034D01*
X138721527Y-97057332D01*
X138857332Y-96921527D01*
X138964034Y-96761836D01*
X139037532Y-96584397D01*
X139052476Y-96509268D01*
X139065966Y-96541836D01*
X139172668Y-96701527D01*
X139308473Y-96837332D01*
X139468164Y-96944034D01*
X139645603Y-97017532D01*
X139833971Y-97055000D01*
X140026029Y-97055000D01*
X140214397Y-97017532D01*
X140391836Y-96944034D01*
X140551527Y-96837332D01*
X140687332Y-96701527D01*
X140794034Y-96541836D01*
X140867532Y-96364397D01*
X140905000Y-96176029D01*
X140905000Y-95983971D01*
X140867532Y-95795603D01*
X140794034Y-95618164D01*
X140687332Y-95458473D01*
X140551527Y-95322668D01*
X140391836Y-95215966D01*
X140214397Y-95142468D01*
X140026029Y-95105000D01*
X139833971Y-95105000D01*
X139645603Y-95142468D01*
X139468164Y-95215966D01*
X139308473Y-95322668D01*
X139172668Y-95458473D01*
X139065966Y-95618164D01*
X138992468Y-95795603D01*
X138977524Y-95870732D01*
X138964034Y-95838164D01*
X138857332Y-95678473D01*
X138721527Y-95542668D01*
X138561836Y-95435966D01*
X138384397Y-95362468D01*
X138196029Y-95325000D01*
X138003971Y-95325000D01*
X137815603Y-95362468D01*
X137638164Y-95435966D01*
X137478473Y-95542668D01*
X137342668Y-95678473D01*
X137235966Y-95838164D01*
X137162468Y-96015603D01*
X137125000Y-96203971D01*
X126753621Y-96203971D01*
X126356606Y-96125000D01*
X125913394Y-96125000D01*
X125478699Y-96211466D01*
X125069225Y-96381076D01*
X124700708Y-96627311D01*
X124387311Y-96940708D01*
X124141076Y-97309225D01*
X123971466Y-97718699D01*
X123885000Y-98153394D01*
X122275000Y-98153394D01*
X122275000Y-94603971D01*
X126825000Y-94603971D01*
X126825000Y-94796029D01*
X126862468Y-94984397D01*
X126935966Y-95161836D01*
X127042668Y-95321527D01*
X127178473Y-95457332D01*
X127338164Y-95564034D01*
X127515603Y-95637532D01*
X127703971Y-95675000D01*
X127896029Y-95675000D01*
X128084397Y-95637532D01*
X128261836Y-95564034D01*
X128421527Y-95457332D01*
X128557332Y-95321527D01*
X128664034Y-95161836D01*
X128737532Y-94984397D01*
X128775000Y-94796029D01*
X128775000Y-94603971D01*
X128737532Y-94415603D01*
X128664034Y-94238164D01*
X128557332Y-94078473D01*
X128421527Y-93942668D01*
X128261836Y-93835966D01*
X128084397Y-93762468D01*
X127896029Y-93725000D01*
X127703971Y-93725000D01*
X127515603Y-93762468D01*
X127338164Y-93835966D01*
X127178473Y-93942668D01*
X127042668Y-94078473D01*
X126935966Y-94238164D01*
X126862468Y-94415603D01*
X126825000Y-94603971D01*
X122275000Y-94603971D01*
X122275000Y-93403971D01*
X132325000Y-93403971D01*
X132325000Y-93596029D01*
X132362468Y-93784397D01*
X132435966Y-93961836D01*
X132542668Y-94121527D01*
X132678473Y-94257332D01*
X132838164Y-94364034D01*
X133015603Y-94437532D01*
X133203971Y-94475000D01*
X133396029Y-94475000D01*
X133584397Y-94437532D01*
X133761836Y-94364034D01*
X133921527Y-94257332D01*
X134057332Y-94121527D01*
X134164034Y-93961836D01*
X134237532Y-93784397D01*
X134252060Y-93711358D01*
X141789998Y-93711358D01*
X141789998Y-93888642D01*
X141824584Y-94062520D01*
X141892428Y-94226310D01*
X141990922Y-94373717D01*
X142116281Y-94499076D01*
X142263688Y-94597570D01*
X142427478Y-94665414D01*
X142601356Y-94700000D01*
X142778640Y-94700000D01*
X142952518Y-94665414D01*
X143116308Y-94597570D01*
X143263715Y-94499076D01*
X143358820Y-94403971D01*
X150025000Y-94403971D01*
X150025000Y-94596029D01*
X150062468Y-94784397D01*
X150135966Y-94961836D01*
X150242668Y-95121527D01*
X150378473Y-95257332D01*
X150538164Y-95364034D01*
X150715603Y-95437532D01*
X150903971Y-95475000D01*
X151096029Y-95475000D01*
X151284397Y-95437532D01*
X151461836Y-95364034D01*
X151621527Y-95257332D01*
X151757332Y-95121527D01*
X151864034Y-94961836D01*
X151937532Y-94784397D01*
X151975000Y-94596029D01*
X151975000Y-94403971D01*
X151937532Y-94215603D01*
X151864034Y-94038164D01*
X151757332Y-93878473D01*
X151621527Y-93742668D01*
X151461836Y-93635966D01*
X151284397Y-93562468D01*
X151096029Y-93525000D01*
X150903971Y-93525000D01*
X150715603Y-93562468D01*
X150538164Y-93635966D01*
X150378473Y-93742668D01*
X150242668Y-93878473D01*
X150135966Y-94038164D01*
X150062468Y-94215603D01*
X150025000Y-94403971D01*
X143358820Y-94403971D01*
X143389074Y-94373717D01*
X143487568Y-94226310D01*
X143555412Y-94062520D01*
X143589998Y-93888642D01*
X143589998Y-93711358D01*
X143555412Y-93537480D01*
X143487568Y-93373690D01*
X143389074Y-93226283D01*
X143263715Y-93100924D01*
X143116308Y-93002430D01*
X142952518Y-92934586D01*
X142778640Y-92900000D01*
X142601356Y-92900000D01*
X142427478Y-92934586D01*
X142263688Y-93002430D01*
X142116281Y-93100924D01*
X141990922Y-93226283D01*
X141892428Y-93373690D01*
X141824584Y-93537480D01*
X141789998Y-93711358D01*
X134252060Y-93711358D01*
X134275000Y-93596029D01*
X134275000Y-93403971D01*
X134237532Y-93215603D01*
X134164034Y-93038164D01*
X134057332Y-92878473D01*
X133921527Y-92742668D01*
X133761836Y-92635966D01*
X133584397Y-92562468D01*
X133396029Y-92525000D01*
X133203971Y-92525000D01*
X133015603Y-92562468D01*
X132838164Y-92635966D01*
X132678473Y-92742668D01*
X132542668Y-92878473D01*
X132435966Y-93038164D01*
X132362468Y-93215603D01*
X132325000Y-93403971D01*
X122275000Y-93403971D01*
X122275000Y-91203971D01*
X132325000Y-91203971D01*
X132325000Y-91396029D01*
X132362468Y-91584397D01*
X132435966Y-91761836D01*
X132542668Y-91921527D01*
X132678473Y-92057332D01*
X132838164Y-92164034D01*
X133015603Y-92237532D01*
X133203971Y-92275000D01*
X133396029Y-92275000D01*
X133584397Y-92237532D01*
X133761836Y-92164034D01*
X133921527Y-92057332D01*
X134057332Y-91921527D01*
X134164034Y-91761836D01*
X134237532Y-91584397D01*
X134251228Y-91515540D01*
X141786030Y-91515540D01*
X141786030Y-91692824D01*
X141820616Y-91866702D01*
X141888460Y-92030492D01*
X141986954Y-92177899D01*
X142112313Y-92303258D01*
X142259720Y-92401752D01*
X142423510Y-92469596D01*
X142597388Y-92504182D01*
X142774672Y-92504182D01*
X142948550Y-92469596D01*
X143112340Y-92401752D01*
X143259747Y-92303258D01*
X143385106Y-92177899D01*
X143483600Y-92030492D01*
X143551444Y-91866702D01*
X143586030Y-91692824D01*
X143586030Y-91515540D01*
X143551444Y-91341662D01*
X143483600Y-91177872D01*
X143385106Y-91030465D01*
X143259747Y-90905106D01*
X143112340Y-90806612D01*
X142948550Y-90738768D01*
X142774672Y-90704182D01*
X142597388Y-90704182D01*
X142423510Y-90738768D01*
X142259720Y-90806612D01*
X142112313Y-90905106D01*
X141986954Y-91030465D01*
X141888460Y-91177872D01*
X141820616Y-91341662D01*
X141786030Y-91515540D01*
X134251228Y-91515540D01*
X134275000Y-91396029D01*
X134275000Y-91203971D01*
X134237532Y-91015603D01*
X134164034Y-90838164D01*
X134057332Y-90678473D01*
X133921527Y-90542668D01*
X133761836Y-90435966D01*
X133584397Y-90362468D01*
X133396029Y-90325000D01*
X133203971Y-90325000D01*
X133015603Y-90362468D01*
X132838164Y-90435966D01*
X132678473Y-90542668D01*
X132542668Y-90678473D01*
X132435966Y-90838164D01*
X132362468Y-91015603D01*
X132325000Y-91203971D01*
X122275000Y-91203971D01*
X122275000Y-90103971D01*
X150485000Y-90103971D01*
X150485000Y-90296029D01*
X150522468Y-90484397D01*
X150595966Y-90661836D01*
X150702668Y-90821527D01*
X150838473Y-90957332D01*
X150998164Y-91064034D01*
X151175603Y-91137532D01*
X151363971Y-91175000D01*
X151556029Y-91175000D01*
X151744397Y-91137532D01*
X151921836Y-91064034D01*
X152081527Y-90957332D01*
X152134888Y-90903971D01*
X159915000Y-90903971D01*
X159915000Y-91096029D01*
X159952468Y-91284397D01*
X160025966Y-91461836D01*
X160132668Y-91621527D01*
X160268473Y-91757332D01*
X160428164Y-91864034D01*
X160605603Y-91937532D01*
X160793971Y-91975000D01*
X160986029Y-91975000D01*
X161174397Y-91937532D01*
X161351836Y-91864034D01*
X161511527Y-91757332D01*
X161647332Y-91621527D01*
X161754034Y-91461836D01*
X161827532Y-91284397D01*
X161865000Y-91096029D01*
X161865000Y-90903971D01*
X161827532Y-90715603D01*
X161754034Y-90538164D01*
X161647332Y-90378473D01*
X161511527Y-90242668D01*
X161351836Y-90135966D01*
X161174397Y-90062468D01*
X160986029Y-90025000D01*
X160793971Y-90025000D01*
X160605603Y-90062468D01*
X160428164Y-90135966D01*
X160268473Y-90242668D01*
X160132668Y-90378473D01*
X160025966Y-90538164D01*
X159952468Y-90715603D01*
X159915000Y-90903971D01*
X152134888Y-90903971D01*
X152217332Y-90821527D01*
X152324034Y-90661836D01*
X152397532Y-90484397D01*
X152435000Y-90296029D01*
X152435000Y-90103971D01*
X152397532Y-89915603D01*
X152324034Y-89738164D01*
X152217332Y-89578473D01*
X152081527Y-89442668D01*
X151921836Y-89335966D01*
X151744397Y-89262468D01*
X151556029Y-89225000D01*
X151363971Y-89225000D01*
X151175603Y-89262468D01*
X150998164Y-89335966D01*
X150838473Y-89442668D01*
X150702668Y-89578473D01*
X150595966Y-89738164D01*
X150522468Y-89915603D01*
X150485000Y-90103971D01*
X122275000Y-90103971D01*
X122275000Y-88911358D01*
X155570000Y-88911358D01*
X155570000Y-89088642D01*
X155604586Y-89262520D01*
X155672430Y-89426310D01*
X155770924Y-89573717D01*
X155896283Y-89699076D01*
X156043690Y-89797570D01*
X156207480Y-89865414D01*
X156381358Y-89900000D01*
X156558642Y-89900000D01*
X156732520Y-89865414D01*
X156896310Y-89797570D01*
X157043717Y-89699076D01*
X157169076Y-89573717D01*
X157267570Y-89426310D01*
X157335414Y-89262520D01*
X157370000Y-89088642D01*
X157370000Y-88911358D01*
X157335414Y-88737480D01*
X157328737Y-88721358D01*
X162680000Y-88721358D01*
X162680000Y-88898642D01*
X162714586Y-89072520D01*
X162782430Y-89236310D01*
X162880924Y-89383717D01*
X163006283Y-89509076D01*
X163153690Y-89607570D01*
X163317480Y-89675414D01*
X163491358Y-89710000D01*
X163668642Y-89710000D01*
X163842520Y-89675414D01*
X164006310Y-89607570D01*
X164153717Y-89509076D01*
X164279076Y-89383717D01*
X164377570Y-89236310D01*
X164445414Y-89072520D01*
X164480000Y-88898642D01*
X164480000Y-88721358D01*
X164445414Y-88547480D01*
X164377570Y-88383690D01*
X164279076Y-88236283D01*
X164153717Y-88110924D01*
X164006310Y-88012430D01*
X163842520Y-87944586D01*
X163668642Y-87910000D01*
X163491358Y-87910000D01*
X163317480Y-87944586D01*
X163153690Y-88012430D01*
X163006283Y-88110924D01*
X162880924Y-88236283D01*
X162782430Y-88383690D01*
X162714586Y-88547480D01*
X162680000Y-88721358D01*
X157328737Y-88721358D01*
X157267570Y-88573690D01*
X157169076Y-88426283D01*
X157043717Y-88300924D01*
X156896310Y-88202430D01*
X156732520Y-88134586D01*
X156558642Y-88100000D01*
X156381358Y-88100000D01*
X156207480Y-88134586D01*
X156043690Y-88202430D01*
X155896283Y-88300924D01*
X155770924Y-88426283D01*
X155672430Y-88573690D01*
X155604586Y-88737480D01*
X155570000Y-88911358D01*
X122275000Y-88911358D01*
X122275000Y-87809617D01*
X122439263Y-87859445D01*
X122597194Y-87875000D01*
X123402806Y-87875000D01*
X123560737Y-87859445D01*
X123763375Y-87797976D01*
X123950128Y-87698154D01*
X124113817Y-87563817D01*
X124238937Y-87411358D01*
X126600000Y-87411358D01*
X126600000Y-87588642D01*
X126634586Y-87762520D01*
X126702430Y-87926310D01*
X126800924Y-88073717D01*
X126926283Y-88199076D01*
X127073690Y-88297570D01*
X127237480Y-88365414D01*
X127411358Y-88400000D01*
X127588642Y-88400000D01*
X127762520Y-88365414D01*
X127926310Y-88297570D01*
X128073717Y-88199076D01*
X128199076Y-88073717D01*
X128297570Y-87926310D01*
X128365414Y-87762520D01*
X128400000Y-87588642D01*
X128400000Y-87411358D01*
X128398531Y-87403971D01*
X131925000Y-87403971D01*
X131925000Y-87596029D01*
X131962468Y-87784397D01*
X132035966Y-87961836D01*
X132142668Y-88121527D01*
X132278473Y-88257332D01*
X132438164Y-88364034D01*
X132615603Y-88437532D01*
X132803971Y-88475000D01*
X132996029Y-88475000D01*
X133184397Y-88437532D01*
X133361836Y-88364034D01*
X133521527Y-88257332D01*
X133657332Y-88121527D01*
X133764034Y-87961836D01*
X133837532Y-87784397D01*
X133858297Y-87680000D01*
X145271976Y-87680000D01*
X145284043Y-87802521D01*
X145319781Y-87920334D01*
X145377817Y-88028911D01*
X145455920Y-88124080D01*
X145551089Y-88202183D01*
X145659666Y-88260219D01*
X145777479Y-88295957D01*
X145900000Y-88308024D01*
X146468750Y-88305000D01*
X146625000Y-88148750D01*
X146625000Y-86955000D01*
X146875000Y-86955000D01*
X146875000Y-88148750D01*
X147031250Y-88305000D01*
X147600000Y-88308024D01*
X147722521Y-88295957D01*
X147840334Y-88260219D01*
X147948911Y-88202183D01*
X148044080Y-88124080D01*
X148122183Y-88028911D01*
X148180219Y-87920334D01*
X148215957Y-87802521D01*
X148228024Y-87680000D01*
X148225000Y-87111250D01*
X148068750Y-86955000D01*
X146875000Y-86955000D01*
X146625000Y-86955000D01*
X145431250Y-86955000D01*
X145275000Y-87111250D01*
X145271976Y-87680000D01*
X133858297Y-87680000D01*
X133875000Y-87596029D01*
X133875000Y-87403971D01*
X133858405Y-87320539D01*
X133973690Y-87397570D01*
X134137480Y-87465414D01*
X134311358Y-87500000D01*
X134488642Y-87500000D01*
X134662520Y-87465414D01*
X134819743Y-87400290D01*
X134886546Y-87427961D01*
X135060424Y-87462547D01*
X135237708Y-87462547D01*
X135411586Y-87427961D01*
X135575376Y-87360117D01*
X135722783Y-87261623D01*
X135848142Y-87136264D01*
X135946636Y-86988857D01*
X136014480Y-86825067D01*
X136049066Y-86651189D01*
X136049066Y-86473905D01*
X136014480Y-86300027D01*
X135946636Y-86136237D01*
X135848142Y-85988830D01*
X135722783Y-85863471D01*
X135575376Y-85764977D01*
X135411586Y-85697133D01*
X135237708Y-85662547D01*
X135060424Y-85662547D01*
X134886546Y-85697133D01*
X134729323Y-85762257D01*
X134662520Y-85734586D01*
X134488642Y-85700000D01*
X134311358Y-85700000D01*
X134137480Y-85734586D01*
X133973690Y-85802430D01*
X133826283Y-85900924D01*
X133700924Y-86026283D01*
X133602430Y-86173690D01*
X133534586Y-86337480D01*
X133500000Y-86511358D01*
X133500000Y-86688642D01*
X133509094Y-86734360D01*
X133361836Y-86635966D01*
X133184397Y-86562468D01*
X132996029Y-86525000D01*
X132803971Y-86525000D01*
X132615603Y-86562468D01*
X132438164Y-86635966D01*
X132278473Y-86742668D01*
X132142668Y-86878473D01*
X132035966Y-87038164D01*
X131962468Y-87215603D01*
X131925000Y-87403971D01*
X128398531Y-87403971D01*
X128365414Y-87237480D01*
X128297570Y-87073690D01*
X128199076Y-86926283D01*
X128073717Y-86800924D01*
X127926310Y-86702430D01*
X127762520Y-86634586D01*
X127588642Y-86600000D01*
X127411358Y-86600000D01*
X127237480Y-86634586D01*
X127073690Y-86702430D01*
X126926283Y-86800924D01*
X126800924Y-86926283D01*
X126702430Y-87073690D01*
X126634586Y-87237480D01*
X126600000Y-87411358D01*
X124238937Y-87411358D01*
X124248154Y-87400128D01*
X124347976Y-87213375D01*
X124409445Y-87010737D01*
X124430201Y-86800000D01*
X124409445Y-86589263D01*
X124347976Y-86386625D01*
X124248154Y-86199872D01*
X124113817Y-86036183D01*
X123950128Y-85901846D01*
X123763375Y-85802024D01*
X123560737Y-85740555D01*
X123402806Y-85725000D01*
X122597194Y-85725000D01*
X122439263Y-85740555D01*
X122275000Y-85790383D01*
X122275000Y-82936358D01*
X130258549Y-82936358D01*
X130258549Y-83113642D01*
X130293135Y-83287520D01*
X130360979Y-83451310D01*
X130393513Y-83500000D01*
X130360979Y-83548690D01*
X130293135Y-83712480D01*
X130258549Y-83886358D01*
X130258549Y-84063642D01*
X130293135Y-84237520D01*
X130360979Y-84401310D01*
X130459473Y-84548717D01*
X130584832Y-84674076D01*
X130732239Y-84772570D01*
X130896029Y-84840414D01*
X131069907Y-84875000D01*
X131247191Y-84875000D01*
X131421069Y-84840414D01*
X131584859Y-84772570D01*
X131732266Y-84674076D01*
X131857625Y-84548717D01*
X131956119Y-84401310D01*
X132023963Y-84237520D01*
X132058549Y-84063642D01*
X132058549Y-83886358D01*
X132023963Y-83712480D01*
X131956119Y-83548690D01*
X131923585Y-83500000D01*
X131956119Y-83451310D01*
X131987571Y-83375378D01*
X132111358Y-83400000D01*
X132288642Y-83400000D01*
X132462520Y-83365414D01*
X132626310Y-83297570D01*
X132773717Y-83199076D01*
X132899076Y-83073717D01*
X132997570Y-82926310D01*
X133065414Y-82762520D01*
X133100000Y-82588642D01*
X133100000Y-82500000D01*
X133188642Y-82500000D01*
X133362520Y-82465414D01*
X133526310Y-82397570D01*
X133673717Y-82299076D01*
X133799076Y-82173717D01*
X133897570Y-82026310D01*
X133965414Y-81862520D01*
X134000000Y-81688642D01*
X134000000Y-81511358D01*
X133978640Y-81403971D01*
X136925000Y-81403971D01*
X136925000Y-81596029D01*
X136962468Y-81784397D01*
X137035966Y-81961836D01*
X137142668Y-82121527D01*
X137278473Y-82257332D01*
X137438164Y-82364034D01*
X137615603Y-82437532D01*
X137699025Y-82454125D01*
X137602430Y-82598690D01*
X137534586Y-82762480D01*
X137500000Y-82936358D01*
X137500000Y-83113642D01*
X137534586Y-83287520D01*
X137602430Y-83451310D01*
X137634964Y-83500000D01*
X137602430Y-83548690D01*
X137534586Y-83712480D01*
X137500000Y-83886358D01*
X137500000Y-84063642D01*
X137534586Y-84237520D01*
X137602430Y-84401310D01*
X137700924Y-84548717D01*
X137826283Y-84674076D01*
X137973690Y-84772570D01*
X138137480Y-84840414D01*
X138311358Y-84875000D01*
X138488642Y-84875000D01*
X138662520Y-84840414D01*
X138826310Y-84772570D01*
X138973717Y-84674076D01*
X139099076Y-84548717D01*
X139197570Y-84401310D01*
X139265414Y-84237520D01*
X139300000Y-84063642D01*
X139300000Y-83886358D01*
X139265414Y-83712480D01*
X139197570Y-83548690D01*
X139165036Y-83500000D01*
X139197570Y-83451310D01*
X139265414Y-83287520D01*
X139300000Y-83113642D01*
X139300000Y-82936358D01*
X139265414Y-82762480D01*
X139197570Y-82598690D01*
X139099076Y-82451283D01*
X138973717Y-82325924D01*
X138826310Y-82227430D01*
X138662520Y-82159586D01*
X138626448Y-82152411D01*
X138657332Y-82121527D01*
X138764034Y-81961836D01*
X138837532Y-81784397D01*
X138875000Y-81596029D01*
X138875000Y-81403971D01*
X138837532Y-81215603D01*
X138764034Y-81038164D01*
X138657332Y-80878473D01*
X138521527Y-80742668D01*
X138361836Y-80635966D01*
X138184397Y-80562468D01*
X137996029Y-80525000D01*
X137803971Y-80525000D01*
X137615603Y-80562468D01*
X137438164Y-80635966D01*
X137278473Y-80742668D01*
X137142668Y-80878473D01*
X137035966Y-81038164D01*
X136962468Y-81215603D01*
X136925000Y-81403971D01*
X133978640Y-81403971D01*
X133965414Y-81337480D01*
X133897570Y-81173690D01*
X133799076Y-81026283D01*
X133673717Y-80900924D01*
X133665002Y-80895101D01*
X133721527Y-80857332D01*
X133857332Y-80721527D01*
X133964034Y-80561836D01*
X134026364Y-80411358D01*
X134400000Y-80411358D01*
X134400000Y-80588642D01*
X134434586Y-80762520D01*
X134502430Y-80926310D01*
X134600924Y-81073717D01*
X134726283Y-81199076D01*
X134873690Y-81297570D01*
X135037480Y-81365414D01*
X135211358Y-81400000D01*
X135388642Y-81400000D01*
X135562520Y-81365414D01*
X135726310Y-81297570D01*
X135873717Y-81199076D01*
X135999076Y-81073717D01*
X136097570Y-80926310D01*
X136165414Y-80762520D01*
X136200000Y-80588642D01*
X136200000Y-80411358D01*
X136165414Y-80237480D01*
X136097570Y-80073690D01*
X135999076Y-79926283D01*
X135873717Y-79800924D01*
X135726310Y-79702430D01*
X135562520Y-79634586D01*
X135388642Y-79600000D01*
X135211358Y-79600000D01*
X135037480Y-79634586D01*
X134873690Y-79702430D01*
X134726283Y-79800924D01*
X134600924Y-79926283D01*
X134502430Y-80073690D01*
X134434586Y-80237480D01*
X134400000Y-80411358D01*
X134026364Y-80411358D01*
X134037532Y-80384397D01*
X134075000Y-80196029D01*
X134075000Y-80003971D01*
X134037532Y-79815603D01*
X133964034Y-79638164D01*
X133857332Y-79478473D01*
X133721527Y-79342668D01*
X133561836Y-79235966D01*
X133384397Y-79162468D01*
X133196029Y-79125000D01*
X133003971Y-79125000D01*
X132815603Y-79162468D01*
X132638164Y-79235966D01*
X132478473Y-79342668D01*
X132342668Y-79478473D01*
X132235966Y-79638164D01*
X132162468Y-79815603D01*
X132125000Y-80003971D01*
X132125000Y-80196029D01*
X132162468Y-80384397D01*
X132235966Y-80561836D01*
X132342668Y-80721527D01*
X132478473Y-80857332D01*
X132534998Y-80895101D01*
X132526283Y-80900924D01*
X132400924Y-81026283D01*
X132302430Y-81173690D01*
X132234586Y-81337480D01*
X132200000Y-81511358D01*
X132200000Y-81600000D01*
X132111358Y-81600000D01*
X131937480Y-81634586D01*
X131773690Y-81702430D01*
X131626283Y-81800924D01*
X131500924Y-81926283D01*
X131402430Y-82073690D01*
X131370978Y-82149622D01*
X131247191Y-82125000D01*
X131069907Y-82125000D01*
X130896029Y-82159586D01*
X130732239Y-82227430D01*
X130584832Y-82325924D01*
X130459473Y-82451283D01*
X130360979Y-82598690D01*
X130293135Y-82762480D01*
X130258549Y-82936358D01*
X122275000Y-82936358D01*
X122275000Y-81411358D01*
X126000000Y-81411358D01*
X126000000Y-81588642D01*
X126034586Y-81762520D01*
X126102430Y-81926310D01*
X126200924Y-82073717D01*
X126326283Y-82199076D01*
X126473690Y-82297570D01*
X126637480Y-82365414D01*
X126811358Y-82400000D01*
X126988642Y-82400000D01*
X127162520Y-82365414D01*
X127326310Y-82297570D01*
X127473717Y-82199076D01*
X127599076Y-82073717D01*
X127697570Y-81926310D01*
X127765414Y-81762520D01*
X127800000Y-81588642D01*
X127800000Y-81411358D01*
X127765414Y-81237480D01*
X127697570Y-81073690D01*
X127599076Y-80926283D01*
X127473717Y-80800924D01*
X127326310Y-80702430D01*
X127162520Y-80634586D01*
X126988642Y-80600000D01*
X126811358Y-80600000D01*
X126637480Y-80634586D01*
X126473690Y-80702430D01*
X126326283Y-80800924D01*
X126200924Y-80926283D01*
X126102430Y-81073690D01*
X126034586Y-81237480D01*
X126000000Y-81411358D01*
X122275000Y-81411358D01*
X122275000Y-81209617D01*
X122439263Y-81259445D01*
X122597194Y-81275000D01*
X123402806Y-81275000D01*
X123560737Y-81259445D01*
X123763375Y-81197976D01*
X123950128Y-81098154D01*
X124113817Y-80963817D01*
X124248154Y-80800128D01*
X124347976Y-80613375D01*
X124409445Y-80410737D01*
X124430201Y-80200000D01*
X124409445Y-79989263D01*
X124347976Y-79786625D01*
X124248154Y-79599872D01*
X124113817Y-79436183D01*
X123950128Y-79301846D01*
X123780838Y-79211358D01*
X126400000Y-79211358D01*
X126400000Y-79388642D01*
X126434586Y-79562520D01*
X126502430Y-79726310D01*
X126600924Y-79873717D01*
X126726283Y-79999076D01*
X126873690Y-80097570D01*
X127037480Y-80165414D01*
X127211358Y-80200000D01*
X127388642Y-80200000D01*
X127562520Y-80165414D01*
X127726310Y-80097570D01*
X127873717Y-79999076D01*
X127999076Y-79873717D01*
X128097570Y-79726310D01*
X128165414Y-79562520D01*
X128200000Y-79388642D01*
X128200000Y-79211358D01*
X128165414Y-79037480D01*
X128097570Y-78873690D01*
X127999076Y-78726283D01*
X127873717Y-78600924D01*
X127726310Y-78502430D01*
X127562520Y-78434586D01*
X127388642Y-78400000D01*
X127211358Y-78400000D01*
X127037480Y-78434586D01*
X126873690Y-78502430D01*
X126726283Y-78600924D01*
X126600924Y-78726283D01*
X126502430Y-78873690D01*
X126434586Y-79037480D01*
X126400000Y-79211358D01*
X123780838Y-79211358D01*
X123763375Y-79202024D01*
X123560737Y-79140555D01*
X123402806Y-79125000D01*
X122597194Y-79125000D01*
X122439263Y-79140555D01*
X122275000Y-79190383D01*
X122275000Y-77411358D01*
X129400000Y-77411358D01*
X129400000Y-77588642D01*
X129434586Y-77762520D01*
X129502430Y-77926310D01*
X129600924Y-78073717D01*
X129726283Y-78199076D01*
X129873690Y-78297570D01*
X130037480Y-78365414D01*
X130211358Y-78400000D01*
X130388642Y-78400000D01*
X130562520Y-78365414D01*
X130726310Y-78297570D01*
X130873717Y-78199076D01*
X130999076Y-78073717D01*
X131097570Y-77926310D01*
X131165414Y-77762520D01*
X131200000Y-77588642D01*
X131200000Y-77411358D01*
X131165414Y-77237480D01*
X131097570Y-77073690D01*
X131091984Y-77065329D01*
X139125000Y-77065329D01*
X139125000Y-77434671D01*
X139197056Y-77796917D01*
X139338397Y-78138145D01*
X139543593Y-78445243D01*
X139804757Y-78706407D01*
X140111855Y-78911603D01*
X140453083Y-79052944D01*
X140815329Y-79125000D01*
X141184671Y-79125000D01*
X141546917Y-79052944D01*
X141888145Y-78911603D01*
X142195243Y-78706407D01*
X142456407Y-78445243D01*
X142661603Y-78138145D01*
X142802944Y-77796917D01*
X142875000Y-77434671D01*
X142875000Y-77065329D01*
X142802944Y-76703083D01*
X142661603Y-76361855D01*
X142456407Y-76054757D01*
X142195243Y-75793593D01*
X141888145Y-75588397D01*
X141546917Y-75447056D01*
X141184671Y-75375000D01*
X140815329Y-75375000D01*
X140453083Y-75447056D01*
X140111855Y-75588397D01*
X139804757Y-75793593D01*
X139543593Y-76054757D01*
X139338397Y-76361855D01*
X139197056Y-76703083D01*
X139125000Y-77065329D01*
X131091984Y-77065329D01*
X130999076Y-76926283D01*
X130873717Y-76800924D01*
X130726310Y-76702430D01*
X130562520Y-76634586D01*
X130388642Y-76600000D01*
X130211358Y-76600000D01*
X130037480Y-76634586D01*
X129873690Y-76702430D01*
X129726283Y-76800924D01*
X129600924Y-76926283D01*
X129502430Y-77073690D01*
X129434586Y-77237480D01*
X129400000Y-77411358D01*
X122275000Y-77411358D01*
X122275000Y-75275000D01*
X126468372Y-75275000D01*
X126402430Y-75373690D01*
%TA.AperFunction,Conductor*%
D21*
G36*
X126402430Y-75373690D02*
G01*
X126334586Y-75537480D01*
X126300000Y-75711358D01*
X126300000Y-75888642D01*
X126334586Y-76062520D01*
X126402430Y-76226310D01*
X126500924Y-76373717D01*
X126626283Y-76499076D01*
X126773690Y-76597570D01*
X126937480Y-76665414D01*
X127111358Y-76700000D01*
X127288642Y-76700000D01*
X127462520Y-76665414D01*
X127626310Y-76597570D01*
X127773717Y-76499076D01*
X127899076Y-76373717D01*
X127997570Y-76226310D01*
X128065414Y-76062520D01*
X128100000Y-75888642D01*
X128100000Y-75711358D01*
X128065414Y-75537480D01*
X127997570Y-75373690D01*
X127931628Y-75275000D01*
X135725000Y-75275000D01*
X135725000Y-75296029D01*
X135762468Y-75484397D01*
X135835966Y-75661836D01*
X135942668Y-75821527D01*
X136078473Y-75957332D01*
X136238164Y-76064034D01*
X136415603Y-76137532D01*
X136603971Y-76175000D01*
X136796029Y-76175000D01*
X136984397Y-76137532D01*
X137161836Y-76064034D01*
X137321527Y-75957332D01*
X137457332Y-75821527D01*
X137564034Y-75661836D01*
X137637532Y-75484397D01*
X137675000Y-75296029D01*
X137675000Y-75275000D01*
X146263466Y-75275000D01*
X146051325Y-75362872D01*
X145809742Y-75524293D01*
X145604293Y-75729742D01*
X145442872Y-75971325D01*
X145331683Y-76239758D01*
X145275000Y-76524725D01*
X145275000Y-76815275D01*
X145331683Y-77100242D01*
X145442872Y-77368675D01*
X145604293Y-77610258D01*
X145809742Y-77815707D01*
X145995759Y-77940000D01*
X145809742Y-78064293D01*
X145604293Y-78269742D01*
X145442872Y-78511325D01*
X145331683Y-78779758D01*
X145275000Y-79064725D01*
X145275000Y-79355275D01*
X145331683Y-79640242D01*
X145442872Y-79908675D01*
X145604293Y-80150258D01*
X145809742Y-80355707D01*
X145995759Y-80480000D01*
X145809742Y-80604293D01*
X145604293Y-80809742D01*
X145442872Y-81051325D01*
X145331683Y-81319758D01*
X145275000Y-81604725D01*
X145275000Y-81895275D01*
X145331683Y-82180242D01*
X145442872Y-82448675D01*
X145604293Y-82690258D01*
X145809742Y-82895707D01*
X145995759Y-83020000D01*
X145809742Y-83144293D01*
X145604293Y-83349742D01*
X145442872Y-83591325D01*
X145331683Y-83859758D01*
X145275000Y-84144725D01*
X145275000Y-84435275D01*
X145331683Y-84720242D01*
X145442872Y-84988675D01*
X145604293Y-85230258D01*
X145747248Y-85373213D01*
X145659666Y-85399781D01*
X145551089Y-85457817D01*
X145455920Y-85535920D01*
X145377817Y-85631089D01*
X145319781Y-85739666D01*
X145284043Y-85857479D01*
X145271976Y-85980000D01*
X145275000Y-86548750D01*
X145431250Y-86705000D01*
X146625000Y-86705000D01*
X146625000Y-86685000D01*
X146875000Y-86685000D01*
X146875000Y-86705000D01*
X148068750Y-86705000D01*
X148225000Y-86548750D01*
X148228024Y-85980000D01*
X148215957Y-85857479D01*
X148180219Y-85739666D01*
X148122183Y-85631089D01*
X148044080Y-85535920D01*
X147948911Y-85457817D01*
X147840334Y-85399781D01*
X147752752Y-85373213D01*
X147895707Y-85230258D01*
X148057128Y-84988675D01*
X148168317Y-84720242D01*
X148225000Y-84435275D01*
X148225000Y-84144725D01*
X148168317Y-83859758D01*
X148057128Y-83591325D01*
X147895707Y-83349742D01*
X147690258Y-83144293D01*
X147504241Y-83020000D01*
X147662924Y-82913971D01*
X150485000Y-82913971D01*
X150485000Y-83106029D01*
X150522468Y-83294397D01*
X150595966Y-83471836D01*
X150702668Y-83631527D01*
X150838473Y-83767332D01*
X150998164Y-83874034D01*
X151175603Y-83947532D01*
X151363971Y-83985000D01*
X151556029Y-83985000D01*
X151744397Y-83947532D01*
X151921836Y-83874034D01*
X152081527Y-83767332D01*
X152217332Y-83631527D01*
X152324034Y-83471836D01*
X152397532Y-83294397D01*
X152435000Y-83106029D01*
X152435000Y-82913971D01*
X152397532Y-82725603D01*
X152324034Y-82548164D01*
X152217332Y-82388473D01*
X152081527Y-82252668D01*
X151921836Y-82145966D01*
X151744397Y-82072468D01*
X151556029Y-82035000D01*
X151363971Y-82035000D01*
X151175603Y-82072468D01*
X150998164Y-82145966D01*
X150838473Y-82252668D01*
X150702668Y-82388473D01*
X150595966Y-82548164D01*
X150522468Y-82725603D01*
X150485000Y-82913971D01*
X147662924Y-82913971D01*
X147690258Y-82895707D01*
X147895707Y-82690258D01*
X148057128Y-82448675D01*
X148168317Y-82180242D01*
X148225000Y-81895275D01*
X148225000Y-81604725D01*
X148168317Y-81319758D01*
X148057128Y-81051325D01*
X147895707Y-80809742D01*
X147690258Y-80604293D01*
X147504241Y-80480000D01*
X147690258Y-80355707D01*
X147895707Y-80150258D01*
X148057128Y-79908675D01*
X148122853Y-79750000D01*
X156121976Y-79750000D01*
X156121976Y-81250000D01*
X156134043Y-81372521D01*
X156169781Y-81490334D01*
X156227817Y-81598911D01*
X156305920Y-81694080D01*
X156401089Y-81772183D01*
X156509666Y-81830219D01*
X156627479Y-81865957D01*
X156750000Y-81878024D01*
X158250000Y-81878024D01*
X158372521Y-81865957D01*
X158490334Y-81830219D01*
X158598911Y-81772183D01*
X158694080Y-81694080D01*
X158772183Y-81598911D01*
X158830219Y-81490334D01*
X158865957Y-81372521D01*
X158874095Y-81289898D01*
X158931968Y-81376511D01*
X159123489Y-81568032D01*
X159348693Y-81718509D01*
X159598927Y-81822159D01*
X159864574Y-81875000D01*
X160135426Y-81875000D01*
X160401073Y-81822159D01*
X160651307Y-81718509D01*
X160876511Y-81568032D01*
X161068032Y-81376511D01*
X161218509Y-81151307D01*
X161250000Y-81075281D01*
X161281491Y-81151307D01*
X161431968Y-81376511D01*
X161623489Y-81568032D01*
X161848693Y-81718509D01*
X162098927Y-81822159D01*
X162364574Y-81875000D01*
X162635426Y-81875000D01*
X162901073Y-81822159D01*
X163151307Y-81718509D01*
X163376511Y-81568032D01*
X163494184Y-81450359D01*
X164226417Y-81450359D01*
X164292342Y-81686670D01*
X164537448Y-81801926D01*
X164800329Y-81867149D01*
X165070883Y-81879834D01*
X165338714Y-81839492D01*
X165593527Y-81747674D01*
X165707658Y-81686670D01*
X165773583Y-81450359D01*
X165000000Y-80676777D01*
X164226417Y-81450359D01*
X163494184Y-81450359D01*
X163568032Y-81376511D01*
X163718509Y-81151307D01*
X163747728Y-81080766D01*
X163752326Y-81093527D01*
X163813330Y-81207658D01*
X164049641Y-81273583D01*
X164823223Y-80500000D01*
X165176777Y-80500000D01*
X165950359Y-81273583D01*
X166186670Y-81207658D01*
X166301926Y-80962552D01*
X166367149Y-80699671D01*
X166379834Y-80429117D01*
X166339492Y-80161286D01*
X166247674Y-79906473D01*
X166186670Y-79792342D01*
X165950359Y-79726417D01*
X165176777Y-80500000D01*
X164823223Y-80500000D01*
X164049641Y-79726417D01*
X163813330Y-79792342D01*
X163750507Y-79925943D01*
X163718509Y-79848693D01*
X163568032Y-79623489D01*
X163494184Y-79549641D01*
X164226417Y-79549641D01*
X165000000Y-80323223D01*
X165773583Y-79549641D01*
X165707658Y-79313330D01*
X165462552Y-79198074D01*
X165199671Y-79132851D01*
X164929117Y-79120166D01*
X164661286Y-79160508D01*
X164406473Y-79252326D01*
X164292342Y-79313330D01*
X164226417Y-79549641D01*
X163494184Y-79549641D01*
X163376511Y-79431968D01*
X163151307Y-79281491D01*
X162901073Y-79177841D01*
X162635426Y-79125000D01*
X162364574Y-79125000D01*
X162098927Y-79177841D01*
X161848693Y-79281491D01*
X161623489Y-79431968D01*
X161431968Y-79623489D01*
X161281491Y-79848693D01*
X161250000Y-79924719D01*
X161218509Y-79848693D01*
X161068032Y-79623489D01*
X160876511Y-79431968D01*
X160651307Y-79281491D01*
X160401073Y-79177841D01*
X160135426Y-79125000D01*
X159864574Y-79125000D01*
X159598927Y-79177841D01*
X159348693Y-79281491D01*
X159123489Y-79431968D01*
X158931968Y-79623489D01*
X158874095Y-79710102D01*
X158865957Y-79627479D01*
X158830219Y-79509666D01*
X158772183Y-79401089D01*
X158694080Y-79305920D01*
X158598911Y-79227817D01*
X158490334Y-79169781D01*
X158372521Y-79134043D01*
X158250000Y-79121976D01*
X156750000Y-79121976D01*
X156627479Y-79134043D01*
X156509666Y-79169781D01*
X156401089Y-79227817D01*
X156305920Y-79305920D01*
X156227817Y-79401089D01*
X156169781Y-79509666D01*
X156134043Y-79627479D01*
X156121976Y-79750000D01*
X148122853Y-79750000D01*
X148168317Y-79640242D01*
X148225000Y-79355275D01*
X148225000Y-79064725D01*
X148168317Y-78779758D01*
X148057128Y-78511325D01*
X147895707Y-78269742D01*
X147690258Y-78064293D01*
X147504241Y-77940000D01*
X147690258Y-77815707D01*
X147895707Y-77610258D01*
X148057128Y-77368675D01*
X148168317Y-77100242D01*
X148225000Y-76815275D01*
X148225000Y-76524725D01*
X148168317Y-76239758D01*
X148057128Y-75971325D01*
X147895707Y-75729742D01*
X147690258Y-75524293D01*
X147448675Y-75362872D01*
X147236534Y-75275000D01*
X153101628Y-75275000D01*
X153083690Y-75282430D01*
X152936283Y-75380924D01*
X152810924Y-75506283D01*
X152712430Y-75653690D01*
X152644586Y-75817480D01*
X152610000Y-75991358D01*
X152610000Y-76168642D01*
X152644586Y-76342520D01*
X152712430Y-76506310D01*
X152810924Y-76653717D01*
X152936283Y-76779076D01*
X153083690Y-76877570D01*
X153247480Y-76945414D01*
X153421358Y-76980000D01*
X153598642Y-76980000D01*
X153772520Y-76945414D01*
X153936310Y-76877570D01*
X154083717Y-76779076D01*
X154209076Y-76653717D01*
X154307570Y-76506310D01*
X154375414Y-76342520D01*
X154410000Y-76168642D01*
X154410000Y-75991358D01*
X154375414Y-75817480D01*
X154307570Y-75653690D01*
X154209076Y-75506283D01*
X154083717Y-75380924D01*
X153936310Y-75282430D01*
X153918372Y-75275000D01*
X168225000Y-75275000D01*
X168225001Y-78038065D01*
X168228393Y-78072509D01*
X168228263Y-78091184D01*
X168229319Y-78101953D01*
X168290519Y-78684243D01*
X168304652Y-78753095D01*
X168317806Y-78822049D01*
X168320932Y-78832401D01*
X168320933Y-78832408D01*
X168320936Y-78832414D01*
X168494071Y-79391722D01*
X168521303Y-79456504D01*
X168547603Y-79521600D01*
X168552683Y-79531155D01*
X168831159Y-80046187D01*
X168870432Y-80104411D01*
X168908900Y-80163197D01*
X168915739Y-80171583D01*
X169288949Y-80622716D01*
X169338803Y-80672223D01*
X169387936Y-80722396D01*
X169396274Y-80729294D01*
X169574927Y-80875000D01*
X167500000Y-80875000D01*
X167475614Y-80877402D01*
X167452165Y-80884515D01*
X167430554Y-80896066D01*
X167411612Y-80911612D01*
X167396066Y-80930554D01*
X167384515Y-80952165D01*
X167377402Y-80975614D01*
X167375000Y-81000000D01*
X167375000Y-91069912D01*
X167299076Y-90956283D01*
X167173717Y-90830924D01*
X167026310Y-90732430D01*
X166862520Y-90664586D01*
X166688642Y-90630000D01*
X166511358Y-90630000D01*
X166337480Y-90664586D01*
X166173690Y-90732430D01*
X166026283Y-90830924D01*
X165900924Y-90956283D01*
X165802430Y-91103690D01*
X165734586Y-91267480D01*
X165700000Y-91441358D01*
X165700000Y-91618642D01*
X165734586Y-91792520D01*
X165802430Y-91956310D01*
X165900924Y-92103717D01*
X166026283Y-92229076D01*
X166173690Y-92327570D01*
X166337480Y-92395414D01*
X166511358Y-92430000D01*
X166688642Y-92430000D01*
X166862520Y-92395414D01*
X167026310Y-92327570D01*
X167173717Y-92229076D01*
X167299076Y-92103717D01*
X167375000Y-91990088D01*
X167375000Y-114473350D01*
X167195243Y-114293593D01*
X166888145Y-114088397D01*
X166546917Y-113947056D01*
X166184671Y-113875000D01*
X165815329Y-113875000D01*
X165453083Y-113947056D01*
X165111855Y-114088397D01*
X164804757Y-114293593D01*
X164543593Y-114554757D01*
X164338397Y-114861855D01*
X164197056Y-115203083D01*
X164125000Y-115565329D01*
X164125000Y-115934671D01*
X164197056Y-116296917D01*
X164338397Y-116638145D01*
X164543593Y-116945243D01*
X164804757Y-117206407D01*
X165111855Y-117411603D01*
X165453083Y-117552944D01*
X165815329Y-117625000D01*
X166184671Y-117625000D01*
X166546917Y-117552944D01*
X166888145Y-117411603D01*
X167195243Y-117206407D01*
X167375000Y-117026650D01*
X167375000Y-117725000D01*
X128775000Y-117725000D01*
X128775000Y-114961935D01*
X128771607Y-114927481D01*
X128771737Y-114908816D01*
X128771262Y-114903971D01*
X155025000Y-114903971D01*
X155025000Y-115096029D01*
X155062468Y-115284397D01*
X155135966Y-115461836D01*
X155242668Y-115621527D01*
X155378473Y-115757332D01*
X155538164Y-115864034D01*
X155715603Y-115937532D01*
X155903971Y-115975000D01*
X156096029Y-115975000D01*
X156284397Y-115937532D01*
X156461836Y-115864034D01*
X156621527Y-115757332D01*
X156757332Y-115621527D01*
X156864034Y-115461836D01*
X156937532Y-115284397D01*
X156975000Y-115096029D01*
X156975000Y-114903971D01*
X156937532Y-114715603D01*
X156864034Y-114538164D01*
X156757332Y-114378473D01*
X156621527Y-114242668D01*
X156461836Y-114135966D01*
X156284397Y-114062468D01*
X156096029Y-114025000D01*
X155903971Y-114025000D01*
X155715603Y-114062468D01*
X155538164Y-114135966D01*
X155378473Y-114242668D01*
X155242668Y-114378473D01*
X155135966Y-114538164D01*
X155062468Y-114715603D01*
X155025000Y-114903971D01*
X128771262Y-114903971D01*
X128770681Y-114898046D01*
X128709480Y-114315757D01*
X128695354Y-114246936D01*
X128682194Y-114177951D01*
X128679067Y-114167592D01*
X128505929Y-113608278D01*
X128478697Y-113543496D01*
X128452397Y-113478400D01*
X128447317Y-113468845D01*
X128168841Y-112953813D01*
X128129568Y-112895589D01*
X128091100Y-112836803D01*
X128084261Y-112828417D01*
X127838513Y-112531358D01*
X135450000Y-112531358D01*
X135450000Y-112708642D01*
X135484586Y-112882520D01*
X135552430Y-113046310D01*
X135650924Y-113193717D01*
X135776283Y-113319076D01*
X135923690Y-113417570D01*
X136087480Y-113485414D01*
X136261358Y-113520000D01*
X136438642Y-113520000D01*
X136612520Y-113485414D01*
X136776310Y-113417570D01*
X136923717Y-113319076D01*
X137049076Y-113193717D01*
X137147570Y-113046310D01*
X137215414Y-112882520D01*
X137250000Y-112708642D01*
X137250000Y-112531358D01*
X137215414Y-112357480D01*
X137147570Y-112193690D01*
X137049076Y-112046283D01*
X136923717Y-111920924D01*
X136776310Y-111822430D01*
X136612520Y-111754586D01*
X136438642Y-111720000D01*
X136261358Y-111720000D01*
X136087480Y-111754586D01*
X135923690Y-111822430D01*
X135776283Y-111920924D01*
X135650924Y-112046283D01*
X135552430Y-112193690D01*
X135484586Y-112357480D01*
X135450000Y-112531358D01*
X127838513Y-112531358D01*
X127711051Y-112377284D01*
X127661195Y-112327775D01*
X127612064Y-112277605D01*
X127603726Y-112270707D01*
X127149998Y-111900654D01*
X127091466Y-111861766D01*
X127033534Y-111822099D01*
X127024015Y-111816951D01*
X126507051Y-111542077D01*
X126442049Y-111515286D01*
X126377547Y-111487640D01*
X126367210Y-111484439D01*
X125806702Y-111315212D01*
X125737778Y-111301565D01*
X125669092Y-111286965D01*
X125658330Y-111285834D01*
X125075627Y-111228699D01*
X125075623Y-111228699D01*
X125038065Y-111225000D01*
X122275000Y-111225000D01*
X122275000Y-108313394D01*
X123885000Y-108313394D01*
X123885000Y-108756606D01*
X123971466Y-109191301D01*
X124141076Y-109600775D01*
X124387311Y-109969292D01*
X124700708Y-110282689D01*
X125069225Y-110528924D01*
X125478699Y-110698534D01*
X125913394Y-110785000D01*
X126356606Y-110785000D01*
X126791301Y-110698534D01*
X127200775Y-110528924D01*
X127569292Y-110282689D01*
X127882689Y-109969292D01*
X127971267Y-109836725D01*
X140003000Y-109836725D01*
X140003000Y-110127275D01*
X140059683Y-110412242D01*
X140170872Y-110680675D01*
X140332293Y-110922258D01*
X140537742Y-111127707D01*
X140723759Y-111252000D01*
X140537742Y-111376293D01*
X140332293Y-111581742D01*
X140170872Y-111823325D01*
X140059683Y-112091758D01*
X140003000Y-112376725D01*
X140003000Y-112667275D01*
X140059683Y-112952242D01*
X140170872Y-113220675D01*
X140332293Y-113462258D01*
X140537742Y-113667707D01*
X140779325Y-113829128D01*
X141047758Y-113940317D01*
X141332725Y-113997000D01*
X141623275Y-113997000D01*
X141908242Y-113940317D01*
X142176675Y-113829128D01*
X142418258Y-113667707D01*
X142623707Y-113462258D01*
X142748000Y-113276241D01*
X142872293Y-113462258D01*
X143077742Y-113667707D01*
X143319325Y-113829128D01*
X143587758Y-113940317D01*
X143872725Y-113997000D01*
X144163275Y-113997000D01*
X144448242Y-113940317D01*
X144716675Y-113829128D01*
X144958258Y-113667707D01*
X145101213Y-113524752D01*
X145127781Y-113612334D01*
X145185817Y-113720911D01*
X145263920Y-113816080D01*
X145359089Y-113894183D01*
X145467666Y-113952219D01*
X145585479Y-113987957D01*
X145708000Y-114000024D01*
X147408000Y-114000024D01*
X147530521Y-113987957D01*
X147648334Y-113952219D01*
X147756911Y-113894183D01*
X147852080Y-113816080D01*
X147930183Y-113720911D01*
X147988219Y-113612334D01*
X148023957Y-113494521D01*
X148036024Y-113372000D01*
X148036024Y-113281358D01*
X162180000Y-113281358D01*
X162180000Y-113458642D01*
X162214586Y-113632520D01*
X162282430Y-113796310D01*
X162380924Y-113943717D01*
X162506283Y-114069076D01*
X162653690Y-114167570D01*
X162817480Y-114235414D01*
X162991358Y-114270000D01*
X163168642Y-114270000D01*
X163342520Y-114235414D01*
X163506310Y-114167570D01*
X163653717Y-114069076D01*
X163779076Y-113943717D01*
X163877570Y-113796310D01*
X163945414Y-113632520D01*
X163980000Y-113458642D01*
X163980000Y-113281358D01*
X163945414Y-113107480D01*
X163877570Y-112943690D01*
X163779076Y-112796283D01*
X163653717Y-112670924D01*
X163506310Y-112572430D01*
X163342520Y-112504586D01*
X163168642Y-112470000D01*
X162991358Y-112470000D01*
X162817480Y-112504586D01*
X162653690Y-112572430D01*
X162506283Y-112670924D01*
X162380924Y-112796283D01*
X162282430Y-112943690D01*
X162214586Y-113107480D01*
X162180000Y-113281358D01*
X148036024Y-113281358D01*
X148036024Y-111672000D01*
X148023957Y-111549479D01*
X147988219Y-111431666D01*
X147930183Y-111323089D01*
X147871842Y-111252000D01*
X147930183Y-111180911D01*
X147988219Y-111072334D01*
X148023957Y-110954521D01*
X148036024Y-110832000D01*
X148036024Y-109132000D01*
X148023957Y-109009479D01*
X147988219Y-108891666D01*
X147930183Y-108783089D01*
X147852080Y-108687920D01*
X147756911Y-108609817D01*
X147648334Y-108551781D01*
X147530521Y-108516043D01*
X147408000Y-108503976D01*
X145708000Y-108503976D01*
X145585479Y-108516043D01*
X145467666Y-108551781D01*
X145359089Y-108609817D01*
X145263920Y-108687920D01*
X145185817Y-108783089D01*
X145127781Y-108891666D01*
X145101213Y-108979248D01*
X144958258Y-108836293D01*
X144716675Y-108674872D01*
X144448242Y-108563683D01*
X144163275Y-108507000D01*
X143872725Y-108507000D01*
X143587758Y-108563683D01*
X143319325Y-108674872D01*
X143077742Y-108836293D01*
X142872293Y-109041742D01*
X142748000Y-109227759D01*
X142623707Y-109041742D01*
X142418258Y-108836293D01*
X142176675Y-108674872D01*
X141908242Y-108563683D01*
X141623275Y-108507000D01*
X141332725Y-108507000D01*
X141047758Y-108563683D01*
X140779325Y-108674872D01*
X140537742Y-108836293D01*
X140332293Y-109041742D01*
X140170872Y-109283325D01*
X140059683Y-109551758D01*
X140003000Y-109836725D01*
X127971267Y-109836725D01*
X128128924Y-109600775D01*
X128298534Y-109191301D01*
X128385000Y-108756606D01*
X128385000Y-108313394D01*
X128298534Y-107878699D01*
X128128924Y-107469225D01*
X127882689Y-107100708D01*
X127569292Y-106787311D01*
X127200775Y-106541076D01*
X126791301Y-106371466D01*
X126356606Y-106285000D01*
X125913394Y-106285000D01*
X125478699Y-106371466D01*
X125069225Y-106541076D01*
X124700708Y-106787311D01*
X124387311Y-107100708D01*
X124141076Y-107469225D01*
X123971466Y-107878699D01*
X123885000Y-108313394D01*
X122275000Y-108313394D01*
X122275000Y-102678589D01*
X131100000Y-102678589D01*
X131100000Y-102951411D01*
X131153225Y-103218989D01*
X131257629Y-103471043D01*
X131409201Y-103697886D01*
X131602114Y-103890799D01*
X131828957Y-104042371D01*
X131931873Y-104085000D01*
X131828957Y-104127629D01*
X131602114Y-104279201D01*
X131409201Y-104472114D01*
X131257629Y-104698957D01*
X131153225Y-104951011D01*
X131100000Y-105218589D01*
X131100000Y-105491411D01*
X131153225Y-105758989D01*
X131257629Y-106011043D01*
X131409201Y-106237886D01*
X131602114Y-106430799D01*
X131828957Y-106582371D01*
X132081011Y-106686775D01*
X132348589Y-106740000D01*
X132621411Y-106740000D01*
X132888989Y-106686775D01*
X133141043Y-106582371D01*
X133367886Y-106430799D01*
X133560799Y-106237886D01*
X133636976Y-106123879D01*
X133636976Y-107385000D01*
X133649043Y-107507521D01*
X133684781Y-107625334D01*
X133742817Y-107733911D01*
X133820920Y-107829080D01*
X133916089Y-107907183D01*
X134024666Y-107965219D01*
X134142479Y-108000957D01*
X134265000Y-108013024D01*
X135785000Y-108013024D01*
X135907521Y-108000957D01*
X136025334Y-107965219D01*
X136133911Y-107907183D01*
X136229080Y-107829080D01*
X136307183Y-107733911D01*
X136365219Y-107625334D01*
X136400957Y-107507521D01*
X136413024Y-107385000D01*
X136413024Y-105865000D01*
X136400957Y-105742479D01*
X136365219Y-105624666D01*
X136307183Y-105516089D01*
X136229080Y-105420920D01*
X136133911Y-105342817D01*
X136025334Y-105284781D01*
X135907521Y-105249043D01*
X135785000Y-105236976D01*
X135750711Y-105236976D01*
X135805724Y-105042501D01*
X135025000Y-104261777D01*
X134244276Y-105042501D01*
X134299289Y-105236976D01*
X134265000Y-105236976D01*
X134142479Y-105249043D01*
X134024666Y-105284781D01*
X133916089Y-105342817D01*
X133870000Y-105380641D01*
X133870000Y-105218589D01*
X133816775Y-104951011D01*
X133712371Y-104698957D01*
X133560799Y-104472114D01*
X133367886Y-104279201D01*
X133182734Y-104155486D01*
X133635085Y-104155486D01*
X133675543Y-104425291D01*
X133767860Y-104682019D01*
X133830168Y-104798588D01*
X134067499Y-104865724D01*
X134848223Y-104085000D01*
X135201777Y-104085000D01*
X135982501Y-104865724D01*
X136219832Y-104798588D01*
X136336088Y-104551777D01*
X136401959Y-104287027D01*
X136414915Y-104014514D01*
X136374457Y-103744709D01*
X136282140Y-103487981D01*
X136219832Y-103371412D01*
X135982501Y-103304276D01*
X135201777Y-104085000D01*
X134848223Y-104085000D01*
X134067499Y-103304276D01*
X133830168Y-103371412D01*
X133713912Y-103618223D01*
X133648041Y-103882973D01*
X133635085Y-104155486D01*
X133182734Y-104155486D01*
X133141043Y-104127629D01*
X133038127Y-104085000D01*
X133141043Y-104042371D01*
X133367886Y-103890799D01*
X133560799Y-103697886D01*
X133712371Y-103471043D01*
X133816775Y-103218989D01*
X133870000Y-102951411D01*
X133870000Y-102678589D01*
X133816775Y-102411011D01*
X133712371Y-102158957D01*
X133560799Y-101932114D01*
X133367886Y-101739201D01*
X133141043Y-101587629D01*
X133041905Y-101546565D01*
X133082019Y-101532140D01*
X133198588Y-101469832D01*
X133215912Y-101408589D01*
X133640000Y-101408589D01*
X133640000Y-101681411D01*
X133693225Y-101948989D01*
X133797629Y-102201043D01*
X133949201Y-102427886D01*
X134142114Y-102620799D01*
X134368957Y-102772371D01*
X134468095Y-102813435D01*
X134427981Y-102827860D01*
X134311412Y-102890168D01*
X134244276Y-103127499D01*
X135025000Y-103908223D01*
X135805724Y-103127499D01*
X135772871Y-103011358D01*
X137000000Y-103011358D01*
X137000000Y-103188642D01*
X137034586Y-103362520D01*
X137102430Y-103526310D01*
X137200924Y-103673717D01*
X137326283Y-103799076D01*
X137473690Y-103897570D01*
X137637480Y-103965414D01*
X137811358Y-104000000D01*
X137988642Y-104000000D01*
X138162520Y-103965414D01*
X138326310Y-103897570D01*
X138473717Y-103799076D01*
X138599076Y-103673717D01*
X138697570Y-103526310D01*
X138765414Y-103362520D01*
X138800000Y-103188642D01*
X138800000Y-103011358D01*
X138765414Y-102837480D01*
X138697570Y-102673690D01*
X138599076Y-102526283D01*
X138473717Y-102400924D01*
X138326310Y-102302430D01*
X138162520Y-102234586D01*
X137988642Y-102200000D01*
X137811358Y-102200000D01*
X137637480Y-102234586D01*
X137473690Y-102302430D01*
X137326283Y-102400924D01*
X137200924Y-102526283D01*
X137102430Y-102673690D01*
X137034586Y-102837480D01*
X137000000Y-103011358D01*
X135772871Y-103011358D01*
X135738588Y-102890168D01*
X135578595Y-102814806D01*
X135681043Y-102772371D01*
X135907886Y-102620799D01*
X136100799Y-102427886D01*
X136252371Y-102201043D01*
X136356775Y-101948989D01*
X136410000Y-101681411D01*
X136410000Y-101408589D01*
X136356775Y-101141011D01*
X136252371Y-100888957D01*
X136100799Y-100662114D01*
X135907886Y-100469201D01*
X135681043Y-100317629D01*
X135428989Y-100213225D01*
X135161411Y-100160000D01*
X134888589Y-100160000D01*
X134621011Y-100213225D01*
X134368957Y-100317629D01*
X134142114Y-100469201D01*
X133949201Y-100662114D01*
X133797629Y-100888957D01*
X133693225Y-101141011D01*
X133640000Y-101408589D01*
X133215912Y-101408589D01*
X133265724Y-101232501D01*
X132485000Y-100451777D01*
X131704276Y-101232501D01*
X131771412Y-101469832D01*
X131931405Y-101545194D01*
X131828957Y-101587629D01*
X131602114Y-101739201D01*
X131409201Y-101932114D01*
X131257629Y-102158957D01*
X131153225Y-102411011D01*
X131100000Y-102678589D01*
X122275000Y-102678589D01*
X122275000Y-98153394D01*
X123885000Y-98153394D01*
X123885000Y-98596606D01*
X123971466Y-99031301D01*
X124141076Y-99440775D01*
X124387311Y-99809292D01*
X124700708Y-100122689D01*
X125069225Y-100368924D01*
X125478699Y-100538534D01*
X125913394Y-100625000D01*
X126356606Y-100625000D01*
X126791301Y-100538534D01*
X127200775Y-100368924D01*
X127235852Y-100345486D01*
X131095085Y-100345486D01*
X131135543Y-100615291D01*
X131227860Y-100872019D01*
X131290168Y-100988588D01*
X131527499Y-101055724D01*
X132308223Y-100275000D01*
X132661777Y-100275000D01*
X133442501Y-101055724D01*
X133679832Y-100988588D01*
X133796088Y-100741777D01*
X133861959Y-100477027D01*
X133874915Y-100204514D01*
X133834457Y-99934709D01*
X133742140Y-99677981D01*
X133679832Y-99561412D01*
X133442501Y-99494276D01*
X132661777Y-100275000D01*
X132308223Y-100275000D01*
X131527499Y-99494276D01*
X131290168Y-99561412D01*
X131173912Y-99808223D01*
X131108041Y-100072973D01*
X131095085Y-100345486D01*
X127235852Y-100345486D01*
X127569292Y-100122689D01*
X127882689Y-99809292D01*
X128128924Y-99440775D01*
X128179986Y-99317499D01*
X131704276Y-99317499D01*
X132485000Y-100098223D01*
X133265724Y-99317499D01*
X133198588Y-99080168D01*
X132951777Y-98963912D01*
X132687027Y-98898041D01*
X132414514Y-98885085D01*
X132144709Y-98925543D01*
X131887981Y-99017860D01*
X131771412Y-99080168D01*
X131704276Y-99317499D01*
X128179986Y-99317499D01*
X128298534Y-99031301D01*
X128385000Y-98596606D01*
X128385000Y-98153394D01*
X128298534Y-97718699D01*
X128128924Y-97309225D01*
X127882689Y-96940708D01*
X127569292Y-96627311D01*
X127200775Y-96381076D01*
X126791301Y-96211466D01*
X126753621Y-96203971D01*
X137125000Y-96203971D01*
X137125000Y-96396029D01*
X137162468Y-96584397D01*
X137235966Y-96761836D01*
X137342668Y-96921527D01*
X137478473Y-97057332D01*
X137638164Y-97164034D01*
X137815603Y-97237532D01*
X138003971Y-97275000D01*
X138196029Y-97275000D01*
X138384397Y-97237532D01*
X138561836Y-97164034D01*
X138721527Y-97057332D01*
X138857332Y-96921527D01*
X138964034Y-96761836D01*
X139037532Y-96584397D01*
X139052476Y-96509268D01*
X139065966Y-96541836D01*
X139172668Y-96701527D01*
X139308473Y-96837332D01*
X139468164Y-96944034D01*
X139645603Y-97017532D01*
X139833971Y-97055000D01*
X140026029Y-97055000D01*
X140214397Y-97017532D01*
X140391836Y-96944034D01*
X140551527Y-96837332D01*
X140687332Y-96701527D01*
X140794034Y-96541836D01*
X140867532Y-96364397D01*
X140905000Y-96176029D01*
X140905000Y-95983971D01*
X140867532Y-95795603D01*
X140794034Y-95618164D01*
X140687332Y-95458473D01*
X140551527Y-95322668D01*
X140391836Y-95215966D01*
X140214397Y-95142468D01*
X140026029Y-95105000D01*
X139833971Y-95105000D01*
X139645603Y-95142468D01*
X139468164Y-95215966D01*
X139308473Y-95322668D01*
X139172668Y-95458473D01*
X139065966Y-95618164D01*
X138992468Y-95795603D01*
X138977524Y-95870732D01*
X138964034Y-95838164D01*
X138857332Y-95678473D01*
X138721527Y-95542668D01*
X138561836Y-95435966D01*
X138384397Y-95362468D01*
X138196029Y-95325000D01*
X138003971Y-95325000D01*
X137815603Y-95362468D01*
X137638164Y-95435966D01*
X137478473Y-95542668D01*
X137342668Y-95678473D01*
X137235966Y-95838164D01*
X137162468Y-96015603D01*
X137125000Y-96203971D01*
X126753621Y-96203971D01*
X126356606Y-96125000D01*
X125913394Y-96125000D01*
X125478699Y-96211466D01*
X125069225Y-96381076D01*
X124700708Y-96627311D01*
X124387311Y-96940708D01*
X124141076Y-97309225D01*
X123971466Y-97718699D01*
X123885000Y-98153394D01*
X122275000Y-98153394D01*
X122275000Y-94603971D01*
X126825000Y-94603971D01*
X126825000Y-94796029D01*
X126862468Y-94984397D01*
X126935966Y-95161836D01*
X127042668Y-95321527D01*
X127178473Y-95457332D01*
X127338164Y-95564034D01*
X127515603Y-95637532D01*
X127703971Y-95675000D01*
X127896029Y-95675000D01*
X128084397Y-95637532D01*
X128261836Y-95564034D01*
X128421527Y-95457332D01*
X128557332Y-95321527D01*
X128664034Y-95161836D01*
X128737532Y-94984397D01*
X128775000Y-94796029D01*
X128775000Y-94603971D01*
X128737532Y-94415603D01*
X128664034Y-94238164D01*
X128557332Y-94078473D01*
X128421527Y-93942668D01*
X128261836Y-93835966D01*
X128084397Y-93762468D01*
X127896029Y-93725000D01*
X127703971Y-93725000D01*
X127515603Y-93762468D01*
X127338164Y-93835966D01*
X127178473Y-93942668D01*
X127042668Y-94078473D01*
X126935966Y-94238164D01*
X126862468Y-94415603D01*
X126825000Y-94603971D01*
X122275000Y-94603971D01*
X122275000Y-93403971D01*
X132325000Y-93403971D01*
X132325000Y-93596029D01*
X132362468Y-93784397D01*
X132435966Y-93961836D01*
X132542668Y-94121527D01*
X132678473Y-94257332D01*
X132838164Y-94364034D01*
X133015603Y-94437532D01*
X133203971Y-94475000D01*
X133396029Y-94475000D01*
X133584397Y-94437532D01*
X133761836Y-94364034D01*
X133921527Y-94257332D01*
X134057332Y-94121527D01*
X134164034Y-93961836D01*
X134237532Y-93784397D01*
X134252060Y-93711358D01*
X141789998Y-93711358D01*
X141789998Y-93888642D01*
X141824584Y-94062520D01*
X141892428Y-94226310D01*
X141990922Y-94373717D01*
X142116281Y-94499076D01*
X142263688Y-94597570D01*
X142427478Y-94665414D01*
X142601356Y-94700000D01*
X142778640Y-94700000D01*
X142952518Y-94665414D01*
X143116308Y-94597570D01*
X143263715Y-94499076D01*
X143358820Y-94403971D01*
X150025000Y-94403971D01*
X150025000Y-94596029D01*
X150062468Y-94784397D01*
X150135966Y-94961836D01*
X150242668Y-95121527D01*
X150378473Y-95257332D01*
X150538164Y-95364034D01*
X150715603Y-95437532D01*
X150903971Y-95475000D01*
X151096029Y-95475000D01*
X151284397Y-95437532D01*
X151461836Y-95364034D01*
X151621527Y-95257332D01*
X151757332Y-95121527D01*
X151864034Y-94961836D01*
X151937532Y-94784397D01*
X151975000Y-94596029D01*
X151975000Y-94403971D01*
X151937532Y-94215603D01*
X151864034Y-94038164D01*
X151757332Y-93878473D01*
X151621527Y-93742668D01*
X151461836Y-93635966D01*
X151284397Y-93562468D01*
X151096029Y-93525000D01*
X150903971Y-93525000D01*
X150715603Y-93562468D01*
X150538164Y-93635966D01*
X150378473Y-93742668D01*
X150242668Y-93878473D01*
X150135966Y-94038164D01*
X150062468Y-94215603D01*
X150025000Y-94403971D01*
X143358820Y-94403971D01*
X143389074Y-94373717D01*
X143487568Y-94226310D01*
X143555412Y-94062520D01*
X143589998Y-93888642D01*
X143589998Y-93711358D01*
X143555412Y-93537480D01*
X143487568Y-93373690D01*
X143389074Y-93226283D01*
X143263715Y-93100924D01*
X143116308Y-93002430D01*
X142952518Y-92934586D01*
X142778640Y-92900000D01*
X142601356Y-92900000D01*
X142427478Y-92934586D01*
X142263688Y-93002430D01*
X142116281Y-93100924D01*
X141990922Y-93226283D01*
X141892428Y-93373690D01*
X141824584Y-93537480D01*
X141789998Y-93711358D01*
X134252060Y-93711358D01*
X134275000Y-93596029D01*
X134275000Y-93403971D01*
X134237532Y-93215603D01*
X134164034Y-93038164D01*
X134057332Y-92878473D01*
X133921527Y-92742668D01*
X133761836Y-92635966D01*
X133584397Y-92562468D01*
X133396029Y-92525000D01*
X133203971Y-92525000D01*
X133015603Y-92562468D01*
X132838164Y-92635966D01*
X132678473Y-92742668D01*
X132542668Y-92878473D01*
X132435966Y-93038164D01*
X132362468Y-93215603D01*
X132325000Y-93403971D01*
X122275000Y-93403971D01*
X122275000Y-91203971D01*
X132325000Y-91203971D01*
X132325000Y-91396029D01*
X132362468Y-91584397D01*
X132435966Y-91761836D01*
X132542668Y-91921527D01*
X132678473Y-92057332D01*
X132838164Y-92164034D01*
X133015603Y-92237532D01*
X133203971Y-92275000D01*
X133396029Y-92275000D01*
X133584397Y-92237532D01*
X133761836Y-92164034D01*
X133921527Y-92057332D01*
X134057332Y-91921527D01*
X134164034Y-91761836D01*
X134237532Y-91584397D01*
X134251228Y-91515540D01*
X141786030Y-91515540D01*
X141786030Y-91692824D01*
X141820616Y-91866702D01*
X141888460Y-92030492D01*
X141986954Y-92177899D01*
X142112313Y-92303258D01*
X142259720Y-92401752D01*
X142423510Y-92469596D01*
X142597388Y-92504182D01*
X142774672Y-92504182D01*
X142948550Y-92469596D01*
X143112340Y-92401752D01*
X143259747Y-92303258D01*
X143385106Y-92177899D01*
X143483600Y-92030492D01*
X143551444Y-91866702D01*
X143586030Y-91692824D01*
X143586030Y-91515540D01*
X143551444Y-91341662D01*
X143483600Y-91177872D01*
X143385106Y-91030465D01*
X143259747Y-90905106D01*
X143112340Y-90806612D01*
X142948550Y-90738768D01*
X142774672Y-90704182D01*
X142597388Y-90704182D01*
X142423510Y-90738768D01*
X142259720Y-90806612D01*
X142112313Y-90905106D01*
X141986954Y-91030465D01*
X141888460Y-91177872D01*
X141820616Y-91341662D01*
X141786030Y-91515540D01*
X134251228Y-91515540D01*
X134275000Y-91396029D01*
X134275000Y-91203971D01*
X134237532Y-91015603D01*
X134164034Y-90838164D01*
X134057332Y-90678473D01*
X133921527Y-90542668D01*
X133761836Y-90435966D01*
X133584397Y-90362468D01*
X133396029Y-90325000D01*
X133203971Y-90325000D01*
X133015603Y-90362468D01*
X132838164Y-90435966D01*
X132678473Y-90542668D01*
X132542668Y-90678473D01*
X132435966Y-90838164D01*
X132362468Y-91015603D01*
X132325000Y-91203971D01*
X122275000Y-91203971D01*
X122275000Y-90103971D01*
X150485000Y-90103971D01*
X150485000Y-90296029D01*
X150522468Y-90484397D01*
X150595966Y-90661836D01*
X150702668Y-90821527D01*
X150838473Y-90957332D01*
X150998164Y-91064034D01*
X151175603Y-91137532D01*
X151363971Y-91175000D01*
X151556029Y-91175000D01*
X151744397Y-91137532D01*
X151921836Y-91064034D01*
X152081527Y-90957332D01*
X152134888Y-90903971D01*
X159915000Y-90903971D01*
X159915000Y-91096029D01*
X159952468Y-91284397D01*
X160025966Y-91461836D01*
X160132668Y-91621527D01*
X160268473Y-91757332D01*
X160428164Y-91864034D01*
X160605603Y-91937532D01*
X160793971Y-91975000D01*
X160986029Y-91975000D01*
X161174397Y-91937532D01*
X161351836Y-91864034D01*
X161511527Y-91757332D01*
X161647332Y-91621527D01*
X161754034Y-91461836D01*
X161827532Y-91284397D01*
X161865000Y-91096029D01*
X161865000Y-90903971D01*
X161827532Y-90715603D01*
X161754034Y-90538164D01*
X161647332Y-90378473D01*
X161511527Y-90242668D01*
X161351836Y-90135966D01*
X161174397Y-90062468D01*
X160986029Y-90025000D01*
X160793971Y-90025000D01*
X160605603Y-90062468D01*
X160428164Y-90135966D01*
X160268473Y-90242668D01*
X160132668Y-90378473D01*
X160025966Y-90538164D01*
X159952468Y-90715603D01*
X159915000Y-90903971D01*
X152134888Y-90903971D01*
X152217332Y-90821527D01*
X152324034Y-90661836D01*
X152397532Y-90484397D01*
X152435000Y-90296029D01*
X152435000Y-90103971D01*
X152397532Y-89915603D01*
X152324034Y-89738164D01*
X152217332Y-89578473D01*
X152081527Y-89442668D01*
X151921836Y-89335966D01*
X151744397Y-89262468D01*
X151556029Y-89225000D01*
X151363971Y-89225000D01*
X151175603Y-89262468D01*
X150998164Y-89335966D01*
X150838473Y-89442668D01*
X150702668Y-89578473D01*
X150595966Y-89738164D01*
X150522468Y-89915603D01*
X150485000Y-90103971D01*
X122275000Y-90103971D01*
X122275000Y-88911358D01*
X155570000Y-88911358D01*
X155570000Y-89088642D01*
X155604586Y-89262520D01*
X155672430Y-89426310D01*
X155770924Y-89573717D01*
X155896283Y-89699076D01*
X156043690Y-89797570D01*
X156207480Y-89865414D01*
X156381358Y-89900000D01*
X156558642Y-89900000D01*
X156732520Y-89865414D01*
X156896310Y-89797570D01*
X157043717Y-89699076D01*
X157169076Y-89573717D01*
X157267570Y-89426310D01*
X157335414Y-89262520D01*
X157370000Y-89088642D01*
X157370000Y-88911358D01*
X157335414Y-88737480D01*
X157328737Y-88721358D01*
X162680000Y-88721358D01*
X162680000Y-88898642D01*
X162714586Y-89072520D01*
X162782430Y-89236310D01*
X162880924Y-89383717D01*
X163006283Y-89509076D01*
X163153690Y-89607570D01*
X163317480Y-89675414D01*
X163491358Y-89710000D01*
X163668642Y-89710000D01*
X163842520Y-89675414D01*
X164006310Y-89607570D01*
X164153717Y-89509076D01*
X164279076Y-89383717D01*
X164377570Y-89236310D01*
X164445414Y-89072520D01*
X164480000Y-88898642D01*
X164480000Y-88721358D01*
X164445414Y-88547480D01*
X164377570Y-88383690D01*
X164279076Y-88236283D01*
X164153717Y-88110924D01*
X164006310Y-88012430D01*
X163842520Y-87944586D01*
X163668642Y-87910000D01*
X163491358Y-87910000D01*
X163317480Y-87944586D01*
X163153690Y-88012430D01*
X163006283Y-88110924D01*
X162880924Y-88236283D01*
X162782430Y-88383690D01*
X162714586Y-88547480D01*
X162680000Y-88721358D01*
X157328737Y-88721358D01*
X157267570Y-88573690D01*
X157169076Y-88426283D01*
X157043717Y-88300924D01*
X156896310Y-88202430D01*
X156732520Y-88134586D01*
X156558642Y-88100000D01*
X156381358Y-88100000D01*
X156207480Y-88134586D01*
X156043690Y-88202430D01*
X155896283Y-88300924D01*
X155770924Y-88426283D01*
X155672430Y-88573690D01*
X155604586Y-88737480D01*
X155570000Y-88911358D01*
X122275000Y-88911358D01*
X122275000Y-87809617D01*
X122439263Y-87859445D01*
X122597194Y-87875000D01*
X123402806Y-87875000D01*
X123560737Y-87859445D01*
X123763375Y-87797976D01*
X123950128Y-87698154D01*
X124113817Y-87563817D01*
X124238937Y-87411358D01*
X126600000Y-87411358D01*
X126600000Y-87588642D01*
X126634586Y-87762520D01*
X126702430Y-87926310D01*
X126800924Y-88073717D01*
X126926283Y-88199076D01*
X127073690Y-88297570D01*
X127237480Y-88365414D01*
X127411358Y-88400000D01*
X127588642Y-88400000D01*
X127762520Y-88365414D01*
X127926310Y-88297570D01*
X128073717Y-88199076D01*
X128199076Y-88073717D01*
X128297570Y-87926310D01*
X128365414Y-87762520D01*
X128400000Y-87588642D01*
X128400000Y-87411358D01*
X128398531Y-87403971D01*
X131925000Y-87403971D01*
X131925000Y-87596029D01*
X131962468Y-87784397D01*
X132035966Y-87961836D01*
X132142668Y-88121527D01*
X132278473Y-88257332D01*
X132438164Y-88364034D01*
X132615603Y-88437532D01*
X132803971Y-88475000D01*
X132996029Y-88475000D01*
X133184397Y-88437532D01*
X133361836Y-88364034D01*
X133521527Y-88257332D01*
X133657332Y-88121527D01*
X133764034Y-87961836D01*
X133837532Y-87784397D01*
X133858297Y-87680000D01*
X145271976Y-87680000D01*
X145284043Y-87802521D01*
X145319781Y-87920334D01*
X145377817Y-88028911D01*
X145455920Y-88124080D01*
X145551089Y-88202183D01*
X145659666Y-88260219D01*
X145777479Y-88295957D01*
X145900000Y-88308024D01*
X146468750Y-88305000D01*
X146625000Y-88148750D01*
X146625000Y-86955000D01*
X146875000Y-86955000D01*
X146875000Y-88148750D01*
X147031250Y-88305000D01*
X147600000Y-88308024D01*
X147722521Y-88295957D01*
X147840334Y-88260219D01*
X147948911Y-88202183D01*
X148044080Y-88124080D01*
X148122183Y-88028911D01*
X148180219Y-87920334D01*
X148215957Y-87802521D01*
X148228024Y-87680000D01*
X148225000Y-87111250D01*
X148068750Y-86955000D01*
X146875000Y-86955000D01*
X146625000Y-86955000D01*
X145431250Y-86955000D01*
X145275000Y-87111250D01*
X145271976Y-87680000D01*
X133858297Y-87680000D01*
X133875000Y-87596029D01*
X133875000Y-87403971D01*
X133858405Y-87320539D01*
X133973690Y-87397570D01*
X134137480Y-87465414D01*
X134311358Y-87500000D01*
X134488642Y-87500000D01*
X134662520Y-87465414D01*
X134819743Y-87400290D01*
X134886546Y-87427961D01*
X135060424Y-87462547D01*
X135237708Y-87462547D01*
X135411586Y-87427961D01*
X135575376Y-87360117D01*
X135722783Y-87261623D01*
X135848142Y-87136264D01*
X135946636Y-86988857D01*
X136014480Y-86825067D01*
X136049066Y-86651189D01*
X136049066Y-86473905D01*
X136014480Y-86300027D01*
X135946636Y-86136237D01*
X135848142Y-85988830D01*
X135722783Y-85863471D01*
X135575376Y-85764977D01*
X135411586Y-85697133D01*
X135237708Y-85662547D01*
X135060424Y-85662547D01*
X134886546Y-85697133D01*
X134729323Y-85762257D01*
X134662520Y-85734586D01*
X134488642Y-85700000D01*
X134311358Y-85700000D01*
X134137480Y-85734586D01*
X133973690Y-85802430D01*
X133826283Y-85900924D01*
X133700924Y-86026283D01*
X133602430Y-86173690D01*
X133534586Y-86337480D01*
X133500000Y-86511358D01*
X133500000Y-86688642D01*
X133509094Y-86734360D01*
X133361836Y-86635966D01*
X133184397Y-86562468D01*
X132996029Y-86525000D01*
X132803971Y-86525000D01*
X132615603Y-86562468D01*
X132438164Y-86635966D01*
X132278473Y-86742668D01*
X132142668Y-86878473D01*
X132035966Y-87038164D01*
X131962468Y-87215603D01*
X131925000Y-87403971D01*
X128398531Y-87403971D01*
X128365414Y-87237480D01*
X128297570Y-87073690D01*
X128199076Y-86926283D01*
X128073717Y-86800924D01*
X127926310Y-86702430D01*
X127762520Y-86634586D01*
X127588642Y-86600000D01*
X127411358Y-86600000D01*
X127237480Y-86634586D01*
X127073690Y-86702430D01*
X126926283Y-86800924D01*
X126800924Y-86926283D01*
X126702430Y-87073690D01*
X126634586Y-87237480D01*
X126600000Y-87411358D01*
X124238937Y-87411358D01*
X124248154Y-87400128D01*
X124347976Y-87213375D01*
X124409445Y-87010737D01*
X124430201Y-86800000D01*
X124409445Y-86589263D01*
X124347976Y-86386625D01*
X124248154Y-86199872D01*
X124113817Y-86036183D01*
X123950128Y-85901846D01*
X123763375Y-85802024D01*
X123560737Y-85740555D01*
X123402806Y-85725000D01*
X122597194Y-85725000D01*
X122439263Y-85740555D01*
X122275000Y-85790383D01*
X122275000Y-82936358D01*
X130258549Y-82936358D01*
X130258549Y-83113642D01*
X130293135Y-83287520D01*
X130360979Y-83451310D01*
X130393513Y-83500000D01*
X130360979Y-83548690D01*
X130293135Y-83712480D01*
X130258549Y-83886358D01*
X130258549Y-84063642D01*
X130293135Y-84237520D01*
X130360979Y-84401310D01*
X130459473Y-84548717D01*
X130584832Y-84674076D01*
X130732239Y-84772570D01*
X130896029Y-84840414D01*
X131069907Y-84875000D01*
X131247191Y-84875000D01*
X131421069Y-84840414D01*
X131584859Y-84772570D01*
X131732266Y-84674076D01*
X131857625Y-84548717D01*
X131956119Y-84401310D01*
X132023963Y-84237520D01*
X132058549Y-84063642D01*
X132058549Y-83886358D01*
X132023963Y-83712480D01*
X131956119Y-83548690D01*
X131923585Y-83500000D01*
X131956119Y-83451310D01*
X131987571Y-83375378D01*
X132111358Y-83400000D01*
X132288642Y-83400000D01*
X132462520Y-83365414D01*
X132626310Y-83297570D01*
X132773717Y-83199076D01*
X132899076Y-83073717D01*
X132997570Y-82926310D01*
X133065414Y-82762520D01*
X133100000Y-82588642D01*
X133100000Y-82500000D01*
X133188642Y-82500000D01*
X133362520Y-82465414D01*
X133526310Y-82397570D01*
X133673717Y-82299076D01*
X133799076Y-82173717D01*
X133897570Y-82026310D01*
X133965414Y-81862520D01*
X134000000Y-81688642D01*
X134000000Y-81511358D01*
X133978640Y-81403971D01*
X136925000Y-81403971D01*
X136925000Y-81596029D01*
X136962468Y-81784397D01*
X137035966Y-81961836D01*
X137142668Y-82121527D01*
X137278473Y-82257332D01*
X137438164Y-82364034D01*
X137615603Y-82437532D01*
X137699025Y-82454125D01*
X137602430Y-82598690D01*
X137534586Y-82762480D01*
X137500000Y-82936358D01*
X137500000Y-83113642D01*
X137534586Y-83287520D01*
X137602430Y-83451310D01*
X137634964Y-83500000D01*
X137602430Y-83548690D01*
X137534586Y-83712480D01*
X137500000Y-83886358D01*
X137500000Y-84063642D01*
X137534586Y-84237520D01*
X137602430Y-84401310D01*
X137700924Y-84548717D01*
X137826283Y-84674076D01*
X137973690Y-84772570D01*
X138137480Y-84840414D01*
X138311358Y-84875000D01*
X138488642Y-84875000D01*
X138662520Y-84840414D01*
X138826310Y-84772570D01*
X138973717Y-84674076D01*
X139099076Y-84548717D01*
X139197570Y-84401310D01*
X139265414Y-84237520D01*
X139300000Y-84063642D01*
X139300000Y-83886358D01*
X139265414Y-83712480D01*
X139197570Y-83548690D01*
X139165036Y-83500000D01*
X139197570Y-83451310D01*
X139265414Y-83287520D01*
X139300000Y-83113642D01*
X139300000Y-82936358D01*
X139265414Y-82762480D01*
X139197570Y-82598690D01*
X139099076Y-82451283D01*
X138973717Y-82325924D01*
X138826310Y-82227430D01*
X138662520Y-82159586D01*
X138626448Y-82152411D01*
X138657332Y-82121527D01*
X138764034Y-81961836D01*
X138837532Y-81784397D01*
X138875000Y-81596029D01*
X138875000Y-81403971D01*
X138837532Y-81215603D01*
X138764034Y-81038164D01*
X138657332Y-80878473D01*
X138521527Y-80742668D01*
X138361836Y-80635966D01*
X138184397Y-80562468D01*
X137996029Y-80525000D01*
X137803971Y-80525000D01*
X137615603Y-80562468D01*
X137438164Y-80635966D01*
X137278473Y-80742668D01*
X137142668Y-80878473D01*
X137035966Y-81038164D01*
X136962468Y-81215603D01*
X136925000Y-81403971D01*
X133978640Y-81403971D01*
X133965414Y-81337480D01*
X133897570Y-81173690D01*
X133799076Y-81026283D01*
X133673717Y-80900924D01*
X133665002Y-80895101D01*
X133721527Y-80857332D01*
X133857332Y-80721527D01*
X133964034Y-80561836D01*
X134026364Y-80411358D01*
X134400000Y-80411358D01*
X134400000Y-80588642D01*
X134434586Y-80762520D01*
X134502430Y-80926310D01*
X134600924Y-81073717D01*
X134726283Y-81199076D01*
X134873690Y-81297570D01*
X135037480Y-81365414D01*
X135211358Y-81400000D01*
X135388642Y-81400000D01*
X135562520Y-81365414D01*
X135726310Y-81297570D01*
X135873717Y-81199076D01*
X135999076Y-81073717D01*
X136097570Y-80926310D01*
X136165414Y-80762520D01*
X136200000Y-80588642D01*
X136200000Y-80411358D01*
X136165414Y-80237480D01*
X136097570Y-80073690D01*
X135999076Y-79926283D01*
X135873717Y-79800924D01*
X135726310Y-79702430D01*
X135562520Y-79634586D01*
X135388642Y-79600000D01*
X135211358Y-79600000D01*
X135037480Y-79634586D01*
X134873690Y-79702430D01*
X134726283Y-79800924D01*
X134600924Y-79926283D01*
X134502430Y-80073690D01*
X134434586Y-80237480D01*
X134400000Y-80411358D01*
X134026364Y-80411358D01*
X134037532Y-80384397D01*
X134075000Y-80196029D01*
X134075000Y-80003971D01*
X134037532Y-79815603D01*
X133964034Y-79638164D01*
X133857332Y-79478473D01*
X133721527Y-79342668D01*
X133561836Y-79235966D01*
X133384397Y-79162468D01*
X133196029Y-79125000D01*
X133003971Y-79125000D01*
X132815603Y-79162468D01*
X132638164Y-79235966D01*
X132478473Y-79342668D01*
X132342668Y-79478473D01*
X132235966Y-79638164D01*
X132162468Y-79815603D01*
X132125000Y-80003971D01*
X132125000Y-80196029D01*
X132162468Y-80384397D01*
X132235966Y-80561836D01*
X132342668Y-80721527D01*
X132478473Y-80857332D01*
X132534998Y-80895101D01*
X132526283Y-80900924D01*
X132400924Y-81026283D01*
X132302430Y-81173690D01*
X132234586Y-81337480D01*
X132200000Y-81511358D01*
X132200000Y-81600000D01*
X132111358Y-81600000D01*
X131937480Y-81634586D01*
X131773690Y-81702430D01*
X131626283Y-81800924D01*
X131500924Y-81926283D01*
X131402430Y-82073690D01*
X131370978Y-82149622D01*
X131247191Y-82125000D01*
X131069907Y-82125000D01*
X130896029Y-82159586D01*
X130732239Y-82227430D01*
X130584832Y-82325924D01*
X130459473Y-82451283D01*
X130360979Y-82598690D01*
X130293135Y-82762480D01*
X130258549Y-82936358D01*
X122275000Y-82936358D01*
X122275000Y-81411358D01*
X126000000Y-81411358D01*
X126000000Y-81588642D01*
X126034586Y-81762520D01*
X126102430Y-81926310D01*
X126200924Y-82073717D01*
X126326283Y-82199076D01*
X126473690Y-82297570D01*
X126637480Y-82365414D01*
X126811358Y-82400000D01*
X126988642Y-82400000D01*
X127162520Y-82365414D01*
X127326310Y-82297570D01*
X127473717Y-82199076D01*
X127599076Y-82073717D01*
X127697570Y-81926310D01*
X127765414Y-81762520D01*
X127800000Y-81588642D01*
X127800000Y-81411358D01*
X127765414Y-81237480D01*
X127697570Y-81073690D01*
X127599076Y-80926283D01*
X127473717Y-80800924D01*
X127326310Y-80702430D01*
X127162520Y-80634586D01*
X126988642Y-80600000D01*
X126811358Y-80600000D01*
X126637480Y-80634586D01*
X126473690Y-80702430D01*
X126326283Y-80800924D01*
X126200924Y-80926283D01*
X126102430Y-81073690D01*
X126034586Y-81237480D01*
X126000000Y-81411358D01*
X122275000Y-81411358D01*
X122275000Y-81209617D01*
X122439263Y-81259445D01*
X122597194Y-81275000D01*
X123402806Y-81275000D01*
X123560737Y-81259445D01*
X123763375Y-81197976D01*
X123950128Y-81098154D01*
X124113817Y-80963817D01*
X124248154Y-80800128D01*
X124347976Y-80613375D01*
X124409445Y-80410737D01*
X124430201Y-80200000D01*
X124409445Y-79989263D01*
X124347976Y-79786625D01*
X124248154Y-79599872D01*
X124113817Y-79436183D01*
X123950128Y-79301846D01*
X123780838Y-79211358D01*
X126400000Y-79211358D01*
X126400000Y-79388642D01*
X126434586Y-79562520D01*
X126502430Y-79726310D01*
X126600924Y-79873717D01*
X126726283Y-79999076D01*
X126873690Y-80097570D01*
X127037480Y-80165414D01*
X127211358Y-80200000D01*
X127388642Y-80200000D01*
X127562520Y-80165414D01*
X127726310Y-80097570D01*
X127873717Y-79999076D01*
X127999076Y-79873717D01*
X128097570Y-79726310D01*
X128165414Y-79562520D01*
X128200000Y-79388642D01*
X128200000Y-79211358D01*
X128165414Y-79037480D01*
X128097570Y-78873690D01*
X127999076Y-78726283D01*
X127873717Y-78600924D01*
X127726310Y-78502430D01*
X127562520Y-78434586D01*
X127388642Y-78400000D01*
X127211358Y-78400000D01*
X127037480Y-78434586D01*
X126873690Y-78502430D01*
X126726283Y-78600924D01*
X126600924Y-78726283D01*
X126502430Y-78873690D01*
X126434586Y-79037480D01*
X126400000Y-79211358D01*
X123780838Y-79211358D01*
X123763375Y-79202024D01*
X123560737Y-79140555D01*
X123402806Y-79125000D01*
X122597194Y-79125000D01*
X122439263Y-79140555D01*
X122275000Y-79190383D01*
X122275000Y-77411358D01*
X129400000Y-77411358D01*
X129400000Y-77588642D01*
X129434586Y-77762520D01*
X129502430Y-77926310D01*
X129600924Y-78073717D01*
X129726283Y-78199076D01*
X129873690Y-78297570D01*
X130037480Y-78365414D01*
X130211358Y-78400000D01*
X130388642Y-78400000D01*
X130562520Y-78365414D01*
X130726310Y-78297570D01*
X130873717Y-78199076D01*
X130999076Y-78073717D01*
X131097570Y-77926310D01*
X131165414Y-77762520D01*
X131200000Y-77588642D01*
X131200000Y-77411358D01*
X131165414Y-77237480D01*
X131097570Y-77073690D01*
X131091984Y-77065329D01*
X139125000Y-77065329D01*
X139125000Y-77434671D01*
X139197056Y-77796917D01*
X139338397Y-78138145D01*
X139543593Y-78445243D01*
X139804757Y-78706407D01*
X140111855Y-78911603D01*
X140453083Y-79052944D01*
X140815329Y-79125000D01*
X141184671Y-79125000D01*
X141546917Y-79052944D01*
X141888145Y-78911603D01*
X142195243Y-78706407D01*
X142456407Y-78445243D01*
X142661603Y-78138145D01*
X142802944Y-77796917D01*
X142875000Y-77434671D01*
X142875000Y-77065329D01*
X142802944Y-76703083D01*
X142661603Y-76361855D01*
X142456407Y-76054757D01*
X142195243Y-75793593D01*
X141888145Y-75588397D01*
X141546917Y-75447056D01*
X141184671Y-75375000D01*
X140815329Y-75375000D01*
X140453083Y-75447056D01*
X140111855Y-75588397D01*
X139804757Y-75793593D01*
X139543593Y-76054757D01*
X139338397Y-76361855D01*
X139197056Y-76703083D01*
X139125000Y-77065329D01*
X131091984Y-77065329D01*
X130999076Y-76926283D01*
X130873717Y-76800924D01*
X130726310Y-76702430D01*
X130562520Y-76634586D01*
X130388642Y-76600000D01*
X130211358Y-76600000D01*
X130037480Y-76634586D01*
X129873690Y-76702430D01*
X129726283Y-76800924D01*
X129600924Y-76926283D01*
X129502430Y-77073690D01*
X129434586Y-77237480D01*
X129400000Y-77411358D01*
X122275000Y-77411358D01*
X122275000Y-75275000D01*
X126468372Y-75275000D01*
X126402430Y-75373690D01*
G37*
%TD.AperFunction*%
%TD*%
M02*
