%TF.GenerationSoftware,KiCad,Pcbnew,5.1.12-1.fc35*%
%TF.CreationDate,2021-12-21T00:05:04+01:00*%
%TF.ProjectId,smartmeterreader,736d6172-746d-4657-9465-727265616465,rev?*%
%TF.SameCoordinates,Original*%
%TF.FileFunction,Copper,L1,Top*%
%TF.FilePolarity,Positive*%
%FSLAX46Y46*%
G04 Gerber Fmt 4.6, Leading zero omitted, Abs format (unit mm)*
G04 Created by KiCad (PCBNEW 5.1.12-1.fc35) date 2021-12-21 00:05:04*
%MOMM*%
%LPD*%
G01*
G04 APERTURE LIST*
%TA.AperFunction,ComponentPad*%
%ADD10O,1.700000X1.700000*%
%TD*%
%TA.AperFunction,ComponentPad*%
%ADD11R,1.700000X1.700000*%
%TD*%
%TA.AperFunction,SMDPad,CuDef*%
%ADD12R,0.900000X1.200000*%
%TD*%
%TA.AperFunction,SMDPad,CuDef*%
%ADD13R,0.900000X1.000000*%
%TD*%
%TA.AperFunction,ComponentPad*%
%ADD14C,1.520000*%
%TD*%
%TA.AperFunction,ComponentPad*%
%ADD15R,1.520000X1.520000*%
%TD*%
%TA.AperFunction,ComponentPad*%
%ADD16R,1.500000X1.500000*%
%TD*%
%TA.AperFunction,ComponentPad*%
%ADD17C,1.500000*%
%TD*%
%TA.AperFunction,SMDPad,CuDef*%
%ADD18R,2.000000X1.500000*%
%TD*%
%TA.AperFunction,SMDPad,CuDef*%
%ADD19R,2.000000X3.800000*%
%TD*%
%TA.AperFunction,SMDPad,CuDef*%
%ADD20R,2.600000X2.600000*%
%TD*%
%TA.AperFunction,SMDPad,CuDef*%
%ADD21R,1.000000X2.500000*%
%TD*%
%TA.AperFunction,SMDPad,CuDef*%
%ADD22R,1.800000X1.000000*%
%TD*%
%TA.AperFunction,SMDPad,CuDef*%
%ADD23R,0.900000X0.800000*%
%TD*%
%TA.AperFunction,SMDPad,CuDef*%
%ADD24R,1.350000X0.400000*%
%TD*%
%TA.AperFunction,ComponentPad*%
%ADD25O,1.600000X0.900000*%
%TD*%
%TA.AperFunction,SMDPad,CuDef*%
%ADD26R,1.400000X1.600000*%
%TD*%
%TA.AperFunction,SMDPad,CuDef*%
%ADD27R,1.900000X1.900000*%
%TD*%
%TA.AperFunction,SMDPad,CuDef*%
%ADD28R,1.060000X0.650000*%
%TD*%
%TA.AperFunction,SMDPad,CuDef*%
%ADD29R,0.650000X1.060000*%
%TD*%
%TA.AperFunction,ViaPad*%
%ADD30C,0.700000*%
%TD*%
%TA.AperFunction,ViaPad*%
%ADD31C,0.800000*%
%TD*%
%TA.AperFunction,ViaPad*%
%ADD32C,0.550000*%
%TD*%
%TA.AperFunction,Conductor*%
%ADD33C,0.150000*%
%TD*%
%TA.AperFunction,Conductor*%
%ADD34C,0.250000*%
%TD*%
%TA.AperFunction,Conductor*%
%ADD35C,0.400000*%
%TD*%
%TA.AperFunction,Conductor*%
%ADD36C,0.500000*%
%TD*%
%TA.AperFunction,Conductor*%
%ADD37C,0.100000*%
%TD*%
G04 APERTURE END LIST*
%TO.P,R21,2*%
%TO.N,Net-(D8-Pad2)*%
%TA.AperFunction,SMDPad,CuDef*%
G36*
G01*
X147975000Y-103425000D02*
X148525000Y-103425000D01*
G75*
G02*
X148725000Y-103625000I0J-200000D01*
G01*
X148725000Y-104025000D01*
G75*
G02*
X148525000Y-104225000I-200000J0D01*
G01*
X147975000Y-104225000D01*
G75*
G02*
X147775000Y-104025000I0J200000D01*
G01*
X147775000Y-103625000D01*
G75*
G02*
X147975000Y-103425000I200000J0D01*
G01*
G37*
%TD.AperFunction*%
%TO.P,R21,1*%
%TO.N,Net-(R21-Pad1)*%
%TA.AperFunction,SMDPad,CuDef*%
G36*
G01*
X147975000Y-101775000D02*
X148525000Y-101775000D01*
G75*
G02*
X148725000Y-101975000I0J-200000D01*
G01*
X148725000Y-102375000D01*
G75*
G02*
X148525000Y-102575000I-200000J0D01*
G01*
X147975000Y-102575000D01*
G75*
G02*
X147775000Y-102375000I0J200000D01*
G01*
X147775000Y-101975000D01*
G75*
G02*
X147975000Y-101775000I200000J0D01*
G01*
G37*
%TD.AperFunction*%
%TD*%
%TO.P,R20,2*%
%TO.N,Net-(D7-Pad2)*%
%TA.AperFunction,SMDPad,CuDef*%
G36*
G01*
X141125000Y-95175000D02*
X141125000Y-94625000D01*
G75*
G02*
X141325000Y-94425000I200000J0D01*
G01*
X141725000Y-94425000D01*
G75*
G02*
X141925000Y-94625000I0J-200000D01*
G01*
X141925000Y-95175000D01*
G75*
G02*
X141725000Y-95375000I-200000J0D01*
G01*
X141325000Y-95375000D01*
G75*
G02*
X141125000Y-95175000I0J200000D01*
G01*
G37*
%TD.AperFunction*%
%TO.P,R20,1*%
%TO.N,+3V3*%
%TA.AperFunction,SMDPad,CuDef*%
G36*
G01*
X139475000Y-95175000D02*
X139475000Y-94625000D01*
G75*
G02*
X139675000Y-94425000I200000J0D01*
G01*
X140075000Y-94425000D01*
G75*
G02*
X140275000Y-94625000I0J-200000D01*
G01*
X140275000Y-95175000D01*
G75*
G02*
X140075000Y-95375000I-200000J0D01*
G01*
X139675000Y-95375000D01*
G75*
G02*
X139475000Y-95175000I0J200000D01*
G01*
G37*
%TD.AperFunction*%
%TD*%
D10*
%TO.P,J3,5*%
%TO.N,/UART_RX*%
X146750000Y-76670000D03*
%TO.P,J3,4*%
%TO.N,/UART_TX*%
X146750000Y-79210000D03*
%TO.P,J3,3*%
%TO.N,/UART_DTR*%
X146750000Y-81750000D03*
%TO.P,J3,2*%
%TO.N,/UART_RTS*%
X146750000Y-84290000D03*
D11*
%TO.P,J3,1*%
%TO.N,GND*%
X146750000Y-86830000D03*
%TD*%
%TO.P,D8,2*%
%TO.N,Net-(D8-Pad2)*%
%TA.AperFunction,SMDPad,CuDef*%
G36*
G01*
X146756250Y-102650000D02*
X146243750Y-102650000D01*
G75*
G02*
X146025000Y-102431250I0J218750D01*
G01*
X146025000Y-101993750D01*
G75*
G02*
X146243750Y-101775000I218750J0D01*
G01*
X146756250Y-101775000D01*
G75*
G02*
X146975000Y-101993750I0J-218750D01*
G01*
X146975000Y-102431250D01*
G75*
G02*
X146756250Y-102650000I-218750J0D01*
G01*
G37*
%TD.AperFunction*%
%TO.P,D8,1*%
%TO.N,GND*%
%TA.AperFunction,SMDPad,CuDef*%
G36*
G01*
X146756250Y-104225000D02*
X146243750Y-104225000D01*
G75*
G02*
X146025000Y-104006250I0J218750D01*
G01*
X146025000Y-103568750D01*
G75*
G02*
X146243750Y-103350000I218750J0D01*
G01*
X146756250Y-103350000D01*
G75*
G02*
X146975000Y-103568750I0J-218750D01*
G01*
X146975000Y-104006250D01*
G75*
G02*
X146756250Y-104225000I-218750J0D01*
G01*
G37*
%TD.AperFunction*%
%TD*%
%TO.P,D7,2*%
%TO.N,Net-(D7-Pad2)*%
%TA.AperFunction,SMDPad,CuDef*%
G36*
G01*
X141100000Y-93506250D02*
X141100000Y-92993750D01*
G75*
G02*
X141318750Y-92775000I218750J0D01*
G01*
X141756250Y-92775000D01*
G75*
G02*
X141975000Y-92993750I0J-218750D01*
G01*
X141975000Y-93506250D01*
G75*
G02*
X141756250Y-93725000I-218750J0D01*
G01*
X141318750Y-93725000D01*
G75*
G02*
X141100000Y-93506250I0J218750D01*
G01*
G37*
%TD.AperFunction*%
%TO.P,D7,1*%
%TO.N,GND*%
%TA.AperFunction,SMDPad,CuDef*%
G36*
G01*
X139525000Y-93506250D02*
X139525000Y-92993750D01*
G75*
G02*
X139743750Y-92775000I218750J0D01*
G01*
X140181250Y-92775000D01*
G75*
G02*
X140400000Y-92993750I0J-218750D01*
G01*
X140400000Y-93506250D01*
G75*
G02*
X140181250Y-93725000I-218750J0D01*
G01*
X139743750Y-93725000D01*
G75*
G02*
X139525000Y-93506250I0J218750D01*
G01*
G37*
%TD.AperFunction*%
%TD*%
%TO.P,F2,2*%
%TO.N,/5V_meter*%
%TA.AperFunction,SMDPad,CuDef*%
G36*
G01*
X132825000Y-108675000D02*
X132825000Y-109925000D01*
G75*
G02*
X132575000Y-110175000I-250000J0D01*
G01*
X131825000Y-110175000D01*
G75*
G02*
X131575000Y-109925000I0J250000D01*
G01*
X131575000Y-108675000D01*
G75*
G02*
X131825000Y-108425000I250000J0D01*
G01*
X132575000Y-108425000D01*
G75*
G02*
X132825000Y-108675000I0J-250000D01*
G01*
G37*
%TD.AperFunction*%
%TO.P,F2,1*%
%TO.N,Net-(F2-Pad1)*%
%TA.AperFunction,SMDPad,CuDef*%
G36*
G01*
X135625000Y-108675000D02*
X135625000Y-109925000D01*
G75*
G02*
X135375000Y-110175000I-250000J0D01*
G01*
X134625000Y-110175000D01*
G75*
G02*
X134375000Y-109925000I0J250000D01*
G01*
X134375000Y-108675000D01*
G75*
G02*
X134625000Y-108425000I250000J0D01*
G01*
X135375000Y-108425000D01*
G75*
G02*
X135625000Y-108675000I0J-250000D01*
G01*
G37*
%TD.AperFunction*%
%TD*%
%TO.P,F1,2*%
%TO.N,Net-(F1-Pad2)*%
%TA.AperFunction,SMDPad,CuDef*%
G36*
G01*
X129525000Y-86875000D02*
X129525000Y-88125000D01*
G75*
G02*
X129275000Y-88375000I-250000J0D01*
G01*
X128525000Y-88375000D01*
G75*
G02*
X128275000Y-88125000I0J250000D01*
G01*
X128275000Y-86875000D01*
G75*
G02*
X128525000Y-86625000I250000J0D01*
G01*
X129275000Y-86625000D01*
G75*
G02*
X129525000Y-86875000I0J-250000D01*
G01*
G37*
%TD.AperFunction*%
%TO.P,F1,1*%
%TO.N,/5V_USB*%
%TA.AperFunction,SMDPad,CuDef*%
G36*
G01*
X132325000Y-86875000D02*
X132325000Y-88125000D01*
G75*
G02*
X132075000Y-88375000I-250000J0D01*
G01*
X131325000Y-88375000D01*
G75*
G02*
X131075000Y-88125000I0J250000D01*
G01*
X131075000Y-86875000D01*
G75*
G02*
X131325000Y-86625000I250000J0D01*
G01*
X132075000Y-86625000D01*
G75*
G02*
X132325000Y-86875000I0J-250000D01*
G01*
G37*
%TD.AperFunction*%
%TD*%
D12*
%TO.P,D1,2*%
%TO.N,/5V_USB*%
X123750000Y-90200000D03*
%TO.P,D1,1*%
%TO.N,/Power_supply_LDO_3V3/Vin*%
X127050000Y-90200000D03*
%TD*%
D13*
%TO.P,SW2,1*%
%TO.N,GND*%
X159450000Y-85700000D03*
%TO.P,SW2,2*%
%TO.N,/nRST*%
X159450000Y-87300000D03*
%TO.P,SW2,1*%
%TO.N,GND*%
X163550000Y-85700000D03*
%TO.P,SW2,2*%
%TO.N,/nRST*%
X163550000Y-87300000D03*
%TD*%
%TO.P,SW1,1*%
%TO.N,GND*%
X149450000Y-85700000D03*
%TO.P,SW1,2*%
%TO.N,/GPIO0*%
X149450000Y-87300000D03*
%TO.P,SW1,1*%
%TO.N,GND*%
X153550000Y-85700000D03*
%TO.P,SW1,2*%
%TO.N,/GPIO0*%
X153550000Y-87300000D03*
%TD*%
D14*
%TO.P,J2,6*%
%TO.N,GND*%
X132485000Y-100275000D03*
%TO.P,J2,5*%
%TO.N,/DATA_LINE*%
X135025000Y-101545000D03*
%TO.P,J2,4*%
%TO.N,N/C*%
X132485000Y-102815000D03*
%TO.P,J2,3*%
%TO.N,GND*%
X135025000Y-104085000D03*
%TO.P,J2,2*%
%TO.N,/DATA_REQ*%
X132485000Y-105355000D03*
D15*
%TO.P,J2,1*%
%TO.N,Net-(F2-Pad1)*%
X135025000Y-106625000D03*
%TD*%
%TO.P,C10,2*%
%TO.N,GND*%
%TA.AperFunction,SMDPad,CuDef*%
G36*
G01*
X163925000Y-78237500D02*
X163925000Y-77762500D01*
G75*
G02*
X164162500Y-77525000I237500J0D01*
G01*
X164762500Y-77525000D01*
G75*
G02*
X165000000Y-77762500I0J-237500D01*
G01*
X165000000Y-78237500D01*
G75*
G02*
X164762500Y-78475000I-237500J0D01*
G01*
X164162500Y-78475000D01*
G75*
G02*
X163925000Y-78237500I0J237500D01*
G01*
G37*
%TD.AperFunction*%
%TO.P,C10,1*%
%TO.N,/High_side_SW.sch/VOut*%
%TA.AperFunction,SMDPad,CuDef*%
G36*
G01*
X162200000Y-78237500D02*
X162200000Y-77762500D01*
G75*
G02*
X162437500Y-77525000I237500J0D01*
G01*
X163037500Y-77525000D01*
G75*
G02*
X163275000Y-77762500I0J-237500D01*
G01*
X163275000Y-78237500D01*
G75*
G02*
X163037500Y-78475000I-237500J0D01*
G01*
X162437500Y-78475000D01*
G75*
G02*
X162200000Y-78237500I0J237500D01*
G01*
G37*
%TD.AperFunction*%
%TD*%
D16*
%TO.P,U4,1*%
%TO.N,/High_side_SW.sch/VOut*%
X157500000Y-80500000D03*
D17*
%TO.P,U4,2*%
%TO.N,/DHT22_DATA*%
X160000000Y-80500000D03*
%TO.P,U4,3*%
%TO.N,N/C*%
X162500000Y-80500000D03*
%TO.P,U4,4*%
%TO.N,GND*%
X165000000Y-80500000D03*
%TD*%
D18*
%TO.P,U3,1*%
%TO.N,/Power_supply_LDO_3V3/Vin*%
X129250000Y-90100000D03*
%TO.P,U3,3*%
%TO.N,+3V3*%
X129250000Y-94700000D03*
%TO.P,U3,2*%
%TO.N,GND*%
X129250000Y-92400000D03*
D19*
X135550000Y-92400000D03*
%TD*%
D20*
%TO.P,U2,25*%
%TO.N,GND*%
X135050000Y-83500000D03*
%TO.P,U2,24*%
%TO.N,N/C*%
%TA.AperFunction,SMDPad,CuDef*%
G36*
G01*
X136425000Y-85087500D02*
X136425000Y-85787500D01*
G75*
G02*
X136362500Y-85850000I-62500J0D01*
G01*
X136237500Y-85850000D01*
G75*
G02*
X136175000Y-85787500I0J62500D01*
G01*
X136175000Y-85087500D01*
G75*
G02*
X136237500Y-85025000I62500J0D01*
G01*
X136362500Y-85025000D01*
G75*
G02*
X136425000Y-85087500I0J-62500D01*
G01*
G37*
%TD.AperFunction*%
%TO.P,U2,23*%
%TO.N,/UART_DTR*%
%TA.AperFunction,SMDPad,CuDef*%
G36*
G01*
X135925000Y-85087500D02*
X135925000Y-85787500D01*
G75*
G02*
X135862500Y-85850000I-62500J0D01*
G01*
X135737500Y-85850000D01*
G75*
G02*
X135675000Y-85787500I0J62500D01*
G01*
X135675000Y-85087500D01*
G75*
G02*
X135737500Y-85025000I62500J0D01*
G01*
X135862500Y-85025000D01*
G75*
G02*
X135925000Y-85087500I0J-62500D01*
G01*
G37*
%TD.AperFunction*%
%TO.P,U2,22*%
%TO.N,N/C*%
%TA.AperFunction,SMDPad,CuDef*%
G36*
G01*
X135425000Y-85087500D02*
X135425000Y-85787500D01*
G75*
G02*
X135362500Y-85850000I-62500J0D01*
G01*
X135237500Y-85850000D01*
G75*
G02*
X135175000Y-85787500I0J62500D01*
G01*
X135175000Y-85087500D01*
G75*
G02*
X135237500Y-85025000I62500J0D01*
G01*
X135362500Y-85025000D01*
G75*
G02*
X135425000Y-85087500I0J-62500D01*
G01*
G37*
%TD.AperFunction*%
%TO.P,U2,21*%
%TO.N,/UART_TX*%
%TA.AperFunction,SMDPad,CuDef*%
G36*
G01*
X134925000Y-85087500D02*
X134925000Y-85787500D01*
G75*
G02*
X134862500Y-85850000I-62500J0D01*
G01*
X134737500Y-85850000D01*
G75*
G02*
X134675000Y-85787500I0J62500D01*
G01*
X134675000Y-85087500D01*
G75*
G02*
X134737500Y-85025000I62500J0D01*
G01*
X134862500Y-85025000D01*
G75*
G02*
X134925000Y-85087500I0J-62500D01*
G01*
G37*
%TD.AperFunction*%
%TO.P,U2,20*%
%TO.N,/UART_RX*%
%TA.AperFunction,SMDPad,CuDef*%
G36*
G01*
X134425000Y-85087500D02*
X134425000Y-85787500D01*
G75*
G02*
X134362500Y-85850000I-62500J0D01*
G01*
X134237500Y-85850000D01*
G75*
G02*
X134175000Y-85787500I0J62500D01*
G01*
X134175000Y-85087500D01*
G75*
G02*
X134237500Y-85025000I62500J0D01*
G01*
X134362500Y-85025000D01*
G75*
G02*
X134425000Y-85087500I0J-62500D01*
G01*
G37*
%TD.AperFunction*%
%TO.P,U2,19*%
%TO.N,/UART_RTS*%
%TA.AperFunction,SMDPad,CuDef*%
G36*
G01*
X133925000Y-85087500D02*
X133925000Y-85787500D01*
G75*
G02*
X133862500Y-85850000I-62500J0D01*
G01*
X133737500Y-85850000D01*
G75*
G02*
X133675000Y-85787500I0J62500D01*
G01*
X133675000Y-85087500D01*
G75*
G02*
X133737500Y-85025000I62500J0D01*
G01*
X133862500Y-85025000D01*
G75*
G02*
X133925000Y-85087500I0J-62500D01*
G01*
G37*
%TD.AperFunction*%
%TO.P,U2,18*%
%TO.N,N/C*%
%TA.AperFunction,SMDPad,CuDef*%
G36*
G01*
X133525000Y-84687500D02*
X133525000Y-84812500D01*
G75*
G02*
X133462500Y-84875000I-62500J0D01*
G01*
X132762500Y-84875000D01*
G75*
G02*
X132700000Y-84812500I0J62500D01*
G01*
X132700000Y-84687500D01*
G75*
G02*
X132762500Y-84625000I62500J0D01*
G01*
X133462500Y-84625000D01*
G75*
G02*
X133525000Y-84687500I0J-62500D01*
G01*
G37*
%TD.AperFunction*%
%TO.P,U2,17*%
%TA.AperFunction,SMDPad,CuDef*%
G36*
G01*
X133525000Y-84187500D02*
X133525000Y-84312500D01*
G75*
G02*
X133462500Y-84375000I-62500J0D01*
G01*
X132762500Y-84375000D01*
G75*
G02*
X132700000Y-84312500I0J62500D01*
G01*
X132700000Y-84187500D01*
G75*
G02*
X132762500Y-84125000I62500J0D01*
G01*
X133462500Y-84125000D01*
G75*
G02*
X133525000Y-84187500I0J-62500D01*
G01*
G37*
%TD.AperFunction*%
%TO.P,U2,16*%
%TA.AperFunction,SMDPad,CuDef*%
G36*
G01*
X133525000Y-83687500D02*
X133525000Y-83812500D01*
G75*
G02*
X133462500Y-83875000I-62500J0D01*
G01*
X132762500Y-83875000D01*
G75*
G02*
X132700000Y-83812500I0J62500D01*
G01*
X132700000Y-83687500D01*
G75*
G02*
X132762500Y-83625000I62500J0D01*
G01*
X133462500Y-83625000D01*
G75*
G02*
X133525000Y-83687500I0J-62500D01*
G01*
G37*
%TD.AperFunction*%
%TO.P,U2,15*%
%TA.AperFunction,SMDPad,CuDef*%
G36*
G01*
X133525000Y-83187500D02*
X133525000Y-83312500D01*
G75*
G02*
X133462500Y-83375000I-62500J0D01*
G01*
X132762500Y-83375000D01*
G75*
G02*
X132700000Y-83312500I0J62500D01*
G01*
X132700000Y-83187500D01*
G75*
G02*
X132762500Y-83125000I62500J0D01*
G01*
X133462500Y-83125000D01*
G75*
G02*
X133525000Y-83187500I0J-62500D01*
G01*
G37*
%TD.AperFunction*%
%TO.P,U2,14*%
%TO.N,Net-(D6-Pad1)*%
%TA.AperFunction,SMDPad,CuDef*%
G36*
G01*
X133525000Y-82687500D02*
X133525000Y-82812500D01*
G75*
G02*
X133462500Y-82875000I-62500J0D01*
G01*
X132762500Y-82875000D01*
G75*
G02*
X132700000Y-82812500I0J62500D01*
G01*
X132700000Y-82687500D01*
G75*
G02*
X132762500Y-82625000I62500J0D01*
G01*
X133462500Y-82625000D01*
G75*
G02*
X133525000Y-82687500I0J-62500D01*
G01*
G37*
%TD.AperFunction*%
%TO.P,U2,13*%
%TO.N,Net-(D5-Pad1)*%
%TA.AperFunction,SMDPad,CuDef*%
G36*
G01*
X133525000Y-82187500D02*
X133525000Y-82312500D01*
G75*
G02*
X133462500Y-82375000I-62500J0D01*
G01*
X132762500Y-82375000D01*
G75*
G02*
X132700000Y-82312500I0J62500D01*
G01*
X132700000Y-82187500D01*
G75*
G02*
X132762500Y-82125000I62500J0D01*
G01*
X133462500Y-82125000D01*
G75*
G02*
X133525000Y-82187500I0J-62500D01*
G01*
G37*
%TD.AperFunction*%
%TO.P,U2,12*%
%TO.N,N/C*%
%TA.AperFunction,SMDPad,CuDef*%
G36*
G01*
X133925000Y-81212500D02*
X133925000Y-81912500D01*
G75*
G02*
X133862500Y-81975000I-62500J0D01*
G01*
X133737500Y-81975000D01*
G75*
G02*
X133675000Y-81912500I0J62500D01*
G01*
X133675000Y-81212500D01*
G75*
G02*
X133737500Y-81150000I62500J0D01*
G01*
X133862500Y-81150000D01*
G75*
G02*
X133925000Y-81212500I0J-62500D01*
G01*
G37*
%TD.AperFunction*%
%TO.P,U2,11*%
%TA.AperFunction,SMDPad,CuDef*%
G36*
G01*
X134425000Y-81212500D02*
X134425000Y-81912500D01*
G75*
G02*
X134362500Y-81975000I-62500J0D01*
G01*
X134237500Y-81975000D01*
G75*
G02*
X134175000Y-81912500I0J62500D01*
G01*
X134175000Y-81212500D01*
G75*
G02*
X134237500Y-81150000I62500J0D01*
G01*
X134362500Y-81150000D01*
G75*
G02*
X134425000Y-81212500I0J-62500D01*
G01*
G37*
%TD.AperFunction*%
%TO.P,U2,10*%
%TA.AperFunction,SMDPad,CuDef*%
G36*
G01*
X134925000Y-81212500D02*
X134925000Y-81912500D01*
G75*
G02*
X134862500Y-81975000I-62500J0D01*
G01*
X134737500Y-81975000D01*
G75*
G02*
X134675000Y-81912500I0J62500D01*
G01*
X134675000Y-81212500D01*
G75*
G02*
X134737500Y-81150000I62500J0D01*
G01*
X134862500Y-81150000D01*
G75*
G02*
X134925000Y-81212500I0J-62500D01*
G01*
G37*
%TD.AperFunction*%
%TO.P,U2,9*%
%TO.N,Net-(R8-Pad2)*%
%TA.AperFunction,SMDPad,CuDef*%
G36*
G01*
X135425000Y-81212500D02*
X135425000Y-81912500D01*
G75*
G02*
X135362500Y-81975000I-62500J0D01*
G01*
X135237500Y-81975000D01*
G75*
G02*
X135175000Y-81912500I0J62500D01*
G01*
X135175000Y-81212500D01*
G75*
G02*
X135237500Y-81150000I62500J0D01*
G01*
X135362500Y-81150000D01*
G75*
G02*
X135425000Y-81212500I0J-62500D01*
G01*
G37*
%TD.AperFunction*%
%TO.P,U2,8*%
%TO.N,/5V_USB*%
%TA.AperFunction,SMDPad,CuDef*%
G36*
G01*
X135925000Y-81212500D02*
X135925000Y-81912500D01*
G75*
G02*
X135862500Y-81975000I-62500J0D01*
G01*
X135737500Y-81975000D01*
G75*
G02*
X135675000Y-81912500I0J62500D01*
G01*
X135675000Y-81212500D01*
G75*
G02*
X135737500Y-81150000I62500J0D01*
G01*
X135862500Y-81150000D01*
G75*
G02*
X135925000Y-81212500I0J-62500D01*
G01*
G37*
%TD.AperFunction*%
%TO.P,U2,7*%
%TA.AperFunction,SMDPad,CuDef*%
G36*
G01*
X136425000Y-81212500D02*
X136425000Y-81912500D01*
G75*
G02*
X136362500Y-81975000I-62500J0D01*
G01*
X136237500Y-81975000D01*
G75*
G02*
X136175000Y-81912500I0J62500D01*
G01*
X136175000Y-81212500D01*
G75*
G02*
X136237500Y-81150000I62500J0D01*
G01*
X136362500Y-81150000D01*
G75*
G02*
X136425000Y-81212500I0J-62500D01*
G01*
G37*
%TD.AperFunction*%
%TO.P,U2,6*%
%TO.N,/USB-UART-transceiver/3.3V*%
%TA.AperFunction,SMDPad,CuDef*%
G36*
G01*
X137400000Y-82187500D02*
X137400000Y-82312500D01*
G75*
G02*
X137337500Y-82375000I-62500J0D01*
G01*
X136637500Y-82375000D01*
G75*
G02*
X136575000Y-82312500I0J62500D01*
G01*
X136575000Y-82187500D01*
G75*
G02*
X136637500Y-82125000I62500J0D01*
G01*
X137337500Y-82125000D01*
G75*
G02*
X137400000Y-82187500I0J-62500D01*
G01*
G37*
%TD.AperFunction*%
%TO.P,U2,5*%
%TA.AperFunction,SMDPad,CuDef*%
G36*
G01*
X137400000Y-82687500D02*
X137400000Y-82812500D01*
G75*
G02*
X137337500Y-82875000I-62500J0D01*
G01*
X136637500Y-82875000D01*
G75*
G02*
X136575000Y-82812500I0J62500D01*
G01*
X136575000Y-82687500D01*
G75*
G02*
X136637500Y-82625000I62500J0D01*
G01*
X137337500Y-82625000D01*
G75*
G02*
X137400000Y-82687500I0J-62500D01*
G01*
G37*
%TD.AperFunction*%
%TO.P,U2,4*%
%TO.N,/D-*%
%TA.AperFunction,SMDPad,CuDef*%
G36*
G01*
X137400000Y-83187500D02*
X137400000Y-83312500D01*
G75*
G02*
X137337500Y-83375000I-62500J0D01*
G01*
X136637500Y-83375000D01*
G75*
G02*
X136575000Y-83312500I0J62500D01*
G01*
X136575000Y-83187500D01*
G75*
G02*
X136637500Y-83125000I62500J0D01*
G01*
X137337500Y-83125000D01*
G75*
G02*
X137400000Y-83187500I0J-62500D01*
G01*
G37*
%TD.AperFunction*%
%TO.P,U2,3*%
%TO.N,/D+*%
%TA.AperFunction,SMDPad,CuDef*%
G36*
G01*
X137400000Y-83687500D02*
X137400000Y-83812500D01*
G75*
G02*
X137337500Y-83875000I-62500J0D01*
G01*
X136637500Y-83875000D01*
G75*
G02*
X136575000Y-83812500I0J62500D01*
G01*
X136575000Y-83687500D01*
G75*
G02*
X136637500Y-83625000I62500J0D01*
G01*
X137337500Y-83625000D01*
G75*
G02*
X137400000Y-83687500I0J-62500D01*
G01*
G37*
%TD.AperFunction*%
%TO.P,U2,2*%
%TO.N,GND*%
%TA.AperFunction,SMDPad,CuDef*%
G36*
G01*
X137400000Y-84187500D02*
X137400000Y-84312500D01*
G75*
G02*
X137337500Y-84375000I-62500J0D01*
G01*
X136637500Y-84375000D01*
G75*
G02*
X136575000Y-84312500I0J62500D01*
G01*
X136575000Y-84187500D01*
G75*
G02*
X136637500Y-84125000I62500J0D01*
G01*
X137337500Y-84125000D01*
G75*
G02*
X137400000Y-84187500I0J-62500D01*
G01*
G37*
%TD.AperFunction*%
%TO.P,U2,1*%
%TO.N,N/C*%
%TA.AperFunction,SMDPad,CuDef*%
G36*
G01*
X137400000Y-84687500D02*
X137400000Y-84812500D01*
G75*
G02*
X137337500Y-84875000I-62500J0D01*
G01*
X136637500Y-84875000D01*
G75*
G02*
X136575000Y-84812500I0J62500D01*
G01*
X136575000Y-84687500D01*
G75*
G02*
X136637500Y-84625000I62500J0D01*
G01*
X137337500Y-84625000D01*
G75*
G02*
X137400000Y-84687500I0J-62500D01*
G01*
G37*
%TD.AperFunction*%
%TD*%
D21*
%TO.P,U1,22*%
%TO.N,/U0_TXD*%
X166500000Y-110600000D03*
%TO.P,U1,21*%
%TO.N,/Data_line_TTL*%
X164500000Y-110600000D03*
%TO.P,U1,20*%
%TO.N,/DHT22_DATA*%
X162500000Y-110600000D03*
%TO.P,U1,19*%
%TO.N,/GPIO4*%
X160500000Y-110600000D03*
%TO.P,U1,18*%
%TO.N,/GPIO0*%
X158500000Y-110600000D03*
%TO.P,U1,17*%
%TO.N,N/C*%
X156500000Y-110600000D03*
%TO.P,U1,16*%
%TO.N,Net-(R6-Pad1)*%
X154500000Y-110600000D03*
%TO.P,U1,15*%
%TO.N,GND*%
X152500000Y-110600000D03*
D22*
%TO.P,U1,14*%
%TO.N,N/C*%
X151000000Y-108000000D03*
%TO.P,U1,13*%
%TO.N,Net-(R21-Pad1)*%
X151000000Y-106000000D03*
%TO.P,U1,12*%
%TO.N,N/C*%
X151000000Y-104000000D03*
%TO.P,U1,11*%
X151000000Y-102000000D03*
%TO.P,U1,10*%
X151000000Y-100000000D03*
%TO.P,U1,9*%
X151000000Y-98000000D03*
D21*
%TO.P,U1,8*%
%TO.N,+3V3*%
X152500000Y-95400000D03*
%TO.P,U1,7*%
%TO.N,N/C*%
X154500000Y-95400000D03*
%TO.P,U1,6*%
%TO.N,/DHT22_EN*%
X156500000Y-95400000D03*
%TO.P,U1,5*%
%TO.N,N/C*%
X158500000Y-95400000D03*
%TO.P,U1,4*%
%TO.N,/nRST*%
X160500000Y-95400000D03*
%TO.P,U1,3*%
%TO.N,Net-(R5-Pad2)*%
X162500000Y-95400000D03*
%TO.P,U1,2*%
%TO.N,N/C*%
X164500000Y-95400000D03*
%TO.P,U1,1*%
%TO.N,/nRST*%
X166500000Y-95400000D03*
%TD*%
%TO.P,R19,2*%
%TO.N,Net-(Q6-Pad3)*%
%TA.AperFunction,SMDPad,CuDef*%
G36*
G01*
X151075000Y-76675000D02*
X150525000Y-76675000D01*
G75*
G02*
X150325000Y-76475000I0J200000D01*
G01*
X150325000Y-76075000D01*
G75*
G02*
X150525000Y-75875000I200000J0D01*
G01*
X151075000Y-75875000D01*
G75*
G02*
X151275000Y-76075000I0J-200000D01*
G01*
X151275000Y-76475000D01*
G75*
G02*
X151075000Y-76675000I-200000J0D01*
G01*
G37*
%TD.AperFunction*%
%TO.P,R19,1*%
%TO.N,Net-(Q5-Pad1)*%
%TA.AperFunction,SMDPad,CuDef*%
G36*
G01*
X151075000Y-78325000D02*
X150525000Y-78325000D01*
G75*
G02*
X150325000Y-78125000I0J200000D01*
G01*
X150325000Y-77725000D01*
G75*
G02*
X150525000Y-77525000I200000J0D01*
G01*
X151075000Y-77525000D01*
G75*
G02*
X151275000Y-77725000I0J-200000D01*
G01*
X151275000Y-78125000D01*
G75*
G02*
X151075000Y-78325000I-200000J0D01*
G01*
G37*
%TD.AperFunction*%
%TD*%
%TO.P,R18,2*%
%TO.N,Net-(Q5-Pad1)*%
%TA.AperFunction,SMDPad,CuDef*%
G36*
G01*
X151075000Y-80275000D02*
X150525000Y-80275000D01*
G75*
G02*
X150325000Y-80075000I0J200000D01*
G01*
X150325000Y-79675000D01*
G75*
G02*
X150525000Y-79475000I200000J0D01*
G01*
X151075000Y-79475000D01*
G75*
G02*
X151275000Y-79675000I0J-200000D01*
G01*
X151275000Y-80075000D01*
G75*
G02*
X151075000Y-80275000I-200000J0D01*
G01*
G37*
%TD.AperFunction*%
%TO.P,R18,1*%
%TO.N,+3V3*%
%TA.AperFunction,SMDPad,CuDef*%
G36*
G01*
X151075000Y-81925000D02*
X150525000Y-81925000D01*
G75*
G02*
X150325000Y-81725000I0J200000D01*
G01*
X150325000Y-81325000D01*
G75*
G02*
X150525000Y-81125000I200000J0D01*
G01*
X151075000Y-81125000D01*
G75*
G02*
X151275000Y-81325000I0J-200000D01*
G01*
X151275000Y-81725000D01*
G75*
G02*
X151075000Y-81925000I-200000J0D01*
G01*
G37*
%TD.AperFunction*%
%TD*%
%TO.P,R17,2*%
%TO.N,Net-(Q4-Pad3)*%
%TA.AperFunction,SMDPad,CuDef*%
G36*
G01*
X141075000Y-100975000D02*
X140525000Y-100975000D01*
G75*
G02*
X140325000Y-100775000I0J200000D01*
G01*
X140325000Y-100375000D01*
G75*
G02*
X140525000Y-100175000I200000J0D01*
G01*
X141075000Y-100175000D01*
G75*
G02*
X141275000Y-100375000I0J-200000D01*
G01*
X141275000Y-100775000D01*
G75*
G02*
X141075000Y-100975000I-200000J0D01*
G01*
G37*
%TD.AperFunction*%
%TO.P,R17,1*%
%TO.N,Net-(Q3-Pad1)*%
%TA.AperFunction,SMDPad,CuDef*%
G36*
G01*
X141075000Y-102625000D02*
X140525000Y-102625000D01*
G75*
G02*
X140325000Y-102425000I0J200000D01*
G01*
X140325000Y-102025000D01*
G75*
G02*
X140525000Y-101825000I200000J0D01*
G01*
X141075000Y-101825000D01*
G75*
G02*
X141275000Y-102025000I0J-200000D01*
G01*
X141275000Y-102425000D01*
G75*
G02*
X141075000Y-102625000I-200000J0D01*
G01*
G37*
%TD.AperFunction*%
%TD*%
%TO.P,R16,2*%
%TO.N,GND*%
%TA.AperFunction,SMDPad,CuDef*%
G36*
G01*
X124175000Y-76075000D02*
X124175000Y-75525000D01*
G75*
G02*
X124375000Y-75325000I200000J0D01*
G01*
X124775000Y-75325000D01*
G75*
G02*
X124975000Y-75525000I0J-200000D01*
G01*
X124975000Y-76075000D01*
G75*
G02*
X124775000Y-76275000I-200000J0D01*
G01*
X124375000Y-76275000D01*
G75*
G02*
X124175000Y-76075000I0J200000D01*
G01*
G37*
%TD.AperFunction*%
%TO.P,R16,1*%
%TO.N,Earth*%
%TA.AperFunction,SMDPad,CuDef*%
G36*
G01*
X122525000Y-76075000D02*
X122525000Y-75525000D01*
G75*
G02*
X122725000Y-75325000I200000J0D01*
G01*
X123125000Y-75325000D01*
G75*
G02*
X123325000Y-75525000I0J-200000D01*
G01*
X123325000Y-76075000D01*
G75*
G02*
X123125000Y-76275000I-200000J0D01*
G01*
X122725000Y-76275000D01*
G75*
G02*
X122525000Y-76075000I0J200000D01*
G01*
G37*
%TD.AperFunction*%
%TD*%
%TO.P,R15,2*%
%TO.N,Net-(Q3-Pad1)*%
%TA.AperFunction,SMDPad,CuDef*%
G36*
G01*
X140525000Y-105950000D02*
X141075000Y-105950000D01*
G75*
G02*
X141275000Y-106150000I0J-200000D01*
G01*
X141275000Y-106550000D01*
G75*
G02*
X141075000Y-106750000I-200000J0D01*
G01*
X140525000Y-106750000D01*
G75*
G02*
X140325000Y-106550000I0J200000D01*
G01*
X140325000Y-106150000D01*
G75*
G02*
X140525000Y-105950000I200000J0D01*
G01*
G37*
%TD.AperFunction*%
%TO.P,R15,1*%
%TO.N,/5V_meter*%
%TA.AperFunction,SMDPad,CuDef*%
G36*
G01*
X140525000Y-104300000D02*
X141075000Y-104300000D01*
G75*
G02*
X141275000Y-104500000I0J-200000D01*
G01*
X141275000Y-104900000D01*
G75*
G02*
X141075000Y-105100000I-200000J0D01*
G01*
X140525000Y-105100000D01*
G75*
G02*
X140325000Y-104900000I0J200000D01*
G01*
X140325000Y-104500000D01*
G75*
G02*
X140525000Y-104300000I200000J0D01*
G01*
G37*
%TD.AperFunction*%
%TD*%
%TO.P,R14,2*%
%TO.N,GND*%
%TA.AperFunction,SMDPad,CuDef*%
G36*
G01*
X133475000Y-112575000D02*
X132925000Y-112575000D01*
G75*
G02*
X132725000Y-112375000I0J200000D01*
G01*
X132725000Y-111975000D01*
G75*
G02*
X132925000Y-111775000I200000J0D01*
G01*
X133475000Y-111775000D01*
G75*
G02*
X133675000Y-111975000I0J-200000D01*
G01*
X133675000Y-112375000D01*
G75*
G02*
X133475000Y-112575000I-200000J0D01*
G01*
G37*
%TD.AperFunction*%
%TO.P,R14,1*%
%TO.N,/DATA_LINE*%
%TA.AperFunction,SMDPad,CuDef*%
G36*
G01*
X133475000Y-114225000D02*
X132925000Y-114225000D01*
G75*
G02*
X132725000Y-114025000I0J200000D01*
G01*
X132725000Y-113625000D01*
G75*
G02*
X132925000Y-113425000I200000J0D01*
G01*
X133475000Y-113425000D01*
G75*
G02*
X133675000Y-113625000I0J-200000D01*
G01*
X133675000Y-114025000D01*
G75*
G02*
X133475000Y-114225000I-200000J0D01*
G01*
G37*
%TD.AperFunction*%
%TD*%
%TO.P,R13,2*%
%TO.N,/DATA_LINE*%
%TA.AperFunction,SMDPad,CuDef*%
G36*
G01*
X134525000Y-113425000D02*
X135075000Y-113425000D01*
G75*
G02*
X135275000Y-113625000I0J-200000D01*
G01*
X135275000Y-114025000D01*
G75*
G02*
X135075000Y-114225000I-200000J0D01*
G01*
X134525000Y-114225000D01*
G75*
G02*
X134325000Y-114025000I0J200000D01*
G01*
X134325000Y-113625000D01*
G75*
G02*
X134525000Y-113425000I200000J0D01*
G01*
G37*
%TD.AperFunction*%
%TO.P,R13,1*%
%TO.N,/5V_meter*%
%TA.AperFunction,SMDPad,CuDef*%
G36*
G01*
X134525000Y-111775000D02*
X135075000Y-111775000D01*
G75*
G02*
X135275000Y-111975000I0J-200000D01*
G01*
X135275000Y-112375000D01*
G75*
G02*
X135075000Y-112575000I-200000J0D01*
G01*
X134525000Y-112575000D01*
G75*
G02*
X134325000Y-112375000I0J200000D01*
G01*
X134325000Y-111975000D01*
G75*
G02*
X134525000Y-111775000I200000J0D01*
G01*
G37*
%TD.AperFunction*%
%TD*%
%TO.P,R12,2*%
%TO.N,/Data_line_TTL*%
%TA.AperFunction,SMDPad,CuDef*%
G36*
G01*
X134425000Y-115675000D02*
X134425000Y-115125000D01*
G75*
G02*
X134625000Y-114925000I200000J0D01*
G01*
X135025000Y-114925000D01*
G75*
G02*
X135225000Y-115125000I0J-200000D01*
G01*
X135225000Y-115675000D01*
G75*
G02*
X135025000Y-115875000I-200000J0D01*
G01*
X134625000Y-115875000D01*
G75*
G02*
X134425000Y-115675000I0J200000D01*
G01*
G37*
%TD.AperFunction*%
%TO.P,R12,1*%
%TO.N,/DATA_LINE*%
%TA.AperFunction,SMDPad,CuDef*%
G36*
G01*
X132775000Y-115675000D02*
X132775000Y-115125000D01*
G75*
G02*
X132975000Y-114925000I200000J0D01*
G01*
X133375000Y-114925000D01*
G75*
G02*
X133575000Y-115125000I0J-200000D01*
G01*
X133575000Y-115675000D01*
G75*
G02*
X133375000Y-115875000I-200000J0D01*
G01*
X132975000Y-115875000D01*
G75*
G02*
X132775000Y-115675000I0J200000D01*
G01*
G37*
%TD.AperFunction*%
%TD*%
%TO.P,R11,2*%
%TO.N,/DHT22_DATA*%
%TA.AperFunction,SMDPad,CuDef*%
G36*
G01*
X159025000Y-78275000D02*
X159025000Y-77725000D01*
G75*
G02*
X159225000Y-77525000I200000J0D01*
G01*
X159625000Y-77525000D01*
G75*
G02*
X159825000Y-77725000I0J-200000D01*
G01*
X159825000Y-78275000D01*
G75*
G02*
X159625000Y-78475000I-200000J0D01*
G01*
X159225000Y-78475000D01*
G75*
G02*
X159025000Y-78275000I0J200000D01*
G01*
G37*
%TD.AperFunction*%
%TO.P,R11,1*%
%TO.N,/High_side_SW.sch/VOut*%
%TA.AperFunction,SMDPad,CuDef*%
G36*
G01*
X157375000Y-78275000D02*
X157375000Y-77725000D01*
G75*
G02*
X157575000Y-77525000I200000J0D01*
G01*
X157975000Y-77525000D01*
G75*
G02*
X158175000Y-77725000I0J-200000D01*
G01*
X158175000Y-78275000D01*
G75*
G02*
X157975000Y-78475000I-200000J0D01*
G01*
X157575000Y-78475000D01*
G75*
G02*
X157375000Y-78275000I0J200000D01*
G01*
G37*
%TD.AperFunction*%
%TD*%
%TO.P,R10,2*%
%TO.N,Net-(D6-Pad2)*%
%TA.AperFunction,SMDPad,CuDef*%
G36*
G01*
X131825000Y-78975000D02*
X131825000Y-79525000D01*
G75*
G02*
X131625000Y-79725000I-200000J0D01*
G01*
X131225000Y-79725000D01*
G75*
G02*
X131025000Y-79525000I0J200000D01*
G01*
X131025000Y-78975000D01*
G75*
G02*
X131225000Y-78775000I200000J0D01*
G01*
X131625000Y-78775000D01*
G75*
G02*
X131825000Y-78975000I0J-200000D01*
G01*
G37*
%TD.AperFunction*%
%TO.P,R10,1*%
%TO.N,/USB-UART-transceiver/3.3V*%
%TA.AperFunction,SMDPad,CuDef*%
G36*
G01*
X133475000Y-78975000D02*
X133475000Y-79525000D01*
G75*
G02*
X133275000Y-79725000I-200000J0D01*
G01*
X132875000Y-79725000D01*
G75*
G02*
X132675000Y-79525000I0J200000D01*
G01*
X132675000Y-78975000D01*
G75*
G02*
X132875000Y-78775000I200000J0D01*
G01*
X133275000Y-78775000D01*
G75*
G02*
X133475000Y-78975000I0J-200000D01*
G01*
G37*
%TD.AperFunction*%
%TD*%
%TO.P,R9,2*%
%TO.N,Net-(D5-Pad2)*%
%TA.AperFunction,SMDPad,CuDef*%
G36*
G01*
X131825000Y-75475000D02*
X131825000Y-76025000D01*
G75*
G02*
X131625000Y-76225000I-200000J0D01*
G01*
X131225000Y-76225000D01*
G75*
G02*
X131025000Y-76025000I0J200000D01*
G01*
X131025000Y-75475000D01*
G75*
G02*
X131225000Y-75275000I200000J0D01*
G01*
X131625000Y-75275000D01*
G75*
G02*
X131825000Y-75475000I0J-200000D01*
G01*
G37*
%TD.AperFunction*%
%TO.P,R9,1*%
%TO.N,/USB-UART-transceiver/3.3V*%
%TA.AperFunction,SMDPad,CuDef*%
G36*
G01*
X133475000Y-75475000D02*
X133475000Y-76025000D01*
G75*
G02*
X133275000Y-76225000I-200000J0D01*
G01*
X132875000Y-76225000D01*
G75*
G02*
X132675000Y-76025000I0J200000D01*
G01*
X132675000Y-75475000D01*
G75*
G02*
X132875000Y-75275000I200000J0D01*
G01*
X133275000Y-75275000D01*
G75*
G02*
X133475000Y-75475000I0J-200000D01*
G01*
G37*
%TD.AperFunction*%
%TD*%
%TO.P,R8,2*%
%TO.N,Net-(R8-Pad2)*%
%TA.AperFunction,SMDPad,CuDef*%
G36*
G01*
X131825000Y-77225000D02*
X131825000Y-77775000D01*
G75*
G02*
X131625000Y-77975000I-200000J0D01*
G01*
X131225000Y-77975000D01*
G75*
G02*
X131025000Y-77775000I0J200000D01*
G01*
X131025000Y-77225000D01*
G75*
G02*
X131225000Y-77025000I200000J0D01*
G01*
X131625000Y-77025000D01*
G75*
G02*
X131825000Y-77225000I0J-200000D01*
G01*
G37*
%TD.AperFunction*%
%TO.P,R8,1*%
%TO.N,/USB-UART-transceiver/3.3V*%
%TA.AperFunction,SMDPad,CuDef*%
G36*
G01*
X133475000Y-77225000D02*
X133475000Y-77775000D01*
G75*
G02*
X133275000Y-77975000I-200000J0D01*
G01*
X132875000Y-77975000D01*
G75*
G02*
X132675000Y-77775000I0J200000D01*
G01*
X132675000Y-77225000D01*
G75*
G02*
X132875000Y-77025000I200000J0D01*
G01*
X133275000Y-77025000D01*
G75*
G02*
X133475000Y-77225000I0J-200000D01*
G01*
G37*
%TD.AperFunction*%
%TD*%
%TO.P,R7,2*%
%TO.N,/Data_line_TTL*%
%TA.AperFunction,SMDPad,CuDef*%
G36*
G01*
X144825000Y-95175000D02*
X144825000Y-94625000D01*
G75*
G02*
X145025000Y-94425000I200000J0D01*
G01*
X145425000Y-94425000D01*
G75*
G02*
X145625000Y-94625000I0J-200000D01*
G01*
X145625000Y-95175000D01*
G75*
G02*
X145425000Y-95375000I-200000J0D01*
G01*
X145025000Y-95375000D01*
G75*
G02*
X144825000Y-95175000I0J200000D01*
G01*
G37*
%TD.AperFunction*%
%TO.P,R7,1*%
%TO.N,/UART_TX*%
%TA.AperFunction,SMDPad,CuDef*%
G36*
G01*
X143175000Y-95175000D02*
X143175000Y-94625000D01*
G75*
G02*
X143375000Y-94425000I200000J0D01*
G01*
X143775000Y-94425000D01*
G75*
G02*
X143975000Y-94625000I0J-200000D01*
G01*
X143975000Y-95175000D01*
G75*
G02*
X143775000Y-95375000I-200000J0D01*
G01*
X143375000Y-95375000D01*
G75*
G02*
X143175000Y-95175000I0J200000D01*
G01*
G37*
%TD.AperFunction*%
%TD*%
%TO.P,R6,2*%
%TO.N,GND*%
%TA.AperFunction,SMDPad,CuDef*%
G36*
G01*
X153025000Y-113125000D02*
X153025000Y-113675000D01*
G75*
G02*
X152825000Y-113875000I-200000J0D01*
G01*
X152425000Y-113875000D01*
G75*
G02*
X152225000Y-113675000I0J200000D01*
G01*
X152225000Y-113125000D01*
G75*
G02*
X152425000Y-112925000I200000J0D01*
G01*
X152825000Y-112925000D01*
G75*
G02*
X153025000Y-113125000I0J-200000D01*
G01*
G37*
%TD.AperFunction*%
%TO.P,R6,1*%
%TO.N,Net-(R6-Pad1)*%
%TA.AperFunction,SMDPad,CuDef*%
G36*
G01*
X154675000Y-113125000D02*
X154675000Y-113675000D01*
G75*
G02*
X154475000Y-113875000I-200000J0D01*
G01*
X154075000Y-113875000D01*
G75*
G02*
X153875000Y-113675000I0J200000D01*
G01*
X153875000Y-113125000D01*
G75*
G02*
X154075000Y-112925000I200000J0D01*
G01*
X154475000Y-112925000D01*
G75*
G02*
X154675000Y-113125000I0J-200000D01*
G01*
G37*
%TD.AperFunction*%
%TD*%
%TO.P,R5,2*%
%TO.N,Net-(R5-Pad2)*%
%TA.AperFunction,SMDPad,CuDef*%
G36*
G01*
X163450000Y-92475000D02*
X163450000Y-91925000D01*
G75*
G02*
X163650000Y-91725000I200000J0D01*
G01*
X164050000Y-91725000D01*
G75*
G02*
X164250000Y-91925000I0J-200000D01*
G01*
X164250000Y-92475000D01*
G75*
G02*
X164050000Y-92675000I-200000J0D01*
G01*
X163650000Y-92675000D01*
G75*
G02*
X163450000Y-92475000I0J200000D01*
G01*
G37*
%TD.AperFunction*%
%TO.P,R5,1*%
%TO.N,+3V3*%
%TA.AperFunction,SMDPad,CuDef*%
G36*
G01*
X161800000Y-92475000D02*
X161800000Y-91925000D01*
G75*
G02*
X162000000Y-91725000I200000J0D01*
G01*
X162400000Y-91725000D01*
G75*
G02*
X162600000Y-91925000I0J-200000D01*
G01*
X162600000Y-92475000D01*
G75*
G02*
X162400000Y-92675000I-200000J0D01*
G01*
X162000000Y-92675000D01*
G75*
G02*
X161800000Y-92475000I0J200000D01*
G01*
G37*
%TD.AperFunction*%
%TD*%
%TO.P,R4,2*%
%TO.N,/nRST*%
%TA.AperFunction,SMDPad,CuDef*%
G36*
G01*
X159550000Y-91925000D02*
X159550000Y-92475000D01*
G75*
G02*
X159350000Y-92675000I-200000J0D01*
G01*
X158950000Y-92675000D01*
G75*
G02*
X158750000Y-92475000I0J200000D01*
G01*
X158750000Y-91925000D01*
G75*
G02*
X158950000Y-91725000I200000J0D01*
G01*
X159350000Y-91725000D01*
G75*
G02*
X159550000Y-91925000I0J-200000D01*
G01*
G37*
%TD.AperFunction*%
%TO.P,R4,1*%
%TO.N,+3V3*%
%TA.AperFunction,SMDPad,CuDef*%
G36*
G01*
X161200000Y-91925000D02*
X161200000Y-92475000D01*
G75*
G02*
X161000000Y-92675000I-200000J0D01*
G01*
X160600000Y-92675000D01*
G75*
G02*
X160400000Y-92475000I0J200000D01*
G01*
X160400000Y-91925000D01*
G75*
G02*
X160600000Y-91725000I200000J0D01*
G01*
X161000000Y-91725000D01*
G75*
G02*
X161200000Y-91925000I0J-200000D01*
G01*
G37*
%TD.AperFunction*%
%TD*%
%TO.P,R3,2*%
%TO.N,/GPIO0*%
%TA.AperFunction,SMDPad,CuDef*%
G36*
G01*
X157075000Y-113675000D02*
X157075000Y-113125000D01*
G75*
G02*
X157275000Y-112925000I200000J0D01*
G01*
X157675000Y-112925000D01*
G75*
G02*
X157875000Y-113125000I0J-200000D01*
G01*
X157875000Y-113675000D01*
G75*
G02*
X157675000Y-113875000I-200000J0D01*
G01*
X157275000Y-113875000D01*
G75*
G02*
X157075000Y-113675000I0J200000D01*
G01*
G37*
%TD.AperFunction*%
%TO.P,R3,1*%
%TO.N,+3V3*%
%TA.AperFunction,SMDPad,CuDef*%
G36*
G01*
X155425000Y-113675000D02*
X155425000Y-113125000D01*
G75*
G02*
X155625000Y-112925000I200000J0D01*
G01*
X156025000Y-112925000D01*
G75*
G02*
X156225000Y-113125000I0J-200000D01*
G01*
X156225000Y-113675000D01*
G75*
G02*
X156025000Y-113875000I-200000J0D01*
G01*
X155625000Y-113875000D01*
G75*
G02*
X155425000Y-113675000I0J200000D01*
G01*
G37*
%TD.AperFunction*%
%TD*%
%TO.P,R2,2*%
%TO.N,/UART_RTS*%
%TA.AperFunction,SMDPad,CuDef*%
G36*
G01*
X139825000Y-91125000D02*
X140375000Y-91125000D01*
G75*
G02*
X140575000Y-91325000I0J-200000D01*
G01*
X140575000Y-91725000D01*
G75*
G02*
X140375000Y-91925000I-200000J0D01*
G01*
X139825000Y-91925000D01*
G75*
G02*
X139625000Y-91725000I0J200000D01*
G01*
X139625000Y-91325000D01*
G75*
G02*
X139825000Y-91125000I200000J0D01*
G01*
G37*
%TD.AperFunction*%
%TO.P,R2,1*%
%TO.N,Net-(Q2-Pad1)*%
%TA.AperFunction,SMDPad,CuDef*%
G36*
G01*
X139825000Y-89475000D02*
X140375000Y-89475000D01*
G75*
G02*
X140575000Y-89675000I0J-200000D01*
G01*
X140575000Y-90075000D01*
G75*
G02*
X140375000Y-90275000I-200000J0D01*
G01*
X139825000Y-90275000D01*
G75*
G02*
X139625000Y-90075000I0J200000D01*
G01*
X139625000Y-89675000D01*
G75*
G02*
X139825000Y-89475000I200000J0D01*
G01*
G37*
%TD.AperFunction*%
%TD*%
%TO.P,R1,2*%
%TO.N,/UART_DTR*%
%TA.AperFunction,SMDPad,CuDef*%
G36*
G01*
X140375000Y-86225000D02*
X139825000Y-86225000D01*
G75*
G02*
X139625000Y-86025000I0J200000D01*
G01*
X139625000Y-85625000D01*
G75*
G02*
X139825000Y-85425000I200000J0D01*
G01*
X140375000Y-85425000D01*
G75*
G02*
X140575000Y-85625000I0J-200000D01*
G01*
X140575000Y-86025000D01*
G75*
G02*
X140375000Y-86225000I-200000J0D01*
G01*
G37*
%TD.AperFunction*%
%TO.P,R1,1*%
%TO.N,Net-(Q1-Pad1)*%
%TA.AperFunction,SMDPad,CuDef*%
G36*
G01*
X140375000Y-87875000D02*
X139825000Y-87875000D01*
G75*
G02*
X139625000Y-87675000I0J200000D01*
G01*
X139625000Y-87275000D01*
G75*
G02*
X139825000Y-87075000I200000J0D01*
G01*
X140375000Y-87075000D01*
G75*
G02*
X140575000Y-87275000I0J-200000D01*
G01*
X140575000Y-87675000D01*
G75*
G02*
X140375000Y-87875000I-200000J0D01*
G01*
G37*
%TD.AperFunction*%
%TD*%
D23*
%TO.P,Q6,3*%
%TO.N,Net-(Q6-Pad3)*%
X154400000Y-77100000D03*
%TO.P,Q6,2*%
%TO.N,GND*%
X152400000Y-78050000D03*
%TO.P,Q6,1*%
%TO.N,/DHT22_EN*%
X152400000Y-76150000D03*
%TD*%
%TO.P,Q5,3*%
%TO.N,/High_side_SW.sch/VOut*%
X154400000Y-80700000D03*
%TO.P,Q5,2*%
%TO.N,+3V3*%
X152400000Y-81650000D03*
%TO.P,Q5,1*%
%TO.N,Net-(Q5-Pad1)*%
X152400000Y-79750000D03*
%TD*%
%TO.P,Q4,3*%
%TO.N,Net-(Q4-Pad3)*%
X137200000Y-101600000D03*
%TO.P,Q4,2*%
%TO.N,GND*%
X139200000Y-100650000D03*
%TO.P,Q4,1*%
%TO.N,/Data_Req_TTL*%
X139200000Y-102550000D03*
%TD*%
%TO.P,Q3,3*%
%TO.N,/DATA_REQ*%
X137200000Y-105300000D03*
%TO.P,Q3,2*%
%TO.N,/5V_meter*%
X139200000Y-104350000D03*
%TO.P,Q3,1*%
%TO.N,Net-(Q3-Pad1)*%
X139200000Y-106250000D03*
%TD*%
%TO.P,Q2,3*%
%TO.N,/GPIO0*%
X143700000Y-86850000D03*
%TO.P,Q2,2*%
%TO.N,/UART_DTR*%
X141700000Y-87800000D03*
%TO.P,Q2,1*%
%TO.N,Net-(Q2-Pad1)*%
X141700000Y-85900000D03*
%TD*%
%TO.P,Q1,3*%
%TO.N,/nRST*%
X143700000Y-90500000D03*
%TO.P,Q1,2*%
%TO.N,/UART_RTS*%
X141700000Y-91450000D03*
%TO.P,Q1,1*%
%TO.N,Net-(Q1-Pad1)*%
X141700000Y-89550000D03*
%TD*%
D10*
%TO.P,JP2,3*%
%TO.N,/UART_RTS*%
X141478000Y-109982000D03*
%TO.P,JP2,2*%
%TO.N,/Data_Req_TTL*%
X144018000Y-109982000D03*
D11*
%TO.P,JP2,1*%
%TO.N,/GPIO4*%
X146558000Y-109982000D03*
%TD*%
D10*
%TO.P,JP1,3*%
%TO.N,/Data_line_TTL*%
X141478000Y-112522000D03*
%TO.P,JP1,2*%
%TO.N,/UART_RX*%
X144018000Y-112522000D03*
D11*
%TO.P,JP1,1*%
%TO.N,/U0_TXD*%
X146558000Y-112522000D03*
%TD*%
D24*
%TO.P,J1,3*%
%TO.N,/D+*%
X125675000Y-83500000D03*
%TO.P,J1,4*%
%TO.N,N/C*%
X125675000Y-84150000D03*
%TO.P,J1,5*%
%TO.N,GND*%
X125675000Y-84800000D03*
%TO.P,J1,2*%
%TO.N,/D-*%
X125675000Y-82850000D03*
%TO.P,J1,1*%
%TO.N,Net-(F1-Pad2)*%
X125675000Y-82200000D03*
D25*
%TO.P,J1,SH*%
%TO.N,Earth*%
X123000000Y-86800000D03*
X123000000Y-80200000D03*
D26*
X125450000Y-80300000D03*
X125450000Y-86700000D03*
D27*
X123000000Y-82300000D03*
X123000000Y-84700000D03*
%TD*%
%TO.P,D6,2*%
%TO.N,Net-(D6-Pad2)*%
%TA.AperFunction,SMDPad,CuDef*%
G36*
G01*
X129350000Y-79506250D02*
X129350000Y-78993750D01*
G75*
G02*
X129568750Y-78775000I218750J0D01*
G01*
X130006250Y-78775000D01*
G75*
G02*
X130225000Y-78993750I0J-218750D01*
G01*
X130225000Y-79506250D01*
G75*
G02*
X130006250Y-79725000I-218750J0D01*
G01*
X129568750Y-79725000D01*
G75*
G02*
X129350000Y-79506250I0J218750D01*
G01*
G37*
%TD.AperFunction*%
%TO.P,D6,1*%
%TO.N,Net-(D6-Pad1)*%
%TA.AperFunction,SMDPad,CuDef*%
G36*
G01*
X127775000Y-79506250D02*
X127775000Y-78993750D01*
G75*
G02*
X127993750Y-78775000I218750J0D01*
G01*
X128431250Y-78775000D01*
G75*
G02*
X128650000Y-78993750I0J-218750D01*
G01*
X128650000Y-79506250D01*
G75*
G02*
X128431250Y-79725000I-218750J0D01*
G01*
X127993750Y-79725000D01*
G75*
G02*
X127775000Y-79506250I0J218750D01*
G01*
G37*
%TD.AperFunction*%
%TD*%
%TO.P,D5,2*%
%TO.N,Net-(D5-Pad2)*%
%TA.AperFunction,SMDPad,CuDef*%
G36*
G01*
X129350000Y-76006250D02*
X129350000Y-75493750D01*
G75*
G02*
X129568750Y-75275000I218750J0D01*
G01*
X130006250Y-75275000D01*
G75*
G02*
X130225000Y-75493750I0J-218750D01*
G01*
X130225000Y-76006250D01*
G75*
G02*
X130006250Y-76225000I-218750J0D01*
G01*
X129568750Y-76225000D01*
G75*
G02*
X129350000Y-76006250I0J218750D01*
G01*
G37*
%TD.AperFunction*%
%TO.P,D5,1*%
%TO.N,Net-(D5-Pad1)*%
%TA.AperFunction,SMDPad,CuDef*%
G36*
G01*
X127775000Y-76006250D02*
X127775000Y-75493750D01*
G75*
G02*
X127993750Y-75275000I218750J0D01*
G01*
X128431250Y-75275000D01*
G75*
G02*
X128650000Y-75493750I0J-218750D01*
G01*
X128650000Y-76006250D01*
G75*
G02*
X128431250Y-76225000I-218750J0D01*
G01*
X127993750Y-76225000D01*
G75*
G02*
X127775000Y-76006250I0J218750D01*
G01*
G37*
%TD.AperFunction*%
%TD*%
D28*
%TO.P,D4,5*%
%TO.N,/5V_meter*%
X125900000Y-103500000D03*
%TO.P,D4,6*%
%TO.N,N/C*%
X125900000Y-104450000D03*
%TO.P,D4,4*%
X125900000Y-102550000D03*
%TO.P,D4,3*%
%TO.N,/DATA_LINE*%
X128100000Y-102550000D03*
%TO.P,D4,2*%
%TO.N,GND*%
X128100000Y-103500000D03*
%TO.P,D4,1*%
%TO.N,/DATA_REQ*%
X128100000Y-104450000D03*
%TD*%
D29*
%TO.P,D3,5*%
%TO.N,/5V_USB*%
X129100000Y-84600000D03*
%TO.P,D3,6*%
%TO.N,/D+*%
X130050000Y-84600000D03*
%TO.P,D3,4*%
%TO.N,N/C*%
X128150000Y-84600000D03*
%TO.P,D3,3*%
X128150000Y-82400000D03*
%TO.P,D3,2*%
%TO.N,GND*%
X129100000Y-82400000D03*
%TO.P,D3,1*%
%TO.N,/D-*%
X130050000Y-82400000D03*
%TD*%
D12*
%TO.P,D2,2*%
%TO.N,/5V_meter*%
X123750000Y-92800000D03*
%TO.P,D2,1*%
%TO.N,/Power_supply_LDO_3V3/Vin*%
X127050000Y-92800000D03*
%TD*%
%TO.P,C9,2*%
%TO.N,GND*%
%TA.AperFunction,SMDPad,CuDef*%
G36*
G01*
X124200000Y-78275000D02*
X124200000Y-77325000D01*
G75*
G02*
X124450000Y-77075000I250000J0D01*
G01*
X124950000Y-77075000D01*
G75*
G02*
X125200000Y-77325000I0J-250000D01*
G01*
X125200000Y-78275000D01*
G75*
G02*
X124950000Y-78525000I-250000J0D01*
G01*
X124450000Y-78525000D01*
G75*
G02*
X124200000Y-78275000I0J250000D01*
G01*
G37*
%TD.AperFunction*%
%TO.P,C9,1*%
%TO.N,Earth*%
%TA.AperFunction,SMDPad,CuDef*%
G36*
G01*
X122300000Y-78275000D02*
X122300000Y-77325000D01*
G75*
G02*
X122550000Y-77075000I250000J0D01*
G01*
X123050000Y-77075000D01*
G75*
G02*
X123300000Y-77325000I0J-250000D01*
G01*
X123300000Y-78275000D01*
G75*
G02*
X123050000Y-78525000I-250000J0D01*
G01*
X122550000Y-78525000D01*
G75*
G02*
X122300000Y-78275000I0J250000D01*
G01*
G37*
%TD.AperFunction*%
%TD*%
%TO.P,C8,2*%
%TO.N,GND*%
%TA.AperFunction,SMDPad,CuDef*%
G36*
G01*
X138575000Y-93750000D02*
X137625000Y-93750000D01*
G75*
G02*
X137375000Y-93500000I0J250000D01*
G01*
X137375000Y-93000000D01*
G75*
G02*
X137625000Y-92750000I250000J0D01*
G01*
X138575000Y-92750000D01*
G75*
G02*
X138825000Y-93000000I0J-250000D01*
G01*
X138825000Y-93500000D01*
G75*
G02*
X138575000Y-93750000I-250000J0D01*
G01*
G37*
%TD.AperFunction*%
%TO.P,C8,1*%
%TO.N,+3V3*%
%TA.AperFunction,SMDPad,CuDef*%
G36*
G01*
X138575000Y-95650000D02*
X137625000Y-95650000D01*
G75*
G02*
X137375000Y-95400000I0J250000D01*
G01*
X137375000Y-94900000D01*
G75*
G02*
X137625000Y-94650000I250000J0D01*
G01*
X138575000Y-94650000D01*
G75*
G02*
X138825000Y-94900000I0J-250000D01*
G01*
X138825000Y-95400000D01*
G75*
G02*
X138575000Y-95650000I-250000J0D01*
G01*
G37*
%TD.AperFunction*%
%TD*%
%TO.P,C7,2*%
%TO.N,GND*%
%TA.AperFunction,SMDPad,CuDef*%
G36*
G01*
X126050000Y-95675000D02*
X126050000Y-94725000D01*
G75*
G02*
X126300000Y-94475000I250000J0D01*
G01*
X126800000Y-94475000D01*
G75*
G02*
X127050000Y-94725000I0J-250000D01*
G01*
X127050000Y-95675000D01*
G75*
G02*
X126800000Y-95925000I-250000J0D01*
G01*
X126300000Y-95925000D01*
G75*
G02*
X126050000Y-95675000I0J250000D01*
G01*
G37*
%TD.AperFunction*%
%TO.P,C7,1*%
%TO.N,/Power_supply_LDO_3V3/Vin*%
%TA.AperFunction,SMDPad,CuDef*%
G36*
G01*
X124150000Y-95675000D02*
X124150000Y-94725000D01*
G75*
G02*
X124400000Y-94475000I250000J0D01*
G01*
X124900000Y-94475000D01*
G75*
G02*
X125150000Y-94725000I0J-250000D01*
G01*
X125150000Y-95675000D01*
G75*
G02*
X124900000Y-95925000I-250000J0D01*
G01*
X124400000Y-95925000D01*
G75*
G02*
X124150000Y-95675000I0J250000D01*
G01*
G37*
%TD.AperFunction*%
%TD*%
%TO.P,C6,2*%
%TO.N,GND*%
%TA.AperFunction,SMDPad,CuDef*%
G36*
G01*
X141125000Y-83150000D02*
X142075000Y-83150000D01*
G75*
G02*
X142325000Y-83400000I0J-250000D01*
G01*
X142325000Y-83900000D01*
G75*
G02*
X142075000Y-84150000I-250000J0D01*
G01*
X141125000Y-84150000D01*
G75*
G02*
X140875000Y-83900000I0J250000D01*
G01*
X140875000Y-83400000D01*
G75*
G02*
X141125000Y-83150000I250000J0D01*
G01*
G37*
%TD.AperFunction*%
%TO.P,C6,1*%
%TO.N,/USB-UART-transceiver/3.3V*%
%TA.AperFunction,SMDPad,CuDef*%
G36*
G01*
X141125000Y-81250000D02*
X142075000Y-81250000D01*
G75*
G02*
X142325000Y-81500000I0J-250000D01*
G01*
X142325000Y-82000000D01*
G75*
G02*
X142075000Y-82250000I-250000J0D01*
G01*
X141125000Y-82250000D01*
G75*
G02*
X140875000Y-82000000I0J250000D01*
G01*
X140875000Y-81500000D01*
G75*
G02*
X141125000Y-81250000I250000J0D01*
G01*
G37*
%TD.AperFunction*%
%TD*%
%TO.P,C5,2*%
%TO.N,GND*%
%TA.AperFunction,SMDPad,CuDef*%
G36*
G01*
X139562500Y-83025000D02*
X140037500Y-83025000D01*
G75*
G02*
X140275000Y-83262500I0J-237500D01*
G01*
X140275000Y-83862500D01*
G75*
G02*
X140037500Y-84100000I-237500J0D01*
G01*
X139562500Y-84100000D01*
G75*
G02*
X139325000Y-83862500I0J237500D01*
G01*
X139325000Y-83262500D01*
G75*
G02*
X139562500Y-83025000I237500J0D01*
G01*
G37*
%TD.AperFunction*%
%TO.P,C5,1*%
%TO.N,/USB-UART-transceiver/3.3V*%
%TA.AperFunction,SMDPad,CuDef*%
G36*
G01*
X139562500Y-81300000D02*
X140037500Y-81300000D01*
G75*
G02*
X140275000Y-81537500I0J-237500D01*
G01*
X140275000Y-82137500D01*
G75*
G02*
X140037500Y-82375000I-237500J0D01*
G01*
X139562500Y-82375000D01*
G75*
G02*
X139325000Y-82137500I0J237500D01*
G01*
X139325000Y-81537500D01*
G75*
G02*
X139562500Y-81300000I237500J0D01*
G01*
G37*
%TD.AperFunction*%
%TD*%
%TO.P,C4,2*%
%TO.N,GND*%
%TA.AperFunction,SMDPad,CuDef*%
G36*
G01*
X135250000Y-76025000D02*
X135250000Y-76975000D01*
G75*
G02*
X135000000Y-77225000I-250000J0D01*
G01*
X134500000Y-77225000D01*
G75*
G02*
X134250000Y-76975000I0J250000D01*
G01*
X134250000Y-76025000D01*
G75*
G02*
X134500000Y-75775000I250000J0D01*
G01*
X135000000Y-75775000D01*
G75*
G02*
X135250000Y-76025000I0J-250000D01*
G01*
G37*
%TD.AperFunction*%
%TO.P,C4,1*%
%TO.N,/5V_USB*%
%TA.AperFunction,SMDPad,CuDef*%
G36*
G01*
X137150000Y-76025000D02*
X137150000Y-76975000D01*
G75*
G02*
X136900000Y-77225000I-250000J0D01*
G01*
X136400000Y-77225000D01*
G75*
G02*
X136150000Y-76975000I0J250000D01*
G01*
X136150000Y-76025000D01*
G75*
G02*
X136400000Y-75775000I250000J0D01*
G01*
X136900000Y-75775000D01*
G75*
G02*
X137150000Y-76025000I0J-250000D01*
G01*
G37*
%TD.AperFunction*%
%TD*%
%TO.P,C3,2*%
%TO.N,GND*%
%TA.AperFunction,SMDPad,CuDef*%
G36*
G01*
X135425000Y-78262500D02*
X135425000Y-78737500D01*
G75*
G02*
X135187500Y-78975000I-237500J0D01*
G01*
X134587500Y-78975000D01*
G75*
G02*
X134350000Y-78737500I0J237500D01*
G01*
X134350000Y-78262500D01*
G75*
G02*
X134587500Y-78025000I237500J0D01*
G01*
X135187500Y-78025000D01*
G75*
G02*
X135425000Y-78262500I0J-237500D01*
G01*
G37*
%TD.AperFunction*%
%TO.P,C3,1*%
%TO.N,/5V_USB*%
%TA.AperFunction,SMDPad,CuDef*%
G36*
G01*
X137150000Y-78262500D02*
X137150000Y-78737500D01*
G75*
G02*
X136912500Y-78975000I-237500J0D01*
G01*
X136312500Y-78975000D01*
G75*
G02*
X136075000Y-78737500I0J237500D01*
G01*
X136075000Y-78262500D01*
G75*
G02*
X136312500Y-78025000I237500J0D01*
G01*
X136912500Y-78025000D01*
G75*
G02*
X137150000Y-78262500I0J-237500D01*
G01*
G37*
%TD.AperFunction*%
%TD*%
%TO.P,C2,2*%
%TO.N,GND*%
%TA.AperFunction,SMDPad,CuDef*%
G36*
G01*
X153925000Y-92437500D02*
X153925000Y-91962500D01*
G75*
G02*
X154162500Y-91725000I237500J0D01*
G01*
X154762500Y-91725000D01*
G75*
G02*
X155000000Y-91962500I0J-237500D01*
G01*
X155000000Y-92437500D01*
G75*
G02*
X154762500Y-92675000I-237500J0D01*
G01*
X154162500Y-92675000D01*
G75*
G02*
X153925000Y-92437500I0J237500D01*
G01*
G37*
%TD.AperFunction*%
%TO.P,C2,1*%
%TO.N,+3V3*%
%TA.AperFunction,SMDPad,CuDef*%
G36*
G01*
X152200000Y-92437500D02*
X152200000Y-91962500D01*
G75*
G02*
X152437500Y-91725000I237500J0D01*
G01*
X153037500Y-91725000D01*
G75*
G02*
X153275000Y-91962500I0J-237500D01*
G01*
X153275000Y-92437500D01*
G75*
G02*
X153037500Y-92675000I-237500J0D01*
G01*
X152437500Y-92675000D01*
G75*
G02*
X152200000Y-92437500I0J237500D01*
G01*
G37*
%TD.AperFunction*%
%TD*%
%TO.P,C1,2*%
%TO.N,GND*%
%TA.AperFunction,SMDPad,CuDef*%
G36*
G01*
X154100000Y-90675000D02*
X154100000Y-89725000D01*
G75*
G02*
X154350000Y-89475000I250000J0D01*
G01*
X154850000Y-89475000D01*
G75*
G02*
X155100000Y-89725000I0J-250000D01*
G01*
X155100000Y-90675000D01*
G75*
G02*
X154850000Y-90925000I-250000J0D01*
G01*
X154350000Y-90925000D01*
G75*
G02*
X154100000Y-90675000I0J250000D01*
G01*
G37*
%TD.AperFunction*%
%TO.P,C1,1*%
%TO.N,+3V3*%
%TA.AperFunction,SMDPad,CuDef*%
G36*
G01*
X152200000Y-90675000D02*
X152200000Y-89725000D01*
G75*
G02*
X152450000Y-89475000I250000J0D01*
G01*
X152950000Y-89475000D01*
G75*
G02*
X153200000Y-89725000I0J-250000D01*
G01*
X153200000Y-90675000D01*
G75*
G02*
X152950000Y-90925000I-250000J0D01*
G01*
X152450000Y-90925000D01*
G75*
G02*
X152200000Y-90675000I0J250000D01*
G01*
G37*
%TD.AperFunction*%
%TD*%
D30*
%TO.N,*%
X133300000Y-91300000D03*
X133300000Y-93500000D03*
%TO.N,GND*%
X134800000Y-89300000D03*
X136300000Y-89300000D03*
X131800000Y-89300000D03*
X133300000Y-89300000D03*
X131800000Y-93500000D03*
X131800000Y-91300000D03*
X134200000Y-77700000D03*
D31*
X125600000Y-76700000D03*
D30*
X129100000Y-81100000D03*
X143000000Y-83600000D03*
X126024035Y-85349988D03*
X136300000Y-95500000D03*
X134800000Y-95500000D03*
X133300000Y-95500000D03*
X131800000Y-95500000D03*
X129700000Y-103500000D03*
X138100000Y-91500000D03*
X132000000Y-112000000D03*
X139220000Y-99230000D03*
X150990000Y-111400000D03*
X165020000Y-85640000D03*
X153360000Y-78100000D03*
X155150000Y-88730000D03*
X146500000Y-105000000D03*
X138397694Y-84897697D03*
%TO.N,+3V3*%
X127800000Y-94700000D03*
X138100000Y-96300000D03*
X156000000Y-115000000D03*
X151000000Y-94500000D03*
X139930000Y-96080000D03*
X151460000Y-90200000D03*
X151460000Y-83010000D03*
X160890000Y-91000000D03*
%TO.N,/5V_USB*%
X132900000Y-87500000D03*
X136700000Y-75200000D03*
%TO.N,/USB-UART-transceiver/3.3V*%
X133100000Y-80100000D03*
X137900000Y-81500000D03*
D32*
%TO.N,/D+*%
X138400000Y-83975000D03*
X131158549Y-83975000D03*
%TO.N,/D-*%
X138400000Y-83025000D03*
X131158549Y-83025000D03*
%TO.N,/DATA_LINE*%
X136350000Y-112620000D03*
%TO.N,Net-(D5-Pad1)*%
X133100000Y-81600000D03*
X127200000Y-75800000D03*
%TO.N,Net-(D6-Pad1)*%
X132200000Y-82500000D03*
X127300000Y-79300000D03*
%TO.N,/Data_line_TTL*%
X163080000Y-113370000D03*
%TO.N,/UART_RX*%
X134400000Y-86600000D03*
%TO.N,/UART_RTS*%
X142686030Y-91604182D03*
%TO.N,/Data_Req_TTL*%
X137900000Y-103100000D03*
%TO.N,/nRST*%
X166600000Y-91530000D03*
X163580000Y-88810000D03*
%TO.N,/DHT22_EN*%
X156470000Y-89000000D03*
X153510000Y-76080000D03*
%TO.N,/UART_TX*%
X135149066Y-86562547D03*
X142689998Y-93800000D03*
%TO.N,Net-(R8-Pad2)*%
X130300000Y-77500000D03*
X135300000Y-80500000D03*
%TO.N,Net-(F1-Pad2)*%
X126900000Y-81500000D03*
X127500000Y-87500000D03*
%TD*%
D33*
%TO.N,GND*%
X134750000Y-77150000D02*
X134200000Y-77700000D01*
X134750000Y-76500000D02*
X134750000Y-77150000D01*
X134887500Y-78500000D02*
X135000000Y-78500000D01*
X135000000Y-78500000D02*
X134200000Y-77700000D01*
D34*
X129100000Y-82400000D02*
X129100000Y-81100000D01*
X142950000Y-83650000D02*
X143000000Y-83600000D01*
X141600000Y-83650000D02*
X142950000Y-83650000D01*
X141512500Y-83562500D02*
X141600000Y-83650000D01*
X139800000Y-83562500D02*
X141512500Y-83562500D01*
D33*
X135800000Y-84250000D02*
X135050000Y-83500000D01*
X136987500Y-84250000D02*
X135800000Y-84250000D01*
D34*
X126024035Y-85149035D02*
X126024035Y-85349988D01*
X125675000Y-84800000D02*
X126024035Y-85149035D01*
D35*
X128100000Y-103500000D02*
X129700000Y-103500000D01*
X126550000Y-95200000D02*
X128050000Y-96700000D01*
X136400000Y-93250000D02*
X135550000Y-92400000D01*
X138100000Y-93250000D02*
X136400000Y-93250000D01*
X138100000Y-93250000D02*
X138100000Y-91500000D01*
X132175000Y-112175000D02*
X132000000Y-112000000D01*
X133200000Y-112175000D02*
X132175000Y-112175000D01*
D33*
X139200000Y-99250000D02*
X139220000Y-99230000D01*
X139200000Y-100650000D02*
X139200000Y-99250000D01*
D35*
X152625000Y-110725000D02*
X152500000Y-110600000D01*
X152625000Y-113400000D02*
X152625000Y-110725000D01*
X151790000Y-110600000D02*
X150990000Y-111400000D01*
X152500000Y-110600000D02*
X151790000Y-110600000D01*
X165000000Y-78537500D02*
X164462500Y-78000000D01*
X165000000Y-80500000D02*
X165000000Y-78537500D01*
X164960000Y-85700000D02*
X165020000Y-85640000D01*
X163550000Y-85700000D02*
X164960000Y-85700000D01*
X149625010Y-85524990D02*
X149450000Y-85700000D01*
X163374990Y-85524990D02*
X149625010Y-85524990D01*
X163550000Y-85700000D02*
X163374990Y-85524990D01*
X153310000Y-78050000D02*
X153360000Y-78100000D01*
X152400000Y-78050000D02*
X153310000Y-78050000D01*
D34*
X154600000Y-89280000D02*
X155150000Y-88730000D01*
X154600000Y-90200000D02*
X154600000Y-89280000D01*
X154462500Y-90337500D02*
X154600000Y-90200000D01*
X154462500Y-92200000D02*
X154462500Y-90337500D01*
X146500000Y-103787500D02*
X146500000Y-105000000D01*
X139962500Y-93250000D02*
X138100000Y-93250000D01*
D33*
X137749997Y-84250000D02*
X138397694Y-84897697D01*
X136987500Y-84250000D02*
X137749997Y-84250000D01*
D35*
%TO.N,+3V3*%
X129250000Y-94700000D02*
X127800000Y-94700000D01*
X138100000Y-96300000D02*
X138100000Y-95150000D01*
X138100000Y-96300000D02*
X138830000Y-96300000D01*
X139710000Y-96300000D02*
X139930000Y-96080000D01*
X138100000Y-96300000D02*
X139710000Y-96300000D01*
X152275000Y-81525000D02*
X152400000Y-81650000D01*
X150800000Y-81525000D02*
X152275000Y-81525000D01*
X152700000Y-90200000D02*
X151460000Y-90200000D01*
X150800000Y-82350000D02*
X151460000Y-83010000D01*
X150800000Y-81525000D02*
X150800000Y-82350000D01*
X162200000Y-92200000D02*
X160800000Y-92200000D01*
X160800000Y-91090000D02*
X160890000Y-91000000D01*
X160800000Y-92200000D02*
X160800000Y-91090000D01*
D34*
X139930000Y-94955000D02*
X139875000Y-94900000D01*
X139930000Y-96080000D02*
X139930000Y-94955000D01*
X156000000Y-113790699D02*
X156107850Y-113682849D01*
X156000000Y-115000000D02*
X156000000Y-113790699D01*
%TO.N,/5V_USB*%
X136650000Y-78462500D02*
X136612500Y-78500000D01*
X136650000Y-76500000D02*
X136650000Y-78462500D01*
X129100000Y-85600000D02*
X129100000Y-84600000D01*
X131000000Y-87500000D02*
X129100000Y-85600000D01*
X131700000Y-87500000D02*
X131000000Y-87500000D01*
X125249990Y-88700010D02*
X123750000Y-90200000D01*
X130499990Y-88700010D02*
X125249990Y-88700010D01*
X131700000Y-87500000D02*
X130499990Y-88700010D01*
X131700000Y-87500000D02*
X132900000Y-87500000D01*
X136700000Y-76450000D02*
X136650000Y-76500000D01*
X136700000Y-75200000D02*
X136700000Y-76450000D01*
%TO.N,/USB-UART-transceiver/3.3V*%
X133075000Y-75750000D02*
X133075000Y-79250000D01*
X133075000Y-80075000D02*
X133100000Y-80100000D01*
X133075000Y-79250000D02*
X133075000Y-80075000D01*
D35*
%TO.N,/Power_supply_LDO_3V3/Vin*%
X129150000Y-90200000D02*
X129250000Y-90100000D01*
X127050000Y-90200000D02*
X129150000Y-90200000D01*
X127050000Y-90200000D02*
X127050000Y-92800000D01*
X124650000Y-95200000D02*
X124650000Y-94250000D01*
X126100000Y-92800000D02*
X127050000Y-92800000D01*
X124650000Y-94250000D02*
X126100000Y-92800000D01*
%TO.N,/5V_meter*%
X132200000Y-109300000D02*
X131200000Y-109300000D01*
X131200000Y-109300000D02*
X127800000Y-105900000D01*
X127800000Y-105900000D02*
X124900000Y-105900000D01*
X124900000Y-105900000D02*
X123000000Y-104000000D01*
X123000000Y-93550000D02*
X123750000Y-92800000D01*
X123300000Y-103500000D02*
X123000000Y-103200000D01*
X125900000Y-103500000D02*
X123300000Y-103500000D01*
X123000000Y-103200000D02*
X123000000Y-93550000D01*
X123000000Y-104000000D02*
X123000000Y-103200000D01*
X139550000Y-104700000D02*
X139200000Y-104350000D01*
X140800000Y-104700000D02*
X139550000Y-104700000D01*
X138349999Y-105200001D02*
X139200000Y-104350000D01*
X138349999Y-107869257D02*
X138349999Y-105200001D01*
X135644246Y-110575010D02*
X138349999Y-107869257D01*
X132200000Y-109300000D02*
X133475010Y-110575010D01*
X134800000Y-110800000D02*
X134575010Y-110575010D01*
X134800000Y-112175000D02*
X134800000Y-110800000D01*
X134575010Y-110575010D02*
X135644246Y-110575010D01*
X133475010Y-110575010D02*
X134575010Y-110575010D01*
D33*
%TO.N,/D+*%
X138200000Y-83775000D02*
X138400000Y-83975000D01*
X137012500Y-83775000D02*
X138200000Y-83775000D01*
X136987500Y-83750000D02*
X137012500Y-83775000D01*
X130958549Y-83775000D02*
X131158549Y-83975000D01*
X130050000Y-83800000D02*
X130075000Y-83775000D01*
X130050000Y-84600000D02*
X130050000Y-83800000D01*
X130075000Y-83775000D02*
X130958549Y-83775000D01*
X128705469Y-83775000D02*
X130075000Y-83775000D01*
X127397830Y-83775000D02*
X128705469Y-83775000D01*
X127072830Y-83450000D02*
X127397830Y-83775000D01*
X126687501Y-83500000D02*
X126737501Y-83450000D01*
X126737501Y-83450000D02*
X127072830Y-83450000D01*
X125675000Y-83500000D02*
X126687501Y-83500000D01*
%TO.N,/D-*%
X130958549Y-83225000D02*
X131158549Y-83025000D01*
X130050000Y-83200000D02*
X130025000Y-83225000D01*
X130050000Y-82400000D02*
X130050000Y-83200000D01*
X130025000Y-83225000D02*
X130958549Y-83225000D01*
X126687501Y-82850000D02*
X125675000Y-82850000D01*
X127300650Y-82900000D02*
X126737501Y-82900000D01*
X127605651Y-83205001D02*
X127300650Y-82900000D01*
X130044999Y-83205001D02*
X127605651Y-83205001D01*
X126737501Y-82900000D02*
X126687501Y-82850000D01*
X130050000Y-83200000D02*
X130044999Y-83205001D01*
X137012500Y-83225000D02*
X136987500Y-83250000D01*
X138200000Y-83225000D02*
X137012500Y-83225000D01*
X138400000Y-83025000D02*
X138200000Y-83225000D01*
D35*
%TO.N,/DATA_LINE*%
X133175000Y-113850000D02*
X133200000Y-113825000D01*
X133175000Y-115400000D02*
X133175000Y-113850000D01*
X134800000Y-113825000D02*
X133200000Y-113825000D01*
X134915001Y-101654999D02*
X135025000Y-101545000D01*
X128995001Y-101654999D02*
X134915001Y-101654999D01*
X128100000Y-102550000D02*
X128995001Y-101654999D01*
D33*
X135145000Y-113825000D02*
X136350000Y-112620000D01*
X134800000Y-113825000D02*
X135145000Y-113825000D01*
D35*
%TO.N,/DATA_REQ*%
X132540000Y-105300000D02*
X132485000Y-105355000D01*
X137200000Y-105300000D02*
X132540000Y-105300000D01*
X129005000Y-105355000D02*
X128100000Y-104450000D01*
X132485000Y-105355000D02*
X129005000Y-105355000D01*
D33*
%TO.N,Net-(D5-Pad2)*%
X129787500Y-75750000D02*
X131425000Y-75750000D01*
%TO.N,Net-(D5-Pad1)*%
X133112500Y-81612500D02*
X133100000Y-81600000D01*
X133112500Y-82250000D02*
X133112500Y-81612500D01*
X128162500Y-75800000D02*
X128212500Y-75750000D01*
X127200000Y-75800000D02*
X128162500Y-75800000D01*
%TO.N,Net-(D6-Pad2)*%
X129787500Y-79250000D02*
X131425000Y-79250000D01*
%TO.N,Net-(D6-Pad1)*%
X132450000Y-82750000D02*
X132200000Y-82500000D01*
X133112500Y-82750000D02*
X132450000Y-82750000D01*
X128162500Y-79300000D02*
X128212500Y-79250000D01*
X127300000Y-79300000D02*
X128162500Y-79300000D01*
%TO.N,/Data_line_TTL*%
X137703000Y-112522000D02*
X134825000Y-115400000D01*
X141478000Y-112522000D02*
X137703000Y-112522000D01*
D34*
X164500000Y-111950000D02*
X163080000Y-113370000D01*
X164500000Y-110600000D02*
X164500000Y-111950000D01*
X142653001Y-111346999D02*
X141478000Y-112522000D01*
X142653001Y-109607997D02*
X142653001Y-111346999D01*
X145225000Y-107035998D02*
X142653001Y-109607997D01*
X145225000Y-94900000D02*
X145225000Y-107035998D01*
D33*
%TO.N,/UART_RX*%
X134300000Y-86500000D02*
X134400000Y-86600000D01*
X134300000Y-85437500D02*
X134300000Y-86500000D01*
%TO.N,/U0_TXD*%
X166500000Y-110845002D02*
X166500000Y-110600000D01*
X161019981Y-116325021D02*
X166500000Y-110845002D01*
X150361021Y-116325021D02*
X161019981Y-116325021D01*
X146558000Y-112522000D02*
X150361021Y-116325021D01*
D34*
%TO.N,/UART_RTS*%
X141625000Y-91525000D02*
X141700000Y-91450000D01*
X140100000Y-91525000D02*
X141625000Y-91525000D01*
X134900000Y-88000000D02*
X133800000Y-86900000D01*
X133800000Y-86900000D02*
X133800000Y-85437500D01*
D33*
X140100000Y-91525000D02*
X139999990Y-91625010D01*
D34*
X140100000Y-91125000D02*
X136975000Y-88000000D01*
X140100000Y-91525000D02*
X140100000Y-91125000D01*
X136975000Y-88000000D02*
X135000000Y-88000000D01*
X135000000Y-88000000D02*
X134900000Y-88000000D01*
X141999990Y-91749990D02*
X141700000Y-91450000D01*
X142531848Y-91450000D02*
X142686030Y-91604182D01*
X141700000Y-91450000D02*
X142531848Y-91450000D01*
D33*
X144250010Y-93168162D02*
X142686030Y-91604182D01*
X144250010Y-107209990D02*
X144250010Y-93168162D01*
X141478000Y-109982000D02*
X144250010Y-107209990D01*
D35*
%TO.N,/Data_Req_TTL*%
X138450000Y-102550000D02*
X137900000Y-103100000D01*
X139200000Y-102550000D02*
X138450000Y-102550000D01*
D33*
%TO.N,/GPIO4*%
X160500000Y-112000000D02*
X160500000Y-110600000D01*
X156524989Y-115975011D02*
X160500000Y-112000000D01*
X152551011Y-115975011D02*
X156524989Y-115975011D01*
X146558000Y-109982000D02*
X152551011Y-115975011D01*
D34*
%TO.N,/nRST*%
X143700000Y-90500000D02*
X144000000Y-90500000D01*
X146000000Y-91000000D02*
X148000000Y-89000000D01*
X159150000Y-87600000D02*
X159450000Y-87300000D01*
X159150000Y-92200000D02*
X159150000Y-87600000D01*
X159450000Y-87300000D02*
X163550000Y-87300000D01*
D35*
X160500000Y-93550000D02*
X159150000Y-92200000D01*
X160500000Y-95400000D02*
X160500000Y-93550000D01*
D33*
X155440000Y-87300000D02*
X153740000Y-89000000D01*
X159450000Y-87300000D02*
X155440000Y-87300000D01*
D34*
X148000000Y-89000000D02*
X153740000Y-89000000D01*
X166500000Y-91630000D02*
X166600000Y-91530000D01*
X166500000Y-95400000D02*
X166500000Y-91630000D01*
X163580000Y-87330000D02*
X163550000Y-87300000D01*
X163580000Y-88810000D02*
X163580000Y-87330000D01*
X144200000Y-91000000D02*
X143700000Y-90500000D01*
X146000000Y-91000000D02*
X144200000Y-91000000D01*
%TO.N,Net-(Q1-Pad1)*%
X141700000Y-89475000D02*
X141700000Y-89550000D01*
X140100000Y-87875000D02*
X141700000Y-89475000D01*
X140100000Y-87475000D02*
X140100000Y-87875000D01*
D36*
%TO.N,/GPIO0*%
X157475000Y-113400000D02*
X157600000Y-113400000D01*
X158500000Y-112500000D02*
X158500000Y-110600000D01*
X157600000Y-113400000D02*
X158500000Y-112500000D01*
D34*
X153550000Y-87300000D02*
X149450000Y-87300000D01*
X143700000Y-86850000D02*
X143750000Y-86800000D01*
D33*
X143700000Y-86850000D02*
X142974999Y-87575001D01*
D34*
X142974999Y-87575001D02*
X142974999Y-89879999D01*
X144855001Y-88005001D02*
X143700000Y-86850000D01*
X148044999Y-88005001D02*
X144855001Y-88005001D01*
X148750000Y-87300000D02*
X148044999Y-88005001D01*
X149450000Y-87300000D02*
X148750000Y-87300000D01*
D33*
X157475000Y-114450002D02*
X157475000Y-113400000D01*
X156300001Y-115625001D02*
X157475000Y-114450002D01*
X150364999Y-112286765D02*
X153703235Y-115625001D01*
X146039226Y-101499990D02*
X145749990Y-101789226D01*
X142974999Y-89879999D02*
X142974999Y-91120001D01*
X145749990Y-101789226D02*
X145749990Y-102635774D01*
X145749990Y-102635774D02*
X146039226Y-102925010D01*
X150364999Y-111514999D02*
X150364999Y-112286765D01*
X142974999Y-91120001D02*
X143029999Y-91175001D01*
X143029999Y-91175001D02*
X143809301Y-91175001D01*
X146416268Y-102925010D02*
X146416268Y-103074990D01*
X146074988Y-104500010D02*
X145874999Y-104699999D01*
X153703235Y-115625001D02*
X156300001Y-115625001D01*
X146416268Y-101499990D02*
X146039226Y-101499990D01*
X145749990Y-103364226D02*
X145749990Y-104210774D01*
X146039226Y-102925010D02*
X146416268Y-102925010D01*
X146416268Y-103074990D02*
X146039226Y-103074990D01*
X146416268Y-107566268D02*
X150364999Y-111514999D01*
X146416268Y-105625001D02*
X146416268Y-107566268D01*
X146039226Y-103074990D02*
X145749990Y-103364226D01*
X145749990Y-104210774D02*
X146039226Y-104500010D01*
X146199999Y-105625001D02*
X146416268Y-105625001D01*
X146039226Y-104500010D02*
X146074988Y-104500010D01*
X145874999Y-104699999D02*
X145874999Y-105300001D01*
X145874999Y-105300001D02*
X146199999Y-105625001D01*
D34*
X146416268Y-93781968D02*
X145917150Y-93282850D01*
X146416268Y-95883732D02*
X146416268Y-93781968D01*
D33*
X143809301Y-91175001D02*
X145917150Y-93282850D01*
X146416268Y-95883732D02*
X146416268Y-101499990D01*
D34*
%TO.N,/UART_DTR*%
X141675000Y-87800000D02*
X141700000Y-87800000D01*
X140100000Y-86225000D02*
X141675000Y-87800000D01*
X140100000Y-85825000D02*
X140100000Y-86225000D01*
X135800000Y-85898022D02*
X135800000Y-85437500D01*
X136076988Y-86175010D02*
X135800000Y-85898022D01*
X140100000Y-85825000D02*
X139950010Y-85675010D01*
X136523012Y-86175010D02*
X136076988Y-86175010D01*
X136873022Y-85825000D02*
X136523012Y-86175010D01*
X140100000Y-85825000D02*
X136873022Y-85825000D01*
X143325001Y-85174999D02*
X146750000Y-81750000D01*
X140750001Y-85174999D02*
X143325001Y-85174999D01*
X140100000Y-85825000D02*
X140750001Y-85174999D01*
%TO.N,Net-(Q2-Pad1)*%
X142475001Y-90210001D02*
X142475001Y-86675001D01*
X142475001Y-86675001D02*
X141700000Y-85900000D01*
X142410001Y-90275001D02*
X142475001Y-90210001D01*
X140500001Y-90275001D02*
X142410001Y-90275001D01*
X140100000Y-89875000D02*
X140500001Y-90275001D01*
D35*
%TO.N,Net-(Q3-Pad1)*%
X139300000Y-106350000D02*
X139200000Y-106250000D01*
X140800000Y-106350000D02*
X139300000Y-106350000D01*
X141675010Y-105474990D02*
X140800000Y-106350000D01*
X141675010Y-103395012D02*
X141675010Y-105474990D01*
X140800000Y-102520002D02*
X141675010Y-103395012D01*
X140800000Y-102225000D02*
X140800000Y-102520002D01*
%TO.N,Net-(Q4-Pad3)*%
X137349999Y-101749999D02*
X137200000Y-101600000D01*
X139625001Y-101749999D02*
X137349999Y-101749999D01*
X140800000Y-100575000D02*
X139625001Y-101749999D01*
%TO.N,/High_side_SW.sch/VOut*%
X157300000Y-80700000D02*
X157500000Y-80500000D01*
X154400000Y-80700000D02*
X157300000Y-80700000D01*
X157500000Y-78275000D02*
X157775000Y-78000000D01*
X157500000Y-80500000D02*
X157500000Y-78275000D01*
X158650010Y-77124990D02*
X161862490Y-77124990D01*
X161862490Y-77124990D02*
X162737500Y-78000000D01*
X157775000Y-78000000D02*
X158650010Y-77124990D01*
%TO.N,Net-(Q5-Pad1)*%
X150800000Y-77925000D02*
X150800000Y-79875000D01*
X150925000Y-79750000D02*
X150800000Y-79875000D01*
X152400000Y-79750000D02*
X150925000Y-79750000D01*
%TO.N,Net-(Q6-Pad3)*%
X151625000Y-77100000D02*
X150800000Y-76275000D01*
X154400000Y-77100000D02*
X151625000Y-77100000D01*
D34*
%TO.N,/DHT22_EN*%
X156500000Y-89030000D02*
X156470000Y-89000000D01*
X156500000Y-95400000D02*
X156500000Y-89030000D01*
X152470000Y-76080000D02*
X152400000Y-76150000D01*
X153510000Y-76080000D02*
X152470000Y-76080000D01*
D35*
%TO.N,Net-(R5-Pad2)*%
X162500000Y-93550000D02*
X163850000Y-92200000D01*
X162500000Y-95400000D02*
X162500000Y-93550000D01*
D36*
%TO.N,Net-(R6-Pad1)*%
X154275000Y-110825000D02*
X154500000Y-110600000D01*
X154275000Y-113400000D02*
X154275000Y-110825000D01*
D33*
%TO.N,/UART_TX*%
X143750000Y-94000000D02*
X143750000Y-94877764D01*
X134800000Y-86213481D02*
X135149066Y-86562547D01*
X134800000Y-85437500D02*
X134800000Y-86213481D01*
X143399990Y-94724990D02*
X143399990Y-94900000D01*
X142689998Y-94014998D02*
X143399990Y-94724990D01*
X142689998Y-93800000D02*
X142689998Y-94014998D01*
D34*
%TO.N,Net-(R8-Pad2)*%
X131425000Y-77500000D02*
X130300000Y-77500000D01*
D33*
X135300000Y-81562500D02*
X135300000Y-80500000D01*
D35*
%TO.N,/DHT22_DATA*%
X159425000Y-79925000D02*
X160000000Y-80500000D01*
X159425000Y-78000000D02*
X159425000Y-79925000D01*
X165400001Y-106049999D02*
X162500000Y-108950000D01*
X165400001Y-93949999D02*
X165400001Y-106049999D01*
X165770001Y-93579999D02*
X165400001Y-93949999D01*
X165770001Y-85279999D02*
X165770001Y-93579999D01*
X165380001Y-84889999D02*
X165770001Y-85279999D01*
X162500000Y-108950000D02*
X162500000Y-110600000D01*
X164389999Y-84889999D02*
X165380001Y-84889999D01*
X160000000Y-80500000D02*
X164389999Y-84889999D01*
D34*
%TO.N,Net-(F1-Pad2)*%
X125675000Y-82200000D02*
X126000000Y-82200000D01*
X126200000Y-82200000D02*
X126900000Y-81500000D01*
X125675000Y-82200000D02*
X126200000Y-82200000D01*
X127500000Y-87500000D02*
X128900000Y-87500000D01*
D35*
%TO.N,Net-(F2-Pad1)*%
X135000000Y-106650000D02*
X135025000Y-106625000D01*
X135000000Y-109300000D02*
X135000000Y-106650000D01*
D34*
%TO.N,Net-(D7-Pad2)*%
X141525000Y-93262500D02*
X141537500Y-93250000D01*
X141525000Y-94900000D02*
X141525000Y-93262500D01*
%TO.N,Net-(D8-Pad2)*%
X147037500Y-102212500D02*
X146500000Y-102212500D01*
X148250000Y-103425000D02*
X147037500Y-102212500D01*
X148250000Y-103825000D02*
X148250000Y-103425000D01*
%TO.N,Net-(R21-Pad1)*%
X149774999Y-103699999D02*
X148250000Y-102175000D01*
X149774999Y-104774999D02*
X149774999Y-103699999D01*
X151000000Y-106000000D02*
X149774999Y-104774999D01*
%TD*%
D33*
%TO.N,/USB-UART-transceiver/3.3V*%
X142725000Y-82425000D02*
X142466432Y-82425000D01*
X142484869Y-82409869D01*
X142512986Y-82375608D01*
X142533879Y-82336521D01*
X142546745Y-82294108D01*
X142551089Y-82250000D01*
X142550000Y-81831250D01*
X142493750Y-81775000D01*
X141625000Y-81775000D01*
X141625000Y-81795000D01*
X141575000Y-81795000D01*
X141575000Y-81775000D01*
X140706250Y-81775000D01*
X140650000Y-81831250D01*
X140648911Y-82250000D01*
X140653255Y-82294108D01*
X140666121Y-82336521D01*
X140687014Y-82375608D01*
X140715131Y-82409869D01*
X140733568Y-82425000D01*
X140494958Y-82425000D01*
X140496745Y-82419108D01*
X140501089Y-82375000D01*
X140500000Y-81918750D01*
X140443750Y-81862500D01*
X139825000Y-81862500D01*
X139825000Y-81882500D01*
X139775000Y-81882500D01*
X139775000Y-81862500D01*
X139156250Y-81862500D01*
X139100000Y-81918750D01*
X139098911Y-82375000D01*
X139103255Y-82419108D01*
X139105042Y-82425000D01*
X137800000Y-82425000D01*
X137785368Y-82426441D01*
X137771299Y-82430709D01*
X137758332Y-82437640D01*
X137746967Y-82446967D01*
X137737640Y-82458332D01*
X137730709Y-82471299D01*
X137726441Y-82485368D01*
X137725000Y-82500000D01*
X137725000Y-82875000D01*
X137626089Y-82875000D01*
X137625000Y-82831250D01*
X137568750Y-82775000D01*
X137012500Y-82775000D01*
X137012500Y-82795000D01*
X136962500Y-82795000D01*
X136962500Y-82775000D01*
X136942500Y-82775000D01*
X136942500Y-82725000D01*
X136962500Y-82725000D01*
X136962500Y-82275000D01*
X137012500Y-82275000D01*
X137012500Y-82725000D01*
X137568750Y-82725000D01*
X137625000Y-82668750D01*
X137626089Y-82625000D01*
X137621745Y-82580892D01*
X137608879Y-82538479D01*
X137588311Y-82500000D01*
X137608879Y-82461521D01*
X137621745Y-82419108D01*
X137626089Y-82375000D01*
X137625000Y-82331250D01*
X137568750Y-82275000D01*
X137012500Y-82275000D01*
X136962500Y-82275000D01*
X136942500Y-82275000D01*
X136942500Y-82225000D01*
X136962500Y-82225000D01*
X136962500Y-82205000D01*
X137012500Y-82205000D01*
X137012500Y-82225000D01*
X137568750Y-82225000D01*
X137625000Y-82168750D01*
X137626089Y-82125000D01*
X137621745Y-82080892D01*
X137608879Y-82038479D01*
X137587986Y-81999392D01*
X137559869Y-81965131D01*
X137525608Y-81937014D01*
X137486521Y-81916121D01*
X137444108Y-81903255D01*
X137400000Y-81898911D01*
X137275000Y-81899322D01*
X137275000Y-81300000D01*
X139098911Y-81300000D01*
X139100000Y-81756250D01*
X139156250Y-81812500D01*
X139775000Y-81812500D01*
X139775000Y-81131250D01*
X139825000Y-81131250D01*
X139825000Y-81812500D01*
X140443750Y-81812500D01*
X140500000Y-81756250D01*
X140501089Y-81300000D01*
X140496745Y-81255892D01*
X140494958Y-81250000D01*
X140648911Y-81250000D01*
X140650000Y-81668750D01*
X140706250Y-81725000D01*
X141575000Y-81725000D01*
X141575000Y-81081250D01*
X141625000Y-81081250D01*
X141625000Y-81725000D01*
X142493750Y-81725000D01*
X142550000Y-81668750D01*
X142551089Y-81250000D01*
X142546745Y-81205892D01*
X142533879Y-81163479D01*
X142512986Y-81124392D01*
X142484869Y-81090131D01*
X142450608Y-81062014D01*
X142411521Y-81041121D01*
X142369108Y-81028255D01*
X142325000Y-81023911D01*
X141681250Y-81025000D01*
X141625000Y-81081250D01*
X141575000Y-81081250D01*
X141518750Y-81025000D01*
X140875000Y-81023911D01*
X140830892Y-81028255D01*
X140788479Y-81041121D01*
X140749392Y-81062014D01*
X140715131Y-81090131D01*
X140687014Y-81124392D01*
X140666121Y-81163479D01*
X140653255Y-81205892D01*
X140648911Y-81250000D01*
X140494958Y-81250000D01*
X140483879Y-81213479D01*
X140462986Y-81174392D01*
X140434869Y-81140131D01*
X140400608Y-81112014D01*
X140361521Y-81091121D01*
X140319108Y-81078255D01*
X140275000Y-81073911D01*
X139881250Y-81075000D01*
X139825000Y-81131250D01*
X139775000Y-81131250D01*
X139718750Y-81075000D01*
X139325000Y-81073911D01*
X139280892Y-81078255D01*
X139238479Y-81091121D01*
X139199392Y-81112014D01*
X139165131Y-81140131D01*
X139137014Y-81174392D01*
X139116121Y-81213479D01*
X139103255Y-81255892D01*
X139098911Y-81300000D01*
X137275000Y-81300000D01*
X137275000Y-80875000D01*
X142725000Y-80875000D01*
X142725000Y-82425000D01*
%TA.AperFunction,Conductor*%
D37*
G36*
X142725000Y-82425000D02*
G01*
X142466432Y-82425000D01*
X142484869Y-82409869D01*
X142512986Y-82375608D01*
X142533879Y-82336521D01*
X142546745Y-82294108D01*
X142551089Y-82250000D01*
X142550000Y-81831250D01*
X142493750Y-81775000D01*
X141625000Y-81775000D01*
X141625000Y-81795000D01*
X141575000Y-81795000D01*
X141575000Y-81775000D01*
X140706250Y-81775000D01*
X140650000Y-81831250D01*
X140648911Y-82250000D01*
X140653255Y-82294108D01*
X140666121Y-82336521D01*
X140687014Y-82375608D01*
X140715131Y-82409869D01*
X140733568Y-82425000D01*
X140494958Y-82425000D01*
X140496745Y-82419108D01*
X140501089Y-82375000D01*
X140500000Y-81918750D01*
X140443750Y-81862500D01*
X139825000Y-81862500D01*
X139825000Y-81882500D01*
X139775000Y-81882500D01*
X139775000Y-81862500D01*
X139156250Y-81862500D01*
X139100000Y-81918750D01*
X139098911Y-82375000D01*
X139103255Y-82419108D01*
X139105042Y-82425000D01*
X137800000Y-82425000D01*
X137785368Y-82426441D01*
X137771299Y-82430709D01*
X137758332Y-82437640D01*
X137746967Y-82446967D01*
X137737640Y-82458332D01*
X137730709Y-82471299D01*
X137726441Y-82485368D01*
X137725000Y-82500000D01*
X137725000Y-82875000D01*
X137626089Y-82875000D01*
X137625000Y-82831250D01*
X137568750Y-82775000D01*
X137012500Y-82775000D01*
X137012500Y-82795000D01*
X136962500Y-82795000D01*
X136962500Y-82775000D01*
X136942500Y-82775000D01*
X136942500Y-82725000D01*
X136962500Y-82725000D01*
X136962500Y-82275000D01*
X137012500Y-82275000D01*
X137012500Y-82725000D01*
X137568750Y-82725000D01*
X137625000Y-82668750D01*
X137626089Y-82625000D01*
X137621745Y-82580892D01*
X137608879Y-82538479D01*
X137588311Y-82500000D01*
X137608879Y-82461521D01*
X137621745Y-82419108D01*
X137626089Y-82375000D01*
X137625000Y-82331250D01*
X137568750Y-82275000D01*
X137012500Y-82275000D01*
X136962500Y-82275000D01*
X136942500Y-82275000D01*
X136942500Y-82225000D01*
X136962500Y-82225000D01*
X136962500Y-82205000D01*
X137012500Y-82205000D01*
X137012500Y-82225000D01*
X137568750Y-82225000D01*
X137625000Y-82168750D01*
X137626089Y-82125000D01*
X137621745Y-82080892D01*
X137608879Y-82038479D01*
X137587986Y-81999392D01*
X137559869Y-81965131D01*
X137525608Y-81937014D01*
X137486521Y-81916121D01*
X137444108Y-81903255D01*
X137400000Y-81898911D01*
X137275000Y-81899322D01*
X137275000Y-81300000D01*
X139098911Y-81300000D01*
X139100000Y-81756250D01*
X139156250Y-81812500D01*
X139775000Y-81812500D01*
X139775000Y-81131250D01*
X139825000Y-81131250D01*
X139825000Y-81812500D01*
X140443750Y-81812500D01*
X140500000Y-81756250D01*
X140501089Y-81300000D01*
X140496745Y-81255892D01*
X140494958Y-81250000D01*
X140648911Y-81250000D01*
X140650000Y-81668750D01*
X140706250Y-81725000D01*
X141575000Y-81725000D01*
X141575000Y-81081250D01*
X141625000Y-81081250D01*
X141625000Y-81725000D01*
X142493750Y-81725000D01*
X142550000Y-81668750D01*
X142551089Y-81250000D01*
X142546745Y-81205892D01*
X142533879Y-81163479D01*
X142512986Y-81124392D01*
X142484869Y-81090131D01*
X142450608Y-81062014D01*
X142411521Y-81041121D01*
X142369108Y-81028255D01*
X142325000Y-81023911D01*
X141681250Y-81025000D01*
X141625000Y-81081250D01*
X141575000Y-81081250D01*
X141518750Y-81025000D01*
X140875000Y-81023911D01*
X140830892Y-81028255D01*
X140788479Y-81041121D01*
X140749392Y-81062014D01*
X140715131Y-81090131D01*
X140687014Y-81124392D01*
X140666121Y-81163479D01*
X140653255Y-81205892D01*
X140648911Y-81250000D01*
X140494958Y-81250000D01*
X140483879Y-81213479D01*
X140462986Y-81174392D01*
X140434869Y-81140131D01*
X140400608Y-81112014D01*
X140361521Y-81091121D01*
X140319108Y-81078255D01*
X140275000Y-81073911D01*
X139881250Y-81075000D01*
X139825000Y-81131250D01*
X139775000Y-81131250D01*
X139718750Y-81075000D01*
X139325000Y-81073911D01*
X139280892Y-81078255D01*
X139238479Y-81091121D01*
X139199392Y-81112014D01*
X139165131Y-81140131D01*
X139137014Y-81174392D01*
X139116121Y-81213479D01*
X139103255Y-81255892D01*
X139098911Y-81300000D01*
X137275000Y-81300000D01*
X137275000Y-80875000D01*
X142725000Y-80875000D01*
X142725000Y-82425000D01*
G37*
%TD.AperFunction*%
%TD*%
D33*
%TO.N,/5V_USB*%
X137525000Y-79282295D02*
X136634079Y-81064137D01*
X136633879Y-81063479D01*
X136612986Y-81024392D01*
X136584869Y-80990131D01*
X136550608Y-80962014D01*
X136511521Y-80941121D01*
X136469108Y-80928255D01*
X136425000Y-80923911D01*
X136381250Y-80925000D01*
X136325000Y-80981250D01*
X136325000Y-81537500D01*
X136345000Y-81537500D01*
X136345000Y-81587500D01*
X136325000Y-81587500D01*
X136325000Y-81607500D01*
X136275000Y-81607500D01*
X136275000Y-81587500D01*
X135825000Y-81587500D01*
X135825000Y-81607500D01*
X135775000Y-81607500D01*
X135775000Y-81587500D01*
X135755000Y-81587500D01*
X135755000Y-81537500D01*
X135775000Y-81537500D01*
X135775000Y-80981250D01*
X135825000Y-80981250D01*
X135825000Y-81537500D01*
X136275000Y-81537500D01*
X136275000Y-80981250D01*
X136218750Y-80925000D01*
X136175000Y-80923911D01*
X136130892Y-80928255D01*
X136088479Y-80941121D01*
X136050000Y-80961689D01*
X136011521Y-80941121D01*
X135969108Y-80928255D01*
X135925000Y-80923911D01*
X135881250Y-80925000D01*
X135825000Y-80981250D01*
X135775000Y-80981250D01*
X135718750Y-80925000D01*
X135675000Y-80923911D01*
X135651602Y-80926215D01*
X135727213Y-80850604D01*
X135787403Y-80760523D01*
X135828864Y-80660429D01*
X135850000Y-80554170D01*
X135850000Y-80445830D01*
X135828864Y-80339571D01*
X135787403Y-80239477D01*
X135745483Y-80176739D01*
X135867082Y-79933541D01*
X135872337Y-79919809D01*
X135875000Y-79900000D01*
X135875000Y-79078132D01*
X135887014Y-79100608D01*
X135915131Y-79134869D01*
X135949392Y-79162986D01*
X135988479Y-79183879D01*
X136030892Y-79196745D01*
X136075000Y-79201089D01*
X136531250Y-79200000D01*
X136587500Y-79143750D01*
X136587500Y-78525000D01*
X136637500Y-78525000D01*
X136637500Y-79143750D01*
X136693750Y-79200000D01*
X137150000Y-79201089D01*
X137194108Y-79196745D01*
X137236521Y-79183879D01*
X137275608Y-79162986D01*
X137309869Y-79134869D01*
X137337986Y-79100608D01*
X137358879Y-79061521D01*
X137371745Y-79019108D01*
X137376089Y-78975000D01*
X137375000Y-78581250D01*
X137318750Y-78525000D01*
X136637500Y-78525000D01*
X136587500Y-78525000D01*
X136567500Y-78525000D01*
X136567500Y-78475000D01*
X136587500Y-78475000D01*
X136587500Y-77856250D01*
X136637500Y-77856250D01*
X136637500Y-78475000D01*
X137318750Y-78475000D01*
X137375000Y-78418750D01*
X137376089Y-78025000D01*
X137371745Y-77980892D01*
X137358879Y-77938479D01*
X137337986Y-77899392D01*
X137309869Y-77865131D01*
X137275608Y-77837014D01*
X137236521Y-77816121D01*
X137194108Y-77803255D01*
X137150000Y-77798911D01*
X136693750Y-77800000D01*
X136637500Y-77856250D01*
X136587500Y-77856250D01*
X136531250Y-77800000D01*
X136075000Y-77798911D01*
X136030892Y-77803255D01*
X135988479Y-77816121D01*
X135949392Y-77837014D01*
X135915131Y-77865131D01*
X135887014Y-77899392D01*
X135875000Y-77921868D01*
X135875000Y-77225000D01*
X135923911Y-77225000D01*
X135928255Y-77269108D01*
X135941121Y-77311521D01*
X135962014Y-77350608D01*
X135990131Y-77384869D01*
X136024392Y-77412986D01*
X136063479Y-77433879D01*
X136105892Y-77446745D01*
X136150000Y-77451089D01*
X136568750Y-77450000D01*
X136625000Y-77393750D01*
X136625000Y-76525000D01*
X136675000Y-76525000D01*
X136675000Y-77393750D01*
X136731250Y-77450000D01*
X137150000Y-77451089D01*
X137194108Y-77446745D01*
X137236521Y-77433879D01*
X137275608Y-77412986D01*
X137309869Y-77384869D01*
X137337986Y-77350608D01*
X137358879Y-77311521D01*
X137371745Y-77269108D01*
X137376089Y-77225000D01*
X137375000Y-76581250D01*
X137318750Y-76525000D01*
X136675000Y-76525000D01*
X136625000Y-76525000D01*
X135981250Y-76525000D01*
X135925000Y-76581250D01*
X135923911Y-77225000D01*
X135875000Y-77225000D01*
X135875000Y-75775000D01*
X135923911Y-75775000D01*
X135925000Y-76418750D01*
X135981250Y-76475000D01*
X136625000Y-76475000D01*
X136625000Y-75606250D01*
X136675000Y-75606250D01*
X136675000Y-76475000D01*
X137318750Y-76475000D01*
X137375000Y-76418750D01*
X137376089Y-75775000D01*
X137371745Y-75730892D01*
X137358879Y-75688479D01*
X137337986Y-75649392D01*
X137309869Y-75615131D01*
X137275608Y-75587014D01*
X137236521Y-75566121D01*
X137194108Y-75553255D01*
X137150000Y-75548911D01*
X136731250Y-75550000D01*
X136675000Y-75606250D01*
X136625000Y-75606250D01*
X136568750Y-75550000D01*
X136150000Y-75548911D01*
X136105892Y-75553255D01*
X136063479Y-75566121D01*
X136024392Y-75587014D01*
X135990131Y-75615131D01*
X135962014Y-75649392D01*
X135941121Y-75688479D01*
X135928255Y-75730892D01*
X135923911Y-75775000D01*
X135875000Y-75775000D01*
X135875000Y-74925000D01*
X137525000Y-74925000D01*
X137525000Y-79282295D01*
%TA.AperFunction,Conductor*%
D37*
G36*
X137525000Y-79282295D02*
G01*
X136634079Y-81064137D01*
X136633879Y-81063479D01*
X136612986Y-81024392D01*
X136584869Y-80990131D01*
X136550608Y-80962014D01*
X136511521Y-80941121D01*
X136469108Y-80928255D01*
X136425000Y-80923911D01*
X136381250Y-80925000D01*
X136325000Y-80981250D01*
X136325000Y-81537500D01*
X136345000Y-81537500D01*
X136345000Y-81587500D01*
X136325000Y-81587500D01*
X136325000Y-81607500D01*
X136275000Y-81607500D01*
X136275000Y-81587500D01*
X135825000Y-81587500D01*
X135825000Y-81607500D01*
X135775000Y-81607500D01*
X135775000Y-81587500D01*
X135755000Y-81587500D01*
X135755000Y-81537500D01*
X135775000Y-81537500D01*
X135775000Y-80981250D01*
X135825000Y-80981250D01*
X135825000Y-81537500D01*
X136275000Y-81537500D01*
X136275000Y-80981250D01*
X136218750Y-80925000D01*
X136175000Y-80923911D01*
X136130892Y-80928255D01*
X136088479Y-80941121D01*
X136050000Y-80961689D01*
X136011521Y-80941121D01*
X135969108Y-80928255D01*
X135925000Y-80923911D01*
X135881250Y-80925000D01*
X135825000Y-80981250D01*
X135775000Y-80981250D01*
X135718750Y-80925000D01*
X135675000Y-80923911D01*
X135651602Y-80926215D01*
X135727213Y-80850604D01*
X135787403Y-80760523D01*
X135828864Y-80660429D01*
X135850000Y-80554170D01*
X135850000Y-80445830D01*
X135828864Y-80339571D01*
X135787403Y-80239477D01*
X135745483Y-80176739D01*
X135867082Y-79933541D01*
X135872337Y-79919809D01*
X135875000Y-79900000D01*
X135875000Y-79078132D01*
X135887014Y-79100608D01*
X135915131Y-79134869D01*
X135949392Y-79162986D01*
X135988479Y-79183879D01*
X136030892Y-79196745D01*
X136075000Y-79201089D01*
X136531250Y-79200000D01*
X136587500Y-79143750D01*
X136587500Y-78525000D01*
X136637500Y-78525000D01*
X136637500Y-79143750D01*
X136693750Y-79200000D01*
X137150000Y-79201089D01*
X137194108Y-79196745D01*
X137236521Y-79183879D01*
X137275608Y-79162986D01*
X137309869Y-79134869D01*
X137337986Y-79100608D01*
X137358879Y-79061521D01*
X137371745Y-79019108D01*
X137376089Y-78975000D01*
X137375000Y-78581250D01*
X137318750Y-78525000D01*
X136637500Y-78525000D01*
X136587500Y-78525000D01*
X136567500Y-78525000D01*
X136567500Y-78475000D01*
X136587500Y-78475000D01*
X136587500Y-77856250D01*
X136637500Y-77856250D01*
X136637500Y-78475000D01*
X137318750Y-78475000D01*
X137375000Y-78418750D01*
X137376089Y-78025000D01*
X137371745Y-77980892D01*
X137358879Y-77938479D01*
X137337986Y-77899392D01*
X137309869Y-77865131D01*
X137275608Y-77837014D01*
X137236521Y-77816121D01*
X137194108Y-77803255D01*
X137150000Y-77798911D01*
X136693750Y-77800000D01*
X136637500Y-77856250D01*
X136587500Y-77856250D01*
X136531250Y-77800000D01*
X136075000Y-77798911D01*
X136030892Y-77803255D01*
X135988479Y-77816121D01*
X135949392Y-77837014D01*
X135915131Y-77865131D01*
X135887014Y-77899392D01*
X135875000Y-77921868D01*
X135875000Y-77225000D01*
X135923911Y-77225000D01*
X135928255Y-77269108D01*
X135941121Y-77311521D01*
X135962014Y-77350608D01*
X135990131Y-77384869D01*
X136024392Y-77412986D01*
X136063479Y-77433879D01*
X136105892Y-77446745D01*
X136150000Y-77451089D01*
X136568750Y-77450000D01*
X136625000Y-77393750D01*
X136625000Y-76525000D01*
X136675000Y-76525000D01*
X136675000Y-77393750D01*
X136731250Y-77450000D01*
X137150000Y-77451089D01*
X137194108Y-77446745D01*
X137236521Y-77433879D01*
X137275608Y-77412986D01*
X137309869Y-77384869D01*
X137337986Y-77350608D01*
X137358879Y-77311521D01*
X137371745Y-77269108D01*
X137376089Y-77225000D01*
X137375000Y-76581250D01*
X137318750Y-76525000D01*
X136675000Y-76525000D01*
X136625000Y-76525000D01*
X135981250Y-76525000D01*
X135925000Y-76581250D01*
X135923911Y-77225000D01*
X135875000Y-77225000D01*
X135875000Y-75775000D01*
X135923911Y-75775000D01*
X135925000Y-76418750D01*
X135981250Y-76475000D01*
X136625000Y-76475000D01*
X136625000Y-75606250D01*
X136675000Y-75606250D01*
X136675000Y-76475000D01*
X137318750Y-76475000D01*
X137375000Y-76418750D01*
X137376089Y-75775000D01*
X137371745Y-75730892D01*
X137358879Y-75688479D01*
X137337986Y-75649392D01*
X137309869Y-75615131D01*
X137275608Y-75587014D01*
X137236521Y-75566121D01*
X137194108Y-75553255D01*
X137150000Y-75548911D01*
X136731250Y-75550000D01*
X136675000Y-75606250D01*
X136625000Y-75606250D01*
X136568750Y-75550000D01*
X136150000Y-75548911D01*
X136105892Y-75553255D01*
X136063479Y-75566121D01*
X136024392Y-75587014D01*
X135990131Y-75615131D01*
X135962014Y-75649392D01*
X135941121Y-75688479D01*
X135928255Y-75730892D01*
X135923911Y-75775000D01*
X135875000Y-75775000D01*
X135875000Y-74925000D01*
X137525000Y-74925000D01*
X137525000Y-79282295D01*
G37*
%TD.AperFunction*%
%TD*%
D33*
%TO.N,GND*%
X126025000Y-78825000D02*
X123975000Y-78825000D01*
X123975000Y-78536057D01*
X123978255Y-78569108D01*
X123991121Y-78611521D01*
X124012014Y-78650608D01*
X124040131Y-78684869D01*
X124074392Y-78712986D01*
X124113479Y-78733879D01*
X124155892Y-78746745D01*
X124200000Y-78751089D01*
X124618750Y-78750000D01*
X124675000Y-78693750D01*
X124675000Y-77825000D01*
X124725000Y-77825000D01*
X124725000Y-78693750D01*
X124781250Y-78750000D01*
X125200000Y-78751089D01*
X125244108Y-78746745D01*
X125286521Y-78733879D01*
X125325608Y-78712986D01*
X125359869Y-78684869D01*
X125387986Y-78650608D01*
X125408879Y-78611521D01*
X125421745Y-78569108D01*
X125426089Y-78525000D01*
X125425000Y-77881250D01*
X125368750Y-77825000D01*
X124725000Y-77825000D01*
X124675000Y-77825000D01*
X124655000Y-77825000D01*
X124655000Y-77775000D01*
X124675000Y-77775000D01*
X124675000Y-76906250D01*
X124725000Y-76906250D01*
X124725000Y-77775000D01*
X125368750Y-77775000D01*
X125425000Y-77718750D01*
X125426089Y-77075000D01*
X125421745Y-77030892D01*
X125408879Y-76988479D01*
X125387986Y-76949392D01*
X125359869Y-76915131D01*
X125325608Y-76887014D01*
X125286521Y-76866121D01*
X125244108Y-76853255D01*
X125200000Y-76848911D01*
X124781250Y-76850000D01*
X124725000Y-76906250D01*
X124675000Y-76906250D01*
X124618750Y-76850000D01*
X124200000Y-76848911D01*
X124155892Y-76853255D01*
X124113479Y-76866121D01*
X124074392Y-76887014D01*
X124040131Y-76915131D01*
X124012014Y-76949392D01*
X123991121Y-76988479D01*
X123978255Y-77030892D01*
X123975000Y-77063943D01*
X123975000Y-76378132D01*
X123987014Y-76400608D01*
X124015131Y-76434869D01*
X124049392Y-76462986D01*
X124088479Y-76483879D01*
X124130892Y-76496745D01*
X124175000Y-76501089D01*
X124493750Y-76500000D01*
X124550000Y-76443750D01*
X124550000Y-75825000D01*
X124600000Y-75825000D01*
X124600000Y-76443750D01*
X124656250Y-76500000D01*
X124975000Y-76501089D01*
X125019108Y-76496745D01*
X125061521Y-76483879D01*
X125100608Y-76462986D01*
X125134869Y-76434869D01*
X125162986Y-76400608D01*
X125183879Y-76361521D01*
X125196745Y-76319108D01*
X125201089Y-76275000D01*
X125200000Y-75881250D01*
X125143750Y-75825000D01*
X124600000Y-75825000D01*
X124550000Y-75825000D01*
X124530000Y-75825000D01*
X124530000Y-75775000D01*
X124550000Y-75775000D01*
X124550000Y-75156250D01*
X124600000Y-75156250D01*
X124600000Y-75775000D01*
X125143750Y-75775000D01*
X125200000Y-75718750D01*
X125201089Y-75325000D01*
X125196745Y-75280892D01*
X125183879Y-75238479D01*
X125162986Y-75199392D01*
X125134869Y-75165131D01*
X125100608Y-75137014D01*
X125061521Y-75116121D01*
X125019108Y-75103255D01*
X124975000Y-75098911D01*
X124656250Y-75100000D01*
X124600000Y-75156250D01*
X124550000Y-75156250D01*
X124493750Y-75100000D01*
X124175000Y-75098911D01*
X124130892Y-75103255D01*
X124088479Y-75116121D01*
X124049392Y-75137014D01*
X124015131Y-75165131D01*
X123987014Y-75199392D01*
X123975000Y-75221868D01*
X123975000Y-75025000D01*
X126025000Y-75025000D01*
X126025000Y-78825000D01*
%TA.AperFunction,Conductor*%
D37*
G36*
X126025000Y-78825000D02*
G01*
X123975000Y-78825000D01*
X123975000Y-78536057D01*
X123978255Y-78569108D01*
X123991121Y-78611521D01*
X124012014Y-78650608D01*
X124040131Y-78684869D01*
X124074392Y-78712986D01*
X124113479Y-78733879D01*
X124155892Y-78746745D01*
X124200000Y-78751089D01*
X124618750Y-78750000D01*
X124675000Y-78693750D01*
X124675000Y-77825000D01*
X124725000Y-77825000D01*
X124725000Y-78693750D01*
X124781250Y-78750000D01*
X125200000Y-78751089D01*
X125244108Y-78746745D01*
X125286521Y-78733879D01*
X125325608Y-78712986D01*
X125359869Y-78684869D01*
X125387986Y-78650608D01*
X125408879Y-78611521D01*
X125421745Y-78569108D01*
X125426089Y-78525000D01*
X125425000Y-77881250D01*
X125368750Y-77825000D01*
X124725000Y-77825000D01*
X124675000Y-77825000D01*
X124655000Y-77825000D01*
X124655000Y-77775000D01*
X124675000Y-77775000D01*
X124675000Y-76906250D01*
X124725000Y-76906250D01*
X124725000Y-77775000D01*
X125368750Y-77775000D01*
X125425000Y-77718750D01*
X125426089Y-77075000D01*
X125421745Y-77030892D01*
X125408879Y-76988479D01*
X125387986Y-76949392D01*
X125359869Y-76915131D01*
X125325608Y-76887014D01*
X125286521Y-76866121D01*
X125244108Y-76853255D01*
X125200000Y-76848911D01*
X124781250Y-76850000D01*
X124725000Y-76906250D01*
X124675000Y-76906250D01*
X124618750Y-76850000D01*
X124200000Y-76848911D01*
X124155892Y-76853255D01*
X124113479Y-76866121D01*
X124074392Y-76887014D01*
X124040131Y-76915131D01*
X124012014Y-76949392D01*
X123991121Y-76988479D01*
X123978255Y-77030892D01*
X123975000Y-77063943D01*
X123975000Y-76378132D01*
X123987014Y-76400608D01*
X124015131Y-76434869D01*
X124049392Y-76462986D01*
X124088479Y-76483879D01*
X124130892Y-76496745D01*
X124175000Y-76501089D01*
X124493750Y-76500000D01*
X124550000Y-76443750D01*
X124550000Y-75825000D01*
X124600000Y-75825000D01*
X124600000Y-76443750D01*
X124656250Y-76500000D01*
X124975000Y-76501089D01*
X125019108Y-76496745D01*
X125061521Y-76483879D01*
X125100608Y-76462986D01*
X125134869Y-76434869D01*
X125162986Y-76400608D01*
X125183879Y-76361521D01*
X125196745Y-76319108D01*
X125201089Y-76275000D01*
X125200000Y-75881250D01*
X125143750Y-75825000D01*
X124600000Y-75825000D01*
X124550000Y-75825000D01*
X124530000Y-75825000D01*
X124530000Y-75775000D01*
X124550000Y-75775000D01*
X124550000Y-75156250D01*
X124600000Y-75156250D01*
X124600000Y-75775000D01*
X125143750Y-75775000D01*
X125200000Y-75718750D01*
X125201089Y-75325000D01*
X125196745Y-75280892D01*
X125183879Y-75238479D01*
X125162986Y-75199392D01*
X125134869Y-75165131D01*
X125100608Y-75137014D01*
X125061521Y-75116121D01*
X125019108Y-75103255D01*
X124975000Y-75098911D01*
X124656250Y-75100000D01*
X124600000Y-75156250D01*
X124550000Y-75156250D01*
X124493750Y-75100000D01*
X124175000Y-75098911D01*
X124130892Y-75103255D01*
X124088479Y-75116121D01*
X124049392Y-75137014D01*
X124015131Y-75165131D01*
X123987014Y-75199392D01*
X123975000Y-75221868D01*
X123975000Y-75025000D01*
X126025000Y-75025000D01*
X126025000Y-78825000D01*
G37*
%TD.AperFunction*%
%TD*%
D33*
%TO.N,Earth*%
X123425000Y-75123326D02*
X123411521Y-75116121D01*
X123369108Y-75103255D01*
X123325000Y-75098911D01*
X123006250Y-75100000D01*
X122950000Y-75156250D01*
X122950000Y-75775000D01*
X122970000Y-75775000D01*
X122970000Y-75825000D01*
X122950000Y-75825000D01*
X122950000Y-76443750D01*
X123006250Y-76500000D01*
X123325000Y-76501089D01*
X123369108Y-76496745D01*
X123411521Y-76483879D01*
X123425000Y-76476674D01*
X123425000Y-76886689D01*
X123386521Y-76866121D01*
X123344108Y-76853255D01*
X123300000Y-76848911D01*
X122881250Y-76850000D01*
X122825000Y-76906250D01*
X122825000Y-77775000D01*
X122845000Y-77775000D01*
X122845000Y-77825000D01*
X122825000Y-77825000D01*
X122825000Y-78693750D01*
X122881250Y-78750000D01*
X123300000Y-78751089D01*
X123344108Y-78746745D01*
X123386521Y-78733879D01*
X123425000Y-78713311D01*
X123425000Y-79400000D01*
X123426441Y-79414632D01*
X123430709Y-79428701D01*
X123437640Y-79441668D01*
X123446967Y-79453033D01*
X123458332Y-79462360D01*
X123471299Y-79469291D01*
X123485368Y-79473559D01*
X123500000Y-79475000D01*
X124526373Y-79475000D01*
X124523911Y-79500000D01*
X124525000Y-80218750D01*
X124581250Y-80275000D01*
X125425000Y-80275000D01*
X125425000Y-80255000D01*
X125475000Y-80255000D01*
X125475000Y-80275000D01*
X125495000Y-80275000D01*
X125495000Y-80325000D01*
X125475000Y-80325000D01*
X125475000Y-80345000D01*
X125425000Y-80345000D01*
X125425000Y-80325000D01*
X124581250Y-80325000D01*
X124525000Y-80381250D01*
X124523911Y-81100000D01*
X124528255Y-81144108D01*
X124541121Y-81186521D01*
X124561689Y-81225000D01*
X124200000Y-81225000D01*
X124185368Y-81226441D01*
X124171299Y-81230709D01*
X124158332Y-81237640D01*
X124149112Y-81245207D01*
X124137986Y-81224392D01*
X124109869Y-81190131D01*
X124075608Y-81162014D01*
X124036521Y-81141121D01*
X123994108Y-81128255D01*
X123950000Y-81123911D01*
X123081250Y-81125000D01*
X123025000Y-81181250D01*
X123025000Y-82275000D01*
X123045000Y-82275000D01*
X123045000Y-82325000D01*
X123025000Y-82325000D01*
X123025000Y-83418750D01*
X123081250Y-83475000D01*
X123950000Y-83476089D01*
X123994108Y-83471745D01*
X124036521Y-83458879D01*
X124075608Y-83437986D01*
X124109869Y-83409869D01*
X124125000Y-83391432D01*
X124125000Y-83608568D01*
X124109869Y-83590131D01*
X124075608Y-83562014D01*
X124036521Y-83541121D01*
X123994108Y-83528255D01*
X123950000Y-83523911D01*
X123081250Y-83525000D01*
X123025000Y-83581250D01*
X123025000Y-84675000D01*
X123045000Y-84675000D01*
X123045000Y-84725000D01*
X123025000Y-84725000D01*
X123025000Y-85818750D01*
X123081250Y-85875000D01*
X123950000Y-85876089D01*
X123994108Y-85871745D01*
X124036521Y-85858879D01*
X124075608Y-85837986D01*
X124109869Y-85809869D01*
X124137986Y-85775608D01*
X124149112Y-85754793D01*
X124158332Y-85762360D01*
X124171299Y-85769291D01*
X124185368Y-85773559D01*
X124200000Y-85775000D01*
X124561689Y-85775000D01*
X124541121Y-85813479D01*
X124528255Y-85855892D01*
X124523911Y-85900000D01*
X124525000Y-86618750D01*
X124581250Y-86675000D01*
X125425000Y-86675000D01*
X125425000Y-86655000D01*
X125475000Y-86655000D01*
X125475000Y-86675000D01*
X125495000Y-86675000D01*
X125495000Y-86725000D01*
X125475000Y-86725000D01*
X125475000Y-86745000D01*
X125425000Y-86745000D01*
X125425000Y-86725000D01*
X124581250Y-86725000D01*
X124525000Y-86781250D01*
X124523911Y-87500000D01*
X124528255Y-87544108D01*
X124541121Y-87586521D01*
X124562014Y-87625608D01*
X124590131Y-87659869D01*
X124624392Y-87687986D01*
X124663479Y-87708879D01*
X124705892Y-87721745D01*
X124738943Y-87725000D01*
X122025000Y-87725000D01*
X122025000Y-87051998D01*
X122074868Y-87154224D01*
X122155025Y-87259620D01*
X122254203Y-87347353D01*
X122368591Y-87414052D01*
X122493794Y-87457153D01*
X122625000Y-87475000D01*
X122975000Y-87475000D01*
X122975000Y-86825000D01*
X123025000Y-86825000D01*
X123025000Y-87475000D01*
X123375000Y-87475000D01*
X123506206Y-87457153D01*
X123631409Y-87414052D01*
X123745797Y-87347353D01*
X123844975Y-87259620D01*
X123925132Y-87154224D01*
X123983187Y-87035215D01*
X124012321Y-86930213D01*
X123968245Y-86825000D01*
X123025000Y-86825000D01*
X122975000Y-86825000D01*
X122955000Y-86825000D01*
X122955000Y-86775000D01*
X122975000Y-86775000D01*
X122975000Y-86125000D01*
X123025000Y-86125000D01*
X123025000Y-86775000D01*
X123968245Y-86775000D01*
X124012321Y-86669787D01*
X123983187Y-86564785D01*
X123925132Y-86445776D01*
X123844975Y-86340380D01*
X123745797Y-86252647D01*
X123631409Y-86185948D01*
X123506206Y-86142847D01*
X123375000Y-86125000D01*
X123025000Y-86125000D01*
X122975000Y-86125000D01*
X122625000Y-86125000D01*
X122493794Y-86142847D01*
X122368591Y-86185948D01*
X122254203Y-86252647D01*
X122155025Y-86340380D01*
X122074868Y-86445776D01*
X122025000Y-86548002D01*
X122025000Y-85873627D01*
X122050000Y-85876089D01*
X122918750Y-85875000D01*
X122975000Y-85818750D01*
X122975000Y-84725000D01*
X122955000Y-84725000D01*
X122955000Y-84675000D01*
X122975000Y-84675000D01*
X122975000Y-83581250D01*
X122918750Y-83525000D01*
X122050000Y-83523911D01*
X122025000Y-83526373D01*
X122025000Y-83473627D01*
X122050000Y-83476089D01*
X122918750Y-83475000D01*
X122975000Y-83418750D01*
X122975000Y-82325000D01*
X122955000Y-82325000D01*
X122955000Y-82275000D01*
X122975000Y-82275000D01*
X122975000Y-81181250D01*
X122918750Y-81125000D01*
X122050000Y-81123911D01*
X122025000Y-81126373D01*
X122025000Y-80451998D01*
X122074868Y-80554224D01*
X122155025Y-80659620D01*
X122254203Y-80747353D01*
X122368591Y-80814052D01*
X122493794Y-80857153D01*
X122625000Y-80875000D01*
X122975000Y-80875000D01*
X122975000Y-80225000D01*
X123025000Y-80225000D01*
X123025000Y-80875000D01*
X123375000Y-80875000D01*
X123506206Y-80857153D01*
X123631409Y-80814052D01*
X123745797Y-80747353D01*
X123844975Y-80659620D01*
X123925132Y-80554224D01*
X123983187Y-80435215D01*
X124012321Y-80330213D01*
X123968245Y-80225000D01*
X123025000Y-80225000D01*
X122975000Y-80225000D01*
X122955000Y-80225000D01*
X122955000Y-80175000D01*
X122975000Y-80175000D01*
X122975000Y-79525000D01*
X123025000Y-79525000D01*
X123025000Y-80175000D01*
X123968245Y-80175000D01*
X124012321Y-80069787D01*
X123983187Y-79964785D01*
X123925132Y-79845776D01*
X123844975Y-79740380D01*
X123745797Y-79652647D01*
X123631409Y-79585948D01*
X123506206Y-79542847D01*
X123375000Y-79525000D01*
X123025000Y-79525000D01*
X122975000Y-79525000D01*
X122625000Y-79525000D01*
X122493794Y-79542847D01*
X122368591Y-79585948D01*
X122254203Y-79652647D01*
X122155025Y-79740380D01*
X122074868Y-79845776D01*
X122025000Y-79948002D01*
X122025000Y-78525000D01*
X122073911Y-78525000D01*
X122078255Y-78569108D01*
X122091121Y-78611521D01*
X122112014Y-78650608D01*
X122140131Y-78684869D01*
X122174392Y-78712986D01*
X122213479Y-78733879D01*
X122255892Y-78746745D01*
X122300000Y-78751089D01*
X122718750Y-78750000D01*
X122775000Y-78693750D01*
X122775000Y-77825000D01*
X122131250Y-77825000D01*
X122075000Y-77881250D01*
X122073911Y-78525000D01*
X122025000Y-78525000D01*
X122025000Y-77075000D01*
X122073911Y-77075000D01*
X122075000Y-77718750D01*
X122131250Y-77775000D01*
X122775000Y-77775000D01*
X122775000Y-76906250D01*
X122718750Y-76850000D01*
X122300000Y-76848911D01*
X122255892Y-76853255D01*
X122213479Y-76866121D01*
X122174392Y-76887014D01*
X122140131Y-76915131D01*
X122112014Y-76949392D01*
X122091121Y-76988479D01*
X122078255Y-77030892D01*
X122073911Y-77075000D01*
X122025000Y-77075000D01*
X122025000Y-76275000D01*
X122298911Y-76275000D01*
X122303255Y-76319108D01*
X122316121Y-76361521D01*
X122337014Y-76400608D01*
X122365131Y-76434869D01*
X122399392Y-76462986D01*
X122438479Y-76483879D01*
X122480892Y-76496745D01*
X122525000Y-76501089D01*
X122843750Y-76500000D01*
X122900000Y-76443750D01*
X122900000Y-75825000D01*
X122356250Y-75825000D01*
X122300000Y-75881250D01*
X122298911Y-76275000D01*
X122025000Y-76275000D01*
X122025000Y-75325000D01*
X122298911Y-75325000D01*
X122300000Y-75718750D01*
X122356250Y-75775000D01*
X122900000Y-75775000D01*
X122900000Y-75156250D01*
X122843750Y-75100000D01*
X122525000Y-75098911D01*
X122480892Y-75103255D01*
X122438479Y-75116121D01*
X122399392Y-75137014D01*
X122365131Y-75165131D01*
X122337014Y-75199392D01*
X122316121Y-75238479D01*
X122303255Y-75280892D01*
X122298911Y-75325000D01*
X122025000Y-75325000D01*
X122025000Y-75025000D01*
X123425000Y-75025000D01*
X123425000Y-75123326D01*
%TA.AperFunction,Conductor*%
D37*
G36*
X123425000Y-75123326D02*
G01*
X123411521Y-75116121D01*
X123369108Y-75103255D01*
X123325000Y-75098911D01*
X123006250Y-75100000D01*
X122950000Y-75156250D01*
X122950000Y-75775000D01*
X122970000Y-75775000D01*
X122970000Y-75825000D01*
X122950000Y-75825000D01*
X122950000Y-76443750D01*
X123006250Y-76500000D01*
X123325000Y-76501089D01*
X123369108Y-76496745D01*
X123411521Y-76483879D01*
X123425000Y-76476674D01*
X123425000Y-76886689D01*
X123386521Y-76866121D01*
X123344108Y-76853255D01*
X123300000Y-76848911D01*
X122881250Y-76850000D01*
X122825000Y-76906250D01*
X122825000Y-77775000D01*
X122845000Y-77775000D01*
X122845000Y-77825000D01*
X122825000Y-77825000D01*
X122825000Y-78693750D01*
X122881250Y-78750000D01*
X123300000Y-78751089D01*
X123344108Y-78746745D01*
X123386521Y-78733879D01*
X123425000Y-78713311D01*
X123425000Y-79400000D01*
X123426441Y-79414632D01*
X123430709Y-79428701D01*
X123437640Y-79441668D01*
X123446967Y-79453033D01*
X123458332Y-79462360D01*
X123471299Y-79469291D01*
X123485368Y-79473559D01*
X123500000Y-79475000D01*
X124526373Y-79475000D01*
X124523911Y-79500000D01*
X124525000Y-80218750D01*
X124581250Y-80275000D01*
X125425000Y-80275000D01*
X125425000Y-80255000D01*
X125475000Y-80255000D01*
X125475000Y-80275000D01*
X125495000Y-80275000D01*
X125495000Y-80325000D01*
X125475000Y-80325000D01*
X125475000Y-80345000D01*
X125425000Y-80345000D01*
X125425000Y-80325000D01*
X124581250Y-80325000D01*
X124525000Y-80381250D01*
X124523911Y-81100000D01*
X124528255Y-81144108D01*
X124541121Y-81186521D01*
X124561689Y-81225000D01*
X124200000Y-81225000D01*
X124185368Y-81226441D01*
X124171299Y-81230709D01*
X124158332Y-81237640D01*
X124149112Y-81245207D01*
X124137986Y-81224392D01*
X124109869Y-81190131D01*
X124075608Y-81162014D01*
X124036521Y-81141121D01*
X123994108Y-81128255D01*
X123950000Y-81123911D01*
X123081250Y-81125000D01*
X123025000Y-81181250D01*
X123025000Y-82275000D01*
X123045000Y-82275000D01*
X123045000Y-82325000D01*
X123025000Y-82325000D01*
X123025000Y-83418750D01*
X123081250Y-83475000D01*
X123950000Y-83476089D01*
X123994108Y-83471745D01*
X124036521Y-83458879D01*
X124075608Y-83437986D01*
X124109869Y-83409869D01*
X124125000Y-83391432D01*
X124125000Y-83608568D01*
X124109869Y-83590131D01*
X124075608Y-83562014D01*
X124036521Y-83541121D01*
X123994108Y-83528255D01*
X123950000Y-83523911D01*
X123081250Y-83525000D01*
X123025000Y-83581250D01*
X123025000Y-84675000D01*
X123045000Y-84675000D01*
X123045000Y-84725000D01*
X123025000Y-84725000D01*
X123025000Y-85818750D01*
X123081250Y-85875000D01*
X123950000Y-85876089D01*
X123994108Y-85871745D01*
X124036521Y-85858879D01*
X124075608Y-85837986D01*
X124109869Y-85809869D01*
X124137986Y-85775608D01*
X124149112Y-85754793D01*
X124158332Y-85762360D01*
X124171299Y-85769291D01*
X124185368Y-85773559D01*
X124200000Y-85775000D01*
X124561689Y-85775000D01*
X124541121Y-85813479D01*
X124528255Y-85855892D01*
X124523911Y-85900000D01*
X124525000Y-86618750D01*
X124581250Y-86675000D01*
X125425000Y-86675000D01*
X125425000Y-86655000D01*
X125475000Y-86655000D01*
X125475000Y-86675000D01*
X125495000Y-86675000D01*
X125495000Y-86725000D01*
X125475000Y-86725000D01*
X125475000Y-86745000D01*
X125425000Y-86745000D01*
X125425000Y-86725000D01*
X124581250Y-86725000D01*
X124525000Y-86781250D01*
X124523911Y-87500000D01*
X124528255Y-87544108D01*
X124541121Y-87586521D01*
X124562014Y-87625608D01*
X124590131Y-87659869D01*
X124624392Y-87687986D01*
X124663479Y-87708879D01*
X124705892Y-87721745D01*
X124738943Y-87725000D01*
X122025000Y-87725000D01*
X122025000Y-87051998D01*
X122074868Y-87154224D01*
X122155025Y-87259620D01*
X122254203Y-87347353D01*
X122368591Y-87414052D01*
X122493794Y-87457153D01*
X122625000Y-87475000D01*
X122975000Y-87475000D01*
X122975000Y-86825000D01*
X123025000Y-86825000D01*
X123025000Y-87475000D01*
X123375000Y-87475000D01*
X123506206Y-87457153D01*
X123631409Y-87414052D01*
X123745797Y-87347353D01*
X123844975Y-87259620D01*
X123925132Y-87154224D01*
X123983187Y-87035215D01*
X124012321Y-86930213D01*
X123968245Y-86825000D01*
X123025000Y-86825000D01*
X122975000Y-86825000D01*
X122955000Y-86825000D01*
X122955000Y-86775000D01*
X122975000Y-86775000D01*
X122975000Y-86125000D01*
X123025000Y-86125000D01*
X123025000Y-86775000D01*
X123968245Y-86775000D01*
X124012321Y-86669787D01*
X123983187Y-86564785D01*
X123925132Y-86445776D01*
X123844975Y-86340380D01*
X123745797Y-86252647D01*
X123631409Y-86185948D01*
X123506206Y-86142847D01*
X123375000Y-86125000D01*
X123025000Y-86125000D01*
X122975000Y-86125000D01*
X122625000Y-86125000D01*
X122493794Y-86142847D01*
X122368591Y-86185948D01*
X122254203Y-86252647D01*
X122155025Y-86340380D01*
X122074868Y-86445776D01*
X122025000Y-86548002D01*
X122025000Y-85873627D01*
X122050000Y-85876089D01*
X122918750Y-85875000D01*
X122975000Y-85818750D01*
X122975000Y-84725000D01*
X122955000Y-84725000D01*
X122955000Y-84675000D01*
X122975000Y-84675000D01*
X122975000Y-83581250D01*
X122918750Y-83525000D01*
X122050000Y-83523911D01*
X122025000Y-83526373D01*
X122025000Y-83473627D01*
X122050000Y-83476089D01*
X122918750Y-83475000D01*
X122975000Y-83418750D01*
X122975000Y-82325000D01*
X122955000Y-82325000D01*
X122955000Y-82275000D01*
X122975000Y-82275000D01*
X122975000Y-81181250D01*
X122918750Y-81125000D01*
X122050000Y-81123911D01*
X122025000Y-81126373D01*
X122025000Y-80451998D01*
X122074868Y-80554224D01*
X122155025Y-80659620D01*
X122254203Y-80747353D01*
X122368591Y-80814052D01*
X122493794Y-80857153D01*
X122625000Y-80875000D01*
X122975000Y-80875000D01*
X122975000Y-80225000D01*
X123025000Y-80225000D01*
X123025000Y-80875000D01*
X123375000Y-80875000D01*
X123506206Y-80857153D01*
X123631409Y-80814052D01*
X123745797Y-80747353D01*
X123844975Y-80659620D01*
X123925132Y-80554224D01*
X123983187Y-80435215D01*
X124012321Y-80330213D01*
X123968245Y-80225000D01*
X123025000Y-80225000D01*
X122975000Y-80225000D01*
X122955000Y-80225000D01*
X122955000Y-80175000D01*
X122975000Y-80175000D01*
X122975000Y-79525000D01*
X123025000Y-79525000D01*
X123025000Y-80175000D01*
X123968245Y-80175000D01*
X124012321Y-80069787D01*
X123983187Y-79964785D01*
X123925132Y-79845776D01*
X123844975Y-79740380D01*
X123745797Y-79652647D01*
X123631409Y-79585948D01*
X123506206Y-79542847D01*
X123375000Y-79525000D01*
X123025000Y-79525000D01*
X122975000Y-79525000D01*
X122625000Y-79525000D01*
X122493794Y-79542847D01*
X122368591Y-79585948D01*
X122254203Y-79652647D01*
X122155025Y-79740380D01*
X122074868Y-79845776D01*
X122025000Y-79948002D01*
X122025000Y-78525000D01*
X122073911Y-78525000D01*
X122078255Y-78569108D01*
X122091121Y-78611521D01*
X122112014Y-78650608D01*
X122140131Y-78684869D01*
X122174392Y-78712986D01*
X122213479Y-78733879D01*
X122255892Y-78746745D01*
X122300000Y-78751089D01*
X122718750Y-78750000D01*
X122775000Y-78693750D01*
X122775000Y-77825000D01*
X122131250Y-77825000D01*
X122075000Y-77881250D01*
X122073911Y-78525000D01*
X122025000Y-78525000D01*
X122025000Y-77075000D01*
X122073911Y-77075000D01*
X122075000Y-77718750D01*
X122131250Y-77775000D01*
X122775000Y-77775000D01*
X122775000Y-76906250D01*
X122718750Y-76850000D01*
X122300000Y-76848911D01*
X122255892Y-76853255D01*
X122213479Y-76866121D01*
X122174392Y-76887014D01*
X122140131Y-76915131D01*
X122112014Y-76949392D01*
X122091121Y-76988479D01*
X122078255Y-77030892D01*
X122073911Y-77075000D01*
X122025000Y-77075000D01*
X122025000Y-76275000D01*
X122298911Y-76275000D01*
X122303255Y-76319108D01*
X122316121Y-76361521D01*
X122337014Y-76400608D01*
X122365131Y-76434869D01*
X122399392Y-76462986D01*
X122438479Y-76483879D01*
X122480892Y-76496745D01*
X122525000Y-76501089D01*
X122843750Y-76500000D01*
X122900000Y-76443750D01*
X122900000Y-75825000D01*
X122356250Y-75825000D01*
X122300000Y-75881250D01*
X122298911Y-76275000D01*
X122025000Y-76275000D01*
X122025000Y-75325000D01*
X122298911Y-75325000D01*
X122300000Y-75718750D01*
X122356250Y-75775000D01*
X122900000Y-75775000D01*
X122900000Y-75156250D01*
X122843750Y-75100000D01*
X122525000Y-75098911D01*
X122480892Y-75103255D01*
X122438479Y-75116121D01*
X122399392Y-75137014D01*
X122365131Y-75165131D01*
X122337014Y-75199392D01*
X122316121Y-75238479D01*
X122303255Y-75280892D01*
X122298911Y-75325000D01*
X122025000Y-75325000D01*
X122025000Y-75025000D01*
X123425000Y-75025000D01*
X123425000Y-75123326D01*
G37*
%TD.AperFunction*%
%TD*%
D33*
%TO.N,GND*%
X136725000Y-97425000D02*
X128075000Y-97425000D01*
X128075000Y-95875000D01*
X130500000Y-95875000D01*
X130514632Y-95873559D01*
X130528701Y-95869291D01*
X130541668Y-95862360D01*
X130553033Y-95853033D01*
X130562360Y-95841668D01*
X130569291Y-95828701D01*
X130573559Y-95814632D01*
X130575000Y-95800000D01*
X130575000Y-93700000D01*
X130573559Y-93685368D01*
X130569291Y-93671299D01*
X130562360Y-93658332D01*
X130553033Y-93646967D01*
X130541668Y-93637640D01*
X130528701Y-93630709D01*
X130514632Y-93626441D01*
X130500000Y-93625000D01*
X128075000Y-93625000D01*
X128075000Y-93438443D01*
X132675000Y-93438443D01*
X132675000Y-93561557D01*
X132699019Y-93682306D01*
X132746132Y-93796048D01*
X132814531Y-93898414D01*
X132901586Y-93985469D01*
X133003952Y-94053868D01*
X133117694Y-94100981D01*
X133238443Y-94125000D01*
X133361557Y-94125000D01*
X133482306Y-94100981D01*
X133596048Y-94053868D01*
X133698414Y-93985469D01*
X133785469Y-93898414D01*
X133853868Y-93796048D01*
X133900981Y-93682306D01*
X133925000Y-93561557D01*
X133925000Y-93438443D01*
X133900981Y-93317694D01*
X133853868Y-93203952D01*
X133785469Y-93101586D01*
X133698414Y-93014531D01*
X133596048Y-92946132D01*
X133482306Y-92899019D01*
X133361557Y-92875000D01*
X133238443Y-92875000D01*
X133117694Y-92899019D01*
X133003952Y-92946132D01*
X132901586Y-93014531D01*
X132814531Y-93101586D01*
X132746132Y-93203952D01*
X132699019Y-93317694D01*
X132675000Y-93438443D01*
X128075000Y-93438443D01*
X128075000Y-91238443D01*
X132675000Y-91238443D01*
X132675000Y-91361557D01*
X132699019Y-91482306D01*
X132746132Y-91596048D01*
X132814531Y-91698414D01*
X132901586Y-91785469D01*
X133003952Y-91853868D01*
X133117694Y-91900981D01*
X133238443Y-91925000D01*
X133361557Y-91925000D01*
X133482306Y-91900981D01*
X133596048Y-91853868D01*
X133698414Y-91785469D01*
X133785469Y-91698414D01*
X133853868Y-91596048D01*
X133900981Y-91482306D01*
X133925000Y-91361557D01*
X133925000Y-91238443D01*
X133900981Y-91117694D01*
X133853868Y-91003952D01*
X133785469Y-90901586D01*
X133698414Y-90814531D01*
X133596048Y-90746132D01*
X133482306Y-90699019D01*
X133361557Y-90675000D01*
X133238443Y-90675000D01*
X133117694Y-90699019D01*
X133003952Y-90746132D01*
X132901586Y-90814531D01*
X132814531Y-90901586D01*
X132746132Y-91003952D01*
X132699019Y-91117694D01*
X132675000Y-91238443D01*
X128075000Y-91238443D01*
X128075000Y-91175000D01*
X130500000Y-91175000D01*
X130514632Y-91173559D01*
X130528701Y-91169291D01*
X130541668Y-91162360D01*
X130553033Y-91153033D01*
X130562360Y-91141668D01*
X130569291Y-91128701D01*
X130573559Y-91114632D01*
X130575000Y-91100000D01*
X130575000Y-89094557D01*
X130578404Y-89094222D01*
X130653804Y-89071350D01*
X130723293Y-89034207D01*
X130784201Y-88984221D01*
X130796727Y-88968958D01*
X130896977Y-88868708D01*
X136725000Y-88776200D01*
X136725000Y-97425000D01*
%TA.AperFunction,Conductor*%
D37*
G36*
X136725000Y-97425000D02*
G01*
X128075000Y-97425000D01*
X128075000Y-95875000D01*
X130500000Y-95875000D01*
X130514632Y-95873559D01*
X130528701Y-95869291D01*
X130541668Y-95862360D01*
X130553033Y-95853033D01*
X130562360Y-95841668D01*
X130569291Y-95828701D01*
X130573559Y-95814632D01*
X130575000Y-95800000D01*
X130575000Y-93700000D01*
X130573559Y-93685368D01*
X130569291Y-93671299D01*
X130562360Y-93658332D01*
X130553033Y-93646967D01*
X130541668Y-93637640D01*
X130528701Y-93630709D01*
X130514632Y-93626441D01*
X130500000Y-93625000D01*
X128075000Y-93625000D01*
X128075000Y-93438443D01*
X132675000Y-93438443D01*
X132675000Y-93561557D01*
X132699019Y-93682306D01*
X132746132Y-93796048D01*
X132814531Y-93898414D01*
X132901586Y-93985469D01*
X133003952Y-94053868D01*
X133117694Y-94100981D01*
X133238443Y-94125000D01*
X133361557Y-94125000D01*
X133482306Y-94100981D01*
X133596048Y-94053868D01*
X133698414Y-93985469D01*
X133785469Y-93898414D01*
X133853868Y-93796048D01*
X133900981Y-93682306D01*
X133925000Y-93561557D01*
X133925000Y-93438443D01*
X133900981Y-93317694D01*
X133853868Y-93203952D01*
X133785469Y-93101586D01*
X133698414Y-93014531D01*
X133596048Y-92946132D01*
X133482306Y-92899019D01*
X133361557Y-92875000D01*
X133238443Y-92875000D01*
X133117694Y-92899019D01*
X133003952Y-92946132D01*
X132901586Y-93014531D01*
X132814531Y-93101586D01*
X132746132Y-93203952D01*
X132699019Y-93317694D01*
X132675000Y-93438443D01*
X128075000Y-93438443D01*
X128075000Y-91238443D01*
X132675000Y-91238443D01*
X132675000Y-91361557D01*
X132699019Y-91482306D01*
X132746132Y-91596048D01*
X132814531Y-91698414D01*
X132901586Y-91785469D01*
X133003952Y-91853868D01*
X133117694Y-91900981D01*
X133238443Y-91925000D01*
X133361557Y-91925000D01*
X133482306Y-91900981D01*
X133596048Y-91853868D01*
X133698414Y-91785469D01*
X133785469Y-91698414D01*
X133853868Y-91596048D01*
X133900981Y-91482306D01*
X133925000Y-91361557D01*
X133925000Y-91238443D01*
X133900981Y-91117694D01*
X133853868Y-91003952D01*
X133785469Y-90901586D01*
X133698414Y-90814531D01*
X133596048Y-90746132D01*
X133482306Y-90699019D01*
X133361557Y-90675000D01*
X133238443Y-90675000D01*
X133117694Y-90699019D01*
X133003952Y-90746132D01*
X132901586Y-90814531D01*
X132814531Y-90901586D01*
X132746132Y-91003952D01*
X132699019Y-91117694D01*
X132675000Y-91238443D01*
X128075000Y-91238443D01*
X128075000Y-91175000D01*
X130500000Y-91175000D01*
X130514632Y-91173559D01*
X130528701Y-91169291D01*
X130541668Y-91162360D01*
X130553033Y-91153033D01*
X130562360Y-91141668D01*
X130569291Y-91128701D01*
X130573559Y-91114632D01*
X130575000Y-91100000D01*
X130575000Y-89094557D01*
X130578404Y-89094222D01*
X130653804Y-89071350D01*
X130723293Y-89034207D01*
X130784201Y-88984221D01*
X130796727Y-88968958D01*
X130896977Y-88868708D01*
X136725000Y-88776200D01*
X136725000Y-97425000D01*
G37*
%TD.AperFunction*%
%TD*%
D33*
%TO.N,+3V3*%
X151978255Y-89430892D02*
X151973911Y-89475000D01*
X151975000Y-90118750D01*
X152031250Y-90175000D01*
X152675000Y-90175000D01*
X152675000Y-90155000D01*
X152725000Y-90155000D01*
X152725000Y-90175000D01*
X152745000Y-90175000D01*
X152745000Y-90225000D01*
X152725000Y-90225000D01*
X152725000Y-91093750D01*
X152781250Y-91150000D01*
X153200000Y-91151089D01*
X153244108Y-91146745D01*
X153286521Y-91133879D01*
X153325608Y-91112986D01*
X153359869Y-91084869D01*
X153387986Y-91050608D01*
X153408879Y-91011521D01*
X153421745Y-90969108D01*
X153425000Y-90936057D01*
X153425000Y-91557032D01*
X153400608Y-91537014D01*
X153361521Y-91516121D01*
X153319108Y-91503255D01*
X153275000Y-91498911D01*
X152818750Y-91500000D01*
X152762500Y-91556250D01*
X152762500Y-92175000D01*
X152782500Y-92175000D01*
X152782500Y-92225000D01*
X152762500Y-92225000D01*
X152762500Y-92843750D01*
X152818750Y-92900000D01*
X153275000Y-92901089D01*
X153319108Y-92896745D01*
X153361521Y-92883879D01*
X153400608Y-92862986D01*
X153425000Y-92842968D01*
X153425000Y-96925000D01*
X150575000Y-96925000D01*
X150575000Y-96650000D01*
X151773911Y-96650000D01*
X151778255Y-96694108D01*
X151791121Y-96736521D01*
X151812014Y-96775608D01*
X151840131Y-96809869D01*
X151874392Y-96837986D01*
X151913479Y-96858879D01*
X151955892Y-96871745D01*
X152000000Y-96876089D01*
X152418750Y-96875000D01*
X152475000Y-96818750D01*
X152475000Y-95425000D01*
X152525000Y-95425000D01*
X152525000Y-96818750D01*
X152581250Y-96875000D01*
X153000000Y-96876089D01*
X153044108Y-96871745D01*
X153086521Y-96858879D01*
X153125608Y-96837986D01*
X153159869Y-96809869D01*
X153187986Y-96775608D01*
X153208879Y-96736521D01*
X153221745Y-96694108D01*
X153226089Y-96650000D01*
X153225000Y-95481250D01*
X153168750Y-95425000D01*
X152525000Y-95425000D01*
X152475000Y-95425000D01*
X151831250Y-95425000D01*
X151775000Y-95481250D01*
X151773911Y-96650000D01*
X150575000Y-96650000D01*
X150575000Y-94150000D01*
X151773911Y-94150000D01*
X151775000Y-95318750D01*
X151831250Y-95375000D01*
X152475000Y-95375000D01*
X152475000Y-93981250D01*
X152525000Y-93981250D01*
X152525000Y-95375000D01*
X153168750Y-95375000D01*
X153225000Y-95318750D01*
X153226089Y-94150000D01*
X153221745Y-94105892D01*
X153208879Y-94063479D01*
X153187986Y-94024392D01*
X153159869Y-93990131D01*
X153125608Y-93962014D01*
X153086521Y-93941121D01*
X153044108Y-93928255D01*
X153000000Y-93923911D01*
X152581250Y-93925000D01*
X152525000Y-93981250D01*
X152475000Y-93981250D01*
X152418750Y-93925000D01*
X152000000Y-93923911D01*
X151955892Y-93928255D01*
X151913479Y-93941121D01*
X151874392Y-93962014D01*
X151840131Y-93990131D01*
X151812014Y-94024392D01*
X151791121Y-94063479D01*
X151778255Y-94105892D01*
X151773911Y-94150000D01*
X150575000Y-94150000D01*
X150575000Y-92675000D01*
X151973911Y-92675000D01*
X151978255Y-92719108D01*
X151991121Y-92761521D01*
X152012014Y-92800608D01*
X152040131Y-92834869D01*
X152074392Y-92862986D01*
X152113479Y-92883879D01*
X152155892Y-92896745D01*
X152200000Y-92901089D01*
X152656250Y-92900000D01*
X152712500Y-92843750D01*
X152712500Y-92225000D01*
X152031250Y-92225000D01*
X151975000Y-92281250D01*
X151973911Y-92675000D01*
X150575000Y-92675000D01*
X150575000Y-91725000D01*
X151973911Y-91725000D01*
X151975000Y-92118750D01*
X152031250Y-92175000D01*
X152712500Y-92175000D01*
X152712500Y-91556250D01*
X152656250Y-91500000D01*
X152200000Y-91498911D01*
X152155892Y-91503255D01*
X152113479Y-91516121D01*
X152074392Y-91537014D01*
X152040131Y-91565131D01*
X152012014Y-91599392D01*
X151991121Y-91638479D01*
X151978255Y-91680892D01*
X151973911Y-91725000D01*
X150575000Y-91725000D01*
X150575000Y-90925000D01*
X151973911Y-90925000D01*
X151978255Y-90969108D01*
X151991121Y-91011521D01*
X152012014Y-91050608D01*
X152040131Y-91084869D01*
X152074392Y-91112986D01*
X152113479Y-91133879D01*
X152155892Y-91146745D01*
X152200000Y-91151089D01*
X152618750Y-91150000D01*
X152675000Y-91093750D01*
X152675000Y-90225000D01*
X152031250Y-90225000D01*
X151975000Y-90281250D01*
X151973911Y-90925000D01*
X150575000Y-90925000D01*
X150575000Y-89400000D01*
X151987626Y-89400000D01*
X151978255Y-89430892D01*
%TA.AperFunction,Conductor*%
D37*
G36*
X151978255Y-89430892D02*
G01*
X151973911Y-89475000D01*
X151975000Y-90118750D01*
X152031250Y-90175000D01*
X152675000Y-90175000D01*
X152675000Y-90155000D01*
X152725000Y-90155000D01*
X152725000Y-90175000D01*
X152745000Y-90175000D01*
X152745000Y-90225000D01*
X152725000Y-90225000D01*
X152725000Y-91093750D01*
X152781250Y-91150000D01*
X153200000Y-91151089D01*
X153244108Y-91146745D01*
X153286521Y-91133879D01*
X153325608Y-91112986D01*
X153359869Y-91084869D01*
X153387986Y-91050608D01*
X153408879Y-91011521D01*
X153421745Y-90969108D01*
X153425000Y-90936057D01*
X153425000Y-91557032D01*
X153400608Y-91537014D01*
X153361521Y-91516121D01*
X153319108Y-91503255D01*
X153275000Y-91498911D01*
X152818750Y-91500000D01*
X152762500Y-91556250D01*
X152762500Y-92175000D01*
X152782500Y-92175000D01*
X152782500Y-92225000D01*
X152762500Y-92225000D01*
X152762500Y-92843750D01*
X152818750Y-92900000D01*
X153275000Y-92901089D01*
X153319108Y-92896745D01*
X153361521Y-92883879D01*
X153400608Y-92862986D01*
X153425000Y-92842968D01*
X153425000Y-96925000D01*
X150575000Y-96925000D01*
X150575000Y-96650000D01*
X151773911Y-96650000D01*
X151778255Y-96694108D01*
X151791121Y-96736521D01*
X151812014Y-96775608D01*
X151840131Y-96809869D01*
X151874392Y-96837986D01*
X151913479Y-96858879D01*
X151955892Y-96871745D01*
X152000000Y-96876089D01*
X152418750Y-96875000D01*
X152475000Y-96818750D01*
X152475000Y-95425000D01*
X152525000Y-95425000D01*
X152525000Y-96818750D01*
X152581250Y-96875000D01*
X153000000Y-96876089D01*
X153044108Y-96871745D01*
X153086521Y-96858879D01*
X153125608Y-96837986D01*
X153159869Y-96809869D01*
X153187986Y-96775608D01*
X153208879Y-96736521D01*
X153221745Y-96694108D01*
X153226089Y-96650000D01*
X153225000Y-95481250D01*
X153168750Y-95425000D01*
X152525000Y-95425000D01*
X152475000Y-95425000D01*
X151831250Y-95425000D01*
X151775000Y-95481250D01*
X151773911Y-96650000D01*
X150575000Y-96650000D01*
X150575000Y-94150000D01*
X151773911Y-94150000D01*
X151775000Y-95318750D01*
X151831250Y-95375000D01*
X152475000Y-95375000D01*
X152475000Y-93981250D01*
X152525000Y-93981250D01*
X152525000Y-95375000D01*
X153168750Y-95375000D01*
X153225000Y-95318750D01*
X153226089Y-94150000D01*
X153221745Y-94105892D01*
X153208879Y-94063479D01*
X153187986Y-94024392D01*
X153159869Y-93990131D01*
X153125608Y-93962014D01*
X153086521Y-93941121D01*
X153044108Y-93928255D01*
X153000000Y-93923911D01*
X152581250Y-93925000D01*
X152525000Y-93981250D01*
X152475000Y-93981250D01*
X152418750Y-93925000D01*
X152000000Y-93923911D01*
X151955892Y-93928255D01*
X151913479Y-93941121D01*
X151874392Y-93962014D01*
X151840131Y-93990131D01*
X151812014Y-94024392D01*
X151791121Y-94063479D01*
X151778255Y-94105892D01*
X151773911Y-94150000D01*
X150575000Y-94150000D01*
X150575000Y-92675000D01*
X151973911Y-92675000D01*
X151978255Y-92719108D01*
X151991121Y-92761521D01*
X152012014Y-92800608D01*
X152040131Y-92834869D01*
X152074392Y-92862986D01*
X152113479Y-92883879D01*
X152155892Y-92896745D01*
X152200000Y-92901089D01*
X152656250Y-92900000D01*
X152712500Y-92843750D01*
X152712500Y-92225000D01*
X152031250Y-92225000D01*
X151975000Y-92281250D01*
X151973911Y-92675000D01*
X150575000Y-92675000D01*
X150575000Y-91725000D01*
X151973911Y-91725000D01*
X151975000Y-92118750D01*
X152031250Y-92175000D01*
X152712500Y-92175000D01*
X152712500Y-91556250D01*
X152656250Y-91500000D01*
X152200000Y-91498911D01*
X152155892Y-91503255D01*
X152113479Y-91516121D01*
X152074392Y-91537014D01*
X152040131Y-91565131D01*
X152012014Y-91599392D01*
X151991121Y-91638479D01*
X151978255Y-91680892D01*
X151973911Y-91725000D01*
X150575000Y-91725000D01*
X150575000Y-90925000D01*
X151973911Y-90925000D01*
X151978255Y-90969108D01*
X151991121Y-91011521D01*
X152012014Y-91050608D01*
X152040131Y-91084869D01*
X152074392Y-91112986D01*
X152113479Y-91133879D01*
X152155892Y-91146745D01*
X152200000Y-91151089D01*
X152618750Y-91150000D01*
X152675000Y-91093750D01*
X152675000Y-90225000D01*
X152031250Y-90225000D01*
X151975000Y-90281250D01*
X151973911Y-90925000D01*
X150575000Y-90925000D01*
X150575000Y-89400000D01*
X151987626Y-89400000D01*
X151978255Y-89430892D01*
G37*
%TD.AperFunction*%
%TD*%
M02*
