M48
; DRILL file {KiCad 5.1.12-1.fc35} date Tue 21 Dec 2021 12:04:59 AM CET
; FORMAT={-:-/ absolute / metric / decimal}
; #@! TF.CreationDate,2021-12-21T00:04:59+01:00
; #@! TF.GenerationSoftware,Kicad,Pcbnew,5.1.12-1.fc35
; #@! TF.FileFunction,Plated,1,4,PTH
FMAT,2
METRIC
T1C0.300
T2C0.400
T3C0.500
T4C0.760
T5C0.800
T6C1.000
%
G90
G05
T1
X126.9Y-81.5
X127.2Y-75.8
X127.3Y-79.3
X127.5Y-87.5
X130.3Y-77.5
X131.159Y-83.025
X131.159Y-83.975
X132.2Y-82.5
X133.1Y-81.6
X134.4Y-86.6
X135.149Y-86.563
X135.3Y-80.5
X136.35Y-112.62
X137.9Y-103.1
X138.4Y-83.025
X138.4Y-83.975
X142.686Y-91.604
X142.69Y-93.8
X153.51Y-76.08
X156.47Y-89.0
X163.08Y-113.37
X163.58Y-88.81
X166.6Y-91.53
T2
X125.6Y-76.7
X126.024Y-85.35
X127.8Y-94.7
X129.1Y-81.1
X129.7Y-103.5
X131.8Y-89.3
X131.8Y-91.3
X131.8Y-93.5
X131.8Y-95.5
X132.0Y-112.0
X132.9Y-87.5
X133.1Y-80.1
X133.3Y-89.3
X133.3Y-91.3
X133.3Y-93.5
X133.3Y-95.5
X134.2Y-77.7
X134.8Y-89.3
X134.8Y-95.5
X136.3Y-89.3
X136.3Y-95.5
X136.7Y-75.2
X137.9Y-81.5
X138.1Y-91.5
X138.1Y-96.3
X138.398Y-84.898
X139.22Y-99.23
X139.93Y-96.08
X143.0Y-83.6
X146.5Y-105.0
X150.99Y-111.4
X151.0Y-94.5
X151.46Y-83.01
X151.46Y-90.2
X153.36Y-78.1
X155.15Y-88.73
X156.0Y-115.0
X160.89Y-91.0
X165.02Y-85.64
T4
X132.485Y-100.275
X132.485Y-102.815
X132.485Y-105.355
X135.025Y-101.545
X135.025Y-104.085
X135.025Y-106.625
T5
X157.5Y-80.5
X160.0Y-80.5
X162.5Y-80.5
X165.0Y-80.5
T6
X141.478Y-109.982
X141.478Y-112.522
X144.018Y-109.982
X144.018Y-112.522
X146.558Y-109.982
X146.558Y-112.522
X146.75Y-76.67
X146.75Y-79.21
X146.75Y-81.75
X146.75Y-84.29
X146.75Y-86.83
T3
G00X123.35Y-80.2
M15
G01X122.65Y-80.2
M16
G05
G00X123.35Y-86.8
M15
G01X122.65Y-86.8
M16
G05
T0
M30
