%TF.GenerationSoftware,KiCad,Pcbnew,5.1.12-1.fc35*%
%TF.CreationDate,2021-12-21T00:05:04+01:00*%
%TF.ProjectId,smartmeterreader,736d6172-746d-4657-9465-727265616465,rev?*%
%TF.SameCoordinates,Original*%
%TF.FileFunction,Legend,Top*%
%TF.FilePolarity,Positive*%
%FSLAX46Y46*%
G04 Gerber Fmt 4.6, Leading zero omitted, Abs format (unit mm)*
G04 Created by KiCad (PCBNEW 5.1.12-1.fc35) date 2021-12-21 00:05:04*
%MOMM*%
%LPD*%
G01*
G04 APERTURE LIST*
%ADD10C,0.150000*%
%ADD11C,0.200000*%
%ADD12C,0.120000*%
%ADD13C,0.100000*%
G04 APERTURE END LIST*
D10*
X160261904Y-89202380D02*
X159928571Y-88726190D01*
X159690476Y-89202380D02*
X159690476Y-88202380D01*
X160071428Y-88202380D01*
X160166666Y-88250000D01*
X160214285Y-88297619D01*
X160261904Y-88392857D01*
X160261904Y-88535714D01*
X160214285Y-88630952D01*
X160166666Y-88678571D01*
X160071428Y-88726190D01*
X159690476Y-88726190D01*
X161071428Y-89154761D02*
X160976190Y-89202380D01*
X160785714Y-89202380D01*
X160690476Y-89154761D01*
X160642857Y-89059523D01*
X160642857Y-88678571D01*
X160690476Y-88583333D01*
X160785714Y-88535714D01*
X160976190Y-88535714D01*
X161071428Y-88583333D01*
X161119047Y-88678571D01*
X161119047Y-88773809D01*
X160642857Y-88869047D01*
X161500000Y-89154761D02*
X161595238Y-89202380D01*
X161785714Y-89202380D01*
X161880952Y-89154761D01*
X161928571Y-89059523D01*
X161928571Y-89011904D01*
X161880952Y-88916666D01*
X161785714Y-88869047D01*
X161642857Y-88869047D01*
X161547619Y-88821428D01*
X161500000Y-88726190D01*
X161500000Y-88678571D01*
X161547619Y-88583333D01*
X161642857Y-88535714D01*
X161785714Y-88535714D01*
X161880952Y-88583333D01*
X162738095Y-89154761D02*
X162642857Y-89202380D01*
X162452380Y-89202380D01*
X162357142Y-89154761D01*
X162309523Y-89059523D01*
X162309523Y-88678571D01*
X162357142Y-88583333D01*
X162452380Y-88535714D01*
X162642857Y-88535714D01*
X162738095Y-88583333D01*
X162785714Y-88678571D01*
X162785714Y-88773809D01*
X162309523Y-88869047D01*
X163071428Y-88535714D02*
X163452380Y-88535714D01*
X163214285Y-88202380D02*
X163214285Y-89059523D01*
X163261904Y-89154761D01*
X163357142Y-89202380D01*
X163452380Y-89202380D01*
X150071428Y-88678571D02*
X149738095Y-88678571D01*
X149738095Y-89202380D02*
X149738095Y-88202380D01*
X150214285Y-88202380D01*
X150738095Y-89202380D02*
X150642857Y-89154761D01*
X150595238Y-89059523D01*
X150595238Y-88202380D01*
X151547619Y-89202380D02*
X151547619Y-88678571D01*
X151500000Y-88583333D01*
X151404761Y-88535714D01*
X151214285Y-88535714D01*
X151119047Y-88583333D01*
X151547619Y-89154761D02*
X151452380Y-89202380D01*
X151214285Y-89202380D01*
X151119047Y-89154761D01*
X151071428Y-89059523D01*
X151071428Y-88964285D01*
X151119047Y-88869047D01*
X151214285Y-88821428D01*
X151452380Y-88821428D01*
X151547619Y-88773809D01*
X151976190Y-89154761D02*
X152071428Y-89202380D01*
X152261904Y-89202380D01*
X152357142Y-89154761D01*
X152404761Y-89059523D01*
X152404761Y-89011904D01*
X152357142Y-88916666D01*
X152261904Y-88869047D01*
X152119047Y-88869047D01*
X152023809Y-88821428D01*
X151976190Y-88726190D01*
X151976190Y-88678571D01*
X152023809Y-88583333D01*
X152119047Y-88535714D01*
X152261904Y-88535714D01*
X152357142Y-88583333D01*
X152833333Y-89202380D02*
X152833333Y-88202380D01*
X153261904Y-89202380D02*
X153261904Y-88678571D01*
X153214285Y-88583333D01*
X153119047Y-88535714D01*
X152976190Y-88535714D01*
X152880952Y-88583333D01*
X152833333Y-88630952D01*
X125809523Y-78702380D02*
X126380952Y-78702380D01*
X126095238Y-79702380D02*
X126095238Y-78702380D01*
X126619047Y-79702380D02*
X127142857Y-79035714D01*
X126619047Y-79035714D02*
X127142857Y-79702380D01*
X126404761Y-76202380D02*
X126071428Y-75726190D01*
X125833333Y-76202380D02*
X125833333Y-75202380D01*
X126214285Y-75202380D01*
X126309523Y-75250000D01*
X126357142Y-75297619D01*
X126404761Y-75392857D01*
X126404761Y-75535714D01*
X126357142Y-75630952D01*
X126309523Y-75678571D01*
X126214285Y-75726190D01*
X125833333Y-75726190D01*
X126738095Y-76202380D02*
X127261904Y-75535714D01*
X126738095Y-75535714D02*
X127261904Y-76202380D01*
D11*
X141250000Y-114000000D02*
X141250000Y-114500000D01*
X141250000Y-114500000D02*
X143750000Y-114500000D01*
X143750000Y-114500000D02*
X143750000Y-114000000D01*
X147000000Y-114500000D02*
X147000000Y-114000000D01*
X144500000Y-114500000D02*
X147000000Y-114500000D01*
X144500000Y-114000000D02*
X144500000Y-114500000D01*
D10*
X145423690Y-114886904D02*
X145880833Y-114886904D01*
X145652261Y-115686904D02*
X145652261Y-114886904D01*
X146261785Y-115686904D02*
X146185595Y-115648809D01*
X146147500Y-115610714D01*
X146109404Y-115534523D01*
X146109404Y-115305952D01*
X146147500Y-115229761D01*
X146185595Y-115191666D01*
X146261785Y-115153571D01*
X146376071Y-115153571D01*
X146452261Y-115191666D01*
X146490357Y-115229761D01*
X146528452Y-115305952D01*
X146528452Y-115534523D01*
X146490357Y-115610714D01*
X146452261Y-115648809D01*
X146376071Y-115686904D01*
X146261785Y-115686904D01*
X145537976Y-117036904D02*
X145537976Y-116503571D01*
X145537976Y-116579761D02*
X145576071Y-116541666D01*
X145652261Y-116503571D01*
X145766547Y-116503571D01*
X145842738Y-116541666D01*
X145880833Y-116617857D01*
X145880833Y-117036904D01*
X145880833Y-116617857D02*
X145918928Y-116541666D01*
X145995119Y-116503571D01*
X146109404Y-116503571D01*
X146185595Y-116541666D01*
X146223690Y-116617857D01*
X146223690Y-117036904D01*
X146604642Y-117036904D02*
X146604642Y-116503571D01*
X146604642Y-116236904D02*
X146566547Y-116275000D01*
X146604642Y-116313095D01*
X146642738Y-116275000D01*
X146604642Y-116236904D01*
X146604642Y-116313095D01*
X147328452Y-116998809D02*
X147252261Y-117036904D01*
X147099880Y-117036904D01*
X147023690Y-116998809D01*
X146985595Y-116960714D01*
X146947500Y-116884523D01*
X146947500Y-116655952D01*
X146985595Y-116579761D01*
X147023690Y-116541666D01*
X147099880Y-116503571D01*
X147252261Y-116503571D01*
X147328452Y-116541666D01*
X147671309Y-117036904D02*
X147671309Y-116503571D01*
X147671309Y-116655952D02*
X147709404Y-116579761D01*
X147747500Y-116541666D01*
X147823690Y-116503571D01*
X147899880Y-116503571D01*
X148280833Y-117036904D02*
X148204642Y-116998809D01*
X148166547Y-116960714D01*
X148128452Y-116884523D01*
X148128452Y-116655952D01*
X148166547Y-116579761D01*
X148204642Y-116541666D01*
X148280833Y-116503571D01*
X148395119Y-116503571D01*
X148471309Y-116541666D01*
X148509404Y-116579761D01*
X148547500Y-116655952D01*
X148547500Y-116884523D01*
X148509404Y-116960714D01*
X148471309Y-116998809D01*
X148395119Y-117036904D01*
X148280833Y-117036904D01*
X149233214Y-116998809D02*
X149157023Y-117036904D01*
X149004642Y-117036904D01*
X148928452Y-116998809D01*
X148890357Y-116960714D01*
X148852261Y-116884523D01*
X148852261Y-116655952D01*
X148890357Y-116579761D01*
X148928452Y-116541666D01*
X149004642Y-116503571D01*
X149157023Y-116503571D01*
X149233214Y-116541666D01*
X149690357Y-117036904D02*
X149614166Y-116998809D01*
X149576071Y-116960714D01*
X149537976Y-116884523D01*
X149537976Y-116655952D01*
X149576071Y-116579761D01*
X149614166Y-116541666D01*
X149690357Y-116503571D01*
X149804642Y-116503571D01*
X149880833Y-116541666D01*
X149918928Y-116579761D01*
X149957023Y-116655952D01*
X149957023Y-116884523D01*
X149918928Y-116960714D01*
X149880833Y-116998809D01*
X149804642Y-117036904D01*
X149690357Y-117036904D01*
X150299880Y-116503571D02*
X150299880Y-117036904D01*
X150299880Y-116579761D02*
X150337976Y-116541666D01*
X150414166Y-116503571D01*
X150528452Y-116503571D01*
X150604642Y-116541666D01*
X150642738Y-116617857D01*
X150642738Y-117036904D01*
X150909404Y-116503571D02*
X151214166Y-116503571D01*
X151023690Y-116236904D02*
X151023690Y-116922619D01*
X151061785Y-116998809D01*
X151137976Y-117036904D01*
X151214166Y-117036904D01*
X151480833Y-117036904D02*
X151480833Y-116503571D01*
X151480833Y-116655952D02*
X151518928Y-116579761D01*
X151557023Y-116541666D01*
X151633214Y-116503571D01*
X151709404Y-116503571D01*
X152090357Y-117036904D02*
X152014166Y-116998809D01*
X151976071Y-116960714D01*
X151937976Y-116884523D01*
X151937976Y-116655952D01*
X151976071Y-116579761D01*
X152014166Y-116541666D01*
X152090357Y-116503571D01*
X152204642Y-116503571D01*
X152280833Y-116541666D01*
X152318928Y-116579761D01*
X152357023Y-116655952D01*
X152357023Y-116884523D01*
X152318928Y-116960714D01*
X152280833Y-116998809D01*
X152204642Y-117036904D01*
X152090357Y-117036904D01*
X152814166Y-117036904D02*
X152737976Y-116998809D01*
X152699880Y-116922619D01*
X152699880Y-116236904D01*
X153233214Y-117036904D02*
X153157023Y-116998809D01*
X153118928Y-116922619D01*
X153118928Y-116236904D01*
X153842738Y-116998809D02*
X153766547Y-117036904D01*
X153614166Y-117036904D01*
X153537976Y-116998809D01*
X153499880Y-116922619D01*
X153499880Y-116617857D01*
X153537976Y-116541666D01*
X153614166Y-116503571D01*
X153766547Y-116503571D01*
X153842738Y-116541666D01*
X153880833Y-116617857D01*
X153880833Y-116694047D01*
X153499880Y-116770238D01*
X154223690Y-117036904D02*
X154223690Y-116503571D01*
X154223690Y-116655952D02*
X154261785Y-116579761D01*
X154299880Y-116541666D01*
X154376071Y-116503571D01*
X154452261Y-116503571D01*
X138352500Y-114886904D02*
X138809642Y-114886904D01*
X138581071Y-115686904D02*
X138581071Y-114886904D01*
X139190595Y-115686904D02*
X139114404Y-115648809D01*
X139076309Y-115610714D01*
X139038214Y-115534523D01*
X139038214Y-115305952D01*
X139076309Y-115229761D01*
X139114404Y-115191666D01*
X139190595Y-115153571D01*
X139304880Y-115153571D01*
X139381071Y-115191666D01*
X139419166Y-115229761D01*
X139457261Y-115305952D01*
X139457261Y-115534523D01*
X139419166Y-115610714D01*
X139381071Y-115648809D01*
X139304880Y-115686904D01*
X139190595Y-115686904D01*
X140409642Y-114886904D02*
X140409642Y-115534523D01*
X140447738Y-115610714D01*
X140485833Y-115648809D01*
X140562023Y-115686904D01*
X140714404Y-115686904D01*
X140790595Y-115648809D01*
X140828690Y-115610714D01*
X140866785Y-115534523D01*
X140866785Y-114886904D01*
X141209642Y-115458333D02*
X141590595Y-115458333D01*
X141133452Y-115686904D02*
X141400119Y-114886904D01*
X141666785Y-115686904D01*
X142390595Y-115686904D02*
X142123928Y-115305952D01*
X141933452Y-115686904D02*
X141933452Y-114886904D01*
X142238214Y-114886904D01*
X142314404Y-114925000D01*
X142352500Y-114963095D01*
X142390595Y-115039285D01*
X142390595Y-115153571D01*
X142352500Y-115229761D01*
X142314404Y-115267857D01*
X142238214Y-115305952D01*
X141933452Y-115305952D01*
X142619166Y-114886904D02*
X143076309Y-114886904D01*
X142847738Y-115686904D02*
X142847738Y-114886904D01*
X136485833Y-116236904D02*
X136942976Y-116236904D01*
X136714404Y-117036904D02*
X136714404Y-116236904D01*
X137209642Y-117036904D02*
X137209642Y-116503571D01*
X137209642Y-116655952D02*
X137247738Y-116579761D01*
X137285833Y-116541666D01*
X137362023Y-116503571D01*
X137438214Y-116503571D01*
X138047738Y-117036904D02*
X138047738Y-116617857D01*
X138009642Y-116541666D01*
X137933452Y-116503571D01*
X137781071Y-116503571D01*
X137704880Y-116541666D01*
X138047738Y-116998809D02*
X137971547Y-117036904D01*
X137781071Y-117036904D01*
X137704880Y-116998809D01*
X137666785Y-116922619D01*
X137666785Y-116846428D01*
X137704880Y-116770238D01*
X137781071Y-116732142D01*
X137971547Y-116732142D01*
X138047738Y-116694047D01*
X138428690Y-116503571D02*
X138428690Y-117036904D01*
X138428690Y-116579761D02*
X138466785Y-116541666D01*
X138542976Y-116503571D01*
X138657261Y-116503571D01*
X138733452Y-116541666D01*
X138771547Y-116617857D01*
X138771547Y-117036904D01*
X139114404Y-116998809D02*
X139190595Y-117036904D01*
X139342976Y-117036904D01*
X139419166Y-116998809D01*
X139457261Y-116922619D01*
X139457261Y-116884523D01*
X139419166Y-116808333D01*
X139342976Y-116770238D01*
X139228690Y-116770238D01*
X139152500Y-116732142D01*
X139114404Y-116655952D01*
X139114404Y-116617857D01*
X139152500Y-116541666D01*
X139228690Y-116503571D01*
X139342976Y-116503571D01*
X139419166Y-116541666D01*
X140142976Y-116998809D02*
X140066785Y-117036904D01*
X139914404Y-117036904D01*
X139838214Y-116998809D01*
X139800119Y-116960714D01*
X139762023Y-116884523D01*
X139762023Y-116655952D01*
X139800119Y-116579761D01*
X139838214Y-116541666D01*
X139914404Y-116503571D01*
X140066785Y-116503571D01*
X140142976Y-116541666D01*
X140790595Y-116998809D02*
X140714404Y-117036904D01*
X140562023Y-117036904D01*
X140485833Y-116998809D01*
X140447738Y-116922619D01*
X140447738Y-116617857D01*
X140485833Y-116541666D01*
X140562023Y-116503571D01*
X140714404Y-116503571D01*
X140790595Y-116541666D01*
X140828690Y-116617857D01*
X140828690Y-116694047D01*
X140447738Y-116770238D01*
X141171547Y-117036904D02*
X141171547Y-116503571D01*
X141171547Y-116236904D02*
X141133452Y-116275000D01*
X141171547Y-116313095D01*
X141209642Y-116275000D01*
X141171547Y-116236904D01*
X141171547Y-116313095D01*
X141476309Y-116503571D02*
X141666785Y-117036904D01*
X141857261Y-116503571D01*
X142466785Y-116998809D02*
X142390595Y-117036904D01*
X142238214Y-117036904D01*
X142162023Y-116998809D01*
X142123928Y-116922619D01*
X142123928Y-116617857D01*
X142162023Y-116541666D01*
X142238214Y-116503571D01*
X142390595Y-116503571D01*
X142466785Y-116541666D01*
X142504880Y-116617857D01*
X142504880Y-116694047D01*
X142123928Y-116770238D01*
X142847738Y-117036904D02*
X142847738Y-116503571D01*
X142847738Y-116655952D02*
X142885833Y-116579761D01*
X142923928Y-116541666D01*
X143000119Y-116503571D01*
X143076309Y-116503571D01*
X140333333Y-108702380D02*
X140333333Y-107702380D01*
X140714285Y-107702380D01*
X140809523Y-107750000D01*
X140857142Y-107797619D01*
X140904761Y-107892857D01*
X140904761Y-108035714D01*
X140857142Y-108130952D01*
X140809523Y-108178571D01*
X140714285Y-108226190D01*
X140333333Y-108226190D01*
X141857142Y-108702380D02*
X141285714Y-108702380D01*
X141571428Y-108702380D02*
X141571428Y-107702380D01*
X141476190Y-107845238D01*
X141380952Y-107940476D01*
X141285714Y-107988095D01*
X143047619Y-108702380D02*
X143047619Y-107702380D01*
X143047619Y-108083333D02*
X143142857Y-108035714D01*
X143333333Y-108035714D01*
X143428571Y-108083333D01*
X143476190Y-108130952D01*
X143523809Y-108226190D01*
X143523809Y-108511904D01*
X143476190Y-108607142D01*
X143428571Y-108654761D01*
X143333333Y-108702380D01*
X143142857Y-108702380D01*
X143047619Y-108654761D01*
X143857142Y-108035714D02*
X144095238Y-108702380D01*
X144333333Y-108035714D02*
X144095238Y-108702380D01*
X144000000Y-108940476D01*
X143952380Y-108988095D01*
X143857142Y-109035714D01*
X144714285Y-108035714D02*
X144714285Y-109035714D01*
X144714285Y-108083333D02*
X144809523Y-108035714D01*
X145000000Y-108035714D01*
X145095238Y-108083333D01*
X145142857Y-108130952D01*
X145190476Y-108226190D01*
X145190476Y-108511904D01*
X145142857Y-108607142D01*
X145095238Y-108654761D01*
X145000000Y-108702380D01*
X144809523Y-108702380D01*
X144714285Y-108654761D01*
X146047619Y-108702380D02*
X146047619Y-108178571D01*
X146000000Y-108083333D01*
X145904761Y-108035714D01*
X145714285Y-108035714D01*
X145619047Y-108083333D01*
X146047619Y-108654761D02*
X145952380Y-108702380D01*
X145714285Y-108702380D01*
X145619047Y-108654761D01*
X145571428Y-108559523D01*
X145571428Y-108464285D01*
X145619047Y-108369047D01*
X145714285Y-108321428D01*
X145952380Y-108321428D01*
X146047619Y-108273809D01*
X146476190Y-108654761D02*
X146571428Y-108702380D01*
X146761904Y-108702380D01*
X146857142Y-108654761D01*
X146904761Y-108559523D01*
X146904761Y-108511904D01*
X146857142Y-108416666D01*
X146761904Y-108369047D01*
X146619047Y-108369047D01*
X146523809Y-108321428D01*
X146476190Y-108226190D01*
X146476190Y-108178571D01*
X146523809Y-108083333D01*
X146619047Y-108035714D01*
X146761904Y-108035714D01*
X146857142Y-108083333D01*
X147285714Y-108654761D02*
X147380952Y-108702380D01*
X147571428Y-108702380D01*
X147666666Y-108654761D01*
X147714285Y-108559523D01*
X147714285Y-108511904D01*
X147666666Y-108416666D01*
X147571428Y-108369047D01*
X147428571Y-108369047D01*
X147333333Y-108321428D01*
X147285714Y-108226190D01*
X147285714Y-108178571D01*
X147333333Y-108083333D01*
X147428571Y-108035714D01*
X147571428Y-108035714D01*
X147666666Y-108083333D01*
X144988095Y-94083333D02*
X144940476Y-94035714D01*
X144845238Y-93892857D01*
X144797619Y-93797619D01*
X144750000Y-93654761D01*
X144702380Y-93416666D01*
X144702380Y-93226190D01*
X144750000Y-92988095D01*
X144797619Y-92845238D01*
X144845238Y-92750000D01*
X144940476Y-92607142D01*
X144988095Y-92559523D01*
X145273809Y-92702380D02*
X145892857Y-92702380D01*
X145559523Y-93083333D01*
X145702380Y-93083333D01*
X145797619Y-93130952D01*
X145845238Y-93178571D01*
X145892857Y-93273809D01*
X145892857Y-93511904D01*
X145845238Y-93607142D01*
X145797619Y-93654761D01*
X145702380Y-93702380D01*
X145416666Y-93702380D01*
X145321428Y-93654761D01*
X145273809Y-93607142D01*
X146321428Y-93607142D02*
X146369047Y-93654761D01*
X146321428Y-93702380D01*
X146273809Y-93654761D01*
X146321428Y-93607142D01*
X146321428Y-93702380D01*
X146702380Y-92702380D02*
X147321428Y-92702380D01*
X146988095Y-93083333D01*
X147130952Y-93083333D01*
X147226190Y-93130952D01*
X147273809Y-93178571D01*
X147321428Y-93273809D01*
X147321428Y-93511904D01*
X147273809Y-93607142D01*
X147226190Y-93654761D01*
X147130952Y-93702380D01*
X146845238Y-93702380D01*
X146750000Y-93654761D01*
X146702380Y-93607142D01*
X147607142Y-92702380D02*
X147940476Y-93702380D01*
X148273809Y-92702380D01*
X148511904Y-94083333D02*
X148559523Y-94035714D01*
X148654761Y-93892857D01*
X148702380Y-93797619D01*
X148750000Y-93654761D01*
X148797619Y-93416666D01*
X148797619Y-93226190D01*
X148750000Y-92988095D01*
X148702380Y-92845238D01*
X148654761Y-92750000D01*
X148559523Y-92607142D01*
X148511904Y-92559523D01*
D12*
%TO.C,R21*%
X148772500Y-102762742D02*
X148772500Y-103237258D01*
X147727500Y-102762742D02*
X147727500Y-103237258D01*
%TO.C,R20*%
X140462742Y-94377500D02*
X140937258Y-94377500D01*
X140462742Y-95422500D02*
X140937258Y-95422500D01*
%TO.C,D8*%
X145765000Y-102200000D02*
X145765000Y-104485000D01*
X145765000Y-104485000D02*
X147235000Y-104485000D01*
X147235000Y-104485000D02*
X147235000Y-102200000D01*
%TO.C,D7*%
X141550000Y-92515000D02*
X139265000Y-92515000D01*
X139265000Y-92515000D02*
X139265000Y-93985000D01*
X139265000Y-93985000D02*
X141550000Y-93985000D01*
%TO.C,F2*%
X134202064Y-110210000D02*
X132997936Y-110210000D01*
X134202064Y-108390000D02*
X132997936Y-108390000D01*
%TO.C,F1*%
X130902064Y-88410000D02*
X129697936Y-88410000D01*
X130902064Y-86590000D02*
X129697936Y-86590000D01*
%TO.C,D1*%
X127650000Y-91200000D02*
X127650000Y-89200000D01*
X127650000Y-89200000D02*
X123750000Y-89200000D01*
X127650000Y-91200000D02*
X123750000Y-91200000D01*
%TO.C,SW2*%
X159300000Y-86550000D02*
X159300000Y-86450000D01*
X163700000Y-84950000D02*
X159300000Y-84950000D01*
X159300000Y-88050000D02*
X163700000Y-88050000D01*
X163700000Y-86550000D02*
X163700000Y-86450000D01*
%TO.C,SW1*%
X149300000Y-86550000D02*
X149300000Y-86450000D01*
X153700000Y-84950000D02*
X149300000Y-84950000D01*
X149300000Y-88050000D02*
X153700000Y-88050000D01*
X153700000Y-86550000D02*
X153700000Y-86450000D01*
%TO.C,C10*%
X163453733Y-77490000D02*
X163746267Y-77490000D01*
X163453733Y-78510000D02*
X163746267Y-78510000D01*
%TO.C,U3*%
X134310000Y-95810000D02*
X134310000Y-94550000D01*
X134310000Y-88990000D02*
X134310000Y-90250000D01*
X130550000Y-95810000D02*
X134310000Y-95810000D01*
X128300000Y-88990000D02*
X134310000Y-88990000D01*
%TO.C,U2*%
X133415000Y-85610000D02*
X132940000Y-85610000D01*
X132940000Y-85610000D02*
X132940000Y-85135000D01*
X136685000Y-81390000D02*
X137160000Y-81390000D01*
X137160000Y-81390000D02*
X137160000Y-81865000D01*
X133415000Y-81390000D02*
X132940000Y-81390000D01*
X132940000Y-81390000D02*
X132940000Y-81865000D01*
X136685000Y-85610000D02*
X137160000Y-85610000D01*
%TO.C,U1*%
X175120000Y-94880000D02*
X175120000Y-111120000D01*
X175120000Y-111120000D02*
X167500000Y-111120000D01*
X151500000Y-111120000D02*
X150880000Y-111120000D01*
X150880000Y-111120000D02*
X150880000Y-109000000D01*
X150880000Y-97000000D02*
X150880000Y-94880000D01*
X150880000Y-94880000D02*
X151500000Y-94880000D01*
X167500000Y-94880000D02*
X175120000Y-94880000D01*
X167500000Y-94880000D02*
X167500000Y-94270000D01*
%TO.C,R19*%
X150277500Y-77337258D02*
X150277500Y-76862742D01*
X151322500Y-77337258D02*
X151322500Y-76862742D01*
%TO.C,R18*%
X150277500Y-80937258D02*
X150277500Y-80462742D01*
X151322500Y-80937258D02*
X151322500Y-80462742D01*
%TO.C,R17*%
X140277500Y-101637258D02*
X140277500Y-101162742D01*
X141322500Y-101637258D02*
X141322500Y-101162742D01*
%TO.C,R16*%
X123512742Y-75277500D02*
X123987258Y-75277500D01*
X123512742Y-76322500D02*
X123987258Y-76322500D01*
%TO.C,R15*%
X141322500Y-105287742D02*
X141322500Y-105762258D01*
X140277500Y-105287742D02*
X140277500Y-105762258D01*
%TO.C,R14*%
X132677500Y-113237258D02*
X132677500Y-112762742D01*
X133722500Y-113237258D02*
X133722500Y-112762742D01*
%TO.C,R13*%
X135322500Y-112762742D02*
X135322500Y-113237258D01*
X134277500Y-112762742D02*
X134277500Y-113237258D01*
%TO.C,R12*%
X133762742Y-114877500D02*
X134237258Y-114877500D01*
X133762742Y-115922500D02*
X134237258Y-115922500D01*
%TO.C,R11*%
X158362742Y-77477500D02*
X158837258Y-77477500D01*
X158362742Y-78522500D02*
X158837258Y-78522500D01*
%TO.C,R10*%
X132487258Y-79772500D02*
X132012742Y-79772500D01*
X132487258Y-78727500D02*
X132012742Y-78727500D01*
%TO.C,R9*%
X132487258Y-76272500D02*
X132012742Y-76272500D01*
X132487258Y-75227500D02*
X132012742Y-75227500D01*
%TO.C,R8*%
X132487258Y-78022500D02*
X132012742Y-78022500D01*
X132487258Y-76977500D02*
X132012742Y-76977500D01*
%TO.C,R7*%
X144162742Y-94377500D02*
X144637258Y-94377500D01*
X144162742Y-95422500D02*
X144637258Y-95422500D01*
%TO.C,R6*%
X153687258Y-113922500D02*
X153212742Y-113922500D01*
X153687258Y-112877500D02*
X153212742Y-112877500D01*
%TO.C,R5*%
X162787742Y-91677500D02*
X163262258Y-91677500D01*
X162787742Y-92722500D02*
X163262258Y-92722500D01*
%TO.C,R4*%
X160212258Y-92722500D02*
X159737742Y-92722500D01*
X160212258Y-91677500D02*
X159737742Y-91677500D01*
%TO.C,R3*%
X156412742Y-112877500D02*
X156887258Y-112877500D01*
X156412742Y-113922500D02*
X156887258Y-113922500D01*
%TO.C,R2*%
X140622500Y-90462742D02*
X140622500Y-90937258D01*
X139577500Y-90462742D02*
X139577500Y-90937258D01*
%TO.C,R1*%
X139577500Y-86887258D02*
X139577500Y-86412742D01*
X140622500Y-86887258D02*
X140622500Y-86412742D01*
%TO.C,Q6*%
X154160000Y-78680000D02*
X154160000Y-77750000D01*
X154160000Y-75520000D02*
X154160000Y-76450000D01*
X154160000Y-75520000D02*
X152000000Y-75520000D01*
X154160000Y-78680000D02*
X152700000Y-78680000D01*
%TO.C,Q5*%
X154160000Y-82280000D02*
X154160000Y-81350000D01*
X154160000Y-79120000D02*
X154160000Y-80050000D01*
X154160000Y-79120000D02*
X152000000Y-79120000D01*
X154160000Y-82280000D02*
X152700000Y-82280000D01*
%TO.C,Q4*%
X137440000Y-100020000D02*
X137440000Y-100950000D01*
X137440000Y-103180000D02*
X137440000Y-102250000D01*
X137440000Y-103180000D02*
X139600000Y-103180000D01*
X137440000Y-100020000D02*
X138900000Y-100020000D01*
%TO.C,Q3*%
X137440000Y-103720000D02*
X137440000Y-104650000D01*
X137440000Y-106880000D02*
X137440000Y-105950000D01*
X137440000Y-106880000D02*
X139600000Y-106880000D01*
X137440000Y-103720000D02*
X138900000Y-103720000D01*
%TO.C,Q2*%
X143460000Y-88430000D02*
X143460000Y-87500000D01*
X143460000Y-85270000D02*
X143460000Y-86200000D01*
X143460000Y-85270000D02*
X141300000Y-85270000D01*
X143460000Y-88430000D02*
X142000000Y-88430000D01*
%TO.C,Q1*%
X143460000Y-92080000D02*
X143460000Y-91150000D01*
X143460000Y-88920000D02*
X143460000Y-89850000D01*
X143460000Y-88920000D02*
X141300000Y-88920000D01*
X143460000Y-92080000D02*
X142000000Y-92080000D01*
D13*
%TO.C,J1*%
X126200000Y-79450000D02*
X124750000Y-79450000D01*
X126210000Y-79450000D02*
X126210000Y-81100000D01*
X126220000Y-87560000D02*
X126220000Y-85900000D01*
X126220000Y-87560000D02*
X124750000Y-87560000D01*
X120540000Y-79486676D02*
X120160000Y-79486676D01*
X120160000Y-79486676D02*
X120160000Y-79856676D01*
X120158152Y-87514908D02*
X120158152Y-87144908D01*
X120538152Y-87514908D02*
X120158152Y-87514908D01*
D12*
%TO.C,D6*%
X129800000Y-78515000D02*
X127515000Y-78515000D01*
X127515000Y-78515000D02*
X127515000Y-79985000D01*
X127515000Y-79985000D02*
X129800000Y-79985000D01*
%TO.C,D5*%
X129800000Y-75015000D02*
X127515000Y-75015000D01*
X127515000Y-75015000D02*
X127515000Y-76485000D01*
X127515000Y-76485000D02*
X129800000Y-76485000D01*
%TO.C,D4*%
X127900000Y-101890000D02*
X126100000Y-101890000D01*
X126100000Y-105110000D02*
X128550000Y-105110000D01*
%TO.C,D3*%
X127490000Y-82600000D02*
X127490000Y-84400000D01*
X130710000Y-84400000D02*
X130710000Y-81950000D01*
%TO.C,D2*%
X127650000Y-93800000D02*
X127650000Y-91800000D01*
X127650000Y-91800000D02*
X123750000Y-91800000D01*
X127650000Y-93800000D02*
X123750000Y-93800000D01*
%TO.C,C9*%
X123488748Y-77065000D02*
X124011252Y-77065000D01*
X123488748Y-78535000D02*
X124011252Y-78535000D01*
%TO.C,C8*%
X137365000Y-94461252D02*
X137365000Y-93938748D01*
X138835000Y-94461252D02*
X138835000Y-93938748D01*
%TO.C,C7*%
X125338748Y-94465000D02*
X125861252Y-94465000D01*
X125338748Y-95935000D02*
X125861252Y-95935000D01*
%TO.C,C6*%
X142335000Y-82438748D02*
X142335000Y-82961252D01*
X140865000Y-82438748D02*
X140865000Y-82961252D01*
%TO.C,C5*%
X140310000Y-82553733D02*
X140310000Y-82846267D01*
X139290000Y-82553733D02*
X139290000Y-82846267D01*
%TO.C,C4*%
X135961252Y-77235000D02*
X135438748Y-77235000D01*
X135961252Y-75765000D02*
X135438748Y-75765000D01*
%TO.C,C3*%
X135896267Y-79010000D02*
X135603733Y-79010000D01*
X135896267Y-77990000D02*
X135603733Y-77990000D01*
%TO.C,C2*%
X153453733Y-91690000D02*
X153746267Y-91690000D01*
X153453733Y-92710000D02*
X153746267Y-92710000D01*
%TO.C,C1*%
X153388748Y-89465000D02*
X153911252Y-89465000D01*
X153388748Y-90935000D02*
X153911252Y-90935000D01*
%TO.C,R21*%
D10*
X148752380Y-100542857D02*
X148276190Y-100876190D01*
X148752380Y-101114285D02*
X147752380Y-101114285D01*
X147752380Y-100733333D01*
X147800000Y-100638095D01*
X147847619Y-100590476D01*
X147942857Y-100542857D01*
X148085714Y-100542857D01*
X148180952Y-100590476D01*
X148228571Y-100638095D01*
X148276190Y-100733333D01*
X148276190Y-101114285D01*
X147847619Y-100161904D02*
X147800000Y-100114285D01*
X147752380Y-100019047D01*
X147752380Y-99780952D01*
X147800000Y-99685714D01*
X147847619Y-99638095D01*
X147942857Y-99590476D01*
X148038095Y-99590476D01*
X148180952Y-99638095D01*
X148752380Y-100209523D01*
X148752380Y-99590476D01*
X148752380Y-98638095D02*
X148752380Y-99209523D01*
X148752380Y-98923809D02*
X147752380Y-98923809D01*
X147895238Y-99019047D01*
X147990476Y-99114285D01*
X148038095Y-99209523D01*
%TO.C,R20*%
X140257142Y-97052380D02*
X139923809Y-96576190D01*
X139685714Y-97052380D02*
X139685714Y-96052380D01*
X140066666Y-96052380D01*
X140161904Y-96100000D01*
X140209523Y-96147619D01*
X140257142Y-96242857D01*
X140257142Y-96385714D01*
X140209523Y-96480952D01*
X140161904Y-96528571D01*
X140066666Y-96576190D01*
X139685714Y-96576190D01*
X140638095Y-96147619D02*
X140685714Y-96100000D01*
X140780952Y-96052380D01*
X141019047Y-96052380D01*
X141114285Y-96100000D01*
X141161904Y-96147619D01*
X141209523Y-96242857D01*
X141209523Y-96338095D01*
X141161904Y-96480952D01*
X140590476Y-97052380D01*
X141209523Y-97052380D01*
X141828571Y-96052380D02*
X141923809Y-96052380D01*
X142019047Y-96100000D01*
X142066666Y-96147619D01*
X142114285Y-96242857D01*
X142161904Y-96433333D01*
X142161904Y-96671428D01*
X142114285Y-96861904D01*
X142066666Y-96957142D01*
X142019047Y-97004761D01*
X141923809Y-97052380D01*
X141828571Y-97052380D01*
X141733333Y-97004761D01*
X141685714Y-96957142D01*
X141638095Y-96861904D01*
X141590476Y-96671428D01*
X141590476Y-96433333D01*
X141638095Y-96242857D01*
X141685714Y-96147619D01*
X141733333Y-96100000D01*
X141828571Y-96052380D01*
%TO.C,D8*%
X146952380Y-101138095D02*
X145952380Y-101138095D01*
X145952380Y-100900000D01*
X146000000Y-100757142D01*
X146095238Y-100661904D01*
X146190476Y-100614285D01*
X146380952Y-100566666D01*
X146523809Y-100566666D01*
X146714285Y-100614285D01*
X146809523Y-100661904D01*
X146904761Y-100757142D01*
X146952380Y-100900000D01*
X146952380Y-101138095D01*
X146380952Y-99995238D02*
X146333333Y-100090476D01*
X146285714Y-100138095D01*
X146190476Y-100185714D01*
X146142857Y-100185714D01*
X146047619Y-100138095D01*
X146000000Y-100090476D01*
X145952380Y-99995238D01*
X145952380Y-99804761D01*
X146000000Y-99709523D01*
X146047619Y-99661904D01*
X146142857Y-99614285D01*
X146190476Y-99614285D01*
X146285714Y-99661904D01*
X146333333Y-99709523D01*
X146380952Y-99804761D01*
X146380952Y-99995238D01*
X146428571Y-100090476D01*
X146476190Y-100138095D01*
X146571428Y-100185714D01*
X146761904Y-100185714D01*
X146857142Y-100138095D01*
X146904761Y-100090476D01*
X146952380Y-99995238D01*
X146952380Y-99804761D01*
X146904761Y-99709523D01*
X146857142Y-99661904D01*
X146761904Y-99614285D01*
X146571428Y-99614285D01*
X146476190Y-99661904D01*
X146428571Y-99709523D01*
X146380952Y-99804761D01*
%TO.C,D7*%
X142461904Y-93652380D02*
X142461904Y-92652380D01*
X142700000Y-92652380D01*
X142842857Y-92700000D01*
X142938095Y-92795238D01*
X142985714Y-92890476D01*
X143033333Y-93080952D01*
X143033333Y-93223809D01*
X142985714Y-93414285D01*
X142938095Y-93509523D01*
X142842857Y-93604761D01*
X142700000Y-93652380D01*
X142461904Y-93652380D01*
X143366666Y-92652380D02*
X144033333Y-92652380D01*
X143604761Y-93652380D01*
%TO.C,F2*%
X136366666Y-109228571D02*
X136033333Y-109228571D01*
X136033333Y-109752380D02*
X136033333Y-108752380D01*
X136509523Y-108752380D01*
X136842857Y-108847619D02*
X136890476Y-108800000D01*
X136985714Y-108752380D01*
X137223809Y-108752380D01*
X137319047Y-108800000D01*
X137366666Y-108847619D01*
X137414285Y-108942857D01*
X137414285Y-109038095D01*
X137366666Y-109180952D01*
X136795238Y-109752380D01*
X137414285Y-109752380D01*
%TO.C,F1*%
X133066666Y-87528571D02*
X132733333Y-87528571D01*
X132733333Y-88052380D02*
X132733333Y-87052380D01*
X133209523Y-87052380D01*
X134114285Y-88052380D02*
X133542857Y-88052380D01*
X133828571Y-88052380D02*
X133828571Y-87052380D01*
X133733333Y-87195238D01*
X133638095Y-87290476D01*
X133542857Y-87338095D01*
%TO.C,D1*%
X124861904Y-96952380D02*
X124861904Y-95952380D01*
X125100000Y-95952380D01*
X125242857Y-96000000D01*
X125338095Y-96095238D01*
X125385714Y-96190476D01*
X125433333Y-96380952D01*
X125433333Y-96523809D01*
X125385714Y-96714285D01*
X125338095Y-96809523D01*
X125242857Y-96904761D01*
X125100000Y-96952380D01*
X124861904Y-96952380D01*
X126385714Y-96952380D02*
X125814285Y-96952380D01*
X126100000Y-96952380D02*
X126100000Y-95952380D01*
X126004761Y-96095238D01*
X125909523Y-96190476D01*
X125814285Y-96238095D01*
%TO.C,SW2*%
X160166666Y-84454761D02*
X160309523Y-84502380D01*
X160547619Y-84502380D01*
X160642857Y-84454761D01*
X160690476Y-84407142D01*
X160738095Y-84311904D01*
X160738095Y-84216666D01*
X160690476Y-84121428D01*
X160642857Y-84073809D01*
X160547619Y-84026190D01*
X160357142Y-83978571D01*
X160261904Y-83930952D01*
X160214285Y-83883333D01*
X160166666Y-83788095D01*
X160166666Y-83692857D01*
X160214285Y-83597619D01*
X160261904Y-83550000D01*
X160357142Y-83502380D01*
X160595238Y-83502380D01*
X160738095Y-83550000D01*
X161071428Y-83502380D02*
X161309523Y-84502380D01*
X161500000Y-83788095D01*
X161690476Y-84502380D01*
X161928571Y-83502380D01*
X162261904Y-83597619D02*
X162309523Y-83550000D01*
X162404761Y-83502380D01*
X162642857Y-83502380D01*
X162738095Y-83550000D01*
X162785714Y-83597619D01*
X162833333Y-83692857D01*
X162833333Y-83788095D01*
X162785714Y-83930952D01*
X162214285Y-84502380D01*
X162833333Y-84502380D01*
%TO.C,SW1*%
X150166666Y-84454761D02*
X150309523Y-84502380D01*
X150547619Y-84502380D01*
X150642857Y-84454761D01*
X150690476Y-84407142D01*
X150738095Y-84311904D01*
X150738095Y-84216666D01*
X150690476Y-84121428D01*
X150642857Y-84073809D01*
X150547619Y-84026190D01*
X150357142Y-83978571D01*
X150261904Y-83930952D01*
X150214285Y-83883333D01*
X150166666Y-83788095D01*
X150166666Y-83692857D01*
X150214285Y-83597619D01*
X150261904Y-83550000D01*
X150357142Y-83502380D01*
X150595238Y-83502380D01*
X150738095Y-83550000D01*
X151071428Y-83502380D02*
X151309523Y-84502380D01*
X151500000Y-83788095D01*
X151690476Y-84502380D01*
X151928571Y-83502380D01*
X152833333Y-84502380D02*
X152261904Y-84502380D01*
X152547619Y-84502380D02*
X152547619Y-83502380D01*
X152452380Y-83645238D01*
X152357142Y-83740476D01*
X152261904Y-83788095D01*
%TO.C,C10*%
X162957142Y-76927142D02*
X162909523Y-76974761D01*
X162766666Y-77022380D01*
X162671428Y-77022380D01*
X162528571Y-76974761D01*
X162433333Y-76879523D01*
X162385714Y-76784285D01*
X162338095Y-76593809D01*
X162338095Y-76450952D01*
X162385714Y-76260476D01*
X162433333Y-76165238D01*
X162528571Y-76070000D01*
X162671428Y-76022380D01*
X162766666Y-76022380D01*
X162909523Y-76070000D01*
X162957142Y-76117619D01*
X163909523Y-77022380D02*
X163338095Y-77022380D01*
X163623809Y-77022380D02*
X163623809Y-76022380D01*
X163528571Y-76165238D01*
X163433333Y-76260476D01*
X163338095Y-76308095D01*
X164528571Y-76022380D02*
X164623809Y-76022380D01*
X164719047Y-76070000D01*
X164766666Y-76117619D01*
X164814285Y-76212857D01*
X164861904Y-76403333D01*
X164861904Y-76641428D01*
X164814285Y-76831904D01*
X164766666Y-76927142D01*
X164719047Y-76974761D01*
X164623809Y-77022380D01*
X164528571Y-77022380D01*
X164433333Y-76974761D01*
X164385714Y-76927142D01*
X164338095Y-76831904D01*
X164290476Y-76641428D01*
X164290476Y-76403333D01*
X164338095Y-76212857D01*
X164385714Y-76117619D01*
X164433333Y-76070000D01*
X164528571Y-76022380D01*
%TO.C,U3*%
X134838095Y-89152380D02*
X134838095Y-89961904D01*
X134885714Y-90057142D01*
X134933333Y-90104761D01*
X135028571Y-90152380D01*
X135219047Y-90152380D01*
X135314285Y-90104761D01*
X135361904Y-90057142D01*
X135409523Y-89961904D01*
X135409523Y-89152380D01*
X135790476Y-89152380D02*
X136409523Y-89152380D01*
X136076190Y-89533333D01*
X136219047Y-89533333D01*
X136314285Y-89580952D01*
X136361904Y-89628571D01*
X136409523Y-89723809D01*
X136409523Y-89961904D01*
X136361904Y-90057142D01*
X136314285Y-90104761D01*
X136219047Y-90152380D01*
X135933333Y-90152380D01*
X135838095Y-90104761D01*
X135790476Y-90057142D01*
%TO.C,U2*%
X135938095Y-79752380D02*
X135938095Y-80561904D01*
X135985714Y-80657142D01*
X136033333Y-80704761D01*
X136128571Y-80752380D01*
X136319047Y-80752380D01*
X136414285Y-80704761D01*
X136461904Y-80657142D01*
X136509523Y-80561904D01*
X136509523Y-79752380D01*
X136938095Y-79847619D02*
X136985714Y-79800000D01*
X137080952Y-79752380D01*
X137319047Y-79752380D01*
X137414285Y-79800000D01*
X137461904Y-79847619D01*
X137509523Y-79942857D01*
X137509523Y-80038095D01*
X137461904Y-80180952D01*
X136890476Y-80752380D01*
X137509523Y-80752380D01*
%TO.C,U1*%
X167712380Y-93201904D02*
X168521904Y-93201904D01*
X168617142Y-93154285D01*
X168664761Y-93106666D01*
X168712380Y-93011428D01*
X168712380Y-92820952D01*
X168664761Y-92725714D01*
X168617142Y-92678095D01*
X168521904Y-92630476D01*
X167712380Y-92630476D01*
X168712380Y-91630476D02*
X168712380Y-92201904D01*
X168712380Y-91916190D02*
X167712380Y-91916190D01*
X167855238Y-92011428D01*
X167950476Y-92106666D01*
X167998095Y-92201904D01*
%TO.C,R19*%
X149752380Y-77842857D02*
X149276190Y-78176190D01*
X149752380Y-78414285D02*
X148752380Y-78414285D01*
X148752380Y-78033333D01*
X148800000Y-77938095D01*
X148847619Y-77890476D01*
X148942857Y-77842857D01*
X149085714Y-77842857D01*
X149180952Y-77890476D01*
X149228571Y-77938095D01*
X149276190Y-78033333D01*
X149276190Y-78414285D01*
X149752380Y-76890476D02*
X149752380Y-77461904D01*
X149752380Y-77176190D02*
X148752380Y-77176190D01*
X148895238Y-77271428D01*
X148990476Y-77366666D01*
X149038095Y-77461904D01*
X149752380Y-76414285D02*
X149752380Y-76223809D01*
X149704761Y-76128571D01*
X149657142Y-76080952D01*
X149514285Y-75985714D01*
X149323809Y-75938095D01*
X148942857Y-75938095D01*
X148847619Y-75985714D01*
X148800000Y-76033333D01*
X148752380Y-76128571D01*
X148752380Y-76319047D01*
X148800000Y-76414285D01*
X148847619Y-76461904D01*
X148942857Y-76509523D01*
X149180952Y-76509523D01*
X149276190Y-76461904D01*
X149323809Y-76414285D01*
X149371428Y-76319047D01*
X149371428Y-76128571D01*
X149323809Y-76033333D01*
X149276190Y-75985714D01*
X149180952Y-75938095D01*
%TO.C,R18*%
X149852380Y-81342857D02*
X149376190Y-81676190D01*
X149852380Y-81914285D02*
X148852380Y-81914285D01*
X148852380Y-81533333D01*
X148900000Y-81438095D01*
X148947619Y-81390476D01*
X149042857Y-81342857D01*
X149185714Y-81342857D01*
X149280952Y-81390476D01*
X149328571Y-81438095D01*
X149376190Y-81533333D01*
X149376190Y-81914285D01*
X149852380Y-80390476D02*
X149852380Y-80961904D01*
X149852380Y-80676190D02*
X148852380Y-80676190D01*
X148995238Y-80771428D01*
X149090476Y-80866666D01*
X149138095Y-80961904D01*
X149280952Y-79819047D02*
X149233333Y-79914285D01*
X149185714Y-79961904D01*
X149090476Y-80009523D01*
X149042857Y-80009523D01*
X148947619Y-79961904D01*
X148900000Y-79914285D01*
X148852380Y-79819047D01*
X148852380Y-79628571D01*
X148900000Y-79533333D01*
X148947619Y-79485714D01*
X149042857Y-79438095D01*
X149090476Y-79438095D01*
X149185714Y-79485714D01*
X149233333Y-79533333D01*
X149280952Y-79628571D01*
X149280952Y-79819047D01*
X149328571Y-79914285D01*
X149376190Y-79961904D01*
X149471428Y-80009523D01*
X149661904Y-80009523D01*
X149757142Y-79961904D01*
X149804761Y-79914285D01*
X149852380Y-79819047D01*
X149852380Y-79628571D01*
X149804761Y-79533333D01*
X149757142Y-79485714D01*
X149661904Y-79438095D01*
X149471428Y-79438095D01*
X149376190Y-79485714D01*
X149328571Y-79533333D01*
X149280952Y-79628571D01*
%TO.C,R17*%
X142852380Y-101942857D02*
X142376190Y-102276190D01*
X142852380Y-102514285D02*
X141852380Y-102514285D01*
X141852380Y-102133333D01*
X141900000Y-102038095D01*
X141947619Y-101990476D01*
X142042857Y-101942857D01*
X142185714Y-101942857D01*
X142280952Y-101990476D01*
X142328571Y-102038095D01*
X142376190Y-102133333D01*
X142376190Y-102514285D01*
X142852380Y-100990476D02*
X142852380Y-101561904D01*
X142852380Y-101276190D02*
X141852380Y-101276190D01*
X141995238Y-101371428D01*
X142090476Y-101466666D01*
X142138095Y-101561904D01*
X141852380Y-100657142D02*
X141852380Y-99990476D01*
X142852380Y-100419047D01*
%TO.C,R16*%
X123364285Y-76071428D02*
X123164285Y-75785714D01*
X123021428Y-76071428D02*
X123021428Y-75471428D01*
X123250000Y-75471428D01*
X123307142Y-75500000D01*
X123335714Y-75528571D01*
X123364285Y-75585714D01*
X123364285Y-75671428D01*
X123335714Y-75728571D01*
X123307142Y-75757142D01*
X123250000Y-75785714D01*
X123021428Y-75785714D01*
X123935714Y-76071428D02*
X123592857Y-76071428D01*
X123764285Y-76071428D02*
X123764285Y-75471428D01*
X123707142Y-75557142D01*
X123650000Y-75614285D01*
X123592857Y-75642857D01*
X124450000Y-75471428D02*
X124335714Y-75471428D01*
X124278571Y-75500000D01*
X124250000Y-75528571D01*
X124192857Y-75614285D01*
X124164285Y-75728571D01*
X124164285Y-75957142D01*
X124192857Y-76014285D01*
X124221428Y-76042857D01*
X124278571Y-76071428D01*
X124392857Y-76071428D01*
X124450000Y-76042857D01*
X124478571Y-76014285D01*
X124507142Y-75957142D01*
X124507142Y-75814285D01*
X124478571Y-75757142D01*
X124450000Y-75728571D01*
X124392857Y-75700000D01*
X124278571Y-75700000D01*
X124221428Y-75728571D01*
X124192857Y-75757142D01*
X124164285Y-75814285D01*
%TO.C,R15*%
X142852380Y-106042857D02*
X142376190Y-106376190D01*
X142852380Y-106614285D02*
X141852380Y-106614285D01*
X141852380Y-106233333D01*
X141900000Y-106138095D01*
X141947619Y-106090476D01*
X142042857Y-106042857D01*
X142185714Y-106042857D01*
X142280952Y-106090476D01*
X142328571Y-106138095D01*
X142376190Y-106233333D01*
X142376190Y-106614285D01*
X142852380Y-105090476D02*
X142852380Y-105661904D01*
X142852380Y-105376190D02*
X141852380Y-105376190D01*
X141995238Y-105471428D01*
X142090476Y-105566666D01*
X142138095Y-105661904D01*
X141852380Y-104185714D02*
X141852380Y-104661904D01*
X142328571Y-104709523D01*
X142280952Y-104661904D01*
X142233333Y-104566666D01*
X142233333Y-104328571D01*
X142280952Y-104233333D01*
X142328571Y-104185714D01*
X142423809Y-104138095D01*
X142661904Y-104138095D01*
X142757142Y-104185714D01*
X142804761Y-104233333D01*
X142852380Y-104328571D01*
X142852380Y-104566666D01*
X142804761Y-104661904D01*
X142757142Y-104709523D01*
%TO.C,R14*%
X132222380Y-113642857D02*
X131746190Y-113976190D01*
X132222380Y-114214285D02*
X131222380Y-114214285D01*
X131222380Y-113833333D01*
X131270000Y-113738095D01*
X131317619Y-113690476D01*
X131412857Y-113642857D01*
X131555714Y-113642857D01*
X131650952Y-113690476D01*
X131698571Y-113738095D01*
X131746190Y-113833333D01*
X131746190Y-114214285D01*
X132222380Y-112690476D02*
X132222380Y-113261904D01*
X132222380Y-112976190D02*
X131222380Y-112976190D01*
X131365238Y-113071428D01*
X131460476Y-113166666D01*
X131508095Y-113261904D01*
X131555714Y-111833333D02*
X132222380Y-111833333D01*
X131174761Y-112071428D02*
X131889047Y-112309523D01*
X131889047Y-111690476D01*
%TO.C,R13*%
X136682380Y-113642857D02*
X136206190Y-113976190D01*
X136682380Y-114214285D02*
X135682380Y-114214285D01*
X135682380Y-113833333D01*
X135730000Y-113738095D01*
X135777619Y-113690476D01*
X135872857Y-113642857D01*
X136015714Y-113642857D01*
X136110952Y-113690476D01*
X136158571Y-113738095D01*
X136206190Y-113833333D01*
X136206190Y-114214285D01*
X136682380Y-112690476D02*
X136682380Y-113261904D01*
X136682380Y-112976190D02*
X135682380Y-112976190D01*
X135825238Y-113071428D01*
X135920476Y-113166666D01*
X135968095Y-113261904D01*
X135682380Y-112357142D02*
X135682380Y-111738095D01*
X136063333Y-112071428D01*
X136063333Y-111928571D01*
X136110952Y-111833333D01*
X136158571Y-111785714D01*
X136253809Y-111738095D01*
X136491904Y-111738095D01*
X136587142Y-111785714D01*
X136634761Y-111833333D01*
X136682380Y-111928571D01*
X136682380Y-112214285D01*
X136634761Y-112309523D01*
X136587142Y-112357142D01*
%TO.C,R12*%
X133257142Y-117552380D02*
X132923809Y-117076190D01*
X132685714Y-117552380D02*
X132685714Y-116552380D01*
X133066666Y-116552380D01*
X133161904Y-116600000D01*
X133209523Y-116647619D01*
X133257142Y-116742857D01*
X133257142Y-116885714D01*
X133209523Y-116980952D01*
X133161904Y-117028571D01*
X133066666Y-117076190D01*
X132685714Y-117076190D01*
X134209523Y-117552380D02*
X133638095Y-117552380D01*
X133923809Y-117552380D02*
X133923809Y-116552380D01*
X133828571Y-116695238D01*
X133733333Y-116790476D01*
X133638095Y-116838095D01*
X134590476Y-116647619D02*
X134638095Y-116600000D01*
X134733333Y-116552380D01*
X134971428Y-116552380D01*
X135066666Y-116600000D01*
X135114285Y-116647619D01*
X135161904Y-116742857D01*
X135161904Y-116838095D01*
X135114285Y-116980952D01*
X134542857Y-117552380D01*
X135161904Y-117552380D01*
%TO.C,R11*%
X157957142Y-77022380D02*
X157623809Y-76546190D01*
X157385714Y-77022380D02*
X157385714Y-76022380D01*
X157766666Y-76022380D01*
X157861904Y-76070000D01*
X157909523Y-76117619D01*
X157957142Y-76212857D01*
X157957142Y-76355714D01*
X157909523Y-76450952D01*
X157861904Y-76498571D01*
X157766666Y-76546190D01*
X157385714Y-76546190D01*
X158909523Y-77022380D02*
X158338095Y-77022380D01*
X158623809Y-77022380D02*
X158623809Y-76022380D01*
X158528571Y-76165238D01*
X158433333Y-76260476D01*
X158338095Y-76308095D01*
X159861904Y-77022380D02*
X159290476Y-77022380D01*
X159576190Y-77022380D02*
X159576190Y-76022380D01*
X159480952Y-76165238D01*
X159385714Y-76260476D01*
X159290476Y-76308095D01*
%TO.C,R10*%
X131557142Y-79852380D02*
X131223809Y-79376190D01*
X130985714Y-79852380D02*
X130985714Y-78852380D01*
X131366666Y-78852380D01*
X131461904Y-78900000D01*
X131509523Y-78947619D01*
X131557142Y-79042857D01*
X131557142Y-79185714D01*
X131509523Y-79280952D01*
X131461904Y-79328571D01*
X131366666Y-79376190D01*
X130985714Y-79376190D01*
X132509523Y-79852380D02*
X131938095Y-79852380D01*
X132223809Y-79852380D02*
X132223809Y-78852380D01*
X132128571Y-78995238D01*
X132033333Y-79090476D01*
X131938095Y-79138095D01*
X133128571Y-78852380D02*
X133223809Y-78852380D01*
X133319047Y-78900000D01*
X133366666Y-78947619D01*
X133414285Y-79042857D01*
X133461904Y-79233333D01*
X133461904Y-79471428D01*
X133414285Y-79661904D01*
X133366666Y-79757142D01*
X133319047Y-79804761D01*
X133223809Y-79852380D01*
X133128571Y-79852380D01*
X133033333Y-79804761D01*
X132985714Y-79757142D01*
X132938095Y-79661904D01*
X132890476Y-79471428D01*
X132890476Y-79233333D01*
X132938095Y-79042857D01*
X132985714Y-78947619D01*
X133033333Y-78900000D01*
X133128571Y-78852380D01*
%TO.C,R9*%
X132033333Y-76252380D02*
X131700000Y-75776190D01*
X131461904Y-76252380D02*
X131461904Y-75252380D01*
X131842857Y-75252380D01*
X131938095Y-75300000D01*
X131985714Y-75347619D01*
X132033333Y-75442857D01*
X132033333Y-75585714D01*
X131985714Y-75680952D01*
X131938095Y-75728571D01*
X131842857Y-75776190D01*
X131461904Y-75776190D01*
X132509523Y-76252380D02*
X132700000Y-76252380D01*
X132795238Y-76204761D01*
X132842857Y-76157142D01*
X132938095Y-76014285D01*
X132985714Y-75823809D01*
X132985714Y-75442857D01*
X132938095Y-75347619D01*
X132890476Y-75300000D01*
X132795238Y-75252380D01*
X132604761Y-75252380D01*
X132509523Y-75300000D01*
X132461904Y-75347619D01*
X132414285Y-75442857D01*
X132414285Y-75680952D01*
X132461904Y-75776190D01*
X132509523Y-75823809D01*
X132604761Y-75871428D01*
X132795238Y-75871428D01*
X132890476Y-75823809D01*
X132938095Y-75776190D01*
X132985714Y-75680952D01*
%TO.C,R8*%
X132033333Y-77952380D02*
X131700000Y-77476190D01*
X131461904Y-77952380D02*
X131461904Y-76952380D01*
X131842857Y-76952380D01*
X131938095Y-77000000D01*
X131985714Y-77047619D01*
X132033333Y-77142857D01*
X132033333Y-77285714D01*
X131985714Y-77380952D01*
X131938095Y-77428571D01*
X131842857Y-77476190D01*
X131461904Y-77476190D01*
X132604761Y-77380952D02*
X132509523Y-77333333D01*
X132461904Y-77285714D01*
X132414285Y-77190476D01*
X132414285Y-77142857D01*
X132461904Y-77047619D01*
X132509523Y-77000000D01*
X132604761Y-76952380D01*
X132795238Y-76952380D01*
X132890476Y-77000000D01*
X132938095Y-77047619D01*
X132985714Y-77142857D01*
X132985714Y-77190476D01*
X132938095Y-77285714D01*
X132890476Y-77333333D01*
X132795238Y-77380952D01*
X132604761Y-77380952D01*
X132509523Y-77428571D01*
X132461904Y-77476190D01*
X132414285Y-77571428D01*
X132414285Y-77761904D01*
X132461904Y-77857142D01*
X132509523Y-77904761D01*
X132604761Y-77952380D01*
X132795238Y-77952380D01*
X132890476Y-77904761D01*
X132938095Y-77857142D01*
X132985714Y-77761904D01*
X132985714Y-77571428D01*
X132938095Y-77476190D01*
X132890476Y-77428571D01*
X132795238Y-77380952D01*
%TO.C,R7*%
X144233333Y-96852380D02*
X143900000Y-96376190D01*
X143661904Y-96852380D02*
X143661904Y-95852380D01*
X144042857Y-95852380D01*
X144138095Y-95900000D01*
X144185714Y-95947619D01*
X144233333Y-96042857D01*
X144233333Y-96185714D01*
X144185714Y-96280952D01*
X144138095Y-96328571D01*
X144042857Y-96376190D01*
X143661904Y-96376190D01*
X144566666Y-95852380D02*
X145233333Y-95852380D01*
X144804761Y-96852380D01*
%TO.C,R6*%
X153283333Y-115282380D02*
X152950000Y-114806190D01*
X152711904Y-115282380D02*
X152711904Y-114282380D01*
X153092857Y-114282380D01*
X153188095Y-114330000D01*
X153235714Y-114377619D01*
X153283333Y-114472857D01*
X153283333Y-114615714D01*
X153235714Y-114710952D01*
X153188095Y-114758571D01*
X153092857Y-114806190D01*
X152711904Y-114806190D01*
X154140476Y-114282380D02*
X153950000Y-114282380D01*
X153854761Y-114330000D01*
X153807142Y-114377619D01*
X153711904Y-114520476D01*
X153664285Y-114710952D01*
X153664285Y-115091904D01*
X153711904Y-115187142D01*
X153759523Y-115234761D01*
X153854761Y-115282380D01*
X154045238Y-115282380D01*
X154140476Y-115234761D01*
X154188095Y-115187142D01*
X154235714Y-115091904D01*
X154235714Y-114853809D01*
X154188095Y-114758571D01*
X154140476Y-114710952D01*
X154045238Y-114663333D01*
X153854761Y-114663333D01*
X153759523Y-114710952D01*
X153711904Y-114758571D01*
X153664285Y-114853809D01*
%TO.C,R5*%
X162858333Y-91222380D02*
X162525000Y-90746190D01*
X162286904Y-91222380D02*
X162286904Y-90222380D01*
X162667857Y-90222380D01*
X162763095Y-90270000D01*
X162810714Y-90317619D01*
X162858333Y-90412857D01*
X162858333Y-90555714D01*
X162810714Y-90650952D01*
X162763095Y-90698571D01*
X162667857Y-90746190D01*
X162286904Y-90746190D01*
X163763095Y-90222380D02*
X163286904Y-90222380D01*
X163239285Y-90698571D01*
X163286904Y-90650952D01*
X163382142Y-90603333D01*
X163620238Y-90603333D01*
X163715476Y-90650952D01*
X163763095Y-90698571D01*
X163810714Y-90793809D01*
X163810714Y-91031904D01*
X163763095Y-91127142D01*
X163715476Y-91174761D01*
X163620238Y-91222380D01*
X163382142Y-91222380D01*
X163286904Y-91174761D01*
X163239285Y-91127142D01*
%TO.C,R4*%
X159808333Y-91152380D02*
X159475000Y-90676190D01*
X159236904Y-91152380D02*
X159236904Y-90152380D01*
X159617857Y-90152380D01*
X159713095Y-90200000D01*
X159760714Y-90247619D01*
X159808333Y-90342857D01*
X159808333Y-90485714D01*
X159760714Y-90580952D01*
X159713095Y-90628571D01*
X159617857Y-90676190D01*
X159236904Y-90676190D01*
X160665476Y-90485714D02*
X160665476Y-91152380D01*
X160427380Y-90104761D02*
X160189285Y-90819047D01*
X160808333Y-90819047D01*
%TO.C,R3*%
X156533333Y-115452380D02*
X156200000Y-114976190D01*
X155961904Y-115452380D02*
X155961904Y-114452380D01*
X156342857Y-114452380D01*
X156438095Y-114500000D01*
X156485714Y-114547619D01*
X156533333Y-114642857D01*
X156533333Y-114785714D01*
X156485714Y-114880952D01*
X156438095Y-114928571D01*
X156342857Y-114976190D01*
X155961904Y-114976190D01*
X156866666Y-114452380D02*
X157485714Y-114452380D01*
X157152380Y-114833333D01*
X157295238Y-114833333D01*
X157390476Y-114880952D01*
X157438095Y-114928571D01*
X157485714Y-115023809D01*
X157485714Y-115261904D01*
X157438095Y-115357142D01*
X157390476Y-115404761D01*
X157295238Y-115452380D01*
X157009523Y-115452380D01*
X156914285Y-115404761D01*
X156866666Y-115357142D01*
%TO.C,R2*%
X139152380Y-90766666D02*
X138676190Y-91100000D01*
X139152380Y-91338095D02*
X138152380Y-91338095D01*
X138152380Y-90957142D01*
X138200000Y-90861904D01*
X138247619Y-90814285D01*
X138342857Y-90766666D01*
X138485714Y-90766666D01*
X138580952Y-90814285D01*
X138628571Y-90861904D01*
X138676190Y-90957142D01*
X138676190Y-91338095D01*
X138247619Y-90385714D02*
X138200000Y-90338095D01*
X138152380Y-90242857D01*
X138152380Y-90004761D01*
X138200000Y-89909523D01*
X138247619Y-89861904D01*
X138342857Y-89814285D01*
X138438095Y-89814285D01*
X138580952Y-89861904D01*
X139152380Y-90433333D01*
X139152380Y-89814285D01*
%TO.C,R1*%
X139052380Y-86866666D02*
X138576190Y-87200000D01*
X139052380Y-87438095D02*
X138052380Y-87438095D01*
X138052380Y-87057142D01*
X138100000Y-86961904D01*
X138147619Y-86914285D01*
X138242857Y-86866666D01*
X138385714Y-86866666D01*
X138480952Y-86914285D01*
X138528571Y-86961904D01*
X138576190Y-87057142D01*
X138576190Y-87438095D01*
X139052380Y-85914285D02*
X139052380Y-86485714D01*
X139052380Y-86200000D02*
X138052380Y-86200000D01*
X138195238Y-86295238D01*
X138290476Y-86390476D01*
X138338095Y-86485714D01*
%TO.C,Q6*%
X155104761Y-76547619D02*
X155009523Y-76500000D01*
X154914285Y-76404761D01*
X154771428Y-76261904D01*
X154676190Y-76214285D01*
X154580952Y-76214285D01*
X154628571Y-76452380D02*
X154533333Y-76404761D01*
X154438095Y-76309523D01*
X154390476Y-76119047D01*
X154390476Y-75785714D01*
X154438095Y-75595238D01*
X154533333Y-75500000D01*
X154628571Y-75452380D01*
X154819047Y-75452380D01*
X154914285Y-75500000D01*
X155009523Y-75595238D01*
X155057142Y-75785714D01*
X155057142Y-76119047D01*
X155009523Y-76309523D01*
X154914285Y-76404761D01*
X154819047Y-76452380D01*
X154628571Y-76452380D01*
X155914285Y-75452380D02*
X155723809Y-75452380D01*
X155628571Y-75500000D01*
X155580952Y-75547619D01*
X155485714Y-75690476D01*
X155438095Y-75880952D01*
X155438095Y-76261904D01*
X155485714Y-76357142D01*
X155533333Y-76404761D01*
X155628571Y-76452380D01*
X155819047Y-76452380D01*
X155914285Y-76404761D01*
X155961904Y-76357142D01*
X156009523Y-76261904D01*
X156009523Y-76023809D01*
X155961904Y-75928571D01*
X155914285Y-75880952D01*
X155819047Y-75833333D01*
X155628571Y-75833333D01*
X155533333Y-75880952D01*
X155485714Y-75928571D01*
X155438095Y-76023809D01*
%TO.C,Q5*%
X155104761Y-80447619D02*
X155009523Y-80400000D01*
X154914285Y-80304761D01*
X154771428Y-80161904D01*
X154676190Y-80114285D01*
X154580952Y-80114285D01*
X154628571Y-80352380D02*
X154533333Y-80304761D01*
X154438095Y-80209523D01*
X154390476Y-80019047D01*
X154390476Y-79685714D01*
X154438095Y-79495238D01*
X154533333Y-79400000D01*
X154628571Y-79352380D01*
X154819047Y-79352380D01*
X154914285Y-79400000D01*
X155009523Y-79495238D01*
X155057142Y-79685714D01*
X155057142Y-80019047D01*
X155009523Y-80209523D01*
X154914285Y-80304761D01*
X154819047Y-80352380D01*
X154628571Y-80352380D01*
X155961904Y-79352380D02*
X155485714Y-79352380D01*
X155438095Y-79828571D01*
X155485714Y-79780952D01*
X155580952Y-79733333D01*
X155819047Y-79733333D01*
X155914285Y-79780952D01*
X155961904Y-79828571D01*
X156009523Y-79923809D01*
X156009523Y-80161904D01*
X155961904Y-80257142D01*
X155914285Y-80304761D01*
X155819047Y-80352380D01*
X155580952Y-80352380D01*
X155485714Y-80304761D01*
X155438095Y-80257142D01*
%TO.C,Q4*%
X138104761Y-99647619D02*
X138009523Y-99600000D01*
X137914285Y-99504761D01*
X137771428Y-99361904D01*
X137676190Y-99314285D01*
X137580952Y-99314285D01*
X137628571Y-99552380D02*
X137533333Y-99504761D01*
X137438095Y-99409523D01*
X137390476Y-99219047D01*
X137390476Y-98885714D01*
X137438095Y-98695238D01*
X137533333Y-98600000D01*
X137628571Y-98552380D01*
X137819047Y-98552380D01*
X137914285Y-98600000D01*
X138009523Y-98695238D01*
X138057142Y-98885714D01*
X138057142Y-99219047D01*
X138009523Y-99409523D01*
X137914285Y-99504761D01*
X137819047Y-99552380D01*
X137628571Y-99552380D01*
X138914285Y-98885714D02*
X138914285Y-99552380D01*
X138676190Y-98504761D02*
X138438095Y-99219047D01*
X139057142Y-99219047D01*
%TO.C,Q3*%
X138604761Y-108447619D02*
X138509523Y-108400000D01*
X138414285Y-108304761D01*
X138271428Y-108161904D01*
X138176190Y-108114285D01*
X138080952Y-108114285D01*
X138128571Y-108352380D02*
X138033333Y-108304761D01*
X137938095Y-108209523D01*
X137890476Y-108019047D01*
X137890476Y-107685714D01*
X137938095Y-107495238D01*
X138033333Y-107400000D01*
X138128571Y-107352380D01*
X138319047Y-107352380D01*
X138414285Y-107400000D01*
X138509523Y-107495238D01*
X138557142Y-107685714D01*
X138557142Y-108019047D01*
X138509523Y-108209523D01*
X138414285Y-108304761D01*
X138319047Y-108352380D01*
X138128571Y-108352380D01*
X138890476Y-107352380D02*
X139509523Y-107352380D01*
X139176190Y-107733333D01*
X139319047Y-107733333D01*
X139414285Y-107780952D01*
X139461904Y-107828571D01*
X139509523Y-107923809D01*
X139509523Y-108161904D01*
X139461904Y-108257142D01*
X139414285Y-108304761D01*
X139319047Y-108352380D01*
X139033333Y-108352380D01*
X138938095Y-108304761D01*
X138890476Y-108257142D01*
%TO.C,Q2*%
X144404761Y-86147619D02*
X144309523Y-86100000D01*
X144214285Y-86004761D01*
X144071428Y-85861904D01*
X143976190Y-85814285D01*
X143880952Y-85814285D01*
X143928571Y-86052380D02*
X143833333Y-86004761D01*
X143738095Y-85909523D01*
X143690476Y-85719047D01*
X143690476Y-85385714D01*
X143738095Y-85195238D01*
X143833333Y-85100000D01*
X143928571Y-85052380D01*
X144119047Y-85052380D01*
X144214285Y-85100000D01*
X144309523Y-85195238D01*
X144357142Y-85385714D01*
X144357142Y-85719047D01*
X144309523Y-85909523D01*
X144214285Y-86004761D01*
X144119047Y-86052380D01*
X143928571Y-86052380D01*
X144738095Y-85147619D02*
X144785714Y-85100000D01*
X144880952Y-85052380D01*
X145119047Y-85052380D01*
X145214285Y-85100000D01*
X145261904Y-85147619D01*
X145309523Y-85242857D01*
X145309523Y-85338095D01*
X145261904Y-85480952D01*
X144690476Y-86052380D01*
X145309523Y-86052380D01*
%TO.C,Q1*%
X144404761Y-90047619D02*
X144309523Y-90000000D01*
X144214285Y-89904761D01*
X144071428Y-89761904D01*
X143976190Y-89714285D01*
X143880952Y-89714285D01*
X143928571Y-89952380D02*
X143833333Y-89904761D01*
X143738095Y-89809523D01*
X143690476Y-89619047D01*
X143690476Y-89285714D01*
X143738095Y-89095238D01*
X143833333Y-89000000D01*
X143928571Y-88952380D01*
X144119047Y-88952380D01*
X144214285Y-89000000D01*
X144309523Y-89095238D01*
X144357142Y-89285714D01*
X144357142Y-89619047D01*
X144309523Y-89809523D01*
X144214285Y-89904761D01*
X144119047Y-89952380D01*
X143928571Y-89952380D01*
X145309523Y-89952380D02*
X144738095Y-89952380D01*
X145023809Y-89952380D02*
X145023809Y-88952380D01*
X144928571Y-89095238D01*
X144833333Y-89190476D01*
X144738095Y-89238095D01*
%TO.C,J1*%
X121752380Y-88733333D02*
X122466666Y-88733333D01*
X122609523Y-88780952D01*
X122704761Y-88876190D01*
X122752380Y-89019047D01*
X122752380Y-89114285D01*
X122752380Y-87733333D02*
X122752380Y-88304761D01*
X122752380Y-88019047D02*
X121752380Y-88019047D01*
X121895238Y-88114285D01*
X121990476Y-88209523D01*
X122038095Y-88304761D01*
%TO.C,D6*%
X128557142Y-81071428D02*
X128557142Y-80471428D01*
X128700000Y-80471428D01*
X128785714Y-80500000D01*
X128842857Y-80557142D01*
X128871428Y-80614285D01*
X128900000Y-80728571D01*
X128900000Y-80814285D01*
X128871428Y-80928571D01*
X128842857Y-80985714D01*
X128785714Y-81042857D01*
X128700000Y-81071428D01*
X128557142Y-81071428D01*
X129414285Y-80471428D02*
X129300000Y-80471428D01*
X129242857Y-80500000D01*
X129214285Y-80528571D01*
X129157142Y-80614285D01*
X129128571Y-80728571D01*
X129128571Y-80957142D01*
X129157142Y-81014285D01*
X129185714Y-81042857D01*
X129242857Y-81071428D01*
X129357142Y-81071428D01*
X129414285Y-81042857D01*
X129442857Y-81014285D01*
X129471428Y-80957142D01*
X129471428Y-80814285D01*
X129442857Y-80757142D01*
X129414285Y-80728571D01*
X129357142Y-80700000D01*
X129242857Y-80700000D01*
X129185714Y-80728571D01*
X129157142Y-80757142D01*
X129128571Y-80814285D01*
%TO.C,D5*%
X128557142Y-77671428D02*
X128557142Y-77071428D01*
X128700000Y-77071428D01*
X128785714Y-77100000D01*
X128842857Y-77157142D01*
X128871428Y-77214285D01*
X128900000Y-77328571D01*
X128900000Y-77414285D01*
X128871428Y-77528571D01*
X128842857Y-77585714D01*
X128785714Y-77642857D01*
X128700000Y-77671428D01*
X128557142Y-77671428D01*
X129442857Y-77071428D02*
X129157142Y-77071428D01*
X129128571Y-77357142D01*
X129157142Y-77328571D01*
X129214285Y-77300000D01*
X129357142Y-77300000D01*
X129414285Y-77328571D01*
X129442857Y-77357142D01*
X129471428Y-77414285D01*
X129471428Y-77557142D01*
X129442857Y-77614285D01*
X129414285Y-77642857D01*
X129357142Y-77671428D01*
X129214285Y-77671428D01*
X129157142Y-77642857D01*
X129128571Y-77614285D01*
%TO.C,D4*%
X126261904Y-106852380D02*
X126261904Y-105852380D01*
X126500000Y-105852380D01*
X126642857Y-105900000D01*
X126738095Y-105995238D01*
X126785714Y-106090476D01*
X126833333Y-106280952D01*
X126833333Y-106423809D01*
X126785714Y-106614285D01*
X126738095Y-106709523D01*
X126642857Y-106804761D01*
X126500000Y-106852380D01*
X126261904Y-106852380D01*
X127690476Y-106185714D02*
X127690476Y-106852380D01*
X127452380Y-105804761D02*
X127214285Y-106519047D01*
X127833333Y-106519047D01*
%TO.C,D3*%
X132052380Y-84138095D02*
X131052380Y-84138095D01*
X131052380Y-83900000D01*
X131100000Y-83757142D01*
X131195238Y-83661904D01*
X131290476Y-83614285D01*
X131480952Y-83566666D01*
X131623809Y-83566666D01*
X131814285Y-83614285D01*
X131909523Y-83661904D01*
X132004761Y-83757142D01*
X132052380Y-83900000D01*
X132052380Y-84138095D01*
X131052380Y-83233333D02*
X131052380Y-82614285D01*
X131433333Y-82947619D01*
X131433333Y-82804761D01*
X131480952Y-82709523D01*
X131528571Y-82661904D01*
X131623809Y-82614285D01*
X131861904Y-82614285D01*
X131957142Y-82661904D01*
X132004761Y-82709523D01*
X132052380Y-82804761D01*
X132052380Y-83090476D01*
X132004761Y-83185714D01*
X131957142Y-83233333D01*
%TO.C,D2*%
X124861904Y-98652380D02*
X124861904Y-97652380D01*
X125100000Y-97652380D01*
X125242857Y-97700000D01*
X125338095Y-97795238D01*
X125385714Y-97890476D01*
X125433333Y-98080952D01*
X125433333Y-98223809D01*
X125385714Y-98414285D01*
X125338095Y-98509523D01*
X125242857Y-98604761D01*
X125100000Y-98652380D01*
X124861904Y-98652380D01*
X125814285Y-97747619D02*
X125861904Y-97700000D01*
X125957142Y-97652380D01*
X126195238Y-97652380D01*
X126290476Y-97700000D01*
X126338095Y-97747619D01*
X126385714Y-97842857D01*
X126385714Y-97938095D01*
X126338095Y-98080952D01*
X125766666Y-98652380D01*
X126385714Y-98652380D01*
%TO.C,C9*%
X123650000Y-78014285D02*
X123621428Y-78042857D01*
X123535714Y-78071428D01*
X123478571Y-78071428D01*
X123392857Y-78042857D01*
X123335714Y-77985714D01*
X123307142Y-77928571D01*
X123278571Y-77814285D01*
X123278571Y-77728571D01*
X123307142Y-77614285D01*
X123335714Y-77557142D01*
X123392857Y-77500000D01*
X123478571Y-77471428D01*
X123535714Y-77471428D01*
X123621428Y-77500000D01*
X123650000Y-77528571D01*
X123935714Y-78071428D02*
X124050000Y-78071428D01*
X124107142Y-78042857D01*
X124135714Y-78014285D01*
X124192857Y-77928571D01*
X124221428Y-77814285D01*
X124221428Y-77585714D01*
X124192857Y-77528571D01*
X124164285Y-77500000D01*
X124107142Y-77471428D01*
X123992857Y-77471428D01*
X123935714Y-77500000D01*
X123907142Y-77528571D01*
X123878571Y-77585714D01*
X123878571Y-77728571D01*
X123907142Y-77785714D01*
X123935714Y-77814285D01*
X123992857Y-77842857D01*
X124107142Y-77842857D01*
X124164285Y-77814285D01*
X124192857Y-77785714D01*
X124221428Y-77728571D01*
%TO.C,C8*%
X138457142Y-97166666D02*
X138504761Y-97214285D01*
X138552380Y-97357142D01*
X138552380Y-97452380D01*
X138504761Y-97595238D01*
X138409523Y-97690476D01*
X138314285Y-97738095D01*
X138123809Y-97785714D01*
X137980952Y-97785714D01*
X137790476Y-97738095D01*
X137695238Y-97690476D01*
X137600000Y-97595238D01*
X137552380Y-97452380D01*
X137552380Y-97357142D01*
X137600000Y-97214285D01*
X137647619Y-97166666D01*
X137980952Y-96595238D02*
X137933333Y-96690476D01*
X137885714Y-96738095D01*
X137790476Y-96785714D01*
X137742857Y-96785714D01*
X137647619Y-96738095D01*
X137600000Y-96690476D01*
X137552380Y-96595238D01*
X137552380Y-96404761D01*
X137600000Y-96309523D01*
X137647619Y-96261904D01*
X137742857Y-96214285D01*
X137790476Y-96214285D01*
X137885714Y-96261904D01*
X137933333Y-96309523D01*
X137980952Y-96404761D01*
X137980952Y-96595238D01*
X138028571Y-96690476D01*
X138076190Y-96738095D01*
X138171428Y-96785714D01*
X138361904Y-96785714D01*
X138457142Y-96738095D01*
X138504761Y-96690476D01*
X138552380Y-96595238D01*
X138552380Y-96404761D01*
X138504761Y-96309523D01*
X138457142Y-96261904D01*
X138361904Y-96214285D01*
X138171428Y-96214285D01*
X138076190Y-96261904D01*
X138028571Y-96309523D01*
X137980952Y-96404761D01*
%TO.C,C7*%
X125333333Y-100257142D02*
X125285714Y-100304761D01*
X125142857Y-100352380D01*
X125047619Y-100352380D01*
X124904761Y-100304761D01*
X124809523Y-100209523D01*
X124761904Y-100114285D01*
X124714285Y-99923809D01*
X124714285Y-99780952D01*
X124761904Y-99590476D01*
X124809523Y-99495238D01*
X124904761Y-99400000D01*
X125047619Y-99352380D01*
X125142857Y-99352380D01*
X125285714Y-99400000D01*
X125333333Y-99447619D01*
X125666666Y-99352380D02*
X126333333Y-99352380D01*
X125904761Y-100352380D01*
%TO.C,C6*%
X143857142Y-82966666D02*
X143904761Y-83014285D01*
X143952380Y-83157142D01*
X143952380Y-83252380D01*
X143904761Y-83395238D01*
X143809523Y-83490476D01*
X143714285Y-83538095D01*
X143523809Y-83585714D01*
X143380952Y-83585714D01*
X143190476Y-83538095D01*
X143095238Y-83490476D01*
X143000000Y-83395238D01*
X142952380Y-83252380D01*
X142952380Y-83157142D01*
X143000000Y-83014285D01*
X143047619Y-82966666D01*
X142952380Y-82109523D02*
X142952380Y-82300000D01*
X143000000Y-82395238D01*
X143047619Y-82442857D01*
X143190476Y-82538095D01*
X143380952Y-82585714D01*
X143761904Y-82585714D01*
X143857142Y-82538095D01*
X143904761Y-82490476D01*
X143952380Y-82395238D01*
X143952380Y-82204761D01*
X143904761Y-82109523D01*
X143857142Y-82061904D01*
X143761904Y-82014285D01*
X143523809Y-82014285D01*
X143428571Y-82061904D01*
X143380952Y-82109523D01*
X143333333Y-82204761D01*
X143333333Y-82395238D01*
X143380952Y-82490476D01*
X143428571Y-82538095D01*
X143523809Y-82585714D01*
%TO.C,C5*%
X138757142Y-83066666D02*
X138804761Y-83114285D01*
X138852380Y-83257142D01*
X138852380Y-83352380D01*
X138804761Y-83495238D01*
X138709523Y-83590476D01*
X138614285Y-83638095D01*
X138423809Y-83685714D01*
X138280952Y-83685714D01*
X138090476Y-83638095D01*
X137995238Y-83590476D01*
X137900000Y-83495238D01*
X137852380Y-83352380D01*
X137852380Y-83257142D01*
X137900000Y-83114285D01*
X137947619Y-83066666D01*
X137852380Y-82161904D02*
X137852380Y-82638095D01*
X138328571Y-82685714D01*
X138280952Y-82638095D01*
X138233333Y-82542857D01*
X138233333Y-82304761D01*
X138280952Y-82209523D01*
X138328571Y-82161904D01*
X138423809Y-82114285D01*
X138661904Y-82114285D01*
X138757142Y-82161904D01*
X138804761Y-82209523D01*
X138852380Y-82304761D01*
X138852380Y-82542857D01*
X138804761Y-82638095D01*
X138757142Y-82685714D01*
%TO.C,C4*%
X135433333Y-76957142D02*
X135385714Y-77004761D01*
X135242857Y-77052380D01*
X135147619Y-77052380D01*
X135004761Y-77004761D01*
X134909523Y-76909523D01*
X134861904Y-76814285D01*
X134814285Y-76623809D01*
X134814285Y-76480952D01*
X134861904Y-76290476D01*
X134909523Y-76195238D01*
X135004761Y-76100000D01*
X135147619Y-76052380D01*
X135242857Y-76052380D01*
X135385714Y-76100000D01*
X135433333Y-76147619D01*
X136290476Y-76385714D02*
X136290476Y-77052380D01*
X136052380Y-76004761D02*
X135814285Y-76719047D01*
X136433333Y-76719047D01*
%TO.C,C3*%
X135433333Y-78857142D02*
X135385714Y-78904761D01*
X135242857Y-78952380D01*
X135147619Y-78952380D01*
X135004761Y-78904761D01*
X134909523Y-78809523D01*
X134861904Y-78714285D01*
X134814285Y-78523809D01*
X134814285Y-78380952D01*
X134861904Y-78190476D01*
X134909523Y-78095238D01*
X135004761Y-78000000D01*
X135147619Y-77952380D01*
X135242857Y-77952380D01*
X135385714Y-78000000D01*
X135433333Y-78047619D01*
X135766666Y-77952380D02*
X136385714Y-77952380D01*
X136052380Y-78333333D01*
X136195238Y-78333333D01*
X136290476Y-78380952D01*
X136338095Y-78428571D01*
X136385714Y-78523809D01*
X136385714Y-78761904D01*
X136338095Y-78857142D01*
X136290476Y-78904761D01*
X136195238Y-78952380D01*
X135909523Y-78952380D01*
X135814285Y-78904761D01*
X135766666Y-78857142D01*
%TO.C,C2*%
X150733333Y-92757142D02*
X150685714Y-92804761D01*
X150542857Y-92852380D01*
X150447619Y-92852380D01*
X150304761Y-92804761D01*
X150209523Y-92709523D01*
X150161904Y-92614285D01*
X150114285Y-92423809D01*
X150114285Y-92280952D01*
X150161904Y-92090476D01*
X150209523Y-91995238D01*
X150304761Y-91900000D01*
X150447619Y-91852380D01*
X150542857Y-91852380D01*
X150685714Y-91900000D01*
X150733333Y-91947619D01*
X151114285Y-91947619D02*
X151161904Y-91900000D01*
X151257142Y-91852380D01*
X151495238Y-91852380D01*
X151590476Y-91900000D01*
X151638095Y-91947619D01*
X151685714Y-92042857D01*
X151685714Y-92138095D01*
X151638095Y-92280952D01*
X151066666Y-92852380D01*
X151685714Y-92852380D01*
%TO.C,C1*%
X150733333Y-90657142D02*
X150685714Y-90704761D01*
X150542857Y-90752380D01*
X150447619Y-90752380D01*
X150304761Y-90704761D01*
X150209523Y-90609523D01*
X150161904Y-90514285D01*
X150114285Y-90323809D01*
X150114285Y-90180952D01*
X150161904Y-89990476D01*
X150209523Y-89895238D01*
X150304761Y-89800000D01*
X150447619Y-89752380D01*
X150542857Y-89752380D01*
X150685714Y-89800000D01*
X150733333Y-89847619D01*
X151685714Y-90752380D02*
X151114285Y-90752380D01*
X151400000Y-90752380D02*
X151400000Y-89752380D01*
X151304761Y-89895238D01*
X151209523Y-89990476D01*
X151114285Y-90038095D01*
%TD*%
M02*
